%TF.GenerationSoftware,KiCad,Pcbnew,9.0.6*%
%TF.CreationDate,2025-12-06T20:50:46-05:00*%
%TF.ProjectId,frameortho,6672616d-656f-4727-9468-6f2e6b696361,rev?*%
%TF.SameCoordinates,Original*%
%TF.FileFunction,Legend,Bot*%
%TF.FilePolarity,Positive*%
%FSLAX46Y46*%
G04 Gerber Fmt 4.6, Leading zero omitted, Abs format (unit mm)*
G04 Created by KiCad (PCBNEW 9.0.6) date 2025-12-06 20:50:46*
%MOMM*%
%LPD*%
G01*
G04 APERTURE LIST*
%ADD10C,0.150000*%
%ADD11C,0.120000*%
%ADD12C,2.000000*%
%ADD13C,2.600000*%
%ADD14C,3.800000*%
G04 APERTURE END LIST*
D10*
X215218870Y-86102819D02*
X215218870Y-85102819D01*
X215218870Y-85102819D02*
X214980775Y-85102819D01*
X214980775Y-85102819D02*
X214837918Y-85150438D01*
X214837918Y-85150438D02*
X214742680Y-85245676D01*
X214742680Y-85245676D02*
X214695061Y-85340914D01*
X214695061Y-85340914D02*
X214647442Y-85531390D01*
X214647442Y-85531390D02*
X214647442Y-85674247D01*
X214647442Y-85674247D02*
X214695061Y-85864723D01*
X214695061Y-85864723D02*
X214742680Y-85959961D01*
X214742680Y-85959961D02*
X214837918Y-86055200D01*
X214837918Y-86055200D02*
X214980775Y-86102819D01*
X214980775Y-86102819D02*
X215218870Y-86102819D01*
X214218870Y-85721866D02*
X213456966Y-85721866D01*
X218591590Y-85102819D02*
X219067780Y-85102819D01*
X219067780Y-85102819D02*
X219115399Y-85579009D01*
X219115399Y-85579009D02*
X219067780Y-85531390D01*
X219067780Y-85531390D02*
X218972542Y-85483771D01*
X218972542Y-85483771D02*
X218734447Y-85483771D01*
X218734447Y-85483771D02*
X218639209Y-85531390D01*
X218639209Y-85531390D02*
X218591590Y-85579009D01*
X218591590Y-85579009D02*
X218543971Y-85674247D01*
X218543971Y-85674247D02*
X218543971Y-85912342D01*
X218543971Y-85912342D02*
X218591590Y-86007580D01*
X218591590Y-86007580D02*
X218639209Y-86055200D01*
X218639209Y-86055200D02*
X218734447Y-86102819D01*
X218734447Y-86102819D02*
X218972542Y-86102819D01*
X218972542Y-86102819D02*
X219067780Y-86055200D01*
X219067780Y-86055200D02*
X219115399Y-86007580D01*
X218258256Y-85102819D02*
X217924923Y-86102819D01*
X217924923Y-86102819D02*
X217591590Y-85102819D01*
X207013020Y-85150438D02*
X207108258Y-85102819D01*
X207108258Y-85102819D02*
X207251115Y-85102819D01*
X207251115Y-85102819D02*
X207393972Y-85150438D01*
X207393972Y-85150438D02*
X207489210Y-85245676D01*
X207489210Y-85245676D02*
X207536829Y-85340914D01*
X207536829Y-85340914D02*
X207584448Y-85531390D01*
X207584448Y-85531390D02*
X207584448Y-85674247D01*
X207584448Y-85674247D02*
X207536829Y-85864723D01*
X207536829Y-85864723D02*
X207489210Y-85959961D01*
X207489210Y-85959961D02*
X207393972Y-86055200D01*
X207393972Y-86055200D02*
X207251115Y-86102819D01*
X207251115Y-86102819D02*
X207155877Y-86102819D01*
X207155877Y-86102819D02*
X207013020Y-86055200D01*
X207013020Y-86055200D02*
X206965401Y-86007580D01*
X206965401Y-86007580D02*
X206965401Y-85674247D01*
X206965401Y-85674247D02*
X207155877Y-85674247D01*
X206536829Y-86102819D02*
X206536829Y-85102819D01*
X206536829Y-85102819D02*
X205965401Y-86102819D01*
X205965401Y-86102819D02*
X205965401Y-85102819D01*
X205489210Y-86102819D02*
X205489210Y-85102819D01*
X205489210Y-85102819D02*
X205251115Y-85102819D01*
X205251115Y-85102819D02*
X205108258Y-85150438D01*
X205108258Y-85150438D02*
X205013020Y-85245676D01*
X205013020Y-85245676D02*
X204965401Y-85340914D01*
X204965401Y-85340914D02*
X204917782Y-85531390D01*
X204917782Y-85531390D02*
X204917782Y-85674247D01*
X204917782Y-85674247D02*
X204965401Y-85864723D01*
X204965401Y-85864723D02*
X205013020Y-85959961D01*
X205013020Y-85959961D02*
X205108258Y-86055200D01*
X205108258Y-86055200D02*
X205251115Y-86102819D01*
X205251115Y-86102819D02*
X205489210Y-86102819D01*
X211168869Y-86102819D02*
X211168869Y-85102819D01*
X211168869Y-85102819D02*
X210930774Y-85102819D01*
X210930774Y-85102819D02*
X210787917Y-85150438D01*
X210787917Y-85150438D02*
X210692679Y-85245676D01*
X210692679Y-85245676D02*
X210645060Y-85340914D01*
X210645060Y-85340914D02*
X210597441Y-85531390D01*
X210597441Y-85531390D02*
X210597441Y-85674247D01*
X210597441Y-85674247D02*
X210645060Y-85864723D01*
X210645060Y-85864723D02*
X210692679Y-85959961D01*
X210692679Y-85959961D02*
X210787917Y-86055200D01*
X210787917Y-86055200D02*
X210930774Y-86102819D01*
X210930774Y-86102819D02*
X211168869Y-86102819D01*
X210168869Y-85721866D02*
X209406965Y-85721866D01*
X209787917Y-86102819D02*
X209787917Y-85340914D01*
X109777506Y-183389819D02*
X109777506Y-184104104D01*
X109777506Y-184104104D02*
X109825125Y-184246961D01*
X109825125Y-184246961D02*
X109920363Y-184342200D01*
X109920363Y-184342200D02*
X110063220Y-184389819D01*
X110063220Y-184389819D02*
X110158458Y-184389819D01*
X108825125Y-184389819D02*
X109301315Y-184389819D01*
X109301315Y-184389819D02*
X109301315Y-183389819D01*
X107920363Y-184294580D02*
X107967982Y-184342200D01*
X107967982Y-184342200D02*
X108110839Y-184389819D01*
X108110839Y-184389819D02*
X108206077Y-184389819D01*
X108206077Y-184389819D02*
X108348934Y-184342200D01*
X108348934Y-184342200D02*
X108444172Y-184246961D01*
X108444172Y-184246961D02*
X108491791Y-184151723D01*
X108491791Y-184151723D02*
X108539410Y-183961247D01*
X108539410Y-183961247D02*
X108539410Y-183818390D01*
X108539410Y-183818390D02*
X108491791Y-183627914D01*
X108491791Y-183627914D02*
X108444172Y-183532676D01*
X108444172Y-183532676D02*
X108348934Y-183437438D01*
X108348934Y-183437438D02*
X108206077Y-183389819D01*
X108206077Y-183389819D02*
X108110839Y-183389819D01*
X108110839Y-183389819D02*
X107967982Y-183437438D01*
X107967982Y-183437438D02*
X107920363Y-183485057D01*
X107206077Y-183389819D02*
X107206077Y-184104104D01*
X107206077Y-184104104D02*
X107253696Y-184246961D01*
X107253696Y-184246961D02*
X107348934Y-184342200D01*
X107348934Y-184342200D02*
X107491791Y-184389819D01*
X107491791Y-184389819D02*
X107587029Y-184389819D01*
X106253696Y-184389819D02*
X106729886Y-184389819D01*
X106729886Y-184389819D02*
X106729886Y-183389819D01*
X105348934Y-184294580D02*
X105396553Y-184342200D01*
X105396553Y-184342200D02*
X105539410Y-184389819D01*
X105539410Y-184389819D02*
X105634648Y-184389819D01*
X105634648Y-184389819D02*
X105777505Y-184342200D01*
X105777505Y-184342200D02*
X105872743Y-184246961D01*
X105872743Y-184246961D02*
X105920362Y-184151723D01*
X105920362Y-184151723D02*
X105967981Y-183961247D01*
X105967981Y-183961247D02*
X105967981Y-183818390D01*
X105967981Y-183818390D02*
X105920362Y-183627914D01*
X105920362Y-183627914D02*
X105872743Y-183532676D01*
X105872743Y-183532676D02*
X105777505Y-183437438D01*
X105777505Y-183437438D02*
X105634648Y-183389819D01*
X105634648Y-183389819D02*
X105539410Y-183389819D01*
X105539410Y-183389819D02*
X105396553Y-183437438D01*
X105396553Y-183437438D02*
X105348934Y-183485057D01*
X104634648Y-183389819D02*
X104634648Y-184104104D01*
X104634648Y-184104104D02*
X104682267Y-184246961D01*
X104682267Y-184246961D02*
X104777505Y-184342200D01*
X104777505Y-184342200D02*
X104920362Y-184389819D01*
X104920362Y-184389819D02*
X105015600Y-184389819D01*
X103682267Y-184389819D02*
X104158457Y-184389819D01*
X104158457Y-184389819D02*
X104158457Y-183389819D01*
X102777505Y-184294580D02*
X102825124Y-184342200D01*
X102825124Y-184342200D02*
X102967981Y-184389819D01*
X102967981Y-184389819D02*
X103063219Y-184389819D01*
X103063219Y-184389819D02*
X103206076Y-184342200D01*
X103206076Y-184342200D02*
X103301314Y-184246961D01*
X103301314Y-184246961D02*
X103348933Y-184151723D01*
X103348933Y-184151723D02*
X103396552Y-183961247D01*
X103396552Y-183961247D02*
X103396552Y-183818390D01*
X103396552Y-183818390D02*
X103348933Y-183627914D01*
X103348933Y-183627914D02*
X103301314Y-183532676D01*
X103301314Y-183532676D02*
X103206076Y-183437438D01*
X103206076Y-183437438D02*
X103063219Y-183389819D01*
X103063219Y-183389819D02*
X102967981Y-183389819D01*
X102967981Y-183389819D02*
X102825124Y-183437438D01*
X102825124Y-183437438D02*
X102777505Y-183485057D01*
X102063219Y-183389819D02*
X102063219Y-184104104D01*
X102063219Y-184104104D02*
X102110838Y-184246961D01*
X102110838Y-184246961D02*
X102206076Y-184342200D01*
X102206076Y-184342200D02*
X102348933Y-184389819D01*
X102348933Y-184389819D02*
X102444171Y-184389819D01*
X101110838Y-184389819D02*
X101587028Y-184389819D01*
X101587028Y-184389819D02*
X101587028Y-183389819D01*
X100206076Y-184294580D02*
X100253695Y-184342200D01*
X100253695Y-184342200D02*
X100396552Y-184389819D01*
X100396552Y-184389819D02*
X100491790Y-184389819D01*
X100491790Y-184389819D02*
X100634647Y-184342200D01*
X100634647Y-184342200D02*
X100729885Y-184246961D01*
X100729885Y-184246961D02*
X100777504Y-184151723D01*
X100777504Y-184151723D02*
X100825123Y-183961247D01*
X100825123Y-183961247D02*
X100825123Y-183818390D01*
X100825123Y-183818390D02*
X100777504Y-183627914D01*
X100777504Y-183627914D02*
X100729885Y-183532676D01*
X100729885Y-183532676D02*
X100634647Y-183437438D01*
X100634647Y-183437438D02*
X100491790Y-183389819D01*
X100491790Y-183389819D02*
X100396552Y-183389819D01*
X100396552Y-183389819D02*
X100253695Y-183437438D01*
X100253695Y-183437438D02*
X100206076Y-183485057D01*
D11*
%TO.C,TP20*%
X207424799Y-83190000D02*
G75*
G02*
X205024799Y-83190000I-1200000J0D01*
G01*
X205024799Y-83190000D02*
G75*
G02*
X207424799Y-83190000I1200000J0D01*
G01*
%TO.C,TP18*%
X211461601Y-83180000D02*
G75*
G02*
X209061601Y-83180000I-1200000J0D01*
G01*
X209061601Y-83180000D02*
G75*
G02*
X211461601Y-83180000I1200000J0D01*
G01*
%TO.C,TP17*%
X219574798Y-83190000D02*
G75*
G02*
X217174798Y-83190000I-1200000J0D01*
G01*
X217174798Y-83190000D02*
G75*
G02*
X219574798Y-83190000I1200000J0D01*
G01*
%TO.C,TP19*%
X215511602Y-83180000D02*
G75*
G02*
X213111602Y-83180000I-1200000J0D01*
G01*
X213111602Y-83180000D02*
G75*
G02*
X215511602Y-83180000I1200000J0D01*
G01*
%TD*%
%LPC*%
D12*
%TO.C,S3*%
X158316022Y-93584191D03*
X161264298Y-94542144D03*
%TD*%
%TO.C,S13*%
X153203827Y-109276631D03*
X156152103Y-110234584D03*
%TD*%
%TO.C,S12*%
X136233346Y-108114338D03*
X139181622Y-109072291D03*
%TD*%
%TO.C,S11*%
X117166854Y-113385940D03*
X120115130Y-114343893D03*
%TD*%
%TO.C,S15*%
X182543814Y-125724392D03*
X185492090Y-126682345D03*
%TD*%
%TO.C,S10*%
X299245756Y-98651469D03*
X302194032Y-97693516D03*
%TD*%
D13*
%TO.C,H4*%
X236556331Y-91807292D03*
D14*
X236556331Y-91807292D03*
%TD*%
D12*
%TO.C,S31*%
X163703643Y-158364205D03*
X166724190Y-159061553D03*
%TD*%
%TO.C,S26*%
X244093203Y-142374786D03*
X247041479Y-141416833D03*
%TD*%
%TO.C,S18*%
X268320978Y-110234584D03*
X271269254Y-109276631D03*
%TD*%
D13*
%TO.C,H3*%
X232855135Y-152631429D03*
D14*
X232855135Y-152631429D03*
%TD*%
D12*
%TO.C,S35*%
X240986931Y-165710411D03*
X243724068Y-164255049D03*
%TD*%
%TO.C,S17*%
X253906594Y-119243089D03*
X256854870Y-118285136D03*
%TD*%
%TO.C,S4*%
X172730406Y-102592696D03*
X175678682Y-103550649D03*
%TD*%
%TO.C,S23*%
X148091632Y-124969055D03*
X151039908Y-125927008D03*
%TD*%
%TO.C,S34*%
X226674100Y-176388382D03*
X228941297Y-174274187D03*
%TD*%
%TO.C,S7*%
X248794399Y-103550649D03*
X251742675Y-102592696D03*
%TD*%
%TO.C,S20*%
X304357951Y-114343893D03*
X307306227Y-113385940D03*
%TD*%
%TO.C,S25*%
X177431619Y-141416833D03*
X180379895Y-142374786D03*
%TD*%
D13*
%TO.C,H6*%
X109236540Y-175000000D03*
D14*
X109236540Y-175000000D03*
%TD*%
D13*
%TO.C,H11*%
X191617963Y-140631429D03*
D14*
X191617963Y-140631429D03*
%TD*%
D12*
%TO.C,S30*%
X309470146Y-130036333D03*
X312418422Y-129078380D03*
%TD*%
D13*
%TO.C,H13*%
X109236540Y-90000002D03*
D14*
X109236540Y-90000002D03*
%TD*%
D12*
%TO.C,S2*%
X141345541Y-92421898D03*
X144293817Y-93379851D03*
%TD*%
%TO.C,S32*%
X180749029Y-164255049D03*
X183486166Y-165710411D03*
%TD*%
%TO.C,S16*%
X238981007Y-126682345D03*
X241929283Y-125724392D03*
%TD*%
%TO.C,S22*%
X131121151Y-123806762D03*
X134069427Y-124764715D03*
%TD*%
D13*
%TO.C,H2*%
X187916750Y-91807292D03*
D14*
X187916750Y-91807292D03*
%TD*%
D13*
%TO.C,H5*%
X138273081Y-145548579D03*
D14*
X138273081Y-145548579D03*
%TD*%
D13*
%TO.C,H12*%
X232855135Y-140631429D03*
D14*
X232855135Y-140631429D03*
%TD*%
D12*
%TO.C,S27*%
X259018806Y-134935513D03*
X261967082Y-133977560D03*
%TD*%
%TO.C,S24*%
X162506016Y-133977560D03*
X165454292Y-134935513D03*
%TD*%
%TO.C,S6*%
X233868796Y-110989904D03*
X236817072Y-110031951D03*
%TD*%
%TO.C,S8*%
X263208783Y-94542144D03*
X266157059Y-93584191D03*
%TD*%
D13*
%TO.C,H9*%
X315236540Y-175000000D03*
D14*
X315236540Y-175000000D03*
%TD*%
D12*
%TO.C,S9*%
X280179264Y-93379851D03*
X283127540Y-92421898D03*
%TD*%
D13*
%TO.C,H5*%
X286200000Y-145548579D03*
D14*
X286200000Y-145548579D03*
%TD*%
D13*
%TO.C,H8*%
X255821512Y-175921749D03*
D14*
X255821512Y-175921749D03*
%TD*%
D12*
%TO.C,S28*%
X273433189Y-125927008D03*
X276381465Y-124969055D03*
%TD*%
%TO.C,S14*%
X167618211Y-118285136D03*
X170566487Y-119243089D03*
%TD*%
D13*
%TO.C,H7*%
X168651585Y-175921749D03*
D14*
X168651585Y-175921749D03*
%TD*%
D12*
%TO.C,S5*%
X187656009Y-110031951D03*
X190604285Y-110989904D03*
%TD*%
%TO.C,S33*%
X195531784Y-174274187D03*
X197798981Y-176388382D03*
%TD*%
D13*
%TO.C,H10*%
X315236540Y-90000000D03*
D14*
X315236540Y-90000000D03*
%TD*%
D12*
%TO.C,S29*%
X290403670Y-124764715D03*
X293351946Y-123806762D03*
%TD*%
%TO.C,S21*%
X112054659Y-129078380D03*
X115002935Y-130036333D03*
%TD*%
%TO.C,S1*%
X122279065Y-97693516D03*
X125227341Y-98651469D03*
%TD*%
%TO.C,S36*%
X257748891Y-159061553D03*
X260769438Y-158364205D03*
%TD*%
D13*
%TO.C,H1*%
X191617963Y-152631429D03*
D14*
X191617963Y-152631429D03*
%TD*%
D12*
%TO.C,S19*%
X285291475Y-109072291D03*
X288239751Y-108114338D03*
%TD*%
%TO.C,TP20*%
X206224799Y-83190000D03*
%TD*%
%TO.C,TP18*%
X210261601Y-83180000D03*
%TD*%
%TO.C,TP17*%
X218374798Y-83190000D03*
%TD*%
%TO.C,TP19*%
X214311602Y-83180000D03*
%TD*%
%LPD*%
M02*
