M48
; DRILL file {KiCad 9.0.6} date 2026-03-04T08:45:45-0500
; FORMAT={-:-/ absolute / inch / decimal}
; #@! TF.CreationDate,2026-03-04T08:45:45-05:00
; #@! TF.GenerationSoftware,Kicad,Pcbnew,9.0.6
; #@! TF.FileFunction,Plated,1,2,PTH
FMAT,2
INCH
; #@! TA.AperFunction,Plated,PTH,ViaDrill
T1C0.0118
%
G90
G05
T1
X5.3181Y-1.7435
X5.3181Y-1.8252
X5.3624Y-1.4535
X5.3634Y-1.5307
X5.3642Y-1.4886
X5.3669Y-1.4209
X5.387Y-1.5567
X5.3894Y-1.398
X5.3902Y-1.287
X5.4213Y-1.561
X5.4835Y-1.7244
X5.4978Y-1.681
X5.5321Y-1.7232
X5.5493Y-1.3268
X5.5493Y-1.4087
X5.5496Y-1.6803
X5.5513Y-1.865
X5.558Y-1.9937
X5.5598Y-2.1543
X5.587Y-1.3677
X5.6018Y-1.3934
X5.6145Y-1.3661
X5.633Y-1.865
X5.6397Y-1.9937
X5.6409Y-2.0757
X5.6817Y-1.3302
X5.7053Y-1.3539
X5.7346Y-1.6874
X5.7394Y-2.0635
X5.7402Y-1.3542
X5.759Y-1.6067
X5.7751Y-1.8157
X5.7751Y-1.8607
X5.7751Y-1.9057
X5.8201Y-1.8157
X5.8201Y-1.8607
X5.8201Y-1.9057
X5.8437Y-1.6012
X5.8651Y-1.8157
X5.8651Y-1.8607
X5.8651Y-1.9057
X5.8969Y-2.158
X5.9935Y-2.1574
X6.0151Y-1.8191
X6.0953Y-1.6602
X6.0953Y-1.7391
X6.0968Y-1.8191
X6.0968Y-1.9791
M30
