%TF.GenerationSoftware,KiCad,Pcbnew,9.0.6*%
%TF.CreationDate,2026-03-04T08:45:45-05:00*%
%TF.ProjectId,usb-hub,7573622d-6875-4622-9e6b-696361645f70,rev?*%
%TF.SameCoordinates,Original*%
%TF.FileFunction,Legend,Bot*%
%TF.FilePolarity,Positive*%
%FSLAX46Y46*%
G04 Gerber Fmt 4.6, Leading zero omitted, Abs format (unit mm)*
G04 Created by KiCad (PCBNEW 9.0.6) date 2026-03-04 08:45:45*
%MOMM*%
%LPD*%
G01*
G04 APERTURE LIST*
G04 Aperture macros list*
%AMFreePoly0*
4,1,5,0.150000,-1.250000,-0.150000,-1.250000,-0.150000,1.250000,0.150000,1.250000,0.150000,-1.250000,0.150000,-1.250000,$1*%
G04 Aperture macros list end*
%ADD10C,0.150114*%
%ADD11FreePoly0,270.000000*%
G04 APERTURE END LIST*
D10*
X134970186Y-54829048D02*
X134255901Y-54829048D01*
X134255901Y-54829048D02*
X134113044Y-54876667D01*
X134113044Y-54876667D02*
X134017806Y-54971905D01*
X134017806Y-54971905D02*
X133970186Y-55114762D01*
X133970186Y-55114762D02*
X133970186Y-55210000D01*
X133970186Y-53876667D02*
X133970186Y-54352857D01*
X133970186Y-54352857D02*
X134970186Y-54352857D01*
X134065425Y-52971905D02*
X134017806Y-53019524D01*
X134017806Y-53019524D02*
X133970186Y-53162381D01*
X133970186Y-53162381D02*
X133970186Y-53257619D01*
X133970186Y-53257619D02*
X134017806Y-53400476D01*
X134017806Y-53400476D02*
X134113044Y-53495714D01*
X134113044Y-53495714D02*
X134208282Y-53543333D01*
X134208282Y-53543333D02*
X134398758Y-53590952D01*
X134398758Y-53590952D02*
X134541615Y-53590952D01*
X134541615Y-53590952D02*
X134732091Y-53543333D01*
X134732091Y-53543333D02*
X134827329Y-53495714D01*
X134827329Y-53495714D02*
X134922567Y-53400476D01*
X134922567Y-53400476D02*
X134970186Y-53257619D01*
X134970186Y-53257619D02*
X134970186Y-53162381D01*
X134970186Y-53162381D02*
X134922567Y-53019524D01*
X134922567Y-53019524D02*
X134874948Y-52971905D01*
X134970186Y-52257619D02*
X134255901Y-52257619D01*
X134255901Y-52257619D02*
X134113044Y-52305238D01*
X134113044Y-52305238D02*
X134017806Y-52400476D01*
X134017806Y-52400476D02*
X133970186Y-52543333D01*
X133970186Y-52543333D02*
X133970186Y-52638571D01*
X133970186Y-51305238D02*
X133970186Y-51781428D01*
X133970186Y-51781428D02*
X134970186Y-51781428D01*
X134065425Y-50400476D02*
X134017806Y-50448095D01*
X134017806Y-50448095D02*
X133970186Y-50590952D01*
X133970186Y-50590952D02*
X133970186Y-50686190D01*
X133970186Y-50686190D02*
X134017806Y-50829047D01*
X134017806Y-50829047D02*
X134113044Y-50924285D01*
X134113044Y-50924285D02*
X134208282Y-50971904D01*
X134208282Y-50971904D02*
X134398758Y-51019523D01*
X134398758Y-51019523D02*
X134541615Y-51019523D01*
X134541615Y-51019523D02*
X134732091Y-50971904D01*
X134732091Y-50971904D02*
X134827329Y-50924285D01*
X134827329Y-50924285D02*
X134922567Y-50829047D01*
X134922567Y-50829047D02*
X134970186Y-50686190D01*
X134970186Y-50686190D02*
X134970186Y-50590952D01*
X134970186Y-50590952D02*
X134922567Y-50448095D01*
X134922567Y-50448095D02*
X134874948Y-50400476D01*
X134970186Y-49686190D02*
X134255901Y-49686190D01*
X134255901Y-49686190D02*
X134113044Y-49733809D01*
X134113044Y-49733809D02*
X134017806Y-49829047D01*
X134017806Y-49829047D02*
X133970186Y-49971904D01*
X133970186Y-49971904D02*
X133970186Y-50067142D01*
X133970186Y-48733809D02*
X133970186Y-49209999D01*
X133970186Y-49209999D02*
X134970186Y-49209999D01*
X134065425Y-47829047D02*
X134017806Y-47876666D01*
X134017806Y-47876666D02*
X133970186Y-48019523D01*
X133970186Y-48019523D02*
X133970186Y-48114761D01*
X133970186Y-48114761D02*
X134017806Y-48257618D01*
X134017806Y-48257618D02*
X134113044Y-48352856D01*
X134113044Y-48352856D02*
X134208282Y-48400475D01*
X134208282Y-48400475D02*
X134398758Y-48448094D01*
X134398758Y-48448094D02*
X134541615Y-48448094D01*
X134541615Y-48448094D02*
X134732091Y-48400475D01*
X134732091Y-48400475D02*
X134827329Y-48352856D01*
X134827329Y-48352856D02*
X134922567Y-48257618D01*
X134922567Y-48257618D02*
X134970186Y-48114761D01*
X134970186Y-48114761D02*
X134970186Y-48019523D01*
X134970186Y-48019523D02*
X134922567Y-47876666D01*
X134922567Y-47876666D02*
X134874948Y-47829047D01*
X134970186Y-47114761D02*
X134255901Y-47114761D01*
X134255901Y-47114761D02*
X134113044Y-47162380D01*
X134113044Y-47162380D02*
X134017806Y-47257618D01*
X134017806Y-47257618D02*
X133970186Y-47400475D01*
X133970186Y-47400475D02*
X133970186Y-47495713D01*
X133970186Y-46162380D02*
X133970186Y-46638570D01*
X133970186Y-46638570D02*
X134970186Y-46638570D01*
X134065425Y-45257618D02*
X134017806Y-45305237D01*
X134017806Y-45305237D02*
X133970186Y-45448094D01*
X133970186Y-45448094D02*
X133970186Y-45543332D01*
X133970186Y-45543332D02*
X134017806Y-45686189D01*
X134017806Y-45686189D02*
X134113044Y-45781427D01*
X134113044Y-45781427D02*
X134208282Y-45829046D01*
X134208282Y-45829046D02*
X134398758Y-45876665D01*
X134398758Y-45876665D02*
X134541615Y-45876665D01*
X134541615Y-45876665D02*
X134732091Y-45829046D01*
X134732091Y-45829046D02*
X134827329Y-45781427D01*
X134827329Y-45781427D02*
X134922567Y-45686189D01*
X134922567Y-45686189D02*
X134970186Y-45543332D01*
X134970186Y-45543332D02*
X134970186Y-45448094D01*
X134970186Y-45448094D02*
X134922567Y-45305237D01*
X134922567Y-45305237D02*
X134874948Y-45257618D01*
X154984574Y-55652194D02*
X155079812Y-55699813D01*
X155079812Y-55699813D02*
X155270288Y-55699813D01*
X155270288Y-55699813D02*
X155365526Y-55652194D01*
X155365526Y-55652194D02*
X155413145Y-55604574D01*
X155413145Y-55604574D02*
X155460764Y-55509336D01*
X155460764Y-55509336D02*
X155460764Y-55223622D01*
X155460764Y-55223622D02*
X155413145Y-55128384D01*
X155413145Y-55128384D02*
X155365526Y-55080765D01*
X155365526Y-55080765D02*
X155270288Y-55033146D01*
X155270288Y-55033146D02*
X155079812Y-55033146D01*
X155079812Y-55033146D02*
X154984574Y-55080765D01*
X154556002Y-55699813D02*
X154556002Y-54699813D01*
X154127431Y-55699813D02*
X154127431Y-55176003D01*
X154127431Y-55176003D02*
X154175050Y-55080765D01*
X154175050Y-55080765D02*
X154270288Y-55033146D01*
X154270288Y-55033146D02*
X154413145Y-55033146D01*
X154413145Y-55033146D02*
X154508383Y-55080765D01*
X154508383Y-55080765D02*
X154556002Y-55128384D01*
X153651240Y-55699813D02*
X153651240Y-55033146D01*
X153651240Y-54699813D02*
X153698859Y-54747432D01*
X153698859Y-54747432D02*
X153651240Y-54795051D01*
X153651240Y-54795051D02*
X153603621Y-54747432D01*
X153603621Y-54747432D02*
X153651240Y-54699813D01*
X153651240Y-54699813D02*
X153651240Y-54795051D01*
X153175050Y-55033146D02*
X153175050Y-55699813D01*
X153175050Y-55128384D02*
X153127431Y-55080765D01*
X153127431Y-55080765D02*
X153032193Y-55033146D01*
X153032193Y-55033146D02*
X152889336Y-55033146D01*
X152889336Y-55033146D02*
X152794098Y-55080765D01*
X152794098Y-55080765D02*
X152746479Y-55176003D01*
X152746479Y-55176003D02*
X152746479Y-55699813D01*
X152270288Y-55699813D02*
X152270288Y-54699813D01*
X151841717Y-55699813D02*
X151841717Y-55176003D01*
X151841717Y-55176003D02*
X151889336Y-55080765D01*
X151889336Y-55080765D02*
X151984574Y-55033146D01*
X151984574Y-55033146D02*
X152127431Y-55033146D01*
X152127431Y-55033146D02*
X152222669Y-55080765D01*
X152222669Y-55080765D02*
X152270288Y-55128384D01*
X150936955Y-55033146D02*
X150936955Y-55699813D01*
X151175050Y-54652194D02*
X151413145Y-55366479D01*
X151413145Y-55366479D02*
X150794098Y-55366479D01*
%LPC*%
D11*
%TO.C,J1*%
X148245000Y-32822500D03*
X148245000Y-33322500D03*
X148245000Y-33822500D03*
X148245000Y-34322500D03*
X148245000Y-34822500D03*
X148245000Y-35322500D03*
X148245000Y-35822500D03*
X148245000Y-36322500D03*
X148245000Y-36822500D03*
X148245000Y-37322500D03*
%TD*%
%LPD*%
M02*
