%TF.GenerationSoftware,KiCad,Pcbnew,9.0.6*%
%TF.CreationDate,2026-03-04T08:45:44-05:00*%
%TF.ProjectId,usb-hub,7573622d-6875-4622-9e6b-696361645f70,rev?*%
%TF.SameCoordinates,Original*%
%TF.FileFunction,Legend,Top*%
%TF.FilePolarity,Positive*%
%FSLAX46Y46*%
G04 Gerber Fmt 4.6, Leading zero omitted, Abs format (unit mm)*
G04 Created by KiCad (PCBNEW 9.0.6) date 2026-03-04 08:45:44*
%MOMM*%
%LPD*%
G01*
G04 APERTURE LIST*
G04 Aperture macros list*
%AMRoundRect*
0 Rectangle with rounded corners*
0 $1 Rounding radius*
0 $2 $3 $4 $5 $6 $7 $8 $9 X,Y pos of 4 corners*
0 Add a 4 corners polygon primitive as box body*
4,1,4,$2,$3,$4,$5,$6,$7,$8,$9,$2,$3,0*
0 Add four circle primitives for the rounded corners*
1,1,$1+$1,$2,$3*
1,1,$1+$1,$4,$5*
1,1,$1+$1,$6,$7*
1,1,$1+$1,$8,$9*
0 Add four rect primitives between the rounded corners*
20,1,$1+$1,$2,$3,$4,$5,0*
20,1,$1+$1,$4,$5,$6,$7,0*
20,1,$1+$1,$6,$7,$8,$9,0*
20,1,$1+$1,$8,$9,$2,$3,0*%
G04 Aperture macros list end*
%ADD10C,0.050000*%
%ADD11C,0.100000*%
%ADD12C,0.150000*%
%ADD13C,0.120000*%
%ADD14C,0.250000*%
%ADD15C,0.200000*%
%ADD16C,0.152400*%
%ADD17C,0.000000*%
%ADD18RoundRect,0.250000X0.450000X-0.350000X0.450000X0.350000X-0.450000X0.350000X-0.450000X-0.350000X0*%
%ADD19RoundRect,0.250000X0.337500X0.475000X-0.337500X0.475000X-0.337500X-0.475000X0.337500X-0.475000X0*%
%ADD20R,0.800000X0.300000*%
%ADD21R,0.800000X0.400000*%
%ADD22C,1.500000*%
%ADD23RoundRect,0.250000X-0.450000X0.350000X-0.450000X-0.350000X0.450000X-0.350000X0.450000X0.350000X0*%
%ADD24RoundRect,0.250000X-0.337500X-0.475000X0.337500X-0.475000X0.337500X0.475000X-0.337500X0.475000X0*%
%ADD25RoundRect,0.250000X-0.350000X-0.450000X0.350000X-0.450000X0.350000X0.450000X-0.350000X0.450000X0*%
%ADD26RoundRect,0.250000X0.350000X0.450000X-0.350000X0.450000X-0.350000X-0.450000X0.350000X-0.450000X0*%
%ADD27RoundRect,0.250000X-0.650000X-0.350000X0.650000X-0.350000X0.650000X0.350000X-0.650000X0.350000X0*%
%ADD28RoundRect,0.250000X0.475000X-0.337500X0.475000X0.337500X-0.475000X0.337500X-0.475000X-0.337500X0*%
%ADD29RoundRect,0.250000X-0.475000X0.337500X-0.475000X-0.337500X0.475000X-0.337500X0.475000X0.337500X0*%
%ADD30R,0.812800X0.254000*%
%ADD31R,0.254000X0.812800*%
%ADD32R,3.606800X3.606800*%
G04 APERTURE END LIST*
D10*
X140010000Y-32002500D02*
X140010000Y-56170000D01*
D11*
X136703884Y-53251919D02*
X136703884Y-52251919D01*
X136703884Y-52251919D02*
X136941979Y-52251919D01*
X136941979Y-52251919D02*
X137084836Y-52299538D01*
X137084836Y-52299538D02*
X137180074Y-52394776D01*
X137180074Y-52394776D02*
X137227693Y-52490014D01*
X137227693Y-52490014D02*
X137275312Y-52680490D01*
X137275312Y-52680490D02*
X137275312Y-52823347D01*
X137275312Y-52823347D02*
X137227693Y-53013823D01*
X137227693Y-53013823D02*
X137180074Y-53109061D01*
X137180074Y-53109061D02*
X137084836Y-53204300D01*
X137084836Y-53204300D02*
X136941979Y-53251919D01*
X136941979Y-53251919D02*
X136703884Y-53251919D01*
X137703884Y-52870966D02*
X138465789Y-52870966D01*
X138084836Y-53251919D02*
X138084836Y-52490014D01*
X137180074Y-48251919D02*
X136703884Y-48251919D01*
X136703884Y-48251919D02*
X136656265Y-48728109D01*
X136656265Y-48728109D02*
X136703884Y-48680490D01*
X136703884Y-48680490D02*
X136799122Y-48632871D01*
X136799122Y-48632871D02*
X137037217Y-48632871D01*
X137037217Y-48632871D02*
X137132455Y-48680490D01*
X137132455Y-48680490D02*
X137180074Y-48728109D01*
X137180074Y-48728109D02*
X137227693Y-48823347D01*
X137227693Y-48823347D02*
X137227693Y-49061442D01*
X137227693Y-49061442D02*
X137180074Y-49156680D01*
X137180074Y-49156680D02*
X137132455Y-49204300D01*
X137132455Y-49204300D02*
X137037217Y-49251919D01*
X137037217Y-49251919D02*
X136799122Y-49251919D01*
X136799122Y-49251919D02*
X136703884Y-49204300D01*
X136703884Y-49204300D02*
X136656265Y-49156680D01*
X137513408Y-48251919D02*
X137846741Y-49251919D01*
X137846741Y-49251919D02*
X138180074Y-48251919D01*
X137227693Y-54299538D02*
X137132455Y-54251919D01*
X137132455Y-54251919D02*
X136989598Y-54251919D01*
X136989598Y-54251919D02*
X136846741Y-54299538D01*
X136846741Y-54299538D02*
X136751503Y-54394776D01*
X136751503Y-54394776D02*
X136703884Y-54490014D01*
X136703884Y-54490014D02*
X136656265Y-54680490D01*
X136656265Y-54680490D02*
X136656265Y-54823347D01*
X136656265Y-54823347D02*
X136703884Y-55013823D01*
X136703884Y-55013823D02*
X136751503Y-55109061D01*
X136751503Y-55109061D02*
X136846741Y-55204300D01*
X136846741Y-55204300D02*
X136989598Y-55251919D01*
X136989598Y-55251919D02*
X137084836Y-55251919D01*
X137084836Y-55251919D02*
X137227693Y-55204300D01*
X137227693Y-55204300D02*
X137275312Y-55156680D01*
X137275312Y-55156680D02*
X137275312Y-54823347D01*
X137275312Y-54823347D02*
X137084836Y-54823347D01*
X137703884Y-55251919D02*
X137703884Y-54251919D01*
X137703884Y-54251919D02*
X138275312Y-55251919D01*
X138275312Y-55251919D02*
X138275312Y-54251919D01*
X138751503Y-55251919D02*
X138751503Y-54251919D01*
X138751503Y-54251919D02*
X138989598Y-54251919D01*
X138989598Y-54251919D02*
X139132455Y-54299538D01*
X139132455Y-54299538D02*
X139227693Y-54394776D01*
X139227693Y-54394776D02*
X139275312Y-54490014D01*
X139275312Y-54490014D02*
X139322931Y-54680490D01*
X139322931Y-54680490D02*
X139322931Y-54823347D01*
X139322931Y-54823347D02*
X139275312Y-55013823D01*
X139275312Y-55013823D02*
X139227693Y-55109061D01*
X139227693Y-55109061D02*
X139132455Y-55204300D01*
X139132455Y-55204300D02*
X138989598Y-55251919D01*
X138989598Y-55251919D02*
X138751503Y-55251919D01*
X136703884Y-51251919D02*
X136703884Y-50251919D01*
X136703884Y-50251919D02*
X136941979Y-50251919D01*
X136941979Y-50251919D02*
X137084836Y-50299538D01*
X137084836Y-50299538D02*
X137180074Y-50394776D01*
X137180074Y-50394776D02*
X137227693Y-50490014D01*
X137227693Y-50490014D02*
X137275312Y-50680490D01*
X137275312Y-50680490D02*
X137275312Y-50823347D01*
X137275312Y-50823347D02*
X137227693Y-51013823D01*
X137227693Y-51013823D02*
X137180074Y-51109061D01*
X137180074Y-51109061D02*
X137084836Y-51204300D01*
X137084836Y-51204300D02*
X136941979Y-51251919D01*
X136941979Y-51251919D02*
X136703884Y-51251919D01*
X137703884Y-50870966D02*
X138465789Y-50870966D01*
D12*
X143969048Y-45478152D02*
X144730953Y-45763866D01*
X144730953Y-45763866D02*
X143969048Y-46049580D01*
D13*
%TO.C,R4*%
X147695000Y-41897064D02*
X147695000Y-41442936D01*
X149165000Y-41897064D02*
X149165000Y-41442936D01*
%TO.C,C6*%
X142251252Y-35045000D02*
X141728748Y-35045000D01*
X142251252Y-36515000D02*
X141728748Y-36515000D01*
D14*
%TO.C,FPC1*%
X134290000Y-32900000D02*
X134290000Y-40260000D01*
X134290000Y-32900000D02*
X134660000Y-32900000D01*
X134290000Y-40260000D02*
X134660000Y-40260000D01*
X135920000Y-32900000D02*
X138040000Y-32900000D01*
X135920000Y-40260000D02*
X138040000Y-40260000D01*
X138040000Y-33950000D02*
X138040000Y-32900000D01*
X138040000Y-40260000D02*
X138040000Y-39210000D01*
D15*
X137770000Y-33890000D02*
G75*
G02*
X137570000Y-33890000I-100000J0D01*
G01*
X137570000Y-33890000D02*
G75*
G02*
X137770000Y-33890000I100000J0D01*
G01*
D13*
%TO.C,R1*%
X140485000Y-53492936D02*
X140485000Y-53947064D01*
X141955000Y-53492936D02*
X141955000Y-53947064D01*
%TO.C,C2*%
X153558748Y-49535000D02*
X154081252Y-49535000D01*
X153558748Y-51005000D02*
X154081252Y-51005000D01*
%TO.C,R7*%
X153755000Y-53532936D02*
X153755000Y-53987064D01*
X155225000Y-53532936D02*
X155225000Y-53987064D01*
%TO.C,R3*%
X153592936Y-41435000D02*
X154047064Y-41435000D01*
X153592936Y-42905000D02*
X154047064Y-42905000D01*
%TO.C,R6*%
X154047064Y-43437500D02*
X153592936Y-43437500D01*
X154047064Y-44907500D02*
X153592936Y-44907500D01*
%TO.C,Y1*%
X144620000Y-53952500D02*
X145020000Y-53952500D01*
X145020000Y-53952500D02*
X145020000Y-53272500D01*
X146940000Y-51752500D02*
X148620000Y-51752500D01*
X146940000Y-55472500D02*
X146940000Y-55972500D01*
X148620000Y-55472500D02*
X146940000Y-55472500D01*
X150540000Y-53272500D02*
X150540000Y-53952500D01*
%TO.C,C9*%
X142545000Y-54021252D02*
X142545000Y-53498748D01*
X144015000Y-54021252D02*
X144015000Y-53498748D01*
%TO.C,C3*%
X142471252Y-49905000D02*
X141948748Y-49905000D01*
X142471252Y-51375000D02*
X141948748Y-51375000D01*
%TO.C,C7*%
X142251252Y-32965000D02*
X141728748Y-32965000D01*
X142251252Y-34435000D02*
X141728748Y-34435000D01*
%TO.C,C5*%
X144978748Y-40075000D02*
X145501252Y-40075000D01*
X144978748Y-41545000D02*
X145501252Y-41545000D01*
%TO.C,C8*%
X134345000Y-45061248D02*
X134345000Y-45583752D01*
X135815000Y-45061248D02*
X135815000Y-45583752D01*
%TO.C,R2*%
X153592936Y-47502500D02*
X154047064Y-47502500D01*
X153592936Y-48972500D02*
X154047064Y-48972500D01*
%TO.C,R5*%
X149775000Y-41442936D02*
X149775000Y-41897064D01*
X151245000Y-41442936D02*
X151245000Y-41897064D01*
D16*
%TO.C,U1*%
X145151400Y-44581400D02*
X145151400Y-45301360D01*
X145151400Y-49220840D02*
X145151400Y-49940800D01*
X145151400Y-49940800D02*
X145871360Y-49940800D01*
X145871360Y-44581400D02*
X145151400Y-44581400D01*
X149790840Y-49940800D02*
X150510800Y-49940800D01*
X150510800Y-44581400D02*
X149790840Y-44581400D01*
X150510800Y-45301360D02*
X150510800Y-44581400D01*
X150510800Y-49940800D02*
X150510800Y-49220840D01*
D17*
G36*
X147521601Y-50626600D02*
G01*
X147140601Y-50626600D01*
X147140601Y-50372600D01*
X147521601Y-50372600D01*
X147521601Y-50626600D01*
G37*
G36*
X151196600Y-46451599D02*
G01*
X150942600Y-46451599D01*
X150942600Y-46070599D01*
X151196600Y-46070599D01*
X151196600Y-46451599D01*
G37*
D13*
%TO.C,C4*%
X153558748Y-45470000D02*
X154081252Y-45470000D01*
X153558748Y-46940000D02*
X154081252Y-46940000D01*
D10*
%TO.C,J1*%
X146020000Y-31997500D02*
X146020000Y-38147500D01*
X146970000Y-32347500D02*
X146970000Y-37797500D01*
D13*
%TO.C,C10*%
X151500000Y-54021252D02*
X151500000Y-53498748D01*
X152970000Y-54021252D02*
X152970000Y-53498748D01*
%TO.C,C1*%
X141778748Y-46635000D02*
X142301252Y-46635000D01*
X141778748Y-48105000D02*
X142301252Y-48105000D01*
%TD*%
%LPC*%
D18*
%TO.C,R4*%
X148430000Y-42670000D03*
X148430000Y-40670000D03*
%TD*%
D19*
%TO.C,C6*%
X143027500Y-35780000D03*
X140952500Y-35780000D03*
%TD*%
D20*
%TO.C,FPC1*%
X137790000Y-34330000D03*
X137790000Y-34830000D03*
X137790000Y-35330000D03*
X137790000Y-35830000D03*
X137790000Y-36330000D03*
X137790000Y-36830000D03*
X137790000Y-37330000D03*
X137790000Y-37830000D03*
X137790000Y-38330000D03*
X137790000Y-38830000D03*
D21*
X135290000Y-33110000D03*
X135290000Y-40050000D03*
%TD*%
D22*
%TO.C,J3*%
X135020000Y-48840000D03*
X135020000Y-50840000D03*
X135020000Y-52840000D03*
X135020000Y-54840000D03*
%TD*%
D23*
%TO.C,R1*%
X141220000Y-52720000D03*
X141220000Y-54720000D03*
%TD*%
D24*
%TO.C,C2*%
X152782500Y-50270000D03*
X154857500Y-50270000D03*
%TD*%
D23*
%TO.C,R7*%
X154490000Y-52760000D03*
X154490000Y-54760000D03*
%TD*%
D25*
%TO.C,R3*%
X152820000Y-42170000D03*
X154820000Y-42170000D03*
%TD*%
D26*
%TO.C,R6*%
X154820000Y-44172500D03*
X152820000Y-44172500D03*
%TD*%
D27*
%TO.C,Y1*%
X145780000Y-54812500D03*
X149780000Y-54812500D03*
X149780000Y-52412500D03*
X145780000Y-52412500D03*
%TD*%
D28*
%TO.C,C9*%
X143280000Y-54797500D03*
X143280000Y-52722500D03*
%TD*%
D19*
%TO.C,C3*%
X143247500Y-50640000D03*
X141172500Y-50640000D03*
%TD*%
%TO.C,C7*%
X143027500Y-33700000D03*
X140952500Y-33700000D03*
%TD*%
D24*
%TO.C,C5*%
X144202500Y-40810000D03*
X146277500Y-40810000D03*
%TD*%
D29*
%TO.C,C8*%
X135080000Y-44285000D03*
X135080000Y-46360000D03*
%TD*%
D25*
%TO.C,R2*%
X152820000Y-48237500D03*
X154820000Y-48237500D03*
%TD*%
D23*
%TO.C,R5*%
X150510000Y-40670000D03*
X150510000Y-42670000D03*
%TD*%
D30*
%TO.C,U1*%
X145380000Y-45761100D03*
X145380000Y-46261099D03*
X145380000Y-46761101D03*
X145380000Y-47261100D03*
X145380000Y-47761099D03*
X145380000Y-48261101D03*
X145380000Y-48761100D03*
D31*
X146331100Y-49712200D03*
X146831099Y-49712200D03*
X147331101Y-49712200D03*
X147831100Y-49712200D03*
X148331099Y-49712200D03*
X148831101Y-49712200D03*
X149331100Y-49712200D03*
D30*
X150282200Y-48761100D03*
X150282200Y-48261101D03*
X150282200Y-47761099D03*
X150282200Y-47261100D03*
X150282200Y-46761101D03*
X150282200Y-46261099D03*
X150282200Y-45761100D03*
D31*
X149331100Y-44810000D03*
X148831101Y-44810000D03*
X148331099Y-44810000D03*
X147831100Y-44810000D03*
X147331101Y-44810000D03*
X146831099Y-44810000D03*
X146331100Y-44810000D03*
D32*
X147831100Y-47261100D03*
%TD*%
D24*
%TO.C,C4*%
X152782500Y-46205000D03*
X154857500Y-46205000D03*
%TD*%
D28*
%TO.C,C10*%
X152235000Y-54797500D03*
X152235000Y-52722500D03*
%TD*%
D24*
%TO.C,C1*%
X141002500Y-47370000D03*
X143077500Y-47370000D03*
%TD*%
%LPD*%
M02*
