%TF.GenerationSoftware,KiCad,Pcbnew,9.0.6*%
%TF.CreationDate,2026-03-04T08:45:45-05:00*%
%TF.ProjectId,usb-hub,7573622d-6875-4622-9e6b-696361645f70,rev?*%
%TF.SameCoordinates,Original*%
%TF.FileFunction,Copper,L2,Bot*%
%TF.FilePolarity,Positive*%
%FSLAX46Y46*%
G04 Gerber Fmt 4.6, Leading zero omitted, Abs format (unit mm)*
G04 Created by KiCad (PCBNEW 9.0.6) date 2026-03-04 08:45:45*
%MOMM*%
%LPD*%
G01*
G04 APERTURE LIST*
G04 Aperture macros list*
%AMFreePoly0*
4,1,5,0.150000,-1.250000,-0.150000,-1.250000,-0.150000,1.250000,0.150000,1.250000,0.150000,-1.250000,0.150000,-1.250000,$1*%
G04 Aperture macros list end*
%TA.AperFunction,ConnectorPad*%
%ADD10FreePoly0,270.000000*%
%TD*%
%TA.AperFunction,ViaPad*%
%ADD11C,0.600000*%
%TD*%
%TA.AperFunction,Conductor*%
%ADD12C,0.200000*%
%TD*%
%TA.AperFunction,Conductor*%
%ADD13C,1.778000*%
%TD*%
%TA.AperFunction,Conductor*%
%ADD14C,0.762000*%
%TD*%
G04 APERTURE END LIST*
D10*
%TO.P,J1,1,Pin_1*%
%TO.N,VBUS*%
X148245000Y-32822500D03*
%TO.P,J1,2,Pin_2*%
%TO.N,USB_HOST_N*%
X148245000Y-33322500D03*
%TO.P,J1,3,Pin_3*%
%TO.N,USB_HOST_P*%
X148245000Y-33822500D03*
%TO.P,J1,4,Pin_4*%
%TO.N,GND*%
X148245000Y-34322500D03*
%TO.P,J1,5,Pin_5*%
%TO.N,EC_CTRL*%
X148245000Y-34822500D03*
%TO.P,J1,6,Pin_6*%
%TO.N,SWITCH*%
X148245000Y-35322500D03*
%TO.P,J1,7,Pin_7*%
%TO.N,RGB_W*%
X148245000Y-35822500D03*
%TO.P,J1,8,Pin_8*%
%TO.N,RGB_G*%
X148245000Y-36322500D03*
%TO.P,J1,9,Pin_9*%
%TO.N,RGB_R*%
X148245000Y-36822500D03*
%TO.P,J1,10,Pin_10*%
%TO.N,LED_COM*%
X148245000Y-37322500D03*
%TD*%
D11*
%TO.N,EC_CTRL*%
X136320000Y-36090000D03*
%TO.N,RGB_W*%
X136250000Y-37810000D03*
%TO.N,RGB_G*%
X136230000Y-38880000D03*
%TO.N,VBUS*%
X140952500Y-35780000D03*
X140952500Y-33700000D03*
X146277500Y-40810000D03*
X135080000Y-46360000D03*
%TO.N,USB_HOST_P*%
X144915331Y-34388255D03*
%TO.N,USB_HOST_N*%
X139645000Y-42697831D03*
X140515000Y-43770000D03*
X144314289Y-33787213D03*
%TO.N,RGB_R*%
X136830000Y-39540000D03*
%TO.N,SWITCH*%
X136204000Y-36920000D03*
%TO.N,GND*%
X145800000Y-34397500D03*
X154857500Y-46205000D03*
X154857500Y-50270000D03*
X142286311Y-35392353D03*
X136890000Y-35510000D03*
X154820000Y-44172500D03*
X147831100Y-47261100D03*
X135080000Y-44285000D03*
X141172500Y-50640000D03*
X147831100Y-48404100D03*
X146688100Y-46118100D03*
X146688100Y-48404100D03*
X141910000Y-34740000D03*
X146688100Y-47261100D03*
X141002500Y-47370000D03*
X136910000Y-32691000D03*
X147831100Y-46118100D03*
X140960000Y-42680000D03*
X139280000Y-43800000D03*
X145780000Y-52412499D03*
X148974100Y-46118100D03*
X143280000Y-52722500D03*
X149780000Y-54812501D03*
X142608795Y-34698894D03*
X148974100Y-47261100D03*
X152235000Y-54797500D03*
X148974100Y-48404100D03*
X141220000Y-54720000D03*
%TO.N,LED_COM*%
X137700000Y-39650000D03*
%TO.N,VREG*%
X143247500Y-50640000D03*
X148430000Y-40670000D03*
X143077500Y-47370000D03*
X154820000Y-42170000D03*
X145660000Y-42860000D03*
X152782500Y-46205000D03*
%TD*%
D12*
%TO.N,EC_CTRL*%
X145547057Y-34994500D02*
X145551057Y-34998500D01*
X146048943Y-34998500D02*
X146224943Y-34822500D01*
X136564562Y-36410000D02*
X138820000Y-36410000D01*
X145551057Y-34998500D02*
X146048943Y-34998500D01*
X136381734Y-36151734D02*
X136381734Y-36227172D01*
X141782998Y-36897000D02*
X143685498Y-34994500D01*
X143685498Y-34994500D02*
X145547057Y-34994500D01*
X146224943Y-34822500D02*
X148245000Y-34822500D01*
X136381734Y-36227172D02*
X136564562Y-36410000D01*
X138820000Y-36410000D02*
X139307000Y-36897000D01*
X139307000Y-36897000D02*
X141782998Y-36897000D01*
X136320000Y-36090000D02*
X136381734Y-36151734D01*
%TO.N,RGB_W*%
X136250000Y-37810000D02*
X136250000Y-37635178D01*
X143785222Y-35822500D02*
X148245000Y-35822500D01*
X142054722Y-37553000D02*
X143785222Y-35822500D01*
X136332178Y-37553000D02*
X142054722Y-37553000D01*
X136250000Y-37635178D02*
X136332178Y-37553000D01*
%TO.N,RGB_G*%
X136230000Y-38679943D02*
X136230000Y-38880000D01*
X136999943Y-37910000D02*
X136230000Y-38679943D01*
X148245000Y-36322500D02*
X143749084Y-36322500D01*
X142161584Y-37910000D02*
X136999943Y-37910000D01*
X143749084Y-36322500D02*
X142161584Y-37910000D01*
D13*
%TO.N,VBUS*%
X137000000Y-42330000D02*
X138520000Y-40810000D01*
D12*
X148245000Y-32822500D02*
X144472500Y-32822500D01*
D13*
X134815000Y-35615000D02*
X134815000Y-40145000D01*
X138520000Y-40810000D02*
X142320000Y-40810000D01*
X140952500Y-35780000D02*
X140410000Y-35780000D01*
D14*
X140952500Y-33637500D02*
X141767500Y-32822500D01*
X146277500Y-40810000D02*
X142320000Y-40810000D01*
D13*
X134815000Y-40145000D02*
X137000000Y-42330000D01*
X138710000Y-34080000D02*
X136350000Y-34080000D01*
X136350000Y-34080000D02*
X134815000Y-35615000D01*
D14*
X141767500Y-32822500D02*
X144472500Y-32822500D01*
D13*
X137000000Y-42330000D02*
X137000000Y-44440000D01*
D14*
X140952500Y-33700000D02*
X140952500Y-33637500D01*
D13*
X137000000Y-44440000D02*
X135080000Y-46360000D01*
X140410000Y-35780000D02*
X138710000Y-34080000D01*
D12*
%TO.N,USB_HOST_P*%
X146369999Y-33822500D02*
X148245000Y-33822500D01*
X146344999Y-33797500D02*
X146369999Y-33822500D01*
X146344999Y-33797500D02*
X145223243Y-33797500D01*
X144915331Y-34105412D02*
X144915331Y-34388255D01*
X145223243Y-33797500D02*
X144915331Y-34105412D01*
%TO.N,USB_HOST_N*%
X146344999Y-33347500D02*
X146369999Y-33322500D01*
X146344999Y-33347500D02*
X145036845Y-33347500D01*
X140515000Y-43567831D02*
X139645000Y-42697831D01*
X144597132Y-33787213D02*
X144314289Y-33787213D01*
X145036845Y-33347500D02*
X144597132Y-33787213D01*
X146369999Y-33322500D02*
X148245000Y-33322500D01*
X140515000Y-43770000D02*
X140515000Y-43567831D01*
%TO.N,RGB_R*%
X148245000Y-36822500D02*
X143712946Y-36822500D01*
X136830000Y-39106138D02*
X136830000Y-39540000D01*
X142297446Y-38238000D02*
X137698138Y-38238000D01*
X137698138Y-38238000D02*
X136830000Y-39106138D01*
X143712946Y-36822500D02*
X142297446Y-38238000D01*
%TO.N,SWITCH*%
X138915000Y-37225000D02*
X141918860Y-37225000D01*
X138644175Y-36954175D02*
X138915000Y-37225000D01*
X136204000Y-36920000D02*
X136238175Y-36954175D01*
X143821360Y-35322500D02*
X145411195Y-35322500D01*
X146188805Y-35322500D02*
X148245000Y-35322500D01*
X136238175Y-36954175D02*
X138644175Y-36954175D01*
X145411195Y-35322500D02*
X145415195Y-35326500D01*
X145415195Y-35326500D02*
X146184805Y-35326500D01*
X146184805Y-35326500D02*
X146188805Y-35322500D01*
X141918860Y-37225000D02*
X143821360Y-35322500D01*
%TO.N,GND*%
X148245000Y-34322500D02*
X145875000Y-34322500D01*
X145875000Y-34322500D02*
X145800000Y-34397500D01*
%TO.N,LED_COM*%
X143676808Y-37322500D02*
X142433308Y-38566000D01*
X138784000Y-38566000D02*
X137700000Y-39650000D01*
X142433308Y-38566000D02*
X138784000Y-38566000D01*
X148245000Y-37322500D02*
X143676808Y-37322500D01*
D14*
%TO.N,VREG*%
X143077500Y-50470000D02*
X143247500Y-50640000D01*
X152782500Y-46205000D02*
X152782500Y-44207500D01*
X148430000Y-41240000D02*
X147610000Y-42060000D01*
X143077500Y-47370000D02*
X143077500Y-45442500D01*
X146460000Y-42060000D02*
X145660000Y-42860000D01*
X143077500Y-45442500D02*
X145660000Y-42860000D01*
X143077500Y-47370000D02*
X143077500Y-50470000D01*
X147610000Y-42060000D02*
X146460000Y-42060000D01*
X148430000Y-40670000D02*
X148430000Y-41240000D01*
X152782500Y-44207500D02*
X154820000Y-42170000D01*
%TD*%
%TA.AperFunction,Conductor*%
%TO.N,GND*%
G36*
X155016061Y-39896097D02*
G01*
X155026635Y-39897138D01*
X155144069Y-39908704D01*
X155167897Y-39913443D01*
X155285140Y-39949008D01*
X155307589Y-39958308D01*
X155415630Y-40016057D01*
X155435839Y-40029560D01*
X155530421Y-40107181D01*
X155530535Y-40107274D01*
X155547725Y-40124464D01*
X155625438Y-40219159D01*
X155638942Y-40239369D01*
X155696690Y-40347407D01*
X155705993Y-40369865D01*
X155741554Y-40487093D01*
X155746296Y-40510935D01*
X155758903Y-40638938D01*
X155759500Y-40651092D01*
X155759500Y-41580629D01*
X155739815Y-41647668D01*
X155687011Y-41693423D01*
X155617853Y-41703367D01*
X155554297Y-41674342D01*
X155532398Y-41649520D01*
X155504704Y-41608073D01*
X155381928Y-41485297D01*
X155381924Y-41485294D01*
X155237546Y-41388825D01*
X155077124Y-41322376D01*
X155077118Y-41322374D01*
X154906823Y-41288500D01*
X154906821Y-41288500D01*
X154733179Y-41288500D01*
X154733177Y-41288500D01*
X154562881Y-41322374D01*
X154562871Y-41322377D01*
X154402456Y-41388822D01*
X154258073Y-41485295D01*
X152097795Y-43645573D01*
X152071389Y-43685094D01*
X152033700Y-43741500D01*
X152012263Y-43773581D01*
X152001328Y-43789948D01*
X152001323Y-43789956D01*
X151934876Y-43950375D01*
X151934874Y-43950381D01*
X151901000Y-44120677D01*
X151901000Y-44120680D01*
X151901000Y-46291820D01*
X151901000Y-46291822D01*
X151900999Y-46291822D01*
X151934874Y-46462118D01*
X151934877Y-46462128D01*
X152001321Y-46622540D01*
X152001328Y-46622553D01*
X152097793Y-46766922D01*
X152097796Y-46766926D01*
X152220573Y-46889703D01*
X152220577Y-46889706D01*
X152364946Y-46986171D01*
X152364959Y-46986178D01*
X152525371Y-47052622D01*
X152525376Y-47052624D01*
X152525380Y-47052624D01*
X152525381Y-47052625D01*
X152695677Y-47086500D01*
X152695680Y-47086500D01*
X152869322Y-47086500D01*
X152983894Y-47063709D01*
X153039624Y-47052624D01*
X153200047Y-46986175D01*
X153344423Y-46889706D01*
X153467206Y-46766923D01*
X153563675Y-46622547D01*
X153630124Y-46462124D01*
X153664000Y-46291820D01*
X153664000Y-44623992D01*
X153683685Y-44556953D01*
X153700319Y-44536311D01*
X155504704Y-42731926D01*
X155504706Y-42731924D01*
X155532397Y-42690480D01*
X155586009Y-42645675D01*
X155655334Y-42636968D01*
X155718362Y-42667122D01*
X155755082Y-42726565D01*
X155759500Y-42759371D01*
X155759500Y-55173907D01*
X155758903Y-55186060D01*
X155758903Y-55186061D01*
X155746296Y-55314064D01*
X155741554Y-55337906D01*
X155705993Y-55455134D01*
X155696690Y-55477592D01*
X155638942Y-55585630D01*
X155625438Y-55605840D01*
X155547725Y-55700535D01*
X155530535Y-55717725D01*
X155435840Y-55795438D01*
X155415630Y-55808942D01*
X155307592Y-55866690D01*
X155285134Y-55875993D01*
X155167906Y-55911554D01*
X155144064Y-55916296D01*
X155016062Y-55928903D01*
X155003908Y-55929500D01*
X134631092Y-55929500D01*
X134618938Y-55928903D01*
X134490935Y-55916296D01*
X134467095Y-55911554D01*
X134349864Y-55875992D01*
X134327407Y-55866690D01*
X134219369Y-55808942D01*
X134199159Y-55795438D01*
X134104464Y-55717725D01*
X134087274Y-55700535D01*
X134009561Y-55605840D01*
X133996057Y-55585630D01*
X133938309Y-55477592D01*
X133929008Y-55455140D01*
X133893443Y-55337897D01*
X133888704Y-55314069D01*
X133876097Y-55186060D01*
X133875500Y-55173907D01*
X133875500Y-47419912D01*
X133895185Y-47352873D01*
X133947989Y-47307118D01*
X134017147Y-47297174D01*
X134080703Y-47326199D01*
X134087181Y-47332231D01*
X134174801Y-47419851D01*
X134351743Y-47548407D01*
X134447322Y-47597107D01*
X134546616Y-47647701D01*
X134546619Y-47647702D01*
X134650621Y-47681493D01*
X134754625Y-47715286D01*
X134970644Y-47749501D01*
X134970645Y-47749501D01*
X135189355Y-47749501D01*
X135189356Y-47749501D01*
X135405375Y-47715286D01*
X135613383Y-47647701D01*
X135808257Y-47548407D01*
X135985199Y-47419851D01*
X137898130Y-45506918D01*
X137898137Y-45506913D01*
X137905197Y-45499853D01*
X137905199Y-45499852D01*
X138059852Y-45345199D01*
X138059854Y-45345195D01*
X138059857Y-45345193D01*
X138116229Y-45267601D01*
X138188407Y-45168257D01*
X138262877Y-45022101D01*
X138287702Y-44973382D01*
X138287702Y-44973380D01*
X138317857Y-44880570D01*
X138355286Y-44765375D01*
X138377512Y-44625047D01*
X138389501Y-44549356D01*
X138389501Y-44330644D01*
X138389501Y-44326243D01*
X138389500Y-44326228D01*
X138389500Y-42956911D01*
X138409185Y-42889872D01*
X138425815Y-42869234D01*
X138632820Y-42662229D01*
X138694142Y-42628745D01*
X138763834Y-42633729D01*
X138819767Y-42675601D01*
X138844184Y-42741065D01*
X138844500Y-42749911D01*
X138844500Y-42776677D01*
X138875261Y-42931320D01*
X138875264Y-42931332D01*
X138935602Y-43077003D01*
X138935609Y-43077016D01*
X139023210Y-43208119D01*
X139023213Y-43208123D01*
X139134707Y-43319617D01*
X139134711Y-43319620D01*
X139265814Y-43407221D01*
X139265827Y-43407228D01*
X139411498Y-43467566D01*
X139411503Y-43467568D01*
X139566158Y-43498331D01*
X139566847Y-43498468D01*
X139583602Y-43507232D01*
X139602084Y-43511253D01*
X139627121Y-43529996D01*
X139628758Y-43530853D01*
X139630338Y-43532405D01*
X139680009Y-43582077D01*
X139713493Y-43643400D01*
X139713867Y-43684972D01*
X139715097Y-43685094D01*
X139714500Y-43691156D01*
X139714500Y-43848846D01*
X139745261Y-44003489D01*
X139745264Y-44003501D01*
X139805602Y-44149172D01*
X139805609Y-44149185D01*
X139893210Y-44280288D01*
X139893213Y-44280292D01*
X140004707Y-44391786D01*
X140004711Y-44391789D01*
X140135814Y-44479390D01*
X140135827Y-44479397D01*
X140273232Y-44536311D01*
X140281503Y-44539737D01*
X140436153Y-44570499D01*
X140436156Y-44570500D01*
X140436158Y-44570500D01*
X140593844Y-44570500D01*
X140593845Y-44570499D01*
X140748497Y-44539737D01*
X140894179Y-44479394D01*
X141025289Y-44391789D01*
X141136789Y-44280289D01*
X141224394Y-44149179D01*
X141284737Y-44003497D01*
X141315500Y-43848842D01*
X141315500Y-43691158D01*
X141315500Y-43691156D01*
X141315500Y-43691155D01*
X141315499Y-43691153D01*
X141314294Y-43685094D01*
X141284737Y-43536503D01*
X141256184Y-43467569D01*
X141224397Y-43390827D01*
X141224390Y-43390814D01*
X141136789Y-43259711D01*
X141136786Y-43259707D01*
X141025292Y-43148213D01*
X141025288Y-43148210D01*
X140894185Y-43060609D01*
X140894175Y-43060604D01*
X140853515Y-43043762D01*
X140813287Y-43016882D01*
X140479573Y-42683168D01*
X140446088Y-42621845D01*
X140445637Y-42619678D01*
X140414738Y-42464341D01*
X140414737Y-42464334D01*
X140414735Y-42464329D01*
X140376058Y-42370952D01*
X140368589Y-42301482D01*
X140399865Y-42239003D01*
X140459954Y-42203352D01*
X140490619Y-42199500D01*
X142429361Y-42199500D01*
X142534082Y-42182912D01*
X142645375Y-42165286D01*
X142853383Y-42097701D01*
X143048257Y-41998407D01*
X143165981Y-41912876D01*
X143225193Y-41869857D01*
X143225195Y-41869854D01*
X143225199Y-41869852D01*
X143367232Y-41727819D01*
X143428555Y-41694334D01*
X143454913Y-41691500D01*
X145282508Y-41691500D01*
X145349547Y-41711185D01*
X145395302Y-41763989D01*
X145405246Y-41833147D01*
X145376221Y-41896703D01*
X145370189Y-41903181D01*
X144975292Y-42298078D01*
X142392798Y-44880570D01*
X142392792Y-44880577D01*
X142330783Y-44973382D01*
X142330783Y-44973383D01*
X142313554Y-44999168D01*
X142296325Y-45024952D01*
X142296321Y-45024959D01*
X142229877Y-45185371D01*
X142229874Y-45185381D01*
X142196000Y-45355677D01*
X142196000Y-45355680D01*
X142196000Y-47283180D01*
X142196000Y-50383179D01*
X142196000Y-50556821D01*
X142196000Y-50556823D01*
X142195999Y-50556823D01*
X142229874Y-50727118D01*
X142229877Y-50727128D01*
X142296322Y-50887543D01*
X142392795Y-51031926D01*
X142392796Y-51031927D01*
X142685572Y-51324702D01*
X142685576Y-51324705D01*
X142829946Y-51421171D01*
X142829959Y-51421178D01*
X142990371Y-51487622D01*
X142990376Y-51487624D01*
X142990380Y-51487624D01*
X142990381Y-51487625D01*
X143160676Y-51521500D01*
X143160679Y-51521500D01*
X143334322Y-51521500D01*
X143448894Y-51498709D01*
X143504624Y-51487624D01*
X143665046Y-51421175D01*
X143809423Y-51324705D01*
X143932205Y-51201923D01*
X144028675Y-51057546D01*
X144095124Y-50897124D01*
X144129000Y-50726820D01*
X144129000Y-50553179D01*
X144129000Y-50553176D01*
X144095125Y-50382881D01*
X144095124Y-50382880D01*
X144095124Y-50382876D01*
X144095122Y-50382871D01*
X144028678Y-50222459D01*
X144028671Y-50222446D01*
X143979898Y-50149452D01*
X143959020Y-50082774D01*
X143959000Y-50080561D01*
X143959000Y-45858990D01*
X143978685Y-45791951D01*
X143995314Y-45771314D01*
X146211714Y-43554913D01*
X146211719Y-43554910D01*
X146221922Y-43544706D01*
X146221924Y-43544706D01*
X146788811Y-42977819D01*
X146850134Y-42944334D01*
X146876492Y-42941500D01*
X147696823Y-42941500D01*
X147811393Y-42918709D01*
X147867124Y-42907624D01*
X147947335Y-42874399D01*
X148027543Y-42841177D01*
X148027544Y-42841176D01*
X148027547Y-42841175D01*
X148171924Y-42744706D01*
X149114706Y-41801924D01*
X149211175Y-41657547D01*
X149231667Y-41608076D01*
X149277622Y-41497128D01*
X149277624Y-41497124D01*
X149296372Y-41402873D01*
X149311500Y-41326823D01*
X149311500Y-40583177D01*
X149277625Y-40412881D01*
X149277624Y-40412880D01*
X149277624Y-40412876D01*
X149269162Y-40392446D01*
X149211178Y-40252459D01*
X149211171Y-40252446D01*
X149114706Y-40108077D01*
X149114703Y-40108073D01*
X149113811Y-40107181D01*
X149113492Y-40106598D01*
X149110841Y-40103367D01*
X149111453Y-40102864D01*
X149080326Y-40045858D01*
X149085310Y-39976166D01*
X149127182Y-39920233D01*
X149192646Y-39895816D01*
X149201492Y-39895500D01*
X154965830Y-39895500D01*
X155003908Y-39895500D01*
X155016061Y-39896097D01*
G37*
%TD.AperFunction*%
%TA.AperFunction,Conductor*%
G36*
X134080703Y-41376199D02*
G01*
X134087181Y-41382231D01*
X135574181Y-42869231D01*
X135607666Y-42930554D01*
X135610500Y-42956912D01*
X135610500Y-43813088D01*
X135590815Y-43880127D01*
X135574181Y-43900769D01*
X134087181Y-45387769D01*
X134025858Y-45421254D01*
X133956166Y-45416270D01*
X133900233Y-45374398D01*
X133875816Y-45308934D01*
X133875500Y-45300088D01*
X133875500Y-41469912D01*
X133895185Y-41402873D01*
X133947989Y-41357118D01*
X134017147Y-41347174D01*
X134080703Y-41376199D01*
G37*
%TD.AperFunction*%
%TA.AperFunction,Conductor*%
G36*
X138150127Y-35489185D02*
G01*
X138170769Y-35505819D01*
X138262769Y-35597819D01*
X138296254Y-35659142D01*
X138291270Y-35728834D01*
X138249398Y-35784767D01*
X138183934Y-35809184D01*
X138175088Y-35809500D01*
X137153122Y-35809500D01*
X137141541Y-35806099D01*
X137129525Y-35807234D01*
X137108639Y-35796438D01*
X137086083Y-35789815D01*
X137076634Y-35779895D01*
X137067456Y-35775151D01*
X137055539Y-35757747D01*
X137045669Y-35747385D01*
X137041645Y-35740398D01*
X137029394Y-35710821D01*
X136994751Y-35658974D01*
X136992684Y-35655385D01*
X136985413Y-35625273D01*
X136976157Y-35595713D01*
X136977283Y-35591606D01*
X136976284Y-35587467D01*
X136986446Y-35558204D01*
X136994642Y-35528333D01*
X136997810Y-35525487D01*
X136999207Y-35521465D01*
X137023577Y-35502341D01*
X137046621Y-35481643D01*
X137051312Y-35480578D01*
X137054174Y-35478333D01*
X137066221Y-35477195D01*
X137100137Y-35469500D01*
X138083088Y-35469500D01*
X138150127Y-35489185D01*
G37*
%TD.AperFunction*%
%TA.AperFunction,Conductor*%
G36*
X143456828Y-33723685D02*
G01*
X143502583Y-33776489D01*
X143513789Y-33828000D01*
X143513789Y-33866059D01*
X143544550Y-34020702D01*
X143544553Y-34020714D01*
X143604891Y-34166385D01*
X143604898Y-34166397D01*
X143637981Y-34215909D01*
X143644992Y-34238301D01*
X143656153Y-34258943D01*
X143655238Y-34271024D01*
X143658859Y-34282586D01*
X143652651Y-34305213D01*
X143650881Y-34328613D01*
X143643580Y-34338281D01*
X143640375Y-34349966D01*
X143622916Y-34365648D01*
X143608778Y-34384373D01*
X143594262Y-34391387D01*
X143588396Y-34396657D01*
X143577732Y-34401160D01*
X143572426Y-34403113D01*
X143453713Y-34434923D01*
X143405935Y-34462508D01*
X143396749Y-34467811D01*
X143396742Y-34467814D01*
X143316785Y-34513977D01*
X143316780Y-34513981D01*
X143204976Y-34625786D01*
X142467631Y-35363130D01*
X142406308Y-35396615D01*
X142336616Y-35391631D01*
X142280683Y-35349759D01*
X142262019Y-35313766D01*
X142240203Y-35246622D01*
X142240201Y-35246616D01*
X142202436Y-35172500D01*
X142140907Y-35051743D01*
X142132647Y-35040374D01*
X142012357Y-34874806D01*
X141857693Y-34720142D01*
X141680761Y-34591595D01*
X141609224Y-34555145D01*
X141585580Y-34543098D01*
X141534786Y-34495124D01*
X141517991Y-34427303D01*
X141540528Y-34361168D01*
X141554190Y-34344938D01*
X141637206Y-34261923D01*
X141733675Y-34117547D01*
X141734550Y-34115433D01*
X141735822Y-34113529D01*
X141736548Y-34112172D01*
X141736681Y-34112243D01*
X141761430Y-34075198D01*
X142096312Y-33740316D01*
X142157634Y-33706834D01*
X142183992Y-33704000D01*
X143389789Y-33704000D01*
X143456828Y-33723685D01*
G37*
%TD.AperFunction*%
%TA.AperFunction,Conductor*%
G36*
X140861978Y-32268718D02*
G01*
X140907743Y-32321513D01*
X140917700Y-32390669D01*
X140888688Y-32454231D01*
X140882640Y-32460728D01*
X140267795Y-33075573D01*
X140171323Y-33219955D01*
X140137978Y-33300458D01*
X140117391Y-33326004D01*
X140097727Y-33352272D01*
X140095576Y-33353073D01*
X140094136Y-33354862D01*
X140062997Y-33365225D01*
X140032263Y-33376689D01*
X140030020Y-33376201D01*
X140027842Y-33376926D01*
X139996052Y-33368811D01*
X139963990Y-33361837D01*
X139961539Y-33360002D01*
X139960143Y-33359646D01*
X139935736Y-33340686D01*
X139774192Y-33179142D01*
X139774183Y-33179132D01*
X139695611Y-33100560D01*
X139615199Y-33020148D01*
X139615195Y-33020145D01*
X139615191Y-33020141D01*
X139438260Y-32891595D01*
X139438259Y-32891594D01*
X139438257Y-32891593D01*
X139340736Y-32841903D01*
X139243383Y-32792298D01*
X139243380Y-32792297D01*
X139035376Y-32724714D01*
X138893433Y-32702232D01*
X138819356Y-32690499D01*
X138600644Y-32690499D01*
X138595533Y-32690499D01*
X138595509Y-32690500D01*
X136464491Y-32690500D01*
X136464467Y-32690499D01*
X136459356Y-32690499D01*
X136240644Y-32690499D01*
X136168637Y-32701904D01*
X136024623Y-32724714D01*
X135816619Y-32792297D01*
X135816616Y-32792298D01*
X135621739Y-32891595D01*
X135444806Y-33020142D01*
X135444802Y-33020146D01*
X134087181Y-34377768D01*
X134025858Y-34411253D01*
X133956166Y-34406269D01*
X133900233Y-34364397D01*
X133875816Y-34298933D01*
X133875500Y-34290087D01*
X133875500Y-33005881D01*
X133876097Y-32993726D01*
X133888703Y-32865740D01*
X133893444Y-32841903D01*
X133908490Y-32792298D01*
X133928998Y-32724684D01*
X133938295Y-32702236D01*
X133996034Y-32594203D01*
X134009526Y-32574007D01*
X134087233Y-32479306D01*
X134104411Y-32462126D01*
X134199089Y-32384408D01*
X134219292Y-32370907D01*
X134327311Y-32313151D01*
X134349757Y-32303848D01*
X134466975Y-32268271D01*
X134490794Y-32263528D01*
X134618971Y-32250880D01*
X134631089Y-32250282D01*
X140794934Y-32249047D01*
X140861978Y-32268718D01*
G37*
%TD.AperFunction*%
%TD*%
M02*
