%TF.GenerationSoftware,KiCad,Pcbnew,9.0.6*%
%TF.CreationDate,2026-03-04T08:45:44-05:00*%
%TF.ProjectId,usb-hub,7573622d-6875-4622-9e6b-696361645f70,rev?*%
%TF.SameCoordinates,Original*%
%TF.FileFunction,Copper,L1,Top*%
%TF.FilePolarity,Positive*%
%FSLAX46Y46*%
G04 Gerber Fmt 4.6, Leading zero omitted, Abs format (unit mm)*
G04 Created by KiCad (PCBNEW 9.0.6) date 2026-03-04 08:45:44*
%MOMM*%
%LPD*%
G01*
G04 APERTURE LIST*
G04 Aperture macros list*
%AMRoundRect*
0 Rectangle with rounded corners*
0 $1 Rounding radius*
0 $2 $3 $4 $5 $6 $7 $8 $9 X,Y pos of 4 corners*
0 Add a 4 corners polygon primitive as box body*
4,1,4,$2,$3,$4,$5,$6,$7,$8,$9,$2,$3,0*
0 Add four circle primitives for the rounded corners*
1,1,$1+$1,$2,$3*
1,1,$1+$1,$4,$5*
1,1,$1+$1,$6,$7*
1,1,$1+$1,$8,$9*
0 Add four rect primitives between the rounded corners*
20,1,$1+$1,$2,$3,$4,$5,0*
20,1,$1+$1,$4,$5,$6,$7,0*
20,1,$1+$1,$6,$7,$8,$9,0*
20,1,$1+$1,$8,$9,$2,$3,0*%
G04 Aperture macros list end*
%TA.AperFunction,SMDPad,CuDef*%
%ADD10RoundRect,0.250000X0.450000X-0.350000X0.450000X0.350000X-0.450000X0.350000X-0.450000X-0.350000X0*%
%TD*%
%TA.AperFunction,SMDPad,CuDef*%
%ADD11RoundRect,0.250000X0.337500X0.475000X-0.337500X0.475000X-0.337500X-0.475000X0.337500X-0.475000X0*%
%TD*%
%TA.AperFunction,SMDPad,CuDef*%
%ADD12R,0.800000X0.300000*%
%TD*%
%TA.AperFunction,SMDPad,CuDef*%
%ADD13R,0.800000X0.400000*%
%TD*%
%TA.AperFunction,SMDPad,CuDef*%
%ADD14C,1.500000*%
%TD*%
%TA.AperFunction,SMDPad,CuDef*%
%ADD15RoundRect,0.250000X-0.450000X0.350000X-0.450000X-0.350000X0.450000X-0.350000X0.450000X0.350000X0*%
%TD*%
%TA.AperFunction,SMDPad,CuDef*%
%ADD16RoundRect,0.250000X-0.337500X-0.475000X0.337500X-0.475000X0.337500X0.475000X-0.337500X0.475000X0*%
%TD*%
%TA.AperFunction,SMDPad,CuDef*%
%ADD17RoundRect,0.250000X-0.350000X-0.450000X0.350000X-0.450000X0.350000X0.450000X-0.350000X0.450000X0*%
%TD*%
%TA.AperFunction,SMDPad,CuDef*%
%ADD18RoundRect,0.250000X0.350000X0.450000X-0.350000X0.450000X-0.350000X-0.450000X0.350000X-0.450000X0*%
%TD*%
%TA.AperFunction,SMDPad,CuDef*%
%ADD19RoundRect,0.250000X-0.650000X-0.350000X0.650000X-0.350000X0.650000X0.350000X-0.650000X0.350000X0*%
%TD*%
%TA.AperFunction,SMDPad,CuDef*%
%ADD20RoundRect,0.250000X0.475000X-0.337500X0.475000X0.337500X-0.475000X0.337500X-0.475000X-0.337500X0*%
%TD*%
%TA.AperFunction,SMDPad,CuDef*%
%ADD21RoundRect,0.250000X-0.475000X0.337500X-0.475000X-0.337500X0.475000X-0.337500X0.475000X0.337500X0*%
%TD*%
%TA.AperFunction,SMDPad,CuDef*%
%ADD22R,0.812800X0.254000*%
%TD*%
%TA.AperFunction,SMDPad,CuDef*%
%ADD23R,0.254000X0.812800*%
%TD*%
%TA.AperFunction,SMDPad,CuDef*%
%ADD24R,3.606800X3.606800*%
%TD*%
%TA.AperFunction,ViaPad*%
%ADD25C,0.600000*%
%TD*%
%TA.AperFunction,Conductor*%
%ADD26C,0.200000*%
%TD*%
%TA.AperFunction,Conductor*%
%ADD27C,0.762000*%
%TD*%
%TA.AperFunction,Conductor*%
%ADD28C,1.778000*%
%TD*%
G04 APERTURE END LIST*
D10*
%TO.P,R4,1*%
%TO.N,Net-(U1-\u002AOVR[1])*%
X148430000Y-42670000D03*
%TO.P,R4,2*%
%TO.N,VREG*%
X148430000Y-40670000D03*
%TD*%
D11*
%TO.P,C6,1*%
%TO.N,GND*%
X143027500Y-35780000D03*
%TO.P,C6,2*%
%TO.N,VBUS*%
X140952500Y-35780000D03*
%TD*%
D12*
%TO.P,FPC1,1,1*%
%TO.N,VBUS*%
X137790000Y-34330000D03*
%TO.P,FPC1,2,2*%
%TO.N,USB_FNG_N*%
X137790000Y-34830000D03*
%TO.P,FPC1,3,3*%
%TO.N,USB_FNG_P*%
X137790000Y-35330000D03*
%TO.P,FPC1,4,4*%
%TO.N,GND*%
X137790000Y-35830000D03*
%TO.P,FPC1,5,5*%
%TO.N,EC_CTRL*%
X137790000Y-36330000D03*
%TO.P,FPC1,6,6*%
%TO.N,SWITCH*%
X137790000Y-36830000D03*
%TO.P,FPC1,7,7*%
%TO.N,RGB_W*%
X137790000Y-37330000D03*
%TO.P,FPC1,8,8*%
%TO.N,RGB_G*%
X137790000Y-37830000D03*
%TO.P,FPC1,9,9*%
%TO.N,RGB_R*%
X137790000Y-38330000D03*
%TO.P,FPC1,10,10*%
%TO.N,LED_COM*%
X137790000Y-38830000D03*
D13*
%TO.P,FPC1,11,11*%
%TO.N,GND*%
X135290000Y-33110000D03*
%TO.P,FPC1,12,12*%
X135290000Y-40050000D03*
%TD*%
D14*
%TO.P,J3,1,Pin_1*%
%TO.N,VBUS*%
X135020000Y-48840000D03*
%TO.P,J3,2,Pin_2*%
%TO.N,USB_KB_N*%
X135020000Y-50840000D03*
%TO.P,J3,3,Pin_3*%
%TO.N,USB_KB_P*%
X135020000Y-52840000D03*
%TO.P,J3,4,Pin_4*%
%TO.N,GND*%
X135020000Y-54840000D03*
%TD*%
D15*
%TO.P,R1,1*%
%TO.N,Net-(U1-RREF)*%
X141220000Y-52720000D03*
%TO.P,R1,2*%
%TO.N,GND*%
X141220000Y-54720000D03*
%TD*%
D16*
%TO.P,C2,1*%
%TO.N,VREG*%
X152782500Y-50270000D03*
%TO.P,C2,2*%
%TO.N,GND*%
X154857500Y-50270000D03*
%TD*%
D15*
%TO.P,R7,1*%
%TO.N,X_OUT*%
X154490000Y-52760000D03*
%TO.P,R7,2*%
%TO.N,Net-(C10-Pad2)*%
X154490000Y-54760000D03*
%TD*%
D17*
%TO.P,R3,1*%
%TO.N,Net-(U1-GANG)*%
X152820000Y-42170000D03*
%TO.P,R3,2*%
%TO.N,VREG*%
X154820000Y-42170000D03*
%TD*%
D18*
%TO.P,R6,1*%
%TO.N,GND*%
X154820000Y-44172500D03*
%TO.P,R6,2*%
%TO.N,Net-(U1-SELFPWR)*%
X152820000Y-44172500D03*
%TD*%
D19*
%TO.P,Y1,1,1*%
%TO.N,X_IN*%
X145780000Y-54812500D03*
%TO.P,Y1,2,2*%
%TO.N,GND*%
X149780000Y-54812500D03*
%TO.P,Y1,3,3*%
%TO.N,Net-(C10-Pad2)*%
X149780000Y-52412500D03*
%TO.P,Y1,4,4*%
%TO.N,GND*%
X145780000Y-52412500D03*
%TD*%
D20*
%TO.P,C9,1*%
%TO.N,X_IN*%
X143280000Y-54797500D03*
%TO.P,C9,2*%
%TO.N,GND*%
X143280000Y-52722500D03*
%TD*%
D11*
%TO.P,C3,1*%
%TO.N,VREG*%
X143247500Y-50640000D03*
%TO.P,C3,2*%
%TO.N,GND*%
X141172500Y-50640000D03*
%TD*%
%TO.P,C7,1*%
%TO.N,GND*%
X143027500Y-33700000D03*
%TO.P,C7,2*%
%TO.N,VBUS*%
X140952500Y-33700000D03*
%TD*%
D16*
%TO.P,C5,1*%
%TO.N,GND*%
X144202500Y-40810000D03*
%TO.P,C5,2*%
%TO.N,VBUS*%
X146277500Y-40810000D03*
%TD*%
D21*
%TO.P,C8,1*%
%TO.N,GND*%
X135080000Y-44285000D03*
%TO.P,C8,2*%
%TO.N,VBUS*%
X135080000Y-46360000D03*
%TD*%
D17*
%TO.P,R2,1*%
%TO.N,Net-(U1-\u002ARESET)*%
X152820000Y-48237500D03*
%TO.P,R2,2*%
%TO.N,VREG*%
X154820000Y-48237500D03*
%TD*%
D15*
%TO.P,R5,1*%
%TO.N,VREG*%
X150510000Y-40670000D03*
%TO.P,R5,2*%
%TO.N,Net-(U1-\u002AOVR[2])*%
X150510000Y-42670000D03*
%TD*%
D22*
%TO.P,U1,1,D-*%
%TO.N,USB_HOST_N*%
X145380000Y-45761100D03*
%TO.P,U1,2,D+*%
%TO.N,USB_HOST_P*%
X145380000Y-46261099D03*
%TO.P,U1,3,D0-[1]*%
%TO.N,USB_FNG_N*%
X145380000Y-46761101D03*
%TO.P,U1,4,D0+[1]*%
%TO.N,USB_FNG_P*%
X145380000Y-47261100D03*
%TO.P,U1,5,VCC_A*%
%TO.N,VREG*%
X145380000Y-47761099D03*
%TO.P,U1,6,DD-[2]*%
%TO.N,USB_KB_N*%
X145380000Y-48261101D03*
%TO.P,U1,7,DD+[2]*%
%TO.N,USB_KB_P*%
X145380000Y-48761100D03*
D23*
%TO.P,U1,8,RREF*%
%TO.N,Net-(U1-RREF)*%
X146331100Y-49712200D03*
%TO.P,U1,9,VCC_A*%
%TO.N,VREG*%
X146831099Y-49712200D03*
%TO.P,U1,10,XIN*%
%TO.N,X_IN*%
X147331101Y-49712200D03*
%TO.P,U1,11,XOUT*%
%TO.N,X_OUT*%
X147831100Y-49712200D03*
%TO.P,U1,12,NC*%
%TO.N,unconnected-(U1-NC-Pad12)*%
X148331099Y-49712200D03*
%TO.P,U1,13,NC*%
%TO.N,unconnected-(U1-NC-Pad13)*%
X148831101Y-49712200D03*
%TO.P,U1,14,VCC_A*%
%TO.N,VREG*%
X149331100Y-49712200D03*
D22*
%TO.P,U1,15,NC*%
%TO.N,unconnected-(U1-NC-Pad15)*%
X150282200Y-48761100D03*
%TO.P,U1,16,NC*%
%TO.N,unconnected-(U1-NC-Pad16)*%
X150282200Y-48261101D03*
%TO.P,U1,17,\u002ARESET*%
%TO.N,Net-(U1-\u002ARESET)*%
X150282200Y-47761099D03*
%TO.P,U1,18,TEST/I2C_SCL*%
%TO.N,unconnected-(U1-TEST{slash}I2C_SCL-Pad18)*%
X150282200Y-47261100D03*
%TO.P,U1,19,NC*%
%TO.N,unconnected-(U1-NC-Pad19)*%
X150282200Y-46761101D03*
%TO.P,U1,20,NC*%
%TO.N,unconnected-(U1-NC-Pad20)*%
X150282200Y-46261099D03*
%TO.P,U1,21,VCC_D*%
%TO.N,VREG*%
X150282200Y-45761100D03*
D23*
%TO.P,U1,22,SELFPWR*%
%TO.N,Net-(U1-SELFPWR)*%
X149331100Y-44810000D03*
%TO.P,U1,23,GANG*%
%TO.N,Net-(U1-GANG)*%
X148831101Y-44810000D03*
%TO.P,U1,24,\u002AOVR[2]*%
%TO.N,Net-(U1-\u002AOVR[2])*%
X148331099Y-44810000D03*
%TO.P,U1,25,\u002AOVR[1]*%
%TO.N,Net-(U1-\u002AOVR[1])*%
X147831100Y-44810000D03*
%TO.P,U1,26,\u002APWR/I2C_SDA*%
%TO.N,unconnected-(U1-\u002APWR{slash}I2C_SDA-Pad26)*%
X147331101Y-44810000D03*
%TO.P,U1,27,VCC*%
%TO.N,VBUS*%
X146831099Y-44810000D03*
%TO.P,U1,28,VREG*%
%TO.N,VREG*%
X146331100Y-44810000D03*
D24*
%TO.P,U1,29,29*%
%TO.N,GND*%
X147831100Y-47261100D03*
%TD*%
D16*
%TO.P,C4,1*%
%TO.N,VREG*%
X152782500Y-46205000D03*
%TO.P,C4,2*%
%TO.N,GND*%
X154857500Y-46205000D03*
%TD*%
D20*
%TO.P,C10,1*%
%TO.N,GND*%
X152235000Y-54797500D03*
%TO.P,C10,2*%
%TO.N,Net-(C10-Pad2)*%
X152235000Y-52722500D03*
%TD*%
D16*
%TO.P,C1,1*%
%TO.N,GND*%
X141002500Y-47370000D03*
%TO.P,C1,2*%
%TO.N,VREG*%
X143077500Y-47370000D03*
%TD*%
D25*
%TO.N,EC_CTRL*%
X136320000Y-36090000D03*
%TO.N,RGB_W*%
X136250000Y-37810000D03*
%TO.N,RGB_G*%
X136230000Y-38880000D03*
%TO.N,VBUS*%
X140952500Y-35780000D03*
X140952500Y-33700000D03*
X146277500Y-40810000D03*
X135080000Y-46360000D03*
%TO.N,USB_HOST_P*%
X144915331Y-34388255D03*
%TO.N,USB_HOST_N*%
X139645000Y-42697831D03*
X140515000Y-43770000D03*
X144314289Y-33787213D03*
%TO.N,RGB_R*%
X136830000Y-39540000D03*
%TO.N,SWITCH*%
X136204000Y-36920000D03*
%TO.N,GND*%
X145800000Y-34397500D03*
X154857500Y-46205000D03*
X154857500Y-50270000D03*
X142286311Y-35392353D03*
X136890000Y-35510000D03*
X154820000Y-44172500D03*
X147831100Y-47261100D03*
X135080000Y-44285000D03*
X141172500Y-50640000D03*
X147831100Y-48404100D03*
X146688100Y-46118100D03*
X146688100Y-48404100D03*
X141910000Y-34740000D03*
X146688100Y-47261100D03*
X141002500Y-47370000D03*
X136910000Y-32691000D03*
X147831100Y-46118100D03*
X140960000Y-42680000D03*
X139280000Y-43800000D03*
X145780000Y-52412499D03*
X148974100Y-46118100D03*
X143280000Y-52722500D03*
X149780000Y-54812501D03*
X142608795Y-34698894D03*
X148974100Y-47261100D03*
X152235000Y-54797500D03*
X148974100Y-48404100D03*
X141220000Y-54720000D03*
%TO.N,LED_COM*%
X137700000Y-39650000D03*
%TO.N,VREG*%
X143247500Y-50640000D03*
X148430000Y-40670000D03*
X143077500Y-47370000D03*
X154820000Y-42170000D03*
X145660000Y-42860000D03*
X152782500Y-46205000D03*
%TD*%
D26*
%TO.N,EC_CTRL*%
X137790000Y-36330000D02*
X136560000Y-36330000D01*
X136560000Y-36330000D02*
X136320000Y-36090000D01*
%TO.N,RGB_W*%
X136250000Y-37810000D02*
X136729999Y-37330001D01*
X137790000Y-37330001D02*
X136729999Y-37330001D01*
%TO.N,RGB_G*%
X136230000Y-38737999D02*
X137137999Y-37830000D01*
X137137999Y-37830000D02*
X137790000Y-37830000D01*
X136230000Y-38880000D02*
X136230000Y-38737999D01*
D27*
%TO.N,VBUS*%
X146720000Y-40930000D02*
X146850000Y-41060000D01*
D26*
X137790000Y-33980000D02*
X138070000Y-33700000D01*
D28*
X135080000Y-46360000D02*
X135080000Y-48780000D01*
D27*
X140952500Y-33700000D02*
X138070000Y-33700000D01*
X140952500Y-35780000D02*
X140952500Y-33700000D01*
X146850000Y-41060000D02*
X146850000Y-43140000D01*
D26*
X146831099Y-44810000D02*
X146831099Y-43158901D01*
D27*
X146277500Y-40810000D02*
X146600000Y-40810000D01*
D26*
X137790000Y-34330000D02*
X137790000Y-33980000D01*
X146831099Y-43158901D02*
X146850000Y-43140000D01*
D27*
X146600000Y-40810000D02*
X146720000Y-40930000D01*
D28*
X135080000Y-48780000D02*
X135020000Y-48840000D01*
D26*
%TO.N,USB_HOST_P*%
X144863159Y-46261099D02*
X143899060Y-45297000D01*
X139915000Y-44233198D02*
X139915000Y-44220676D01*
X140245000Y-38583198D02*
X140843198Y-37985000D01*
X144475000Y-36873198D02*
X144475000Y-34545743D01*
X139915000Y-43375000D02*
X140245000Y-43045000D01*
X144475000Y-34545743D02*
X144632488Y-34388255D01*
X140277239Y-45137125D02*
X140123818Y-44983704D01*
X140843198Y-37985000D02*
X143363198Y-37985000D01*
X143363198Y-37985000D02*
X144475000Y-36873198D01*
X140245000Y-43045000D02*
X140245000Y-38583198D01*
X144632488Y-34388255D02*
X144915331Y-34388255D01*
X139970398Y-44288596D02*
X139915000Y-44233198D01*
X140123818Y-44442016D02*
X139970398Y-44288596D01*
X143899060Y-45297000D02*
X140978802Y-45297000D01*
X140978802Y-45297000D02*
X140818927Y-45137125D01*
X139915000Y-44220676D02*
X139915000Y-43375000D01*
X145380000Y-46261099D02*
X144863159Y-46261099D01*
X140818927Y-45137125D02*
G75*
G03*
X140548083Y-45137125I-135422J-135421D01*
G01*
X140123818Y-44712860D02*
G75*
G03*
X140123856Y-44441978I-135418J135460D01*
G01*
X140548083Y-45137125D02*
G75*
G02*
X140277239Y-45137125I-135422J135421D01*
G01*
X140123818Y-44983704D02*
G75*
G02*
X140123836Y-44712878I135382J135404D01*
G01*
%TO.N,USB_HOST_N*%
X139795000Y-38396802D02*
X140656802Y-37535000D01*
X145380000Y-45761100D02*
X144999528Y-45761100D01*
X144025000Y-36686802D02*
X144025000Y-34359345D01*
X139795000Y-42547831D02*
X139795000Y-38396802D01*
X141165218Y-44847020D02*
X140365000Y-44046802D01*
X140365000Y-44046802D02*
X140365000Y-43920000D01*
X144999528Y-45761100D02*
X144085448Y-44847020D01*
X144314289Y-34070056D02*
X144314289Y-33787213D01*
X144085448Y-44847020D02*
X141165218Y-44847020D01*
X144025000Y-34359345D02*
X144314289Y-34070056D01*
X139645000Y-42697831D02*
X139795000Y-42547831D01*
X140365000Y-43920000D02*
X140515000Y-43770000D01*
X140656802Y-37535000D02*
X143176802Y-37535000D01*
X143176802Y-37535000D02*
X144025000Y-36686802D01*
%TO.N,RGB_R*%
X137178001Y-38329999D02*
X137790000Y-38329999D01*
X136830000Y-39540000D02*
X136830000Y-38678000D01*
X136830000Y-38678000D02*
X137178001Y-38329999D01*
%TO.N,SWITCH*%
X137790000Y-36830000D02*
X136294000Y-36830000D01*
X136294000Y-36830000D02*
X136204000Y-36920000D01*
%TO.N,GND*%
X141910000Y-33058840D02*
X141341160Y-32490000D01*
X143541287Y-33186213D02*
X143027500Y-33700000D01*
X136890000Y-35510000D02*
X136514505Y-35510000D01*
X141341160Y-32490000D02*
X137111000Y-32490000D01*
X145800000Y-34397500D02*
X145800000Y-33710000D01*
X143027500Y-35780000D02*
X142673958Y-35780000D01*
X145800000Y-33710000D02*
X145276213Y-33186213D01*
X137111000Y-32490000D02*
X136910000Y-32691000D01*
X137790000Y-35829999D02*
X137209999Y-35829999D01*
X142673958Y-35780000D02*
X142286311Y-35392353D01*
X135290000Y-34285495D02*
X135290000Y-33110000D01*
X143027500Y-33700000D02*
X142960000Y-33700000D01*
X145276213Y-33186213D02*
X143541287Y-33186213D01*
X137209999Y-35829999D02*
X136890000Y-35510000D01*
X142608795Y-34118705D02*
X143027500Y-33700000D01*
X142608795Y-34698894D02*
X142608795Y-34118705D01*
X143027500Y-35780000D02*
X143027500Y-35616000D01*
X136514505Y-35510000D02*
X135290000Y-34285495D01*
X141910000Y-34740000D02*
X141910000Y-33058840D01*
%TO.N,LED_COM*%
X137700000Y-38920000D02*
X137790000Y-38830000D01*
X137830000Y-39520000D02*
X137700000Y-39650000D01*
X137700000Y-39650000D02*
X137700000Y-38920000D01*
D27*
%TO.N,VREG*%
X154815000Y-48237500D02*
X152782500Y-46205000D01*
D26*
X145660000Y-42860000D02*
X145660000Y-43450000D01*
X146831099Y-50268901D02*
X146080000Y-51020000D01*
D27*
X152782500Y-50270000D02*
X150700000Y-50270000D01*
D26*
X149540000Y-50270000D02*
X149331100Y-50061100D01*
X144021099Y-47761099D02*
X143830000Y-47570000D01*
D27*
X143247500Y-50640000D02*
X144620000Y-50640000D01*
X143077500Y-47370000D02*
X143630000Y-47370000D01*
D26*
X150282200Y-45761100D02*
X151651100Y-45761100D01*
D27*
X152782500Y-46205000D02*
X152095000Y-46205000D01*
X152782500Y-50270000D02*
X152787500Y-50270000D01*
X145000000Y-51020000D02*
X146080000Y-51020000D01*
D26*
X150700000Y-50270000D02*
X149540000Y-50270000D01*
X151651100Y-45761100D02*
X151660000Y-45770000D01*
D27*
X148430000Y-40670000D02*
X150510000Y-40670000D01*
D26*
X145380000Y-47761099D02*
X144021099Y-47761099D01*
D27*
X144920000Y-50940000D02*
X145000000Y-51020000D01*
D26*
X145660000Y-43450000D02*
X146331100Y-44121100D01*
D27*
X144620000Y-50640000D02*
X144920000Y-50940000D01*
X150510000Y-40670000D02*
X154470000Y-40670000D01*
D26*
X146331100Y-44121100D02*
X146331100Y-44810000D01*
D27*
X154820000Y-48237500D02*
X154815000Y-48237500D01*
D26*
X146831099Y-49712200D02*
X146831099Y-50268901D01*
D27*
X154820000Y-41020000D02*
X154820000Y-42170000D01*
D26*
X149331100Y-50061100D02*
X149331100Y-49712200D01*
D27*
X152787500Y-50270000D02*
X154820000Y-48237500D01*
X152095000Y-46205000D02*
X151660000Y-45770000D01*
X143630000Y-47370000D02*
X143830000Y-47570000D01*
X154470000Y-40670000D02*
X154820000Y-41020000D01*
D26*
%TO.N,X_IN*%
X143770000Y-53700000D02*
X146280000Y-53700000D01*
X143770000Y-53710000D02*
X143770000Y-53700000D01*
X143280000Y-54797500D02*
X145764999Y-54797500D01*
X145764999Y-54797500D02*
X145780000Y-54812501D01*
X143280000Y-54797500D02*
X143280000Y-54200000D01*
X147331101Y-52648899D02*
X147331101Y-49712200D01*
X146280000Y-53700000D02*
X147331101Y-52648899D01*
X143280000Y-54200000D02*
X143770000Y-53710000D01*
%TO.N,USB_FNG_N*%
X139079059Y-35385859D02*
X139079059Y-42119139D01*
X138645000Y-42553198D02*
X138645000Y-44806802D01*
X139079059Y-42119139D02*
X138645000Y-42553198D01*
X139463198Y-45625000D02*
X143763198Y-45625000D01*
X138065000Y-34855001D02*
X138548201Y-34855001D01*
X137790000Y-34830001D02*
X138040000Y-34830001D01*
X145355002Y-46786099D02*
X145380000Y-46761101D01*
X138040000Y-34830001D02*
X138065000Y-34855001D01*
X138645000Y-44806802D02*
X139463198Y-45625000D01*
X138548201Y-34855001D02*
X139079059Y-35385859D01*
X144924297Y-46786099D02*
X145355002Y-46786099D01*
X143763198Y-45625000D02*
X144924297Y-46786099D01*
%TO.N,USB_FNG_P*%
X138195000Y-42366802D02*
X138195000Y-44993198D01*
X138065000Y-35305000D02*
X138361804Y-35305000D01*
X138361804Y-35305000D02*
X138629059Y-35572255D01*
X139276802Y-46075000D02*
X143576802Y-46075000D01*
X138195000Y-44993198D02*
X139276802Y-46075000D01*
X144737903Y-47236101D02*
X145355002Y-47236101D01*
X138629059Y-35572255D02*
X138629059Y-41932743D01*
X143576802Y-46075000D02*
X144737903Y-47236101D01*
X145355002Y-47236101D02*
X145380001Y-47261100D01*
X138629059Y-41932743D02*
X138195000Y-42366802D01*
X138040000Y-35330000D02*
X138065000Y-35305000D01*
X137790000Y-35330000D02*
X138040000Y-35330000D01*
%TO.N,USB_KB_P*%
X139763198Y-49145000D02*
X136843197Y-52065001D01*
X145100600Y-48761100D02*
X145075600Y-48736100D01*
X145380000Y-48761100D02*
X145100600Y-48761100D01*
X145075600Y-48736100D02*
X144810696Y-48736100D01*
X144810696Y-48736100D02*
X144401796Y-49145000D01*
X136843197Y-52065001D02*
X135794999Y-52065001D01*
X144401796Y-49145000D02*
X139763198Y-49145000D01*
X135794999Y-52065001D02*
X135020000Y-52840000D01*
%TO.N,USB_KB_N*%
X144215400Y-48695000D02*
X139576802Y-48695000D01*
X145100600Y-48261101D02*
X145075600Y-48286101D01*
X136656803Y-51614999D02*
X135794999Y-51614999D01*
X139576802Y-48695000D02*
X136656803Y-51614999D01*
X135794999Y-51614999D02*
X135020000Y-50840000D01*
X145380000Y-48261101D02*
X145100600Y-48261101D01*
X144624299Y-48286101D02*
X144215400Y-48695000D01*
X145075600Y-48286101D02*
X144624299Y-48286101D01*
%TO.N,Net-(U1-RREF)*%
X140290000Y-52720000D02*
X139710000Y-52140000D01*
X139710000Y-52140000D02*
X139710000Y-50050000D01*
X141220000Y-52720000D02*
X140290000Y-52720000D01*
X146118900Y-49500000D02*
X146331100Y-49712200D01*
X140260000Y-49500000D02*
X146118900Y-49500000D01*
X139710000Y-50050000D02*
X140260000Y-49500000D01*
%TO.N,Net-(U1-\u002ARESET)*%
X152820000Y-48237500D02*
X152343599Y-47761099D01*
X152343599Y-47761099D02*
X150282200Y-47761099D01*
%TO.N,Net-(U1-GANG)*%
X148950000Y-43988000D02*
X151002000Y-43988000D01*
X152070000Y-42170000D02*
X152820000Y-42170000D01*
X148831101Y-44810000D02*
X148831101Y-44106899D01*
X151002000Y-43988000D02*
X151580000Y-43410000D01*
X151580000Y-43410000D02*
X151580000Y-42660000D01*
X148831101Y-44106899D02*
X148950000Y-43988000D01*
X151580000Y-42660000D02*
X152070000Y-42170000D01*
%TO.N,Net-(U1-\u002AOVR[1])*%
X147831100Y-43268900D02*
X148430000Y-42670000D01*
X147831100Y-44810001D02*
X147831100Y-43268900D01*
%TO.N,Net-(U1-\u002AOVR[2])*%
X148331099Y-43818901D02*
X148490000Y-43660000D01*
X148331099Y-44810000D02*
X148331099Y-43818901D01*
X150510000Y-42770000D02*
X150510000Y-42670000D01*
X148490000Y-43660000D02*
X149620000Y-43660000D01*
X149620000Y-43660000D02*
X150510000Y-42770000D01*
%TO.N,Net-(U1-SELFPWR)*%
X149331100Y-44810000D02*
X149331100Y-44368900D01*
X149331100Y-44368900D02*
X149384000Y-44316000D01*
X152676500Y-44316000D02*
X152820000Y-44172500D01*
X149384000Y-44316000D02*
X152676500Y-44316000D01*
%TO.N,X_OUT*%
X154490000Y-52760000D02*
X153230000Y-51500000D01*
X147831100Y-50951100D02*
X147831100Y-49712199D01*
X148380000Y-51500000D02*
X147831100Y-50951100D01*
X153230000Y-51500000D02*
X148380000Y-51500000D01*
%TO.N,Net-(C10-Pad2)*%
X152452500Y-52722500D02*
X154490000Y-54760000D01*
X152235000Y-52722500D02*
X152452500Y-52722500D01*
X151924999Y-52412499D02*
X152235000Y-52722500D01*
X149780000Y-52412499D02*
X151924999Y-52412499D01*
%TD*%
%TA.AperFunction,Conductor*%
%TO.N,GND*%
G36*
X139028834Y-50831112D02*
G01*
X139084767Y-50872984D01*
X139109184Y-50938448D01*
X139109500Y-50947294D01*
X139109500Y-52053330D01*
X139109499Y-52053348D01*
X139109499Y-52219054D01*
X139109498Y-52219054D01*
X139109499Y-52219057D01*
X139150423Y-52371785D01*
X139150424Y-52371786D01*
X139161680Y-52391284D01*
X139161681Y-52391285D01*
X139229475Y-52508709D01*
X139229481Y-52508717D01*
X139348349Y-52627585D01*
X139348355Y-52627590D01*
X139805139Y-53084374D01*
X139805149Y-53084385D01*
X139809479Y-53088715D01*
X139809480Y-53088716D01*
X139921284Y-53200520D01*
X139971445Y-53229480D01*
X140005730Y-53249274D01*
X140053944Y-53299841D01*
X140061432Y-53317651D01*
X140085186Y-53389334D01*
X140161463Y-53513000D01*
X140177289Y-53538657D01*
X140271304Y-53632672D01*
X140304789Y-53693995D01*
X140299805Y-53763687D01*
X140271305Y-53808034D01*
X140177682Y-53901657D01*
X140085643Y-54050875D01*
X140085641Y-54050880D01*
X140030494Y-54217302D01*
X140030493Y-54217309D01*
X140020000Y-54320013D01*
X140020000Y-54470000D01*
X141096000Y-54470000D01*
X141163039Y-54489685D01*
X141208794Y-54542489D01*
X141220000Y-54594000D01*
X141220000Y-54846000D01*
X141200315Y-54913039D01*
X141147511Y-54958794D01*
X141096000Y-54970000D01*
X140020001Y-54970000D01*
X140020001Y-55119986D01*
X140030494Y-55222697D01*
X140085641Y-55389119D01*
X140085643Y-55389124D01*
X140177684Y-55538345D01*
X140301655Y-55662316D01*
X140301659Y-55662319D01*
X140362687Y-55699962D01*
X140409412Y-55751910D01*
X140420633Y-55820872D01*
X140392790Y-55884954D01*
X140334721Y-55923810D01*
X140297590Y-55929500D01*
X135807310Y-55929500D01*
X135740271Y-55909815D01*
X135719629Y-55893181D01*
X134843223Y-55016777D01*
X134702765Y-54876319D01*
X134666445Y-54839999D01*
X135373553Y-54839999D01*
X135373553Y-54840000D01*
X136063678Y-55530126D01*
X136063678Y-55530125D01*
X136089095Y-55495143D01*
X136178418Y-55319835D01*
X136239221Y-55132705D01*
X136270000Y-54938382D01*
X136270000Y-54741617D01*
X136239221Y-54547294D01*
X136178418Y-54360164D01*
X136089096Y-54184858D01*
X136063678Y-54149873D01*
X136063677Y-54149873D01*
X135373553Y-54839999D01*
X134666445Y-54839999D01*
X133964289Y-54137841D01*
X133940851Y-54132918D01*
X133891095Y-54083866D01*
X133875500Y-54023664D01*
X133875500Y-53763336D01*
X133895185Y-53696297D01*
X133947989Y-53650542D01*
X134017147Y-53640598D01*
X134080703Y-53669623D01*
X134087181Y-53675655D01*
X134205354Y-53793828D01*
X134324784Y-53880600D01*
X134364596Y-53909525D01*
X134427046Y-53941344D01*
X134507108Y-53982137D01*
X134538493Y-54004940D01*
X135020000Y-54486446D01*
X135020001Y-54486446D01*
X135501505Y-54004940D01*
X135532884Y-53982141D01*
X135675405Y-53909524D01*
X135834646Y-53793828D01*
X135973828Y-53654646D01*
X136089524Y-53495405D01*
X136178884Y-53320025D01*
X136239709Y-53132826D01*
X136247786Y-53081831D01*
X136270500Y-52938422D01*
X136270500Y-52789501D01*
X136290185Y-52722462D01*
X136342989Y-52676707D01*
X136394500Y-52665501D01*
X136756528Y-52665501D01*
X136756544Y-52665502D01*
X136764140Y-52665502D01*
X136922251Y-52665502D01*
X136922254Y-52665502D01*
X137074982Y-52624578D01*
X137169787Y-52569842D01*
X137211913Y-52545521D01*
X137323717Y-52433717D01*
X137323717Y-52433715D01*
X137333921Y-52423512D01*
X137333924Y-52423507D01*
X138897820Y-50859611D01*
X138959142Y-50826128D01*
X139028834Y-50831112D01*
G37*
%TD.AperFunction*%
%TA.AperFunction,Conductor*%
G36*
X148080323Y-52028998D02*
G01*
X148084838Y-52028784D01*
X148117598Y-52041899D01*
X148148215Y-52059577D01*
X148287595Y-52096924D01*
X148347254Y-52133288D01*
X148377783Y-52196135D01*
X148379500Y-52216698D01*
X148379500Y-52812501D01*
X148379501Y-52812519D01*
X148390000Y-52915296D01*
X148390001Y-52915299D01*
X148445185Y-53081831D01*
X148445187Y-53081836D01*
X148446759Y-53084385D01*
X148537288Y-53231156D01*
X148661344Y-53355212D01*
X148810666Y-53447314D01*
X148954746Y-53495057D01*
X149012190Y-53534828D01*
X149039013Y-53599344D01*
X149026698Y-53668120D01*
X148979155Y-53719320D01*
X148954746Y-53730468D01*
X148810878Y-53778142D01*
X148810875Y-53778143D01*
X148661654Y-53870184D01*
X148537684Y-53994154D01*
X148445643Y-54143375D01*
X148445641Y-54143380D01*
X148390494Y-54309802D01*
X148390493Y-54309809D01*
X148380000Y-54412513D01*
X148380000Y-54562500D01*
X150897724Y-54562500D01*
X150920004Y-54550334D01*
X150946362Y-54547500D01*
X152111000Y-54547500D01*
X152178039Y-54567185D01*
X152223794Y-54619989D01*
X152235000Y-54671500D01*
X152235000Y-54923500D01*
X152215315Y-54990539D01*
X152162511Y-55036294D01*
X152111000Y-55047500D01*
X151292276Y-55047500D01*
X151269996Y-55059666D01*
X151243638Y-55062500D01*
X148380001Y-55062500D01*
X148380001Y-55212486D01*
X148390494Y-55315197D01*
X148445641Y-55481619D01*
X148445643Y-55481624D01*
X148537684Y-55630845D01*
X148624658Y-55717819D01*
X148658143Y-55779142D01*
X148653159Y-55848834D01*
X148611287Y-55904767D01*
X148545823Y-55929184D01*
X148536977Y-55929500D01*
X147023730Y-55929500D01*
X146956691Y-55909815D01*
X146910936Y-55857011D01*
X146900992Y-55787853D01*
X146930017Y-55724297D01*
X146936049Y-55717819D01*
X146953906Y-55699962D01*
X147022712Y-55631156D01*
X147114814Y-55481834D01*
X147169999Y-55315297D01*
X147180500Y-55212509D01*
X147180499Y-54412492D01*
X147169999Y-54309703D01*
X147114814Y-54143166D01*
X147022712Y-53993844D01*
X147016732Y-53987864D01*
X146983247Y-53926541D01*
X146988231Y-53856849D01*
X147016732Y-53812502D01*
X147334178Y-53495056D01*
X147689607Y-53139627D01*
X147689612Y-53139623D01*
X147699815Y-53129419D01*
X147699817Y-53129419D01*
X147811621Y-53017615D01*
X147883556Y-52893019D01*
X147890678Y-52880684D01*
X147931601Y-52727957D01*
X147931601Y-52569842D01*
X147931601Y-52149288D01*
X147933312Y-52143460D01*
X147932163Y-52137498D01*
X147943041Y-52110325D01*
X147951286Y-52082249D01*
X147955874Y-52078273D01*
X147958132Y-52072634D01*
X147981978Y-52055654D01*
X148004090Y-52036494D01*
X148010099Y-52035629D01*
X148015047Y-52032107D01*
X148044281Y-52030715D01*
X148073248Y-52026550D01*
X148080323Y-52028998D01*
G37*
%TD.AperFunction*%
%TA.AperFunction,Conductor*%
G36*
X140472622Y-32268796D02*
G01*
X140518387Y-32321591D01*
X140528344Y-32390747D01*
X140499332Y-32454309D01*
X140444608Y-32490831D01*
X140295666Y-32540186D01*
X140295663Y-32540187D01*
X140146342Y-32632289D01*
X140022288Y-32756343D01*
X140022285Y-32756347D01*
X140020281Y-32759597D01*
X140018323Y-32761357D01*
X140017807Y-32762011D01*
X140017695Y-32761922D01*
X139968334Y-32806322D01*
X139914743Y-32818500D01*
X137983178Y-32818500D01*
X137812881Y-32852374D01*
X137812871Y-32852377D01*
X137652459Y-32918821D01*
X137652446Y-32918828D01*
X137508077Y-33015293D01*
X137508073Y-33015296D01*
X137385296Y-33138073D01*
X137385293Y-33138077D01*
X137288828Y-33282446D01*
X137288821Y-33282459D01*
X137222377Y-33442871D01*
X137222374Y-33442881D01*
X137188500Y-33613177D01*
X137188500Y-33643568D01*
X137168815Y-33710607D01*
X137138811Y-33742834D01*
X137032455Y-33822452D01*
X137032452Y-33822455D01*
X136946206Y-33937664D01*
X136946202Y-33937671D01*
X136898629Y-34065223D01*
X136895909Y-34072517D01*
X136889500Y-34132127D01*
X136889500Y-34132134D01*
X136889500Y-34132135D01*
X136889500Y-34527869D01*
X136889501Y-34527878D01*
X136893679Y-34566745D01*
X136893679Y-34593250D01*
X136889500Y-34632122D01*
X136889500Y-35027869D01*
X136889501Y-35027878D01*
X136893679Y-35066745D01*
X136894350Y-35083092D01*
X136894222Y-35088198D01*
X136889500Y-35132127D01*
X136889500Y-35277319D01*
X136889461Y-35278881D01*
X136879240Y-35310727D01*
X136869815Y-35342825D01*
X136868600Y-35343877D01*
X136868109Y-35345409D01*
X136842270Y-35366692D01*
X136817011Y-35388580D01*
X136815421Y-35388808D01*
X136814180Y-35389831D01*
X136780958Y-35393763D01*
X136747853Y-35398524D01*
X136746176Y-35397881D01*
X136744795Y-35398045D01*
X136738136Y-35394800D01*
X136705239Y-35382195D01*
X136704554Y-35383479D01*
X136699172Y-35380602D01*
X136553501Y-35320264D01*
X136553489Y-35320261D01*
X136398845Y-35289500D01*
X136398842Y-35289500D01*
X136241158Y-35289500D01*
X136241155Y-35289500D01*
X136086510Y-35320261D01*
X136086498Y-35320264D01*
X135940827Y-35380602D01*
X135940814Y-35380609D01*
X135809711Y-35468210D01*
X135809707Y-35468213D01*
X135698213Y-35579707D01*
X135698210Y-35579711D01*
X135610609Y-35710814D01*
X135610602Y-35710827D01*
X135550264Y-35856498D01*
X135550261Y-35856510D01*
X135519500Y-36011153D01*
X135519500Y-36168846D01*
X135550260Y-36323488D01*
X135550262Y-36323493D01*
X135550263Y-36323497D01*
X135559171Y-36345003D01*
X135566637Y-36414473D01*
X135547711Y-36461342D01*
X135494608Y-36540816D01*
X135494602Y-36540827D01*
X135434264Y-36686498D01*
X135434261Y-36686510D01*
X135403500Y-36841153D01*
X135403500Y-36998846D01*
X135434261Y-37153489D01*
X135434264Y-37153501D01*
X135494602Y-37299172D01*
X135494609Y-37299185D01*
X135519840Y-37336945D01*
X135540718Y-37403622D01*
X135531299Y-37453288D01*
X135480264Y-37576498D01*
X135480261Y-37576510D01*
X135449500Y-37731153D01*
X135449500Y-37888846D01*
X135480261Y-38043489D01*
X135480264Y-38043501D01*
X135540602Y-38189172D01*
X135540609Y-38189185D01*
X135588690Y-38261143D01*
X135609568Y-38327821D01*
X135591083Y-38395201D01*
X135588690Y-38398925D01*
X135520609Y-38500814D01*
X135520602Y-38500827D01*
X135460264Y-38646498D01*
X135460261Y-38646510D01*
X135429500Y-38801153D01*
X135429500Y-38958846D01*
X135460261Y-39113489D01*
X135460264Y-39113501D01*
X135506535Y-39225211D01*
X135514004Y-39294681D01*
X135490000Y-39342632D01*
X135490000Y-40750000D01*
X135737828Y-40750000D01*
X135737844Y-40749999D01*
X135797372Y-40743598D01*
X135797379Y-40743596D01*
X135932086Y-40693354D01*
X135932093Y-40693350D01*
X136047187Y-40607190D01*
X136047190Y-40607187D01*
X136133350Y-40492093D01*
X136133354Y-40492086D01*
X136183596Y-40357379D01*
X136183598Y-40357372D01*
X136190356Y-40294525D01*
X136191843Y-40294684D01*
X136213100Y-40234393D01*
X136268270Y-40191520D01*
X136337860Y-40185279D01*
X136382583Y-40203799D01*
X136450814Y-40249390D01*
X136450827Y-40249397D01*
X136572428Y-40299765D01*
X136596503Y-40309737D01*
X136724986Y-40335294D01*
X136751153Y-40340499D01*
X136751156Y-40340500D01*
X136751158Y-40340500D01*
X136908844Y-40340500D01*
X136908845Y-40340499D01*
X137063497Y-40309737D01*
X137115236Y-40288305D01*
X137184704Y-40280837D01*
X137231579Y-40299765D01*
X137320814Y-40359390D01*
X137320827Y-40359397D01*
X137466498Y-40419735D01*
X137466503Y-40419737D01*
X137621153Y-40450499D01*
X137621156Y-40450500D01*
X137621158Y-40450500D01*
X137778844Y-40450500D01*
X137849063Y-40436532D01*
X137880367Y-40430305D01*
X137949958Y-40436532D01*
X138005136Y-40479394D01*
X138028381Y-40545284D01*
X138028559Y-40551922D01*
X138028559Y-41632645D01*
X138008874Y-41699684D01*
X137992240Y-41720326D01*
X137714481Y-41998084D01*
X137714477Y-41998089D01*
X137668855Y-42077111D01*
X137668855Y-42077112D01*
X137635423Y-42135016D01*
X137635423Y-42135017D01*
X137594499Y-42287745D01*
X137594499Y-42287747D01*
X137594499Y-42455848D01*
X137594500Y-42455861D01*
X137594500Y-44906528D01*
X137594499Y-44906546D01*
X137594499Y-45072252D01*
X137594498Y-45072252D01*
X137629063Y-45201250D01*
X137635423Y-45224983D01*
X137653495Y-45256284D01*
X137678820Y-45300148D01*
X137714479Y-45361912D01*
X137714481Y-45361915D01*
X137833349Y-45480783D01*
X137833355Y-45480788D01*
X138791941Y-46439374D01*
X138791951Y-46439385D01*
X138796281Y-46443715D01*
X138796282Y-46443716D01*
X138908086Y-46555520D01*
X138908088Y-46555521D01*
X138908092Y-46555524D01*
X138973860Y-46593495D01*
X138973864Y-46593496D01*
X138973865Y-46593497D01*
X139009441Y-46614037D01*
X139045014Y-46634576D01*
X139045016Y-46634576D01*
X139045017Y-46634577D01*
X139197745Y-46675500D01*
X139355859Y-46675500D01*
X139795005Y-46675500D01*
X139862044Y-46695185D01*
X139907799Y-46747989D01*
X139918363Y-46812103D01*
X139915000Y-46845013D01*
X139915000Y-47120000D01*
X140878500Y-47120000D01*
X140945539Y-47139685D01*
X140991294Y-47192489D01*
X141002500Y-47244000D01*
X141002500Y-47496000D01*
X140982815Y-47563039D01*
X140930011Y-47608794D01*
X140878500Y-47620000D01*
X139915001Y-47620000D01*
X139915001Y-47894989D01*
X139921428Y-47957899D01*
X139908658Y-48026592D01*
X139860777Y-48077476D01*
X139798070Y-48094500D01*
X139497745Y-48094500D01*
X139345014Y-48135423D01*
X139317736Y-48151174D01*
X139317734Y-48151175D01*
X139208089Y-48214477D01*
X139208084Y-48214481D01*
X136482181Y-50940385D01*
X136420858Y-50973870D01*
X136351166Y-50968886D01*
X136295233Y-50927014D01*
X136270816Y-50861550D01*
X136270500Y-50852704D01*
X136270500Y-50741577D01*
X136239709Y-50547173D01*
X136178882Y-50359970D01*
X136089523Y-50184594D01*
X135973828Y-50025354D01*
X135973819Y-50025345D01*
X135970664Y-50021650D01*
X135971632Y-50020822D01*
X135970107Y-50018029D01*
X135962864Y-50012608D01*
X135953624Y-49987842D01*
X135940958Y-49964646D01*
X135941603Y-49955622D01*
X135938441Y-49947146D01*
X135944056Y-49921319D01*
X135945942Y-49894954D01*
X135951756Y-49885906D01*
X135953286Y-49878871D01*
X135974435Y-49850615D01*
X135979806Y-49845243D01*
X135979822Y-49845229D01*
X135985199Y-49839852D01*
X136139852Y-49685199D01*
X136268407Y-49508257D01*
X136367701Y-49313383D01*
X136435286Y-49105375D01*
X136435375Y-49104816D01*
X136469501Y-48889356D01*
X136469501Y-48670644D01*
X136469501Y-48666243D01*
X136469500Y-48666228D01*
X136469500Y-46250638D01*
X136443459Y-46086227D01*
X136435286Y-46034625D01*
X136367701Y-45826617D01*
X136367701Y-45826616D01*
X136292991Y-45679992D01*
X136268407Y-45631743D01*
X136228782Y-45577203D01*
X136139857Y-45454806D01*
X136049287Y-45364236D01*
X136015802Y-45302913D01*
X136020786Y-45233221D01*
X136049287Y-45188874D01*
X136147315Y-45090845D01*
X136239356Y-44941624D01*
X136239358Y-44941619D01*
X136294505Y-44775197D01*
X136294506Y-44775190D01*
X136304999Y-44672486D01*
X136305000Y-44672473D01*
X136305000Y-44535000D01*
X135204000Y-44535000D01*
X135136961Y-44515315D01*
X135091206Y-44462511D01*
X135080000Y-44411000D01*
X135080000Y-44285000D01*
X134954000Y-44285000D01*
X134886961Y-44265315D01*
X134841206Y-44212511D01*
X134830000Y-44161000D01*
X134830000Y-44035000D01*
X135330000Y-44035000D01*
X136304999Y-44035000D01*
X136304999Y-43897528D01*
X136304998Y-43897513D01*
X136294505Y-43794802D01*
X136239358Y-43628380D01*
X136239356Y-43628375D01*
X136147315Y-43479154D01*
X136023345Y-43355184D01*
X135874124Y-43263143D01*
X135874119Y-43263141D01*
X135707697Y-43207994D01*
X135707690Y-43207993D01*
X135604986Y-43197500D01*
X135330000Y-43197500D01*
X135330000Y-44035000D01*
X134830000Y-44035000D01*
X134830000Y-43197500D01*
X134555029Y-43197500D01*
X134555012Y-43197501D01*
X134452302Y-43207994D01*
X134285880Y-43263141D01*
X134285875Y-43263143D01*
X134136654Y-43355184D01*
X134087181Y-43404658D01*
X134025858Y-43438143D01*
X133956166Y-43433159D01*
X133900233Y-43391287D01*
X133875816Y-43325823D01*
X133875500Y-43316977D01*
X133875500Y-40297844D01*
X134390000Y-40297844D01*
X134396401Y-40357372D01*
X134396403Y-40357379D01*
X134446645Y-40492086D01*
X134446649Y-40492093D01*
X134532809Y-40607187D01*
X134532812Y-40607190D01*
X134647906Y-40693350D01*
X134647913Y-40693354D01*
X134782620Y-40743596D01*
X134782627Y-40743598D01*
X134842155Y-40749999D01*
X134842172Y-40750000D01*
X135090000Y-40750000D01*
X135090000Y-40250000D01*
X134390000Y-40250000D01*
X134390000Y-40297844D01*
X133875500Y-40297844D01*
X133875500Y-39802155D01*
X134390000Y-39802155D01*
X134390000Y-39850000D01*
X135090000Y-39850000D01*
X135090000Y-39350000D01*
X134842155Y-39350000D01*
X134782627Y-39356401D01*
X134782620Y-39356403D01*
X134647913Y-39406645D01*
X134647906Y-39406649D01*
X134532812Y-39492809D01*
X134532809Y-39492812D01*
X134446649Y-39607906D01*
X134446645Y-39607913D01*
X134396403Y-39742620D01*
X134396401Y-39742627D01*
X134390000Y-39802155D01*
X133875500Y-39802155D01*
X133875500Y-33357844D01*
X134390000Y-33357844D01*
X134396401Y-33417372D01*
X134396403Y-33417379D01*
X134446645Y-33552086D01*
X134446649Y-33552093D01*
X134532809Y-33667187D01*
X134532812Y-33667190D01*
X134647906Y-33753350D01*
X134647913Y-33753354D01*
X134782620Y-33803596D01*
X134782627Y-33803598D01*
X134842155Y-33809999D01*
X134842172Y-33810000D01*
X135090000Y-33810000D01*
X135490000Y-33810000D01*
X135737828Y-33810000D01*
X135737844Y-33809999D01*
X135797372Y-33803598D01*
X135797379Y-33803596D01*
X135932086Y-33753354D01*
X135932093Y-33753350D01*
X136047187Y-33667190D01*
X136047190Y-33667187D01*
X136133350Y-33552093D01*
X136133354Y-33552086D01*
X136183596Y-33417379D01*
X136183598Y-33417372D01*
X136189999Y-33357844D01*
X136190000Y-33357827D01*
X136190000Y-33310000D01*
X135490000Y-33310000D01*
X135490000Y-33810000D01*
X135090000Y-33810000D01*
X135090000Y-33310000D01*
X134390000Y-33310000D01*
X134390000Y-33357844D01*
X133875500Y-33357844D01*
X133875500Y-33005881D01*
X133876097Y-32993726D01*
X133884750Y-32905879D01*
X133888703Y-32865739D01*
X133893444Y-32841903D01*
X133928998Y-32724684D01*
X133938295Y-32702236D01*
X133996034Y-32594203D01*
X134009526Y-32574007D01*
X134087233Y-32479306D01*
X134104411Y-32462126D01*
X134114442Y-32453892D01*
X134199089Y-32384408D01*
X134219292Y-32370907D01*
X134327311Y-32313151D01*
X134349757Y-32303848D01*
X134466975Y-32268271D01*
X134490796Y-32263528D01*
X134542068Y-32258469D01*
X134610717Y-32271476D01*
X134661435Y-32319532D01*
X134678122Y-32387380D01*
X134655477Y-32453479D01*
X134628555Y-32481136D01*
X134532812Y-32552809D01*
X134532809Y-32552812D01*
X134446649Y-32667906D01*
X134446645Y-32667913D01*
X134396403Y-32802620D01*
X134396401Y-32802627D01*
X134390000Y-32862155D01*
X134390000Y-32910000D01*
X136190000Y-32910000D01*
X136190000Y-32862172D01*
X136189999Y-32862155D01*
X136183598Y-32802627D01*
X136183596Y-32802620D01*
X136133354Y-32667913D01*
X136133350Y-32667906D01*
X136047190Y-32552812D01*
X135940938Y-32473271D01*
X135899068Y-32417337D01*
X135894084Y-32347646D01*
X135927570Y-32286323D01*
X135988893Y-32252838D01*
X136015222Y-32250005D01*
X140405579Y-32249125D01*
X140472622Y-32268796D01*
G37*
%TD.AperFunction*%
%TA.AperFunction,Conductor*%
G36*
X155013039Y-44192185D02*
G01*
X155058794Y-44244989D01*
X155070000Y-44296500D01*
X155070000Y-44850000D01*
X155071181Y-44851181D01*
X155104666Y-44912504D01*
X155107500Y-44938862D01*
X155107500Y-46081000D01*
X155087815Y-46148039D01*
X155035011Y-46193794D01*
X154983500Y-46205000D01*
X154731500Y-46205000D01*
X154664461Y-46185315D01*
X154618706Y-46132511D01*
X154607500Y-46081000D01*
X154607500Y-45502500D01*
X154606319Y-45501319D01*
X154572834Y-45439996D01*
X154570000Y-45413638D01*
X154570000Y-44296500D01*
X154589685Y-44229461D01*
X154642489Y-44183706D01*
X154694000Y-44172500D01*
X154946000Y-44172500D01*
X155013039Y-44192185D01*
G37*
%TD.AperFunction*%
%TA.AperFunction,Conductor*%
G36*
X146253988Y-32267685D02*
G01*
X146294993Y-32315007D01*
X146296137Y-32314347D01*
X146299563Y-32320282D01*
X146299743Y-32320489D01*
X146299926Y-32320910D01*
X146300201Y-32321386D01*
X146359511Y-32424113D01*
X146443387Y-32507989D01*
X146546114Y-32567299D01*
X146660691Y-32598000D01*
X146660694Y-32598000D01*
X147529306Y-32598000D01*
X147529309Y-32598000D01*
X147643886Y-32567299D01*
X147746613Y-32507989D01*
X147830489Y-32424113D01*
X147889799Y-32321386D01*
X147889799Y-32321385D01*
X147893863Y-32314347D01*
X147895805Y-32315468D01*
X147932331Y-32270144D01*
X147998625Y-32248079D01*
X148003051Y-32248000D01*
X149145500Y-32248000D01*
X149212539Y-32267685D01*
X149258294Y-32320489D01*
X149269500Y-32372000D01*
X149269500Y-37773000D01*
X149249815Y-37840039D01*
X149197011Y-37885794D01*
X149145500Y-37897000D01*
X148003051Y-37897000D01*
X147936012Y-37877315D01*
X147895006Y-37829992D01*
X147893863Y-37830653D01*
X147890436Y-37824717D01*
X147890257Y-37824511D01*
X147890073Y-37824089D01*
X147889799Y-37823614D01*
X147830489Y-37720887D01*
X147746613Y-37637011D01*
X147643886Y-37577701D01*
X147529309Y-37547000D01*
X147519828Y-37547000D01*
X146764170Y-37547000D01*
X146720000Y-37547000D01*
X146660691Y-37547000D01*
X146546114Y-37577701D01*
X146546112Y-37577701D01*
X146546112Y-37577702D01*
X146443387Y-37637011D01*
X146443384Y-37637013D01*
X146359513Y-37720884D01*
X146359511Y-37720887D01*
X146296137Y-37830653D01*
X146294194Y-37829531D01*
X146257669Y-37874856D01*
X146191375Y-37896921D01*
X146186949Y-37897000D01*
X145718452Y-37897000D01*
X145717438Y-37897100D01*
X145687410Y-37897100D01*
X145505384Y-37931126D01*
X145505377Y-37931128D01*
X145505376Y-37931129D01*
X145332710Y-37998020D01*
X145332708Y-37998021D01*
X145175266Y-38095506D01*
X145038420Y-38220257D01*
X144926821Y-38368036D01*
X144844283Y-38533795D01*
X144844283Y-38533796D01*
X144793604Y-38711911D01*
X144776519Y-38896299D01*
X144776519Y-38896300D01*
X144793604Y-39080688D01*
X144844283Y-39258803D01*
X144844283Y-39258804D01*
X144926821Y-39424563D01*
X144937261Y-39438387D01*
X144961953Y-39503748D01*
X144947388Y-39572082D01*
X144898191Y-39621695D01*
X144829981Y-39636834D01*
X144799304Y-39630820D01*
X144692700Y-39595495D01*
X144692690Y-39595493D01*
X144589986Y-39585000D01*
X144452500Y-39585000D01*
X144452500Y-42034999D01*
X144589972Y-42034999D01*
X144589986Y-42034998D01*
X144692697Y-42024505D01*
X144859119Y-41969358D01*
X144859124Y-41969356D01*
X145008345Y-41877315D01*
X145132318Y-41753342D01*
X145134165Y-41750348D01*
X145135969Y-41748724D01*
X145136798Y-41747677D01*
X145136976Y-41747818D01*
X145186110Y-41703621D01*
X145255073Y-41692396D01*
X145319156Y-41720236D01*
X145328996Y-41729398D01*
X145338247Y-41738998D01*
X145347288Y-41753656D01*
X145471344Y-41877712D01*
X145472749Y-41878579D01*
X145479549Y-41885635D01*
X145491997Y-41909470D01*
X145507540Y-41931414D01*
X145507926Y-41939972D01*
X145511893Y-41947568D01*
X145509477Y-41974351D01*
X145510690Y-42001212D01*
X145506387Y-42008621D01*
X145505618Y-42017155D01*
X145489110Y-42038376D01*
X145475604Y-42061634D01*
X145467227Y-42066507D01*
X145462718Y-42072304D01*
X145448904Y-42077166D01*
X145431793Y-42087120D01*
X145432130Y-42087932D01*
X145280827Y-42150602D01*
X145280814Y-42150609D01*
X145149711Y-42238210D01*
X145149707Y-42238213D01*
X145038213Y-42349707D01*
X145038210Y-42349711D01*
X144950609Y-42480814D01*
X144950602Y-42480827D01*
X144890264Y-42626498D01*
X144890261Y-42626510D01*
X144859500Y-42781153D01*
X144859500Y-42938846D01*
X144890261Y-43093489D01*
X144890264Y-43093501D01*
X144950602Y-43239172D01*
X144950609Y-43239185D01*
X145038601Y-43370873D01*
X145059479Y-43437550D01*
X145059499Y-43439764D01*
X145059499Y-43529054D01*
X145059498Y-43529054D01*
X145100423Y-43681786D01*
X145112048Y-43701919D01*
X145112049Y-43701924D01*
X145112050Y-43701924D01*
X145179475Y-43818709D01*
X145179481Y-43818717D01*
X145298349Y-43937585D01*
X145298354Y-43937589D01*
X145667282Y-44306518D01*
X145700766Y-44367839D01*
X145703600Y-44394197D01*
X145703600Y-45009600D01*
X145683915Y-45076639D01*
X145631111Y-45122394D01*
X145579600Y-45133600D01*
X145272625Y-45133600D01*
X145205586Y-45113915D01*
X145184944Y-45097281D01*
X144573038Y-44485375D01*
X144573036Y-44485372D01*
X144454165Y-44366501D01*
X144454164Y-44366500D01*
X144360208Y-44312255D01*
X144317233Y-44287443D01*
X144164505Y-44246519D01*
X144006391Y-44246519D01*
X143998795Y-44246519D01*
X143998779Y-44246520D01*
X141465315Y-44246520D01*
X141435874Y-44237875D01*
X141405888Y-44231352D01*
X141400872Y-44227597D01*
X141398276Y-44226835D01*
X141377634Y-44210201D01*
X141309990Y-44142557D01*
X141276505Y-44081234D01*
X141281489Y-44011542D01*
X141283097Y-44007456D01*
X141284737Y-44003497D01*
X141315500Y-43848842D01*
X141315500Y-43691158D01*
X141315500Y-43691155D01*
X141315499Y-43691153D01*
X141311787Y-43672492D01*
X141284737Y-43536503D01*
X141281652Y-43529054D01*
X141224397Y-43390827D01*
X141224390Y-43390814D01*
X141136789Y-43259711D01*
X141136786Y-43259707D01*
X141032378Y-43155299D01*
X140998893Y-43093976D01*
X141003877Y-43024284D01*
X141032361Y-42979953D01*
X141051828Y-42960480D01*
X141138488Y-42830726D01*
X141198166Y-42686558D01*
X141227709Y-42537853D01*
X141228552Y-42534709D01*
X141228552Y-42533612D01*
X141228571Y-42533517D01*
X141228552Y-42455502D01*
X141228552Y-42159647D01*
X141228552Y-42159644D01*
X141228532Y-42159498D01*
X141226829Y-42152197D01*
X141201436Y-42024506D01*
X141198096Y-42007712D01*
X141198095Y-42007711D01*
X141198095Y-42007708D01*
X141138402Y-41863577D01*
X141051739Y-41733859D01*
X140941437Y-41623540D01*
X140920370Y-41609460D01*
X140900598Y-41596246D01*
X140855799Y-41542629D01*
X140845500Y-41493151D01*
X140845500Y-41334986D01*
X143115001Y-41334986D01*
X143125494Y-41437697D01*
X143180641Y-41604119D01*
X143180643Y-41604124D01*
X143272684Y-41753345D01*
X143396654Y-41877315D01*
X143545875Y-41969356D01*
X143545880Y-41969358D01*
X143712302Y-42024505D01*
X143712309Y-42024506D01*
X143815019Y-42034999D01*
X143952499Y-42034999D01*
X143952500Y-42034998D01*
X143952500Y-41060000D01*
X143115001Y-41060000D01*
X143115001Y-41334986D01*
X140845500Y-41334986D01*
X140845500Y-40285013D01*
X143115000Y-40285013D01*
X143115000Y-40560000D01*
X143952500Y-40560000D01*
X143952500Y-39585000D01*
X143815027Y-39585000D01*
X143815012Y-39585001D01*
X143712302Y-39595494D01*
X143545880Y-39650641D01*
X143545875Y-39650643D01*
X143396654Y-39742684D01*
X143272684Y-39866654D01*
X143180643Y-40015875D01*
X143180641Y-40015880D01*
X143125494Y-40182302D01*
X143125493Y-40182309D01*
X143115000Y-40285013D01*
X140845500Y-40285013D01*
X140845500Y-38883295D01*
X140854144Y-38853854D01*
X140860668Y-38823868D01*
X140864422Y-38818852D01*
X140865185Y-38816256D01*
X140881819Y-38795614D01*
X141055615Y-38621819D01*
X141116938Y-38588334D01*
X141143296Y-38585500D01*
X143276529Y-38585500D01*
X143276545Y-38585501D01*
X143284141Y-38585501D01*
X143442252Y-38585501D01*
X143442255Y-38585501D01*
X143594983Y-38544577D01*
X143645102Y-38515639D01*
X143731914Y-38465520D01*
X143843718Y-38353716D01*
X143843718Y-38353714D01*
X143853926Y-38343507D01*
X143853928Y-38343504D01*
X144833506Y-37363926D01*
X144833511Y-37363922D01*
X144843714Y-37353718D01*
X144843716Y-37353718D01*
X144955520Y-37241914D01*
X145034577Y-37104982D01*
X145064534Y-36993179D01*
X145075500Y-36952256D01*
X145075500Y-36794141D01*
X145075500Y-35271219D01*
X145095185Y-35204180D01*
X145147989Y-35158425D01*
X145152036Y-35156662D01*
X145294510Y-35097649D01*
X145425620Y-35010044D01*
X145537120Y-34898544D01*
X145624725Y-34767434D01*
X145685068Y-34621752D01*
X145715831Y-34467097D01*
X145715831Y-34309413D01*
X145715831Y-34309410D01*
X145715830Y-34309408D01*
X145685069Y-34154765D01*
X145685068Y-34154758D01*
X145651003Y-34072517D01*
X145624728Y-34009082D01*
X145624721Y-34009069D01*
X145537120Y-33877966D01*
X145537117Y-33877962D01*
X145425623Y-33766468D01*
X145425619Y-33766465D01*
X145294516Y-33678864D01*
X145294503Y-33678857D01*
X145150459Y-33619193D01*
X145096055Y-33575352D01*
X145083350Y-33552084D01*
X145023686Y-33408040D01*
X145023679Y-33408027D01*
X144936078Y-33276924D01*
X144936075Y-33276920D01*
X144824581Y-33165426D01*
X144824577Y-33165423D01*
X144693474Y-33077822D01*
X144693461Y-33077815D01*
X144547790Y-33017477D01*
X144547778Y-33017474D01*
X144393134Y-32986713D01*
X144393131Y-32986713D01*
X144235447Y-32986713D01*
X144235442Y-32986713D01*
X144193435Y-32995069D01*
X144123843Y-32988842D01*
X144068666Y-32945978D01*
X144051537Y-32912454D01*
X144049358Y-32905879D01*
X143957315Y-32756654D01*
X143833345Y-32632684D01*
X143684124Y-32540643D01*
X143684119Y-32540641D01*
X143531887Y-32490196D01*
X143474442Y-32450423D01*
X143447619Y-32385907D01*
X143459934Y-32317131D01*
X143507477Y-32265932D01*
X143570862Y-32248490D01*
X146019987Y-32248000D01*
X146186949Y-32248000D01*
X146253988Y-32267685D01*
G37*
%TD.AperFunction*%
%TA.AperFunction,Conductor*%
G36*
X143220539Y-33719685D02*
G01*
X143266294Y-33772489D01*
X143277500Y-33824000D01*
X143277500Y-35656000D01*
X143257815Y-35723039D01*
X143205011Y-35768794D01*
X143153500Y-35780000D01*
X142901500Y-35780000D01*
X142834461Y-35760315D01*
X142788706Y-35707511D01*
X142777500Y-35656000D01*
X142777500Y-33824000D01*
X142797185Y-33756961D01*
X142849989Y-33711206D01*
X142901500Y-33700000D01*
X143153500Y-33700000D01*
X143220539Y-33719685D01*
G37*
%TD.AperFunction*%
%TA.AperFunction,Conductor*%
G36*
X142550467Y-32268379D02*
G01*
X142596233Y-32321174D01*
X142606190Y-32390330D01*
X142577178Y-32453892D01*
X142522454Y-32490414D01*
X142370878Y-32540642D01*
X142370875Y-32540643D01*
X142221654Y-32632684D01*
X142097683Y-32756655D01*
X142097679Y-32756660D01*
X142095826Y-32759665D01*
X142094018Y-32761290D01*
X142093202Y-32762323D01*
X142093025Y-32762183D01*
X142043874Y-32806385D01*
X141974911Y-32817601D01*
X141910831Y-32789752D01*
X141884753Y-32759653D01*
X141884718Y-32759597D01*
X141882712Y-32756344D01*
X141758656Y-32632288D01*
X141664152Y-32573998D01*
X141609336Y-32540187D01*
X141609331Y-32540185D01*
X141606249Y-32539163D01*
X141459728Y-32490611D01*
X141402284Y-32450839D01*
X141375461Y-32386323D01*
X141387776Y-32317548D01*
X141435319Y-32266348D01*
X141498707Y-32248906D01*
X142483426Y-32248708D01*
X142550467Y-32268379D01*
G37*
%TD.AperFunction*%
%TD*%
M02*
