%TF.GenerationSoftware,KiCad,Pcbnew,9.0.6*%
%TF.CreationDate,2026-03-04T08:45:45-05:00*%
%TF.ProjectId,usb-hub,7573622d-6875-4622-9e6b-696361645f70,rev?*%
%TF.SameCoordinates,Original*%
%TF.FileFunction,Soldermask,Top*%
%TF.FilePolarity,Negative*%
%FSLAX46Y46*%
G04 Gerber Fmt 4.6, Leading zero omitted, Abs format (unit mm)*
G04 Created by KiCad (PCBNEW 9.0.6) date 2026-03-04 08:45:45*
%MOMM*%
%LPD*%
G01*
G04 APERTURE LIST*
G04 Aperture macros list*
%AMRoundRect*
0 Rectangle with rounded corners*
0 $1 Rounding radius*
0 $2 $3 $4 $5 $6 $7 $8 $9 X,Y pos of 4 corners*
0 Add a 4 corners polygon primitive as box body*
4,1,4,$2,$3,$4,$5,$6,$7,$8,$9,$2,$3,0*
0 Add four circle primitives for the rounded corners*
1,1,$1+$1,$2,$3*
1,1,$1+$1,$4,$5*
1,1,$1+$1,$6,$7*
1,1,$1+$1,$8,$9*
0 Add four rect primitives between the rounded corners*
20,1,$1+$1,$2,$3,$4,$5,0*
20,1,$1+$1,$4,$5,$6,$7,0*
20,1,$1+$1,$6,$7,$8,$9,0*
20,1,$1+$1,$8,$9,$2,$3,0*%
G04 Aperture macros list end*
%ADD10RoundRect,0.250000X0.450000X-0.350000X0.450000X0.350000X-0.450000X0.350000X-0.450000X-0.350000X0*%
%ADD11RoundRect,0.250000X0.337500X0.475000X-0.337500X0.475000X-0.337500X-0.475000X0.337500X-0.475000X0*%
%ADD12R,0.800000X0.300000*%
%ADD13R,0.800000X0.400000*%
%ADD14C,1.500000*%
%ADD15RoundRect,0.250000X-0.450000X0.350000X-0.450000X-0.350000X0.450000X-0.350000X0.450000X0.350000X0*%
%ADD16RoundRect,0.250000X-0.337500X-0.475000X0.337500X-0.475000X0.337500X0.475000X-0.337500X0.475000X0*%
%ADD17RoundRect,0.250000X-0.350000X-0.450000X0.350000X-0.450000X0.350000X0.450000X-0.350000X0.450000X0*%
%ADD18RoundRect,0.250000X0.350000X0.450000X-0.350000X0.450000X-0.350000X-0.450000X0.350000X-0.450000X0*%
%ADD19RoundRect,0.250000X-0.650000X-0.350000X0.650000X-0.350000X0.650000X0.350000X-0.650000X0.350000X0*%
%ADD20RoundRect,0.250000X0.475000X-0.337500X0.475000X0.337500X-0.475000X0.337500X-0.475000X-0.337500X0*%
%ADD21RoundRect,0.250000X-0.475000X0.337500X-0.475000X-0.337500X0.475000X-0.337500X0.475000X0.337500X0*%
%ADD22R,0.812800X0.254000*%
%ADD23R,0.254000X0.812800*%
%ADD24R,3.606800X3.606800*%
G04 APERTURE END LIST*
D10*
%TO.C,R4*%
X148430000Y-42670000D03*
X148430000Y-40670000D03*
%TD*%
D11*
%TO.C,C6*%
X143027500Y-35780000D03*
X140952500Y-35780000D03*
%TD*%
D12*
%TO.C,FPC1*%
X137790000Y-34330000D03*
X137790000Y-34830000D03*
X137790000Y-35330000D03*
X137790000Y-35830000D03*
X137790000Y-36330000D03*
X137790000Y-36830000D03*
X137790000Y-37330000D03*
X137790000Y-37830000D03*
X137790000Y-38330000D03*
X137790000Y-38830000D03*
D13*
X135290000Y-33110000D03*
X135290000Y-40050000D03*
%TD*%
D14*
%TO.C,J3*%
X135020000Y-48840000D03*
X135020000Y-50840000D03*
X135020000Y-52840000D03*
X135020000Y-54840000D03*
%TD*%
D15*
%TO.C,R1*%
X141220000Y-52720000D03*
X141220000Y-54720000D03*
%TD*%
D16*
%TO.C,C2*%
X152782500Y-50270000D03*
X154857500Y-50270000D03*
%TD*%
D15*
%TO.C,R7*%
X154490000Y-52760000D03*
X154490000Y-54760000D03*
%TD*%
D17*
%TO.C,R3*%
X152820000Y-42170000D03*
X154820000Y-42170000D03*
%TD*%
D18*
%TO.C,R6*%
X154820000Y-44172500D03*
X152820000Y-44172500D03*
%TD*%
D19*
%TO.C,Y1*%
X145780000Y-54812500D03*
X149780000Y-54812500D03*
X149780000Y-52412500D03*
X145780000Y-52412500D03*
%TD*%
D20*
%TO.C,C9*%
X143280000Y-54797500D03*
X143280000Y-52722500D03*
%TD*%
D11*
%TO.C,C3*%
X143247500Y-50640000D03*
X141172500Y-50640000D03*
%TD*%
%TO.C,C7*%
X143027500Y-33700000D03*
X140952500Y-33700000D03*
%TD*%
D16*
%TO.C,C5*%
X144202500Y-40810000D03*
X146277500Y-40810000D03*
%TD*%
D21*
%TO.C,C8*%
X135080000Y-44285000D03*
X135080000Y-46360000D03*
%TD*%
D17*
%TO.C,R2*%
X152820000Y-48237500D03*
X154820000Y-48237500D03*
%TD*%
D15*
%TO.C,R5*%
X150510000Y-40670000D03*
X150510000Y-42670000D03*
%TD*%
D22*
%TO.C,U1*%
X145380000Y-45761100D03*
X145380000Y-46261099D03*
X145380000Y-46761101D03*
X145380000Y-47261100D03*
X145380000Y-47761099D03*
X145380000Y-48261101D03*
X145380000Y-48761100D03*
D23*
X146331100Y-49712200D03*
X146831099Y-49712200D03*
X147331101Y-49712200D03*
X147831100Y-49712200D03*
X148331099Y-49712200D03*
X148831101Y-49712200D03*
X149331100Y-49712200D03*
D22*
X150282200Y-48761100D03*
X150282200Y-48261101D03*
X150282200Y-47761099D03*
X150282200Y-47261100D03*
X150282200Y-46761101D03*
X150282200Y-46261099D03*
X150282200Y-45761100D03*
D23*
X149331100Y-44810000D03*
X148831101Y-44810000D03*
X148331099Y-44810000D03*
X147831100Y-44810000D03*
X147331101Y-44810000D03*
X146831099Y-44810000D03*
X146331100Y-44810000D03*
D24*
X147831100Y-47261100D03*
%TD*%
D16*
%TO.C,C4*%
X152782500Y-46205000D03*
X154857500Y-46205000D03*
%TD*%
D20*
%TO.C,C10*%
X152235000Y-54797500D03*
X152235000Y-52722500D03*
%TD*%
D16*
%TO.C,C1*%
X141002500Y-47370000D03*
X143077500Y-47370000D03*
%TD*%
M02*
