%TF.GenerationSoftware,KiCad,Pcbnew,9.0.6*%
%TF.CreationDate,2026-03-04T08:52:34-05:00*%
%TF.ProjectId,source,736f7572-6365-42e6-9b69-6361645f7063,rev?*%
%TF.SameCoordinates,Original*%
%TF.FileFunction,Soldermask,Top*%
%TF.FilePolarity,Negative*%
%FSLAX46Y46*%
G04 Gerber Fmt 4.6, Leading zero omitted, Abs format (unit mm)*
G04 Created by KiCad (PCBNEW 9.0.6) date 2026-03-04 08:52:34*
%MOMM*%
%LPD*%
G01*
G04 APERTURE LIST*
G04 Aperture macros list*
%AMRoundRect*
0 Rectangle with rounded corners*
0 $1 Rounding radius*
0 $2 $3 $4 $5 $6 $7 $8 $9 X,Y pos of 4 corners*
0 Add a 4 corners polygon primitive as box body*
4,1,4,$2,$3,$4,$5,$6,$7,$8,$9,$2,$3,0*
0 Add four circle primitives for the rounded corners*
1,1,$1+$1,$2,$3*
1,1,$1+$1,$4,$5*
1,1,$1+$1,$6,$7*
1,1,$1+$1,$8,$9*
0 Add four rect primitives between the rounded corners*
20,1,$1+$1,$2,$3,$4,$5,0*
20,1,$1+$1,$4,$5,$6,$7,0*
20,1,$1+$1,$6,$7,$8,$9,0*
20,1,$1+$1,$8,$9,$2,$3,0*%
G04 Aperture macros list end*
%ADD10C,2.600000*%
%ADD11C,3.800000*%
%ADD12RoundRect,0.102000X-0.125000X-0.450000X0.125000X-0.450000X0.125000X0.450000X-0.125000X0.450000X0*%
%ADD13RoundRect,0.102000X-0.275000X-0.450000X0.275000X-0.450000X0.275000X0.450000X-0.275000X0.450000X0*%
%ADD14RoundRect,0.102000X-0.700000X-0.950000X0.700000X-0.950000X0.700000X0.950000X-0.700000X0.950000X0*%
%ADD15RoundRect,0.076200X-0.140000X-1.200000X0.140000X-1.200000X0.140000X1.200000X-0.140000X1.200000X0*%
%ADD16O,1.552400X2.952400*%
%ADD17O,1.352400X2.552400*%
%ADD18C,3.054000*%
%ADD19RoundRect,0.102000X-1.425000X-1.425000X1.425000X-1.425000X1.425000X1.425000X-1.425000X1.425000X0*%
%ADD20RoundRect,0.102000X-0.604000X-0.604000X0.604000X-0.604000X0.604000X0.604000X-0.604000X0.604000X0*%
G04 APERTURE END LIST*
D10*
%TO.C,H2*%
X149170000Y-65000000D03*
D11*
X149170000Y-65000000D03*
%TD*%
D12*
%TO.C,J1*%
X122090000Y-55960000D03*
X122590000Y-55960000D03*
X123090000Y-55960000D03*
X123590000Y-55960000D03*
X124090000Y-55960000D03*
X124590000Y-55960000D03*
X125090000Y-55960000D03*
X125590000Y-55960000D03*
X126090000Y-55960000D03*
X126590000Y-55960000D03*
X127090000Y-55960000D03*
X127590000Y-55960000D03*
X128090000Y-55960000D03*
X128590000Y-55960000D03*
X129090000Y-55960000D03*
X129590000Y-55960000D03*
X130090000Y-55960000D03*
X130590000Y-55960000D03*
X131090000Y-55960000D03*
X131590000Y-55960000D03*
X132090000Y-55960000D03*
X132590000Y-55960000D03*
X133090000Y-55960000D03*
X133590000Y-55960000D03*
X134090000Y-55960000D03*
X134590000Y-55960000D03*
X135090000Y-55960000D03*
X135590000Y-55960000D03*
X136090000Y-55960000D03*
X136590000Y-55960000D03*
X137090000Y-55960000D03*
X137590000Y-55960000D03*
X138090000Y-55960000D03*
X138590000Y-55960000D03*
X139090000Y-55960000D03*
X139590000Y-55960000D03*
X140090000Y-55960000D03*
X140590000Y-55960000D03*
X141090000Y-55960000D03*
X141590000Y-55960000D03*
D13*
X121190000Y-55960000D03*
D14*
X118990000Y-58780000D03*
D13*
X142490000Y-55960000D03*
D14*
X144690000Y-58780000D03*
%TD*%
D15*
%TO.C,J2*%
X131250000Y-70092500D03*
X130750000Y-70092500D03*
X130250000Y-70092500D03*
X129750000Y-70092500D03*
X129250000Y-70092500D03*
X128750000Y-70092500D03*
X128250000Y-70092500D03*
X127750000Y-70092500D03*
X127250000Y-70092500D03*
X126750000Y-70092500D03*
X126250000Y-70092500D03*
X125750000Y-70092500D03*
X125250000Y-70092500D03*
X124750000Y-70092500D03*
X124250000Y-70092500D03*
X123750000Y-70092500D03*
X123250000Y-70092500D03*
X122750000Y-70092500D03*
X122250000Y-70092500D03*
X121750000Y-70092500D03*
D16*
X117500000Y-72692500D03*
X134000000Y-72692500D03*
D17*
X117500000Y-79472500D03*
X134000000Y-79472500D03*
%TD*%
D18*
%TO.C,J3*%
X146800000Y-72950000D03*
D19*
X141800000Y-72950000D03*
D20*
X150650000Y-76180000D03*
X150650000Y-74180000D03*
%TD*%
D10*
%TO.C,H1*%
X118990000Y-64980000D03*
D11*
X118990000Y-64980000D03*
%TD*%
M02*
