%TF.GenerationSoftware,KiCad,Pcbnew,9.0.6*%
%TF.CreationDate,2026-03-04T08:52:34-05:00*%
%TF.ProjectId,source,736f7572-6365-42e6-9b69-6361645f7063,rev?*%
%TF.SameCoordinates,Original*%
%TF.FileFunction,Copper,L2,Inr*%
%TF.FilePolarity,Positive*%
%FSLAX46Y46*%
G04 Gerber Fmt 4.6, Leading zero omitted, Abs format (unit mm)*
G04 Created by KiCad (PCBNEW 9.0.6) date 2026-03-04 08:52:34*
%MOMM*%
%LPD*%
G01*
G04 APERTURE LIST*
%TA.AperFunction,ComponentPad*%
%ADD10C,2.600000*%
%TD*%
%TA.AperFunction,ComponentPad*%
%ADD11O,1.400000X2.800000*%
%TD*%
%TA.AperFunction,ComponentPad*%
%ADD12O,1.200000X2.400000*%
%TD*%
%TA.AperFunction,ComponentPad*%
%ADD13C,2.850000*%
%TD*%
%TA.AperFunction,ComponentPad*%
%ADD14R,2.850000X2.850000*%
%TD*%
%TA.AperFunction,ComponentPad*%
%ADD15R,1.208000X1.208000*%
%TD*%
%TA.AperFunction,ViaPad*%
%ADD16C,0.500000*%
%TD*%
%TA.AperFunction,ViaPad*%
%ADD17C,0.600000*%
%TD*%
G04 APERTURE END LIST*
D10*
%TO.N,GND*%
%TO.C,H2*%
X149170000Y-65000000D03*
%TD*%
D11*
%TO.N,GND*%
%TO.C,J2*%
X117500000Y-72692500D03*
X134000000Y-72692500D03*
D12*
X117500000Y-79472500D03*
X134000000Y-79472500D03*
%TD*%
D13*
%TO.N,GND*%
%TO.C,J3*%
X146800000Y-72950000D03*
D14*
%TO.N,+5V*%
X141800000Y-72950000D03*
D15*
%TO.N,BLK_OFF_N*%
X150650000Y-76180000D03*
%TO.N,BLK_PWM_LCD*%
X150650000Y-74180000D03*
%TD*%
D10*
%TO.N,GND*%
%TO.C,H1*%
X118990000Y-64980000D03*
%TD*%
D16*
%TO.N,+3.3V*%
X131340000Y-57130000D03*
D17*
X121750000Y-68100000D03*
%TO.N,GND*%
X126250000Y-72000000D03*
X123750000Y-72000000D03*
D16*
X128590000Y-57130000D03*
D17*
X130750000Y-72000000D03*
D16*
X124090000Y-57130000D03*
X135590000Y-55060000D03*
D17*
X125420000Y-72000000D03*
X127750000Y-72000000D03*
X122250000Y-72000000D03*
D16*
X122590000Y-57130000D03*
X134590000Y-55060000D03*
D17*
X124560000Y-72000000D03*
D16*
X127090000Y-57130000D03*
X130090000Y-57130000D03*
X128590000Y-55060000D03*
X133090000Y-55060000D03*
D17*
X129250000Y-72000000D03*
D16*
X125590000Y-57130000D03*
X137090000Y-55060000D03*
X130090000Y-55060000D03*
%TO.N,BLK_PWM_LCD*%
X138190000Y-57130000D03*
%TO.N,BLK_OFF_N*%
X137490000Y-57130000D03*
%TO.N,+5V*%
X140340000Y-57130000D03*
%TO.N,EDP_HPD*%
X135090000Y-57130000D03*
D17*
X122570000Y-66500000D03*
%TD*%
%TA.AperFunction,Conductor*%
%TO.N,GND*%
G36*
X147172045Y-53991095D02*
G01*
X147251269Y-53998894D01*
X147275078Y-54003628D01*
X147345390Y-54024947D01*
X147367835Y-54034240D01*
X147432633Y-54068858D01*
X147452837Y-54082351D01*
X147514271Y-54132737D01*
X147523286Y-54140901D01*
X147764755Y-54382208D01*
X154339390Y-60952436D01*
X154339389Y-60952436D01*
X154339390Y-60952437D01*
X154388757Y-61001770D01*
X154396936Y-61010788D01*
X154447489Y-61072350D01*
X154461005Y-61092566D01*
X154495680Y-61157407D01*
X154504988Y-61179869D01*
X154526338Y-61250221D01*
X154531085Y-61274072D01*
X154538902Y-61353414D01*
X154539499Y-61365570D01*
X154539499Y-61396276D01*
X154539499Y-61425297D01*
X154539499Y-61425299D01*
X154539500Y-61435291D01*
X154539500Y-82773038D01*
X154538720Y-82786923D01*
X154528540Y-82877264D01*
X154522362Y-82904333D01*
X154494648Y-82983537D01*
X154482600Y-83008555D01*
X154437957Y-83079604D01*
X154420644Y-83101313D01*
X154361313Y-83160644D01*
X154339604Y-83177957D01*
X154268555Y-83222600D01*
X154243537Y-83234648D01*
X154164333Y-83262362D01*
X154137264Y-83268540D01*
X154057075Y-83277576D01*
X154046921Y-83278720D01*
X154033038Y-83279500D01*
X116007266Y-83279500D01*
X115993379Y-83278720D01*
X115981906Y-83277427D01*
X115903012Y-83268535D01*
X115875938Y-83262354D01*
X115796724Y-83234630D01*
X115771702Y-83222577D01*
X115700644Y-83177917D01*
X115678932Y-83160597D01*
X115619595Y-83101240D01*
X115602283Y-83079524D01*
X115557646Y-83008451D01*
X115545602Y-82983425D01*
X115517903Y-82904200D01*
X115511731Y-82877122D01*
X115501578Y-82786767D01*
X115500802Y-82772880D01*
X115502122Y-78785928D01*
X116400000Y-78785928D01*
X116400000Y-79222500D01*
X117200000Y-79222500D01*
X117200000Y-79722500D01*
X116400000Y-79722500D01*
X116400000Y-80159071D01*
X116427085Y-80330084D01*
X116480591Y-80494757D01*
X116559195Y-80649024D01*
X116660967Y-80789102D01*
X116783397Y-80911532D01*
X116923475Y-81013304D01*
X117077744Y-81091908D01*
X117242415Y-81145414D01*
X117242414Y-81145414D01*
X117249999Y-81146615D01*
X117250000Y-81146614D01*
X117250000Y-80189488D01*
X117259940Y-80206705D01*
X117315795Y-80262560D01*
X117384204Y-80302056D01*
X117460504Y-80322500D01*
X117539496Y-80322500D01*
X117615796Y-80302056D01*
X117684205Y-80262560D01*
X117740060Y-80206705D01*
X117750000Y-80189488D01*
X117750000Y-81146615D01*
X117757584Y-81145414D01*
X117922255Y-81091908D01*
X118076524Y-81013304D01*
X118216602Y-80911532D01*
X118339032Y-80789102D01*
X118440804Y-80649024D01*
X118519408Y-80494757D01*
X118572914Y-80330084D01*
X118581024Y-80278879D01*
X124799500Y-80278879D01*
X124799500Y-80466120D01*
X124836025Y-80649743D01*
X124836027Y-80649751D01*
X124907676Y-80822728D01*
X124907681Y-80822737D01*
X125011697Y-80978407D01*
X125011700Y-80978411D01*
X125144088Y-81110799D01*
X125144092Y-81110802D01*
X125299762Y-81214818D01*
X125299768Y-81214821D01*
X125299769Y-81214822D01*
X125472749Y-81286473D01*
X125656379Y-81322999D01*
X125656383Y-81323000D01*
X125656384Y-81323000D01*
X125843617Y-81323000D01*
X125843618Y-81322999D01*
X126027251Y-81286473D01*
X126200231Y-81214822D01*
X126355908Y-81110802D01*
X126488302Y-80978408D01*
X126592322Y-80822731D01*
X126663973Y-80649751D01*
X126700500Y-80466116D01*
X126700500Y-80278884D01*
X126663973Y-80095249D01*
X126592322Y-79922269D01*
X126592321Y-79922268D01*
X126592318Y-79922262D01*
X126488302Y-79766592D01*
X126488299Y-79766588D01*
X126355911Y-79634200D01*
X126355907Y-79634197D01*
X126200237Y-79530181D01*
X126200228Y-79530176D01*
X126027251Y-79458527D01*
X126027243Y-79458525D01*
X125843620Y-79422000D01*
X125843616Y-79422000D01*
X125656384Y-79422000D01*
X125656379Y-79422000D01*
X125472756Y-79458525D01*
X125472748Y-79458527D01*
X125299771Y-79530176D01*
X125299762Y-79530181D01*
X125144092Y-79634197D01*
X125144088Y-79634200D01*
X125011700Y-79766588D01*
X125011697Y-79766592D01*
X124907681Y-79922262D01*
X124907676Y-79922271D01*
X124836027Y-80095248D01*
X124836025Y-80095256D01*
X124799500Y-80278879D01*
X118581024Y-80278879D01*
X118585061Y-80253394D01*
X118600000Y-80159071D01*
X118600000Y-79722500D01*
X117800000Y-79722500D01*
X117800000Y-79222500D01*
X118600000Y-79222500D01*
X118600000Y-78785928D01*
X132900000Y-78785928D01*
X132900000Y-79222500D01*
X133700000Y-79222500D01*
X133700000Y-79722500D01*
X132900000Y-79722500D01*
X132900000Y-80159071D01*
X132927085Y-80330084D01*
X132980591Y-80494757D01*
X133059195Y-80649024D01*
X133160967Y-80789102D01*
X133283397Y-80911532D01*
X133423475Y-81013304D01*
X133577744Y-81091908D01*
X133742415Y-81145414D01*
X133742414Y-81145414D01*
X133749999Y-81146615D01*
X133750000Y-81146614D01*
X133750000Y-80189488D01*
X133759940Y-80206705D01*
X133815795Y-80262560D01*
X133884204Y-80302056D01*
X133960504Y-80322500D01*
X134039496Y-80322500D01*
X134115796Y-80302056D01*
X134184205Y-80262560D01*
X134240060Y-80206705D01*
X134250000Y-80189488D01*
X134250000Y-81146615D01*
X134257584Y-81145414D01*
X134422255Y-81091908D01*
X134576524Y-81013304D01*
X134716602Y-80911532D01*
X134839032Y-80789102D01*
X134940804Y-80649024D01*
X135019408Y-80494757D01*
X135072914Y-80330084D01*
X135100000Y-80159071D01*
X135100000Y-79722500D01*
X134300000Y-79722500D01*
X134300000Y-79222500D01*
X135100000Y-79222500D01*
X135100000Y-78785928D01*
X135072914Y-78614915D01*
X135019408Y-78450242D01*
X134940804Y-78295975D01*
X134839032Y-78155897D01*
X134716602Y-78033467D01*
X134576524Y-77931695D01*
X134422257Y-77853091D01*
X134257589Y-77799587D01*
X134257581Y-77799585D01*
X134250000Y-77798384D01*
X134250000Y-78755511D01*
X134240060Y-78738295D01*
X134184205Y-78682440D01*
X134115796Y-78642944D01*
X134039496Y-78622500D01*
X133960504Y-78622500D01*
X133884204Y-78642944D01*
X133815795Y-78682440D01*
X133759940Y-78738295D01*
X133750000Y-78755511D01*
X133750000Y-77798384D01*
X133749999Y-77798384D01*
X133742418Y-77799585D01*
X133742410Y-77799587D01*
X133577742Y-77853091D01*
X133423475Y-77931695D01*
X133283397Y-78033467D01*
X133160967Y-78155897D01*
X133059195Y-78295975D01*
X132980591Y-78450242D01*
X132927085Y-78614915D01*
X132900000Y-78785928D01*
X118600000Y-78785928D01*
X118572914Y-78614915D01*
X118519408Y-78450242D01*
X118440804Y-78295975D01*
X118339032Y-78155897D01*
X118216602Y-78033467D01*
X118076524Y-77931695D01*
X117922257Y-77853091D01*
X117757589Y-77799587D01*
X117757581Y-77799585D01*
X117750000Y-77798384D01*
X117750000Y-78755511D01*
X117740060Y-78738295D01*
X117684205Y-78682440D01*
X117615796Y-78642944D01*
X117539496Y-78622500D01*
X117460504Y-78622500D01*
X117384204Y-78642944D01*
X117315795Y-78682440D01*
X117259940Y-78738295D01*
X117250000Y-78755511D01*
X117250000Y-77798384D01*
X117249999Y-77798384D01*
X117242418Y-77799585D01*
X117242410Y-77799587D01*
X117077742Y-77853091D01*
X116923475Y-77931695D01*
X116783397Y-78033467D01*
X116660967Y-78155897D01*
X116559195Y-78295975D01*
X116480591Y-78450242D01*
X116427085Y-78614915D01*
X116400000Y-78785928D01*
X115502122Y-78785928D01*
X115504403Y-71898052D01*
X116300000Y-71898052D01*
X116300000Y-72442500D01*
X117200000Y-72442500D01*
X117200000Y-72942500D01*
X116300000Y-72942500D01*
X116300000Y-73486947D01*
X116329548Y-73673502D01*
X116387914Y-73853137D01*
X116473670Y-74021440D01*
X116584685Y-74174241D01*
X116584689Y-74174246D01*
X116718253Y-74307810D01*
X116718258Y-74307814D01*
X116871059Y-74418829D01*
X117039362Y-74504585D01*
X117218997Y-74562951D01*
X117250000Y-74567862D01*
X117250000Y-73659488D01*
X117259940Y-73676705D01*
X117315795Y-73732560D01*
X117384204Y-73772056D01*
X117460504Y-73792500D01*
X117539496Y-73792500D01*
X117615796Y-73772056D01*
X117684205Y-73732560D01*
X117740060Y-73676705D01*
X117750000Y-73659488D01*
X117750000Y-74567861D01*
X117781002Y-74562951D01*
X117960637Y-74504585D01*
X118128940Y-74418829D01*
X118281741Y-74307814D01*
X118281746Y-74307810D01*
X118415310Y-74174246D01*
X118415314Y-74174241D01*
X118526329Y-74021440D01*
X118612085Y-73853137D01*
X118670451Y-73673502D01*
X118700000Y-73486947D01*
X118700000Y-72942500D01*
X117800000Y-72942500D01*
X117800000Y-72442500D01*
X118700000Y-72442500D01*
X118700000Y-71898052D01*
X132800000Y-71898052D01*
X132800000Y-72442500D01*
X133700000Y-72442500D01*
X133700000Y-72942500D01*
X132800000Y-72942500D01*
X132800000Y-73486947D01*
X132829548Y-73673502D01*
X132887914Y-73853137D01*
X132973670Y-74021440D01*
X133084685Y-74174241D01*
X133084689Y-74174246D01*
X133218253Y-74307810D01*
X133218258Y-74307814D01*
X133371059Y-74418829D01*
X133539362Y-74504585D01*
X133718997Y-74562951D01*
X133750000Y-74567862D01*
X133750000Y-73659488D01*
X133759940Y-73676705D01*
X133815795Y-73732560D01*
X133884204Y-73772056D01*
X133960504Y-73792500D01*
X134039496Y-73792500D01*
X134115796Y-73772056D01*
X134184205Y-73732560D01*
X134240060Y-73676705D01*
X134250000Y-73659488D01*
X134250000Y-74567861D01*
X134281002Y-74562951D01*
X134460637Y-74504585D01*
X134628940Y-74418829D01*
X134781741Y-74307814D01*
X134781746Y-74307810D01*
X134915310Y-74174246D01*
X134915314Y-74174241D01*
X135026329Y-74021440D01*
X135112085Y-73853137D01*
X135170451Y-73673502D01*
X135200000Y-73486947D01*
X135200000Y-72942500D01*
X134300000Y-72942500D01*
X134300000Y-72442500D01*
X135200000Y-72442500D01*
X135200000Y-71898052D01*
X135170451Y-71711497D01*
X135112085Y-71531862D01*
X135111187Y-71530099D01*
X135084200Y-71477135D01*
X139874500Y-71477135D01*
X139874500Y-74422870D01*
X139874501Y-74422876D01*
X139880908Y-74482483D01*
X139931202Y-74617328D01*
X139931206Y-74617335D01*
X140017452Y-74732544D01*
X140017455Y-74732547D01*
X140132664Y-74818793D01*
X140132671Y-74818797D01*
X140267517Y-74869091D01*
X140267516Y-74869091D01*
X140274444Y-74869835D01*
X140327127Y-74875500D01*
X143272872Y-74875499D01*
X143332483Y-74869091D01*
X143467331Y-74818796D01*
X143582546Y-74732546D01*
X143668796Y-74617331D01*
X143719091Y-74482483D01*
X143725500Y-74422873D01*
X143725499Y-72823821D01*
X144875000Y-72823821D01*
X144875000Y-73076178D01*
X144907938Y-73326353D01*
X144973248Y-73570097D01*
X145069810Y-73803220D01*
X145069817Y-73803235D01*
X145195986Y-74021766D01*
X145273569Y-74122875D01*
X145273570Y-74122875D01*
X145973474Y-73422971D01*
X146062087Y-73555590D01*
X146194410Y-73687913D01*
X146327027Y-73776525D01*
X145627123Y-74476428D01*
X145627123Y-74476429D01*
X145728233Y-74554013D01*
X145946764Y-74680182D01*
X145946779Y-74680189D01*
X146179902Y-74776751D01*
X146423646Y-74842061D01*
X146673821Y-74874999D01*
X146673836Y-74875000D01*
X146926164Y-74875000D01*
X146926178Y-74874999D01*
X147176353Y-74842061D01*
X147420097Y-74776751D01*
X147653220Y-74680189D01*
X147653234Y-74680182D01*
X147871767Y-74554012D01*
X147972875Y-74476428D01*
X147272972Y-73776525D01*
X147405590Y-73687913D01*
X147537913Y-73555590D01*
X147626525Y-73422972D01*
X148326428Y-74122875D01*
X148404012Y-74021767D01*
X148530182Y-73803234D01*
X148530189Y-73803220D01*
X148626751Y-73570097D01*
X148637995Y-73528135D01*
X149545500Y-73528135D01*
X149545500Y-74831870D01*
X149545501Y-74831876D01*
X149551908Y-74891483D01*
X149602202Y-75026328D01*
X149602204Y-75026331D01*
X149661611Y-75105689D01*
X149686028Y-75171154D01*
X149671176Y-75239427D01*
X149661611Y-75254311D01*
X149602204Y-75333668D01*
X149602202Y-75333671D01*
X149551908Y-75468517D01*
X149545501Y-75528116D01*
X149545501Y-75528123D01*
X149545500Y-75528135D01*
X149545500Y-76831870D01*
X149545501Y-76831876D01*
X149551908Y-76891483D01*
X149602202Y-77026328D01*
X149602206Y-77026335D01*
X149688452Y-77141544D01*
X149688455Y-77141547D01*
X149803664Y-77227793D01*
X149803671Y-77227797D01*
X149938517Y-77278091D01*
X149938516Y-77278091D01*
X149945444Y-77278835D01*
X149998127Y-77284500D01*
X151301872Y-77284499D01*
X151361483Y-77278091D01*
X151496331Y-77227796D01*
X151611546Y-77141546D01*
X151697796Y-77026331D01*
X151748091Y-76891483D01*
X151754500Y-76831873D01*
X151754499Y-75528128D01*
X151748091Y-75468517D01*
X151697796Y-75333669D01*
X151697795Y-75333668D01*
X151697793Y-75333664D01*
X151638389Y-75254311D01*
X151613971Y-75188847D01*
X151628822Y-75120574D01*
X151638389Y-75105689D01*
X151697793Y-75026335D01*
X151697792Y-75026335D01*
X151697796Y-75026331D01*
X151748091Y-74891483D01*
X151754500Y-74831873D01*
X151754499Y-73528128D01*
X151748091Y-73468517D01*
X151697796Y-73333669D01*
X151697795Y-73333668D01*
X151697793Y-73333664D01*
X151611547Y-73218455D01*
X151611544Y-73218452D01*
X151496335Y-73132206D01*
X151496328Y-73132202D01*
X151361482Y-73081908D01*
X151361483Y-73081908D01*
X151301883Y-73075501D01*
X151301881Y-73075500D01*
X151301873Y-73075500D01*
X151301864Y-73075500D01*
X149998129Y-73075500D01*
X149998123Y-73075501D01*
X149938516Y-73081908D01*
X149803671Y-73132202D01*
X149803664Y-73132206D01*
X149688455Y-73218452D01*
X149688452Y-73218455D01*
X149602206Y-73333664D01*
X149602202Y-73333671D01*
X149551908Y-73468517D01*
X149545501Y-73528116D01*
X149545501Y-73528123D01*
X149545500Y-73528135D01*
X148637995Y-73528135D01*
X148647486Y-73492713D01*
X148647486Y-73492712D01*
X148692062Y-73326351D01*
X148724999Y-73076178D01*
X148725000Y-73076164D01*
X148725000Y-72823835D01*
X148724999Y-72823821D01*
X148692061Y-72573646D01*
X148626751Y-72329902D01*
X148530189Y-72096779D01*
X148530182Y-72096764D01*
X148404013Y-71878233D01*
X148326429Y-71777123D01*
X148326428Y-71777123D01*
X147626524Y-72477026D01*
X147537913Y-72344410D01*
X147405590Y-72212087D01*
X147272971Y-72123473D01*
X147972875Y-71423570D01*
X147972875Y-71423569D01*
X147871766Y-71345986D01*
X147653235Y-71219817D01*
X147653220Y-71219810D01*
X147420097Y-71123248D01*
X147176353Y-71057938D01*
X146926178Y-71025000D01*
X146673821Y-71025000D01*
X146423646Y-71057938D01*
X146179902Y-71123248D01*
X145946779Y-71219810D01*
X145946764Y-71219817D01*
X145728242Y-71345980D01*
X145728235Y-71345986D01*
X145627123Y-71423569D01*
X145627123Y-71423570D01*
X146327027Y-72123474D01*
X146194410Y-72212087D01*
X146062087Y-72344410D01*
X145973474Y-72477027D01*
X145273570Y-71777123D01*
X145273569Y-71777123D01*
X145195986Y-71878235D01*
X145195980Y-71878242D01*
X145069817Y-72096764D01*
X145069810Y-72096779D01*
X144973248Y-72329902D01*
X144907938Y-72573646D01*
X144875000Y-72823821D01*
X143725499Y-72823821D01*
X143725499Y-71477128D01*
X143719091Y-71417517D01*
X143692409Y-71345980D01*
X143668797Y-71282671D01*
X143668793Y-71282664D01*
X143582547Y-71167455D01*
X143582544Y-71167452D01*
X143467335Y-71081206D01*
X143467328Y-71081202D01*
X143332482Y-71030908D01*
X143332483Y-71030908D01*
X143272883Y-71024501D01*
X143272881Y-71024500D01*
X143272873Y-71024500D01*
X143272864Y-71024500D01*
X140327129Y-71024500D01*
X140327123Y-71024501D01*
X140267516Y-71030908D01*
X140132671Y-71081202D01*
X140132664Y-71081206D01*
X140017455Y-71167452D01*
X140017452Y-71167455D01*
X139931206Y-71282664D01*
X139931202Y-71282671D01*
X139880908Y-71417517D01*
X139874501Y-71477116D01*
X139874500Y-71477135D01*
X135084200Y-71477135D01*
X135026329Y-71363559D01*
X134915314Y-71210758D01*
X134915310Y-71210753D01*
X134781746Y-71077189D01*
X134781741Y-71077185D01*
X134628940Y-70966170D01*
X134460635Y-70880413D01*
X134281004Y-70822049D01*
X134280995Y-70822047D01*
X134250000Y-70817137D01*
X134250000Y-71725511D01*
X134240060Y-71708295D01*
X134184205Y-71652440D01*
X134115796Y-71612944D01*
X134039496Y-71592500D01*
X133960504Y-71592500D01*
X133884204Y-71612944D01*
X133815795Y-71652440D01*
X133759940Y-71708295D01*
X133750000Y-71725511D01*
X133750000Y-70817137D01*
X133749999Y-70817137D01*
X133719004Y-70822047D01*
X133718995Y-70822049D01*
X133539364Y-70880413D01*
X133371059Y-70966170D01*
X133218258Y-71077185D01*
X133218253Y-71077189D01*
X133084689Y-71210753D01*
X133084685Y-71210758D01*
X132973670Y-71363559D01*
X132887914Y-71531862D01*
X132829548Y-71711497D01*
X132800000Y-71898052D01*
X118700000Y-71898052D01*
X118670451Y-71711497D01*
X118612085Y-71531862D01*
X118526329Y-71363559D01*
X118415314Y-71210758D01*
X118415310Y-71210753D01*
X118281746Y-71077189D01*
X118281741Y-71077185D01*
X118128940Y-70966170D01*
X117960635Y-70880413D01*
X117781004Y-70822049D01*
X117780995Y-70822047D01*
X117750000Y-70817137D01*
X117750000Y-71725511D01*
X117740060Y-71708295D01*
X117684205Y-71652440D01*
X117615796Y-71612944D01*
X117539496Y-71592500D01*
X117460504Y-71592500D01*
X117384204Y-71612944D01*
X117315795Y-71652440D01*
X117259940Y-71708295D01*
X117250000Y-71725511D01*
X117250000Y-70817137D01*
X117249999Y-70817137D01*
X117219004Y-70822047D01*
X117218995Y-70822049D01*
X117039364Y-70880413D01*
X116871059Y-70966170D01*
X116718258Y-71077185D01*
X116718253Y-71077189D01*
X116584689Y-71210753D01*
X116584685Y-71210758D01*
X116473670Y-71363559D01*
X116387914Y-71531862D01*
X116329548Y-71711497D01*
X116300000Y-71898052D01*
X115504403Y-71898052D01*
X115505687Y-68021153D01*
X120949500Y-68021153D01*
X120949500Y-68178846D01*
X120980261Y-68333489D01*
X120980264Y-68333501D01*
X121040602Y-68479172D01*
X121040609Y-68479185D01*
X121128210Y-68610288D01*
X121128213Y-68610292D01*
X121239707Y-68721786D01*
X121239711Y-68721789D01*
X121370814Y-68809390D01*
X121370827Y-68809397D01*
X121516498Y-68869735D01*
X121516503Y-68869737D01*
X121671153Y-68900499D01*
X121671156Y-68900500D01*
X121671158Y-68900500D01*
X121828844Y-68900500D01*
X121828845Y-68900499D01*
X121983497Y-68869737D01*
X122129179Y-68809394D01*
X122260289Y-68721789D01*
X122371789Y-68610289D01*
X122459394Y-68479179D01*
X122519737Y-68333497D01*
X122550500Y-68178842D01*
X122550500Y-68021158D01*
X122550500Y-68021155D01*
X122550499Y-68021153D01*
X122519738Y-67866510D01*
X122519737Y-67866503D01*
X122519735Y-67866498D01*
X122459397Y-67720827D01*
X122459390Y-67720814D01*
X122371789Y-67589711D01*
X122371786Y-67589707D01*
X122270173Y-67488094D01*
X122236688Y-67426771D01*
X122241672Y-67357079D01*
X122283544Y-67301146D01*
X122349008Y-67276729D01*
X122382045Y-67278795D01*
X122401210Y-67282608D01*
X122491155Y-67300500D01*
X122491158Y-67300500D01*
X122648844Y-67300500D01*
X122648845Y-67300499D01*
X122803497Y-67269737D01*
X122949179Y-67209394D01*
X123080289Y-67121789D01*
X123191789Y-67010289D01*
X123279394Y-66879179D01*
X123339737Y-66733497D01*
X123370500Y-66578842D01*
X123370500Y-66421158D01*
X123370500Y-66421155D01*
X123370499Y-66421153D01*
X123339738Y-66266510D01*
X123339737Y-66266503D01*
X123339735Y-66266498D01*
X123279397Y-66120827D01*
X123279390Y-66120814D01*
X123191789Y-65989711D01*
X123191786Y-65989707D01*
X123080292Y-65878213D01*
X123080288Y-65878210D01*
X122949185Y-65790609D01*
X122949172Y-65790602D01*
X122803501Y-65730264D01*
X122803489Y-65730261D01*
X122648845Y-65699500D01*
X122648842Y-65699500D01*
X122491158Y-65699500D01*
X122491155Y-65699500D01*
X122336510Y-65730261D01*
X122336498Y-65730264D01*
X122190827Y-65790602D01*
X122190814Y-65790609D01*
X122059711Y-65878210D01*
X122059707Y-65878213D01*
X121948213Y-65989707D01*
X121948210Y-65989711D01*
X121860609Y-66120814D01*
X121860602Y-66120827D01*
X121800264Y-66266498D01*
X121800261Y-66266510D01*
X121769500Y-66421153D01*
X121769500Y-66578846D01*
X121800261Y-66733489D01*
X121800264Y-66733501D01*
X121860602Y-66879172D01*
X121860609Y-66879185D01*
X121948210Y-67010288D01*
X121948213Y-67010292D01*
X122049826Y-67111905D01*
X122083311Y-67173228D01*
X122078327Y-67242920D01*
X122036455Y-67298853D01*
X121970991Y-67323270D01*
X121937954Y-67321203D01*
X121828846Y-67299500D01*
X121828842Y-67299500D01*
X121671158Y-67299500D01*
X121671155Y-67299500D01*
X121516510Y-67330261D01*
X121516498Y-67330264D01*
X121370827Y-67390602D01*
X121370814Y-67390609D01*
X121239711Y-67478210D01*
X121239707Y-67478213D01*
X121128213Y-67589707D01*
X121128210Y-67589711D01*
X121040609Y-67720814D01*
X121040602Y-67720827D01*
X120980264Y-67866498D01*
X120980261Y-67866510D01*
X120949500Y-68021153D01*
X115505687Y-68021153D01*
X115509269Y-57203920D01*
X130589499Y-57203920D01*
X130618340Y-57348907D01*
X130618343Y-57348917D01*
X130674912Y-57485488D01*
X130674919Y-57485501D01*
X130757048Y-57608415D01*
X130757051Y-57608419D01*
X130861580Y-57712948D01*
X130861584Y-57712951D01*
X130984498Y-57795080D01*
X130984511Y-57795087D01*
X131121082Y-57851656D01*
X131121087Y-57851658D01*
X131121091Y-57851658D01*
X131121092Y-57851659D01*
X131266079Y-57880500D01*
X131266082Y-57880500D01*
X131413920Y-57880500D01*
X131511462Y-57861096D01*
X131558913Y-57851658D01*
X131695495Y-57795084D01*
X131818416Y-57712951D01*
X131922951Y-57608416D01*
X132005084Y-57485495D01*
X132061658Y-57348913D01*
X132090500Y-57203920D01*
X134339499Y-57203920D01*
X134368340Y-57348907D01*
X134368343Y-57348917D01*
X134424912Y-57485488D01*
X134424919Y-57485501D01*
X134507048Y-57608415D01*
X134507051Y-57608419D01*
X134611580Y-57712948D01*
X134611584Y-57712951D01*
X134734498Y-57795080D01*
X134734511Y-57795087D01*
X134871082Y-57851656D01*
X134871087Y-57851658D01*
X134871091Y-57851658D01*
X134871092Y-57851659D01*
X135016079Y-57880500D01*
X135016082Y-57880500D01*
X135163920Y-57880500D01*
X135261462Y-57861096D01*
X135308913Y-57851658D01*
X135445495Y-57795084D01*
X135568416Y-57712951D01*
X135672951Y-57608416D01*
X135755084Y-57485495D01*
X135811658Y-57348913D01*
X135840500Y-57203920D01*
X136739499Y-57203920D01*
X136768340Y-57348907D01*
X136768343Y-57348917D01*
X136824912Y-57485488D01*
X136824919Y-57485501D01*
X136907048Y-57608415D01*
X136907051Y-57608419D01*
X137011580Y-57712948D01*
X137011584Y-57712951D01*
X137134498Y-57795080D01*
X137134511Y-57795087D01*
X137271082Y-57851656D01*
X137271087Y-57851658D01*
X137271091Y-57851658D01*
X137271092Y-57851659D01*
X137416079Y-57880500D01*
X137416082Y-57880500D01*
X137563920Y-57880500D01*
X137661462Y-57861096D01*
X137708913Y-57851658D01*
X137792549Y-57817014D01*
X137862016Y-57809546D01*
X137887447Y-57817013D01*
X137971087Y-57851658D01*
X137971091Y-57851658D01*
X137971092Y-57851659D01*
X138116079Y-57880500D01*
X138116082Y-57880500D01*
X138263920Y-57880500D01*
X138361462Y-57861096D01*
X138408913Y-57851658D01*
X138545495Y-57795084D01*
X138668416Y-57712951D01*
X138772951Y-57608416D01*
X138855084Y-57485495D01*
X138911658Y-57348913D01*
X138940500Y-57203920D01*
X139589499Y-57203920D01*
X139618340Y-57348907D01*
X139618343Y-57348917D01*
X139674912Y-57485488D01*
X139674919Y-57485501D01*
X139757048Y-57608415D01*
X139757051Y-57608419D01*
X139861580Y-57712948D01*
X139861584Y-57712951D01*
X139984498Y-57795080D01*
X139984511Y-57795087D01*
X140121082Y-57851656D01*
X140121087Y-57851658D01*
X140121091Y-57851658D01*
X140121092Y-57851659D01*
X140266079Y-57880500D01*
X140266082Y-57880500D01*
X140413920Y-57880500D01*
X140511462Y-57861096D01*
X140558913Y-57851658D01*
X140695495Y-57795084D01*
X140818416Y-57712951D01*
X140922951Y-57608416D01*
X141005084Y-57485495D01*
X141061658Y-57348913D01*
X141090500Y-57203918D01*
X141090500Y-57056082D01*
X141090500Y-57056079D01*
X141061659Y-56911092D01*
X141061658Y-56911091D01*
X141061658Y-56911087D01*
X141061656Y-56911082D01*
X141005087Y-56774511D01*
X141005080Y-56774498D01*
X140922951Y-56651584D01*
X140922948Y-56651580D01*
X140818419Y-56547051D01*
X140818415Y-56547048D01*
X140695501Y-56464919D01*
X140695488Y-56464912D01*
X140558917Y-56408343D01*
X140558907Y-56408340D01*
X140413920Y-56379500D01*
X140413918Y-56379500D01*
X140266082Y-56379500D01*
X140266080Y-56379500D01*
X140121092Y-56408340D01*
X140121082Y-56408343D01*
X139984511Y-56464912D01*
X139984498Y-56464919D01*
X139861584Y-56547048D01*
X139861580Y-56547051D01*
X139757051Y-56651580D01*
X139757048Y-56651584D01*
X139674919Y-56774498D01*
X139674912Y-56774511D01*
X139618343Y-56911082D01*
X139618340Y-56911092D01*
X139589500Y-57056079D01*
X139589500Y-57056082D01*
X139589500Y-57203918D01*
X139589500Y-57203920D01*
X139589499Y-57203920D01*
X138940500Y-57203920D01*
X138940500Y-57203918D01*
X138940500Y-57056082D01*
X138940500Y-57056079D01*
X138911659Y-56911092D01*
X138911658Y-56911091D01*
X138911658Y-56911087D01*
X138911656Y-56911082D01*
X138855087Y-56774511D01*
X138855080Y-56774498D01*
X138772951Y-56651584D01*
X138772948Y-56651580D01*
X138668419Y-56547051D01*
X138668415Y-56547048D01*
X138545501Y-56464919D01*
X138545488Y-56464912D01*
X138408917Y-56408343D01*
X138408907Y-56408340D01*
X138263920Y-56379500D01*
X138263918Y-56379500D01*
X138116082Y-56379500D01*
X138116080Y-56379500D01*
X137971093Y-56408340D01*
X137971085Y-56408342D01*
X137887452Y-56442984D01*
X137817982Y-56450453D01*
X137792548Y-56442984D01*
X137708914Y-56408342D01*
X137708906Y-56408340D01*
X137563920Y-56379500D01*
X137563918Y-56379500D01*
X137416082Y-56379500D01*
X137416080Y-56379500D01*
X137271092Y-56408340D01*
X137271082Y-56408343D01*
X137134511Y-56464912D01*
X137134498Y-56464919D01*
X137011584Y-56547048D01*
X137011580Y-56547051D01*
X136907051Y-56651580D01*
X136907048Y-56651584D01*
X136824919Y-56774498D01*
X136824912Y-56774511D01*
X136768343Y-56911082D01*
X136768340Y-56911092D01*
X136739500Y-57056079D01*
X136739500Y-57056082D01*
X136739500Y-57203918D01*
X136739500Y-57203920D01*
X136739499Y-57203920D01*
X135840500Y-57203920D01*
X135840500Y-57203918D01*
X135840500Y-57056082D01*
X135840500Y-57056079D01*
X135811659Y-56911092D01*
X135811658Y-56911091D01*
X135811658Y-56911087D01*
X135811656Y-56911082D01*
X135755087Y-56774511D01*
X135755080Y-56774498D01*
X135672951Y-56651584D01*
X135672948Y-56651580D01*
X135568419Y-56547051D01*
X135568415Y-56547048D01*
X135445501Y-56464919D01*
X135445488Y-56464912D01*
X135308917Y-56408343D01*
X135308907Y-56408340D01*
X135163920Y-56379500D01*
X135163918Y-56379500D01*
X135016082Y-56379500D01*
X135016080Y-56379500D01*
X134871092Y-56408340D01*
X134871082Y-56408343D01*
X134734511Y-56464912D01*
X134734498Y-56464919D01*
X134611584Y-56547048D01*
X134611580Y-56547051D01*
X134507051Y-56651580D01*
X134507048Y-56651584D01*
X134424919Y-56774498D01*
X134424912Y-56774511D01*
X134368343Y-56911082D01*
X134368340Y-56911092D01*
X134339500Y-57056079D01*
X134339500Y-57056082D01*
X134339500Y-57203918D01*
X134339500Y-57203920D01*
X134339499Y-57203920D01*
X132090500Y-57203920D01*
X132090500Y-57203918D01*
X132090500Y-57056082D01*
X132090500Y-57056079D01*
X132061659Y-56911092D01*
X132061658Y-56911091D01*
X132061658Y-56911087D01*
X132061656Y-56911082D01*
X132005087Y-56774511D01*
X132005080Y-56774498D01*
X131922951Y-56651584D01*
X131922948Y-56651580D01*
X131818419Y-56547051D01*
X131818415Y-56547048D01*
X131695501Y-56464919D01*
X131695488Y-56464912D01*
X131558917Y-56408343D01*
X131558907Y-56408340D01*
X131413920Y-56379500D01*
X131413918Y-56379500D01*
X131266082Y-56379500D01*
X131266080Y-56379500D01*
X131121092Y-56408340D01*
X131121082Y-56408343D01*
X130984511Y-56464912D01*
X130984498Y-56464919D01*
X130861584Y-56547048D01*
X130861580Y-56547051D01*
X130757051Y-56651580D01*
X130757048Y-56651584D01*
X130674919Y-56774498D01*
X130674912Y-56774511D01*
X130618343Y-56911082D01*
X130618340Y-56911092D01*
X130589500Y-57056079D01*
X130589500Y-57056082D01*
X130589500Y-57203918D01*
X130589500Y-57203920D01*
X130589499Y-57203920D01*
X115509269Y-57203920D01*
X115510166Y-54496781D01*
X115510949Y-54482926D01*
X115521156Y-54392578D01*
X115527338Y-54365532D01*
X115555072Y-54286335D01*
X115567113Y-54261344D01*
X115611779Y-54190293D01*
X115629076Y-54168611D01*
X115688425Y-54109279D01*
X115710117Y-54091985D01*
X115781172Y-54047348D01*
X115806170Y-54035312D01*
X115885376Y-54007601D01*
X115912432Y-54001427D01*
X115983320Y-53993439D01*
X116002489Y-53991280D01*
X116016372Y-53990500D01*
X145369517Y-53990500D01*
X147100108Y-53990500D01*
X147159916Y-53990500D01*
X147172045Y-53991095D01*
G37*
%TD.AperFunction*%
%TD*%
M02*
