M48
; DRILL file {KiCad 9.0.6} date 2026-03-04T08:52:34-0500
; FORMAT={-:-/ absolute / inch / decimal}
; #@! TF.CreationDate,2026-03-04T08:52:34-05:00
; #@! TF.GenerationSoftware,Kicad,Pcbnew,9.0.6
; #@! TF.FileFunction,Plated,1,4,PTH
FMAT,2
INCH
; #@! TA.AperFunction,Plated,PTH,ViaDrill
T1C0.0118
; #@! TA.AperFunction,Plated,PTH,ComponentDrill
T2C0.0236
; #@! TA.AperFunction,Plated,PTH,ComponentDrill
T3C0.0276
; #@! TA.AperFunction,Plated,PTH,ComponentDrill
T4C0.0748
; #@! TA.AperFunction,Plated,PTH,ComponentDrill
T5C0.0866
%
G90
G05
T1
X4.7933Y-2.6811
X4.813Y-2.8346
X4.8256Y-2.6181
X4.8264Y-2.2492
X4.872Y-2.8346
X4.8854Y-2.2492
X4.9039Y-2.8346
X4.9378Y-2.8346
X4.9445Y-2.2492
X4.9705Y-2.8346
X5.0035Y-2.2492
X5.0295Y-2.8346
X5.0626Y-2.1677
X5.0626Y-2.2492
X5.0886Y-2.8346
X5.1217Y-2.1677
X5.1217Y-2.2492
X5.1476Y-2.8346
X5.1709Y-2.2492
X5.2398Y-2.1677
X5.2988Y-2.1677
X5.3185Y-2.2492
X5.3382Y-2.1677
X5.3972Y-2.1677
X5.413Y-2.2492
X5.4406Y-2.2492
X5.5252Y-2.2492
T3
X5.9311Y-2.9205
X5.9311Y-2.9992
T4
X5.5827Y-2.872
X5.7795Y-2.872
T5
X4.6846Y-2.5583
X5.8728Y-2.5591
T2
G00X4.626Y-2.8304
M15
G01X4.626Y-2.8934
M16
G05
G00X4.626Y-3.1072
M15
G01X4.626Y-3.1505
M16
G05
G00X5.2756Y-2.8304
M15
G01X5.2756Y-2.8934
M16
G05
G00X5.2756Y-3.1072
M15
G01X5.2756Y-3.1505
M16
G05
M30
