%TF.GenerationSoftware,KiCad,Pcbnew,9.0.6*%
%TF.CreationDate,2026-03-04T08:52:34-05:00*%
%TF.ProjectId,source,736f7572-6365-42e6-9b69-6361645f7063,rev?*%
%TF.SameCoordinates,Original*%
%TF.FileFunction,Copper,L1,Top*%
%TF.FilePolarity,Positive*%
%FSLAX46Y46*%
G04 Gerber Fmt 4.6, Leading zero omitted, Abs format (unit mm)*
G04 Created by KiCad (PCBNEW 9.0.6) date 2026-03-04 08:52:34*
%MOMM*%
%LPD*%
G01*
G04 APERTURE LIST*
%TA.AperFunction,ComponentPad*%
%ADD10C,2.600000*%
%TD*%
%TA.AperFunction,ConnectorPad*%
%ADD11C,3.800000*%
%TD*%
%TA.AperFunction,SMDPad,CuDef*%
%ADD12R,0.250000X0.900000*%
%TD*%
%TA.AperFunction,SMDPad,CuDef*%
%ADD13R,0.550000X0.900000*%
%TD*%
%TA.AperFunction,SMDPad,CuDef*%
%ADD14R,1.400000X1.900000*%
%TD*%
%TA.AperFunction,SMDPad,CuDef*%
%ADD15R,0.280000X2.400000*%
%TD*%
%TA.AperFunction,ComponentPad*%
%ADD16O,1.400000X2.800000*%
%TD*%
%TA.AperFunction,ComponentPad*%
%ADD17O,1.200000X2.400000*%
%TD*%
%TA.AperFunction,ComponentPad*%
%ADD18C,2.850000*%
%TD*%
%TA.AperFunction,ComponentPad*%
%ADD19R,2.850000X2.850000*%
%TD*%
%TA.AperFunction,ComponentPad*%
%ADD20R,1.208000X1.208000*%
%TD*%
%TA.AperFunction,ViaPad*%
%ADD21C,0.500000*%
%TD*%
%TA.AperFunction,ViaPad*%
%ADD22C,0.600000*%
%TD*%
%TA.AperFunction,Conductor*%
%ADD23C,0.762000*%
%TD*%
%TA.AperFunction,Conductor*%
%ADD24C,0.317500*%
%TD*%
%TA.AperFunction,Conductor*%
%ADD25C,0.381000*%
%TD*%
%TA.AperFunction,Conductor*%
%ADD26C,0.254000*%
%TD*%
%TA.AperFunction,Conductor*%
%ADD27C,0.152400*%
%TD*%
G04 APERTURE END LIST*
D10*
%TO.P,H2,1,1*%
%TO.N,GND*%
X149170000Y-65000000D03*
D11*
X149170000Y-65000000D03*
%TD*%
D12*
%TO.P,J1,1,1*%
%TO.N,unconnected-(J1-Pad1)*%
X122090000Y-55960000D03*
%TO.P,J1,2,2*%
%TO.N,GND*%
X122590000Y-55960000D03*
%TO.P,J1,3,3*%
%TO.N,3_EDP_TX_N*%
X123090000Y-55960000D03*
%TO.P,J1,4,4*%
%TO.N,3_EDP_TX_P*%
X123590000Y-55960000D03*
%TO.P,J1,5,5*%
%TO.N,GND*%
X124090000Y-55960000D03*
%TO.P,J1,6,6*%
%TO.N,2_EDP_TX_N*%
X124590000Y-55960000D03*
%TO.P,J1,7,7*%
%TO.N,2_EDP_TX_P*%
X125090000Y-55960000D03*
%TO.P,J1,8,8*%
%TO.N,GND*%
X125590000Y-55960000D03*
%TO.P,J1,9,9*%
%TO.N,1_EDP_TX_N*%
X126090000Y-55960000D03*
%TO.P,J1,10,10*%
%TO.N,1_EDP_TX_P*%
X126590000Y-55960000D03*
%TO.P,J1,11,11*%
%TO.N,GND*%
X127090000Y-55960000D03*
%TO.P,J1,12,12*%
%TO.N,0_EDP_TX_N*%
X127590000Y-55960000D03*
%TO.P,J1,13,13*%
%TO.N,0_EDP_TX_P*%
X128090000Y-55960000D03*
%TO.P,J1,14,14*%
%TO.N,GND*%
X128590000Y-55960000D03*
%TO.P,J1,15,15*%
%TO.N,AUX_P*%
X129090000Y-55960000D03*
%TO.P,J1,16,16*%
%TO.N,AUX_N*%
X129590000Y-55960000D03*
%TO.P,J1,17,17*%
%TO.N,GND*%
X130090000Y-55960000D03*
%TO.P,J1,18,18*%
%TO.N,+3.3V*%
X130590000Y-55960000D03*
%TO.P,J1,19,19*%
X131090000Y-55960000D03*
%TO.P,J1,20,20*%
X131590000Y-55960000D03*
%TO.P,J1,21,21*%
X132090000Y-55960000D03*
%TO.P,J1,22,22*%
%TO.N,unconnected-(J1-Pad22)*%
X132590000Y-55960000D03*
%TO.P,J1,23,23*%
%TO.N,GND*%
X133090000Y-55960000D03*
%TO.P,J1,24,24*%
X133590000Y-55960000D03*
%TO.P,J1,25,25*%
X134090000Y-55960000D03*
%TO.P,J1,26,26*%
X134590000Y-55960000D03*
%TO.P,J1,27,27*%
%TO.N,EDP_HPD*%
X135090000Y-55960000D03*
%TO.P,J1,28,28*%
%TO.N,GND*%
X135590000Y-55960000D03*
%TO.P,J1,29,29*%
X136090000Y-55960000D03*
%TO.P,J1,30,30*%
X136590000Y-55960000D03*
%TO.P,J1,31,31*%
X137090000Y-55960000D03*
%TO.P,J1,32,32*%
%TO.N,BLK_OFF_N*%
X137590000Y-55960000D03*
%TO.P,J1,33,33*%
%TO.N,BLK_PWM_LCD*%
X138090000Y-55960000D03*
%TO.P,J1,34,34*%
%TO.N,unconnected-(J1-Pad34)*%
X138590000Y-55960000D03*
%TO.P,J1,35,35*%
%TO.N,unconnected-(J1-Pad35)*%
X139090000Y-55960000D03*
%TO.P,J1,36,36*%
%TO.N,+5V*%
X139590000Y-55960000D03*
%TO.P,J1,37,37*%
X140090000Y-55960000D03*
%TO.P,J1,38,38*%
X140590000Y-55960000D03*
%TO.P,J1,39,39*%
X141090000Y-55960000D03*
%TO.P,J1,40,40*%
%TO.N,unconnected-(J1-Pad40)*%
X141590000Y-55960000D03*
D13*
%TO.P,J1,S1,SHIELD*%
%TO.N,GND*%
X121190000Y-55960000D03*
D14*
%TO.P,J1,S2,SHIELD*%
X118990000Y-58780000D03*
D13*
%TO.P,J1,S3,SHIELD*%
X142490000Y-55960000D03*
D14*
%TO.P,J1,S4,SHIELD*%
X144690000Y-58780000D03*
%TD*%
D15*
%TO.P,J2,1,1*%
%TO.N,0_EDP_TX_P*%
X131250000Y-70092500D03*
%TO.P,J2,2,2*%
%TO.N,GND*%
X130750000Y-70092500D03*
%TO.P,J2,3,3*%
%TO.N,0_EDP_TX_N*%
X130250000Y-70092500D03*
%TO.P,J2,4,4*%
%TO.N,1_EDP_TX_P*%
X129750000Y-70092500D03*
%TO.P,J2,5,5*%
%TO.N,GND*%
X129250000Y-70092500D03*
%TO.P,J2,6,6*%
%TO.N,1_EDP_TX_N*%
X128750000Y-70092500D03*
%TO.P,J2,7,7*%
%TO.N,2_EDP_TX_P*%
X128250000Y-70092500D03*
%TO.P,J2,8,8*%
%TO.N,GND*%
X127750000Y-70092500D03*
%TO.P,J2,9,9*%
%TO.N,2_EDP_TX_N*%
X127250000Y-70092500D03*
%TO.P,J2,10,10*%
%TO.N,3_EDP_TX_P*%
X126750000Y-70092500D03*
%TO.P,J2,11,11*%
%TO.N,GND*%
X126250000Y-70092500D03*
%TO.P,J2,12,12*%
%TO.N,3_EDP_TX_N*%
X125750000Y-70092500D03*
%TO.P,J2,13,13*%
%TO.N,GND*%
X125250000Y-70092500D03*
%TO.P,J2,14,14*%
X124750000Y-70092500D03*
%TO.P,J2,15,15*%
%TO.N,AUX_P*%
X124250000Y-70092500D03*
%TO.P,J2,16,16*%
%TO.N,GND*%
X123750000Y-70092500D03*
%TO.P,J2,17,17*%
%TO.N,AUX_N*%
X123250000Y-70092500D03*
%TO.P,J2,18,18*%
%TO.N,EDP_HPD*%
X122750000Y-70092500D03*
%TO.P,J2,19,19*%
%TO.N,GND*%
X122250000Y-70092500D03*
%TO.P,J2,20,20*%
%TO.N,+3.3V*%
X121750000Y-70092500D03*
D16*
%TO.P,J2,S1,SHIELD*%
%TO.N,GND*%
X117500000Y-72692500D03*
%TO.P,J2,S2,SHIELD*%
X134000000Y-72692500D03*
D17*
%TO.P,J2,S3,SHIELD*%
X117500000Y-79472500D03*
%TO.P,J2,S4,SHIELD*%
X134000000Y-79472500D03*
%TD*%
D18*
%TO.P,J3,N,N*%
%TO.N,GND*%
X146800000Y-72950000D03*
D19*
%TO.P,J3,P,P*%
%TO.N,+5V*%
X141800000Y-72950000D03*
D20*
%TO.P,J3,S1,S1*%
%TO.N,BLK_OFF_N*%
X150650000Y-76180000D03*
%TO.P,J3,S2,S2*%
%TO.N,BLK_PWM_LCD*%
X150650000Y-74180000D03*
%TD*%
D10*
%TO.P,H1,1,1*%
%TO.N,GND*%
X118990000Y-64980000D03*
D11*
X118990000Y-64980000D03*
%TD*%
D21*
%TO.N,+3.3V*%
X131340000Y-57130000D03*
D22*
X121750000Y-68100000D03*
%TO.N,GND*%
X126250000Y-72000000D03*
X123750000Y-72000000D03*
D21*
X128590000Y-57130000D03*
D22*
X130750000Y-72000000D03*
D21*
X124090000Y-57130000D03*
X135590000Y-55060000D03*
D22*
X125420000Y-72000000D03*
X127750000Y-72000000D03*
X122250000Y-72000000D03*
D21*
X122590000Y-57130000D03*
X134590000Y-55060000D03*
D22*
X124560000Y-72000000D03*
D21*
X127090000Y-57130000D03*
X130090000Y-57130000D03*
X128590000Y-55060000D03*
X133090000Y-55060000D03*
D22*
X129250000Y-72000000D03*
D21*
X125590000Y-57130000D03*
X137090000Y-55060000D03*
X130090000Y-55060000D03*
%TO.N,BLK_PWM_LCD*%
X138190000Y-57130000D03*
%TO.N,BLK_OFF_N*%
X137490000Y-57130000D03*
%TO.N,+5V*%
X140340000Y-57130000D03*
%TO.N,EDP_HPD*%
X135090000Y-57130000D03*
D22*
X122570000Y-66500000D03*
%TD*%
D23*
%TO.N,+3.3V*%
X131340000Y-57130000D02*
X131340000Y-56210000D01*
D24*
X121750000Y-70092500D02*
X121750000Y-68100000D01*
D25*
X130590000Y-55960000D02*
X132090000Y-55960000D01*
D23*
X131340000Y-56210000D02*
X131590000Y-55960000D01*
D26*
%TO.N,GND*%
X123750000Y-70092500D02*
X123750000Y-72000000D01*
D24*
X130090000Y-55960000D02*
X130090000Y-57130000D01*
D26*
X127750000Y-70092500D02*
X127750000Y-72000000D01*
D24*
X122590000Y-55960000D02*
X122590000Y-57130000D01*
X125590000Y-55960000D02*
X125590000Y-57130000D01*
D26*
X124750000Y-71810000D02*
X124560000Y-72000000D01*
D24*
X134590000Y-55060000D02*
X134590000Y-55960000D01*
X128590000Y-55060000D02*
X128590000Y-55960000D01*
D26*
X124750000Y-70092500D02*
X124750000Y-71810000D01*
D24*
X127090000Y-55960000D02*
X127090000Y-57130000D01*
D26*
X122250000Y-70092500D02*
X122250000Y-72000000D01*
D24*
X137090000Y-55960000D02*
X137090000Y-55060000D01*
D26*
X129250000Y-70092500D02*
X129250000Y-72000000D01*
D24*
X133090000Y-55060000D02*
X133090000Y-55960000D01*
X135590000Y-55960000D02*
X135590000Y-55060000D01*
D26*
X125250000Y-70092500D02*
X125250000Y-71830000D01*
X130750000Y-72000000D02*
X130750000Y-70092500D01*
X126250000Y-70092500D02*
X126250000Y-72000000D01*
D24*
X128590000Y-55960000D02*
X128590000Y-57130000D01*
X124090000Y-55960000D02*
X124090000Y-57130000D01*
D26*
X125250000Y-71830000D02*
X125420000Y-72000000D01*
D24*
X130090000Y-55060000D02*
X130090000Y-55960000D01*
D27*
%TO.N,AUX_P*%
X124336966Y-67397111D02*
X124000660Y-67397111D01*
X129200300Y-54787866D02*
X129200300Y-55237700D01*
X124000660Y-67674511D02*
X124336966Y-67674511D01*
X123889700Y-66241249D02*
X123889700Y-64502134D01*
X120927866Y-61540300D02*
X118317866Y-61540300D01*
X123889700Y-67230671D02*
X123889700Y-66241249D01*
X123889700Y-67286151D02*
X123889700Y-67230671D01*
X124250000Y-70092500D02*
X124250000Y-68292499D01*
X123889700Y-67932199D02*
X123889700Y-67785471D01*
X129200300Y-55237700D02*
X129090000Y-55348000D01*
X117147566Y-54470000D02*
X128882434Y-54470000D01*
X116399700Y-55217866D02*
X117147566Y-54470000D01*
X116399700Y-59622134D02*
X116399700Y-55217866D01*
X124250000Y-68292499D02*
X123889700Y-67932199D01*
X128882434Y-54470000D02*
X129200300Y-54787866D01*
X118317866Y-61540300D02*
X116399700Y-59622134D01*
X123889700Y-64502134D02*
X120927866Y-61540300D01*
X129090000Y-55348000D02*
X129090000Y-55960000D01*
X124447926Y-67563551D02*
X124447926Y-67508071D01*
X124447926Y-67508071D02*
G75*
G03*
X124336966Y-67397174I-110926J-29D01*
G01*
X123889700Y-67785471D02*
G75*
G02*
X124000660Y-67674500I111000J-29D01*
G01*
X124000660Y-67397111D02*
G75*
G02*
X123889789Y-67286151I40J110911D01*
G01*
X124336966Y-67674511D02*
G75*
G03*
X124447911Y-67563551I34J110911D01*
G01*
%TO.N,2_EDP_TX_P*%
X127889700Y-63492134D02*
X124979700Y-60582134D01*
X125090000Y-56635001D02*
X125090000Y-55960000D01*
X128250000Y-70092500D02*
X128250000Y-68292499D01*
X127889700Y-67932199D02*
X127889700Y-63492134D01*
X124979700Y-60582134D02*
X124979700Y-56745301D01*
X124979700Y-56745301D02*
X125090000Y-56635001D01*
X128250000Y-68292499D02*
X127889700Y-67932199D01*
%TO.N,2_EDP_TX_N*%
X127610300Y-63607866D02*
X124700300Y-60697866D01*
X124590000Y-56635001D02*
X124590000Y-55960000D01*
X124700300Y-56745301D02*
X124590000Y-56635001D01*
X124700300Y-60697866D02*
X124700300Y-56745301D01*
X127250000Y-68292499D02*
X127610300Y-67932199D01*
X127250000Y-70092500D02*
X127250000Y-68292499D01*
X127610300Y-67932199D02*
X127610300Y-63607866D01*
%TO.N,1_EDP_TX_N*%
X129110300Y-63107866D02*
X126200300Y-60197866D01*
X126090000Y-56635001D02*
X126090000Y-55960000D01*
X129110300Y-67932199D02*
X129110300Y-63107866D01*
X128750000Y-68292499D02*
X129110300Y-67932199D01*
X126200300Y-60197866D02*
X126200300Y-56745301D01*
X126200300Y-56745301D02*
X126090000Y-56635001D01*
X128750000Y-70092500D02*
X128750000Y-68292499D01*
D24*
%TO.N,BLK_PWM_LCD*%
X138090000Y-55960000D02*
X138090000Y-56727500D01*
X138190000Y-56827500D02*
X138190000Y-57130000D01*
X138090000Y-56727500D02*
X138190000Y-56827500D01*
%TO.N,BLK_OFF_N*%
X137590000Y-56727500D02*
X137490000Y-56827500D01*
X137590000Y-55960000D02*
X137590000Y-56727500D01*
X137490000Y-56827500D02*
X137490000Y-57130000D01*
D25*
%TO.N,+5V*%
X139590000Y-55960000D02*
X141090000Y-55960000D01*
D23*
X140340000Y-56210000D02*
X140340000Y-57130000D01*
X140340000Y-56210000D02*
X140590000Y-55960000D01*
D27*
%TO.N,AUX_N*%
X129590000Y-55284999D02*
X129479700Y-55174699D01*
X116120300Y-59737866D02*
X118202134Y-61819700D01*
X117031834Y-54190600D02*
X116120300Y-55102134D01*
X129479700Y-54672134D02*
X128998166Y-54190600D01*
X129590000Y-55960000D02*
X129590000Y-55284999D01*
X116120300Y-55102134D02*
X116120300Y-59737866D01*
X118202134Y-61819700D02*
X120812134Y-61819700D01*
X129479700Y-55174699D02*
X129479700Y-54672134D01*
X128998166Y-54190600D02*
X117031834Y-54190600D01*
X120812134Y-61819700D02*
X123610300Y-64617866D01*
X123610300Y-64617866D02*
X123610300Y-67932199D01*
X123250000Y-68292499D02*
X123250000Y-70092500D01*
X123610300Y-67932199D02*
X123250000Y-68292499D01*
%TO.N,3_EDP_TX_P*%
X123479700Y-61012134D02*
X123479700Y-56745301D01*
X123590000Y-56635001D02*
X123590000Y-55960000D01*
X126389700Y-67932199D02*
X126389700Y-63922134D01*
X123479700Y-56745301D02*
X123590000Y-56635001D01*
X126750000Y-68292499D02*
X126389700Y-67932199D01*
X126389700Y-63922134D02*
X123479700Y-61012134D01*
X126750000Y-70092500D02*
X126750000Y-68292499D01*
%TO.N,3_EDP_TX_N*%
X123200300Y-61127866D02*
X123200300Y-56745301D01*
X123200300Y-56745301D02*
X123090000Y-56635001D01*
X125750000Y-68292499D02*
X126110300Y-67932199D01*
X123090000Y-56635001D02*
X123090000Y-55960000D01*
X126110300Y-64037866D02*
X123200300Y-61127866D01*
X125750000Y-70092500D02*
X125750000Y-68292499D01*
X126110300Y-67932199D02*
X126110300Y-64037866D01*
%TO.N,0_EDP_TX_P*%
X128090000Y-56635001D02*
X128090000Y-55960000D01*
X127979700Y-59592134D02*
X127979700Y-56745301D01*
X131250000Y-68292499D02*
X130889700Y-67932199D01*
X131250000Y-70092500D02*
X131250000Y-68292499D01*
X130889700Y-67932199D02*
X130889700Y-62502134D01*
X130889700Y-62502134D02*
X127979700Y-59592134D01*
X127979700Y-56745301D02*
X128090000Y-56635001D01*
%TO.N,0_EDP_TX_N*%
X127700300Y-59707866D02*
X127700300Y-56745301D01*
X127700300Y-56745301D02*
X127590000Y-56635001D01*
X130250000Y-70092500D02*
X130250000Y-68292499D01*
X130610300Y-67932199D02*
X130610300Y-62617866D01*
X127590000Y-56635001D02*
X127590000Y-55960000D01*
X130250000Y-68292499D02*
X130610300Y-67932199D01*
X130610300Y-62617866D02*
X127700300Y-59707866D01*
%TO.N,EDP_HPD*%
X122750000Y-66680000D02*
X122570000Y-66500000D01*
X122750000Y-70092500D02*
X122750000Y-66680000D01*
X135090000Y-55960000D02*
X135090000Y-57130000D01*
X135090000Y-57160000D02*
X135130000Y-57200000D01*
X135090000Y-57130000D02*
X135090000Y-57160000D01*
%TO.N,1_EDP_TX_P*%
X126590000Y-56635001D02*
X126590000Y-55960000D01*
X129389700Y-62992134D02*
X126479700Y-60082134D01*
X126479700Y-56745301D02*
X126590000Y-56635001D01*
X129750000Y-70092500D02*
X129750000Y-68292499D01*
X129750000Y-68292499D02*
X129389700Y-67932199D01*
X129389700Y-67932199D02*
X129389700Y-62992134D01*
X126479700Y-60082134D02*
X126479700Y-56745301D01*
%TD*%
%TA.AperFunction,Conductor*%
%TO.N,GND*%
G36*
X147172045Y-53991095D02*
G01*
X147251269Y-53998894D01*
X147275078Y-54003628D01*
X147345390Y-54024947D01*
X147367835Y-54034240D01*
X147432633Y-54068858D01*
X147452837Y-54082351D01*
X147514271Y-54132737D01*
X147523286Y-54140901D01*
X149113136Y-55729685D01*
X154339390Y-60952436D01*
X154339389Y-60952436D01*
X154339390Y-60952437D01*
X154388757Y-61001770D01*
X154396936Y-61010788D01*
X154447489Y-61072350D01*
X154461005Y-61092566D01*
X154495680Y-61157407D01*
X154504988Y-61179869D01*
X154526338Y-61250221D01*
X154531085Y-61274072D01*
X154538902Y-61353414D01*
X154539499Y-61365570D01*
X154539499Y-61396276D01*
X154539499Y-61425297D01*
X154539499Y-61425299D01*
X154539500Y-61435291D01*
X154539500Y-82773038D01*
X154538720Y-82786923D01*
X154528540Y-82877264D01*
X154522362Y-82904333D01*
X154494648Y-82983537D01*
X154482600Y-83008555D01*
X154437957Y-83079604D01*
X154420644Y-83101313D01*
X154361313Y-83160644D01*
X154339604Y-83177957D01*
X154268555Y-83222600D01*
X154243537Y-83234648D01*
X154164333Y-83262362D01*
X154137264Y-83268540D01*
X154057075Y-83277576D01*
X154046921Y-83278720D01*
X154033038Y-83279500D01*
X116007266Y-83279500D01*
X115993379Y-83278720D01*
X115981906Y-83277427D01*
X115903012Y-83268535D01*
X115875938Y-83262354D01*
X115796724Y-83234630D01*
X115771702Y-83222577D01*
X115700644Y-83177917D01*
X115678932Y-83160597D01*
X115619595Y-83101240D01*
X115602283Y-83079524D01*
X115557646Y-83008451D01*
X115545602Y-82983425D01*
X115517903Y-82904200D01*
X115511731Y-82877122D01*
X115501578Y-82786767D01*
X115500802Y-82772880D01*
X115502122Y-78785928D01*
X116400000Y-78785928D01*
X116400000Y-79222500D01*
X117200000Y-79222500D01*
X117200000Y-79722500D01*
X116400000Y-79722500D01*
X116400000Y-80159071D01*
X116427085Y-80330084D01*
X116480591Y-80494757D01*
X116559195Y-80649024D01*
X116660967Y-80789102D01*
X116783397Y-80911532D01*
X116923475Y-81013304D01*
X117077744Y-81091908D01*
X117242415Y-81145414D01*
X117242414Y-81145414D01*
X117249999Y-81146615D01*
X117250000Y-81146614D01*
X117250000Y-80189488D01*
X117259940Y-80206705D01*
X117315795Y-80262560D01*
X117384204Y-80302056D01*
X117460504Y-80322500D01*
X117539496Y-80322500D01*
X117615796Y-80302056D01*
X117684205Y-80262560D01*
X117740060Y-80206705D01*
X117750000Y-80189488D01*
X117750000Y-81146615D01*
X117757584Y-81145414D01*
X117922255Y-81091908D01*
X118076524Y-81013304D01*
X118216602Y-80911532D01*
X118339032Y-80789102D01*
X118440804Y-80649024D01*
X118519408Y-80494757D01*
X118572914Y-80330084D01*
X118581024Y-80278879D01*
X124799500Y-80278879D01*
X124799500Y-80466120D01*
X124836025Y-80649743D01*
X124836027Y-80649751D01*
X124907676Y-80822728D01*
X124907681Y-80822737D01*
X125011697Y-80978407D01*
X125011700Y-80978411D01*
X125144088Y-81110799D01*
X125144092Y-81110802D01*
X125299762Y-81214818D01*
X125299768Y-81214821D01*
X125299769Y-81214822D01*
X125472749Y-81286473D01*
X125656379Y-81322999D01*
X125656383Y-81323000D01*
X125656384Y-81323000D01*
X125843617Y-81323000D01*
X125843618Y-81322999D01*
X126027251Y-81286473D01*
X126200231Y-81214822D01*
X126355908Y-81110802D01*
X126488302Y-80978408D01*
X126592322Y-80822731D01*
X126663973Y-80649751D01*
X126700500Y-80466116D01*
X126700500Y-80278884D01*
X126663973Y-80095249D01*
X126592322Y-79922269D01*
X126592321Y-79922268D01*
X126592318Y-79922262D01*
X126488302Y-79766592D01*
X126488299Y-79766588D01*
X126355911Y-79634200D01*
X126355907Y-79634197D01*
X126200237Y-79530181D01*
X126200228Y-79530176D01*
X126027251Y-79458527D01*
X126027243Y-79458525D01*
X125843620Y-79422000D01*
X125843616Y-79422000D01*
X125656384Y-79422000D01*
X125656379Y-79422000D01*
X125472756Y-79458525D01*
X125472748Y-79458527D01*
X125299771Y-79530176D01*
X125299762Y-79530181D01*
X125144092Y-79634197D01*
X125144088Y-79634200D01*
X125011700Y-79766588D01*
X125011697Y-79766592D01*
X124907681Y-79922262D01*
X124907676Y-79922271D01*
X124836027Y-80095248D01*
X124836025Y-80095256D01*
X124799500Y-80278879D01*
X118581024Y-80278879D01*
X118585061Y-80253394D01*
X118600000Y-80159071D01*
X118600000Y-79722500D01*
X117800000Y-79722500D01*
X117800000Y-79222500D01*
X118600000Y-79222500D01*
X118600000Y-78785928D01*
X132900000Y-78785928D01*
X132900000Y-79222500D01*
X133700000Y-79222500D01*
X133700000Y-79722500D01*
X132900000Y-79722500D01*
X132900000Y-80159071D01*
X132927085Y-80330084D01*
X132980591Y-80494757D01*
X133059195Y-80649024D01*
X133160967Y-80789102D01*
X133283397Y-80911532D01*
X133423475Y-81013304D01*
X133577744Y-81091908D01*
X133742415Y-81145414D01*
X133742414Y-81145414D01*
X133749999Y-81146615D01*
X133750000Y-81146614D01*
X133750000Y-80189488D01*
X133759940Y-80206705D01*
X133815795Y-80262560D01*
X133884204Y-80302056D01*
X133960504Y-80322500D01*
X134039496Y-80322500D01*
X134115796Y-80302056D01*
X134184205Y-80262560D01*
X134240060Y-80206705D01*
X134250000Y-80189488D01*
X134250000Y-81146615D01*
X134257584Y-81145414D01*
X134422255Y-81091908D01*
X134576524Y-81013304D01*
X134716602Y-80911532D01*
X134839032Y-80789102D01*
X134940804Y-80649024D01*
X135019408Y-80494757D01*
X135072914Y-80330084D01*
X135100000Y-80159071D01*
X135100000Y-79722500D01*
X134300000Y-79722500D01*
X134300000Y-79222500D01*
X135100000Y-79222500D01*
X135100000Y-78785928D01*
X135072914Y-78614915D01*
X135019408Y-78450242D01*
X134940804Y-78295975D01*
X134839032Y-78155897D01*
X134716602Y-78033467D01*
X134576524Y-77931695D01*
X134422257Y-77853091D01*
X134257589Y-77799587D01*
X134257581Y-77799585D01*
X134250000Y-77798384D01*
X134250000Y-78755511D01*
X134240060Y-78738295D01*
X134184205Y-78682440D01*
X134115796Y-78642944D01*
X134039496Y-78622500D01*
X133960504Y-78622500D01*
X133884204Y-78642944D01*
X133815795Y-78682440D01*
X133759940Y-78738295D01*
X133750000Y-78755511D01*
X133750000Y-77798384D01*
X133749999Y-77798384D01*
X133742418Y-77799585D01*
X133742410Y-77799587D01*
X133577742Y-77853091D01*
X133423475Y-77931695D01*
X133283397Y-78033467D01*
X133160967Y-78155897D01*
X133059195Y-78295975D01*
X132980591Y-78450242D01*
X132927085Y-78614915D01*
X132900000Y-78785928D01*
X118600000Y-78785928D01*
X118572914Y-78614915D01*
X118519408Y-78450242D01*
X118440804Y-78295975D01*
X118339032Y-78155897D01*
X118216602Y-78033467D01*
X118076524Y-77931695D01*
X117922257Y-77853091D01*
X117757589Y-77799587D01*
X117757581Y-77799585D01*
X117750000Y-77798384D01*
X117750000Y-78755511D01*
X117740060Y-78738295D01*
X117684205Y-78682440D01*
X117615796Y-78642944D01*
X117539496Y-78622500D01*
X117460504Y-78622500D01*
X117384204Y-78642944D01*
X117315795Y-78682440D01*
X117259940Y-78738295D01*
X117250000Y-78755511D01*
X117250000Y-77798384D01*
X117249999Y-77798384D01*
X117242418Y-77799585D01*
X117242410Y-77799587D01*
X117077742Y-77853091D01*
X116923475Y-77931695D01*
X116783397Y-78033467D01*
X116660967Y-78155897D01*
X116559195Y-78295975D01*
X116480591Y-78450242D01*
X116427085Y-78614915D01*
X116400000Y-78785928D01*
X115502122Y-78785928D01*
X115504403Y-71898052D01*
X116300000Y-71898052D01*
X116300000Y-72442500D01*
X117200000Y-72442500D01*
X117200000Y-72942500D01*
X116300000Y-72942500D01*
X116300000Y-73486947D01*
X116329548Y-73673502D01*
X116387914Y-73853137D01*
X116473670Y-74021440D01*
X116584685Y-74174241D01*
X116584689Y-74174246D01*
X116718253Y-74307810D01*
X116718258Y-74307814D01*
X116871059Y-74418829D01*
X117039362Y-74504585D01*
X117218997Y-74562951D01*
X117250000Y-74567862D01*
X117250000Y-73659488D01*
X117259940Y-73676705D01*
X117315795Y-73732560D01*
X117384204Y-73772056D01*
X117460504Y-73792500D01*
X117539496Y-73792500D01*
X117615796Y-73772056D01*
X117684205Y-73732560D01*
X117740060Y-73676705D01*
X117750000Y-73659488D01*
X117750000Y-74567861D01*
X117781002Y-74562951D01*
X117960637Y-74504585D01*
X118128940Y-74418829D01*
X118281741Y-74307814D01*
X118281746Y-74307810D01*
X118415310Y-74174246D01*
X118415314Y-74174241D01*
X118526329Y-74021440D01*
X118612085Y-73853137D01*
X118670451Y-73673502D01*
X118700000Y-73486947D01*
X118700000Y-72942500D01*
X117800000Y-72942500D01*
X117800000Y-72442500D01*
X118700000Y-72442500D01*
X118700000Y-71898052D01*
X132800000Y-71898052D01*
X132800000Y-72442500D01*
X133700000Y-72442500D01*
X133700000Y-72942500D01*
X132800000Y-72942500D01*
X132800000Y-73486947D01*
X132829548Y-73673502D01*
X132887914Y-73853137D01*
X132973670Y-74021440D01*
X133084685Y-74174241D01*
X133084689Y-74174246D01*
X133218253Y-74307810D01*
X133218258Y-74307814D01*
X133371059Y-74418829D01*
X133539362Y-74504585D01*
X133718997Y-74562951D01*
X133750000Y-74567862D01*
X133750000Y-73659488D01*
X133759940Y-73676705D01*
X133815795Y-73732560D01*
X133884204Y-73772056D01*
X133960504Y-73792500D01*
X134039496Y-73792500D01*
X134115796Y-73772056D01*
X134184205Y-73732560D01*
X134240060Y-73676705D01*
X134250000Y-73659488D01*
X134250000Y-74567861D01*
X134281002Y-74562951D01*
X134460637Y-74504585D01*
X134628940Y-74418829D01*
X134781741Y-74307814D01*
X134781746Y-74307810D01*
X134915310Y-74174246D01*
X134915314Y-74174241D01*
X135026329Y-74021440D01*
X135112085Y-73853137D01*
X135170451Y-73673502D01*
X135200000Y-73486947D01*
X135200000Y-72942500D01*
X134300000Y-72942500D01*
X134300000Y-72442500D01*
X135200000Y-72442500D01*
X135200000Y-71898052D01*
X135170451Y-71711497D01*
X135112085Y-71531862D01*
X135111187Y-71530099D01*
X135084200Y-71477135D01*
X139874500Y-71477135D01*
X139874500Y-74422870D01*
X139874501Y-74422876D01*
X139880908Y-74482483D01*
X139931202Y-74617328D01*
X139931206Y-74617335D01*
X140017452Y-74732544D01*
X140017455Y-74732547D01*
X140132664Y-74818793D01*
X140132671Y-74818797D01*
X140267517Y-74869091D01*
X140267516Y-74869091D01*
X140274444Y-74869835D01*
X140327127Y-74875500D01*
X143272872Y-74875499D01*
X143332483Y-74869091D01*
X143467331Y-74818796D01*
X143582546Y-74732546D01*
X143668796Y-74617331D01*
X143719091Y-74482483D01*
X143725500Y-74422873D01*
X143725499Y-72823821D01*
X144875000Y-72823821D01*
X144875000Y-73076178D01*
X144907938Y-73326353D01*
X144973248Y-73570097D01*
X145069810Y-73803220D01*
X145069817Y-73803235D01*
X145195986Y-74021766D01*
X145273569Y-74122875D01*
X145273570Y-74122875D01*
X145973474Y-73422971D01*
X146062087Y-73555590D01*
X146194410Y-73687913D01*
X146327027Y-73776525D01*
X145627123Y-74476428D01*
X145627123Y-74476429D01*
X145728233Y-74554013D01*
X145946764Y-74680182D01*
X145946779Y-74680189D01*
X146179902Y-74776751D01*
X146423646Y-74842061D01*
X146673821Y-74874999D01*
X146673836Y-74875000D01*
X146926164Y-74875000D01*
X146926178Y-74874999D01*
X147176353Y-74842061D01*
X147420097Y-74776751D01*
X147653220Y-74680189D01*
X147653234Y-74680182D01*
X147871767Y-74554012D01*
X147972875Y-74476428D01*
X147272972Y-73776525D01*
X147405590Y-73687913D01*
X147537913Y-73555590D01*
X147626525Y-73422972D01*
X148326428Y-74122875D01*
X148404012Y-74021767D01*
X148530182Y-73803234D01*
X148530189Y-73803220D01*
X148626751Y-73570097D01*
X148637995Y-73528135D01*
X149545500Y-73528135D01*
X149545500Y-74831870D01*
X149545501Y-74831876D01*
X149551908Y-74891483D01*
X149602202Y-75026328D01*
X149602204Y-75026331D01*
X149661611Y-75105689D01*
X149686028Y-75171154D01*
X149671176Y-75239427D01*
X149661611Y-75254311D01*
X149602204Y-75333668D01*
X149602202Y-75333671D01*
X149551908Y-75468517D01*
X149545501Y-75528116D01*
X149545501Y-75528123D01*
X149545500Y-75528135D01*
X149545500Y-76831870D01*
X149545501Y-76831876D01*
X149551908Y-76891483D01*
X149602202Y-77026328D01*
X149602206Y-77026335D01*
X149688452Y-77141544D01*
X149688455Y-77141547D01*
X149803664Y-77227793D01*
X149803671Y-77227797D01*
X149938517Y-77278091D01*
X149938516Y-77278091D01*
X149945444Y-77278835D01*
X149998127Y-77284500D01*
X151301872Y-77284499D01*
X151361483Y-77278091D01*
X151496331Y-77227796D01*
X151611546Y-77141546D01*
X151697796Y-77026331D01*
X151748091Y-76891483D01*
X151754500Y-76831873D01*
X151754499Y-75528128D01*
X151748091Y-75468517D01*
X151697796Y-75333669D01*
X151697795Y-75333668D01*
X151697793Y-75333664D01*
X151638389Y-75254311D01*
X151613971Y-75188847D01*
X151628822Y-75120574D01*
X151638389Y-75105689D01*
X151697793Y-75026335D01*
X151697792Y-75026335D01*
X151697796Y-75026331D01*
X151748091Y-74891483D01*
X151754500Y-74831873D01*
X151754499Y-73528128D01*
X151748091Y-73468517D01*
X151697796Y-73333669D01*
X151697795Y-73333668D01*
X151697793Y-73333664D01*
X151611547Y-73218455D01*
X151611544Y-73218452D01*
X151496335Y-73132206D01*
X151496328Y-73132202D01*
X151361482Y-73081908D01*
X151361483Y-73081908D01*
X151301883Y-73075501D01*
X151301881Y-73075500D01*
X151301873Y-73075500D01*
X151301864Y-73075500D01*
X149998129Y-73075500D01*
X149998123Y-73075501D01*
X149938516Y-73081908D01*
X149803671Y-73132202D01*
X149803664Y-73132206D01*
X149688455Y-73218452D01*
X149688452Y-73218455D01*
X149602206Y-73333664D01*
X149602202Y-73333671D01*
X149551908Y-73468517D01*
X149545501Y-73528116D01*
X149545501Y-73528123D01*
X149545500Y-73528135D01*
X148637995Y-73528135D01*
X148647486Y-73492713D01*
X148647486Y-73492712D01*
X148692062Y-73326351D01*
X148724999Y-73076178D01*
X148725000Y-73076164D01*
X148725000Y-72823835D01*
X148724999Y-72823821D01*
X148692061Y-72573646D01*
X148626751Y-72329902D01*
X148530189Y-72096779D01*
X148530182Y-72096764D01*
X148404013Y-71878233D01*
X148326429Y-71777123D01*
X148326428Y-71777123D01*
X147626524Y-72477026D01*
X147537913Y-72344410D01*
X147405590Y-72212087D01*
X147272971Y-72123473D01*
X147972875Y-71423570D01*
X147972875Y-71423569D01*
X147871766Y-71345986D01*
X147653235Y-71219817D01*
X147653220Y-71219810D01*
X147420097Y-71123248D01*
X147176353Y-71057938D01*
X146926178Y-71025000D01*
X146673821Y-71025000D01*
X146423646Y-71057938D01*
X146179902Y-71123248D01*
X145946779Y-71219810D01*
X145946764Y-71219817D01*
X145728242Y-71345980D01*
X145728235Y-71345986D01*
X145627123Y-71423569D01*
X145627123Y-71423570D01*
X146327027Y-72123474D01*
X146194410Y-72212087D01*
X146062087Y-72344410D01*
X145973474Y-72477027D01*
X145273570Y-71777123D01*
X145273569Y-71777123D01*
X145195986Y-71878235D01*
X145195980Y-71878242D01*
X145069817Y-72096764D01*
X145069810Y-72096779D01*
X144973248Y-72329902D01*
X144907938Y-72573646D01*
X144875000Y-72823821D01*
X143725499Y-72823821D01*
X143725499Y-71477128D01*
X143719091Y-71417517D01*
X143712551Y-71399983D01*
X143668797Y-71282671D01*
X143668793Y-71282664D01*
X143582547Y-71167455D01*
X143582544Y-71167452D01*
X143467335Y-71081206D01*
X143467328Y-71081202D01*
X143332482Y-71030908D01*
X143332483Y-71030908D01*
X143272883Y-71024501D01*
X143272881Y-71024500D01*
X143272873Y-71024500D01*
X143272864Y-71024500D01*
X140327129Y-71024500D01*
X140327123Y-71024501D01*
X140267516Y-71030908D01*
X140132671Y-71081202D01*
X140132664Y-71081206D01*
X140017455Y-71167452D01*
X140017452Y-71167455D01*
X139931206Y-71282664D01*
X139931202Y-71282671D01*
X139880908Y-71417517D01*
X139874501Y-71477116D01*
X139874500Y-71477135D01*
X135084200Y-71477135D01*
X135026329Y-71363559D01*
X134915314Y-71210758D01*
X134915310Y-71210753D01*
X134781746Y-71077189D01*
X134781741Y-71077185D01*
X134628940Y-70966170D01*
X134460635Y-70880413D01*
X134281004Y-70822049D01*
X134280995Y-70822047D01*
X134250000Y-70817137D01*
X134250000Y-71725511D01*
X134240060Y-71708295D01*
X134184205Y-71652440D01*
X134115796Y-71612944D01*
X134039496Y-71592500D01*
X133960504Y-71592500D01*
X133884204Y-71612944D01*
X133815795Y-71652440D01*
X133759940Y-71708295D01*
X133750000Y-71725511D01*
X133750000Y-70817137D01*
X133749999Y-70817137D01*
X133719004Y-70822047D01*
X133718995Y-70822049D01*
X133539364Y-70880413D01*
X133371059Y-70966170D01*
X133218258Y-71077185D01*
X133218253Y-71077189D01*
X133084689Y-71210753D01*
X133084685Y-71210758D01*
X132973670Y-71363559D01*
X132887914Y-71531862D01*
X132829548Y-71711497D01*
X132800000Y-71898052D01*
X118700000Y-71898052D01*
X118670451Y-71711497D01*
X118612085Y-71531862D01*
X118526329Y-71363559D01*
X118415314Y-71210758D01*
X118415310Y-71210753D01*
X118281746Y-71077189D01*
X118281741Y-71077185D01*
X118128940Y-70966170D01*
X117960635Y-70880413D01*
X117781004Y-70822049D01*
X117780995Y-70822047D01*
X117750000Y-70817137D01*
X117750000Y-71725511D01*
X117740060Y-71708295D01*
X117684205Y-71652440D01*
X117615796Y-71612944D01*
X117539496Y-71592500D01*
X117460504Y-71592500D01*
X117384204Y-71612944D01*
X117315795Y-71652440D01*
X117259940Y-71708295D01*
X117250000Y-71725511D01*
X117250000Y-70817137D01*
X117249999Y-70817137D01*
X117219004Y-70822047D01*
X117218995Y-70822049D01*
X117039364Y-70880413D01*
X116871059Y-70966170D01*
X116718258Y-71077185D01*
X116718253Y-71077189D01*
X116584689Y-71210753D01*
X116584685Y-71210758D01*
X116473670Y-71363559D01*
X116387914Y-71531862D01*
X116329548Y-71711497D01*
X116300000Y-71898052D01*
X115504403Y-71898052D01*
X115508264Y-60240726D01*
X115527971Y-60173695D01*
X115580790Y-60127958D01*
X115649952Y-60118037D01*
X115713498Y-60147083D01*
X115719945Y-60153088D01*
X117848032Y-62281175D01*
X117979536Y-62357099D01*
X118126210Y-62396400D01*
X118278058Y-62396400D01*
X120521895Y-62396400D01*
X120588934Y-62416085D01*
X120609576Y-62432719D01*
X122997281Y-64820424D01*
X123030766Y-64881747D01*
X123033600Y-64908105D01*
X123033600Y-65639995D01*
X123013915Y-65707034D01*
X122961111Y-65752789D01*
X122891953Y-65762733D01*
X122862149Y-65754557D01*
X122839077Y-65745000D01*
X122803497Y-65730263D01*
X122803493Y-65730262D01*
X122803489Y-65730261D01*
X122648845Y-65699500D01*
X122648842Y-65699500D01*
X122491158Y-65699500D01*
X122491155Y-65699500D01*
X122336510Y-65730261D01*
X122336498Y-65730264D01*
X122190827Y-65790602D01*
X122190814Y-65790609D01*
X122059711Y-65878210D01*
X122059707Y-65878213D01*
X121948213Y-65989707D01*
X121948210Y-65989711D01*
X121860609Y-66120814D01*
X121860602Y-66120827D01*
X121800264Y-66266498D01*
X121800261Y-66266510D01*
X121769500Y-66421153D01*
X121769500Y-66578846D01*
X121800261Y-66733489D01*
X121800264Y-66733501D01*
X121860602Y-66879172D01*
X121860609Y-66879185D01*
X121948210Y-67010288D01*
X121948213Y-67010292D01*
X122049826Y-67111905D01*
X122083311Y-67173228D01*
X122078327Y-67242920D01*
X122036455Y-67298853D01*
X121970991Y-67323270D01*
X121937954Y-67321203D01*
X121828846Y-67299500D01*
X121828842Y-67299500D01*
X121671158Y-67299500D01*
X121671155Y-67299500D01*
X121516510Y-67330261D01*
X121516498Y-67330264D01*
X121370827Y-67390602D01*
X121370814Y-67390609D01*
X121239711Y-67478210D01*
X121239707Y-67478213D01*
X121128213Y-67589707D01*
X121128210Y-67589711D01*
X121040609Y-67720814D01*
X121040602Y-67720827D01*
X120980264Y-67866498D01*
X120980261Y-67866510D01*
X120949500Y-68021153D01*
X120949500Y-68178846D01*
X120980261Y-68333489D01*
X120980264Y-68333501D01*
X121040603Y-68479174D01*
X121040604Y-68479175D01*
X121040606Y-68479179D01*
X121069852Y-68522948D01*
X121090730Y-68589625D01*
X121090750Y-68591839D01*
X121090750Y-70157428D01*
X121107118Y-70239721D01*
X121109500Y-70263911D01*
X121109500Y-71340370D01*
X121109501Y-71340376D01*
X121115908Y-71399983D01*
X121166202Y-71534828D01*
X121166206Y-71534835D01*
X121252452Y-71650044D01*
X121252455Y-71650047D01*
X121367664Y-71736293D01*
X121367671Y-71736297D01*
X121399164Y-71748043D01*
X121502517Y-71786591D01*
X121562127Y-71793000D01*
X121937872Y-71792999D01*
X121989092Y-71787493D01*
X122015605Y-71787493D01*
X122062160Y-71792499D01*
X122062172Y-71792500D01*
X122110000Y-71792500D01*
X122118675Y-71783824D01*
X122121040Y-71777484D01*
X122129685Y-71748043D01*
X122133580Y-71743858D01*
X122134731Y-71740774D01*
X122159687Y-71715817D01*
X122169735Y-71708295D01*
X122175688Y-71703838D01*
X122241151Y-71679420D01*
X122309424Y-71694270D01*
X122324306Y-71703834D01*
X122330265Y-71708295D01*
X122340313Y-71715817D01*
X122382183Y-71771751D01*
X122385029Y-71787529D01*
X122390000Y-71792500D01*
X122437828Y-71792500D01*
X122437839Y-71792499D01*
X122484396Y-71787493D01*
X122510906Y-71787493D01*
X122562127Y-71793000D01*
X122937872Y-71792999D01*
X122937875Y-71792998D01*
X122937887Y-71792998D01*
X122964376Y-71790149D01*
X122986748Y-71787745D01*
X123013250Y-71787745D01*
X123062127Y-71793000D01*
X123437872Y-71792999D01*
X123489092Y-71787493D01*
X123515605Y-71787493D01*
X123562160Y-71792499D01*
X123562172Y-71792500D01*
X123610000Y-71792500D01*
X123618675Y-71783824D01*
X123621040Y-71777484D01*
X123629685Y-71748043D01*
X123633580Y-71743858D01*
X123634731Y-71740774D01*
X123659687Y-71715817D01*
X123669735Y-71708295D01*
X123675688Y-71703838D01*
X123741151Y-71679420D01*
X123809424Y-71694270D01*
X123824306Y-71703834D01*
X123830265Y-71708295D01*
X123840313Y-71715817D01*
X123882183Y-71771751D01*
X123885029Y-71787529D01*
X123890000Y-71792500D01*
X123937828Y-71792500D01*
X123937839Y-71792499D01*
X123984396Y-71787493D01*
X124010906Y-71787493D01*
X124062127Y-71793000D01*
X124437872Y-71792999D01*
X124489092Y-71787493D01*
X124515605Y-71787493D01*
X124562160Y-71792499D01*
X124562172Y-71792500D01*
X124610000Y-71792500D01*
X124618675Y-71783824D01*
X124621040Y-71777484D01*
X124629685Y-71748043D01*
X124633580Y-71743858D01*
X124634731Y-71740774D01*
X124659687Y-71715817D01*
X124669735Y-71708295D01*
X124691689Y-71691859D01*
X124757151Y-71667442D01*
X124825424Y-71682292D01*
X124874831Y-71731697D01*
X124890000Y-71791126D01*
X124890000Y-71792500D01*
X124937828Y-71792500D01*
X124937841Y-71792499D01*
X124986743Y-71787241D01*
X125013257Y-71787241D01*
X125062158Y-71792499D01*
X125062172Y-71792500D01*
X125110000Y-71792500D01*
X125110000Y-71791126D01*
X125113794Y-71778202D01*
X125112834Y-71764765D01*
X125123447Y-71745329D01*
X125129685Y-71724087D01*
X125139864Y-71715266D01*
X125146321Y-71703443D01*
X125165756Y-71692830D01*
X125182489Y-71678332D01*
X125195821Y-71676415D01*
X125207645Y-71669959D01*
X125229731Y-71671539D01*
X125251647Y-71668388D01*
X125265417Y-71674092D01*
X125277336Y-71674945D01*
X125308307Y-71691858D01*
X125330265Y-71708295D01*
X125340313Y-71715817D01*
X125382183Y-71771751D01*
X125385029Y-71787529D01*
X125390000Y-71792500D01*
X125437828Y-71792500D01*
X125437839Y-71792499D01*
X125484396Y-71787493D01*
X125510906Y-71787493D01*
X125562127Y-71793000D01*
X125937872Y-71792999D01*
X125989092Y-71787493D01*
X126015605Y-71787493D01*
X126062160Y-71792499D01*
X126062172Y-71792500D01*
X126110000Y-71792500D01*
X126118675Y-71783824D01*
X126121040Y-71777484D01*
X126129685Y-71748043D01*
X126133580Y-71743858D01*
X126134731Y-71740774D01*
X126159687Y-71715817D01*
X126169735Y-71708295D01*
X126175688Y-71703838D01*
X126241151Y-71679420D01*
X126309424Y-71694270D01*
X126324306Y-71703834D01*
X126330265Y-71708295D01*
X126340313Y-71715817D01*
X126382183Y-71771751D01*
X126385029Y-71787529D01*
X126390000Y-71792500D01*
X126437828Y-71792500D01*
X126437839Y-71792499D01*
X126484396Y-71787493D01*
X126510906Y-71787493D01*
X126562127Y-71793000D01*
X126937872Y-71792999D01*
X126937875Y-71792998D01*
X126937887Y-71792998D01*
X126964376Y-71790149D01*
X126986748Y-71787745D01*
X127013250Y-71787745D01*
X127062127Y-71793000D01*
X127437872Y-71792999D01*
X127489092Y-71787493D01*
X127515605Y-71787493D01*
X127562160Y-71792499D01*
X127562172Y-71792500D01*
X127610000Y-71792500D01*
X127618675Y-71783824D01*
X127621040Y-71777484D01*
X127629685Y-71748043D01*
X127633580Y-71743858D01*
X127634731Y-71740774D01*
X127659687Y-71715817D01*
X127669735Y-71708295D01*
X127675688Y-71703838D01*
X127741151Y-71679420D01*
X127809424Y-71694270D01*
X127824306Y-71703834D01*
X127830265Y-71708295D01*
X127840313Y-71715817D01*
X127882183Y-71771751D01*
X127885029Y-71787529D01*
X127890000Y-71792500D01*
X127937828Y-71792500D01*
X127937839Y-71792499D01*
X127984396Y-71787493D01*
X128010906Y-71787493D01*
X128062127Y-71793000D01*
X128437872Y-71792999D01*
X128437875Y-71792998D01*
X128437887Y-71792998D01*
X128464376Y-71790149D01*
X128486748Y-71787745D01*
X128513250Y-71787745D01*
X128562127Y-71793000D01*
X128937872Y-71792999D01*
X128989092Y-71787493D01*
X129015605Y-71787493D01*
X129062160Y-71792499D01*
X129062172Y-71792500D01*
X129110000Y-71792500D01*
X129118675Y-71783824D01*
X129121040Y-71777484D01*
X129129685Y-71748043D01*
X129133580Y-71743858D01*
X129134731Y-71740774D01*
X129159687Y-71715817D01*
X129169735Y-71708295D01*
X129175688Y-71703838D01*
X129241151Y-71679420D01*
X129309424Y-71694270D01*
X129324306Y-71703834D01*
X129330265Y-71708295D01*
X129340313Y-71715817D01*
X129382183Y-71771751D01*
X129385029Y-71787529D01*
X129390000Y-71792500D01*
X129437828Y-71792500D01*
X129437839Y-71792499D01*
X129484396Y-71787493D01*
X129510906Y-71787493D01*
X129562127Y-71793000D01*
X129937872Y-71792999D01*
X129937875Y-71792998D01*
X129937887Y-71792998D01*
X129964376Y-71790149D01*
X129986748Y-71787745D01*
X130013250Y-71787745D01*
X130062127Y-71793000D01*
X130437872Y-71792999D01*
X130489092Y-71787493D01*
X130515605Y-71787493D01*
X130562160Y-71792499D01*
X130562172Y-71792500D01*
X130610000Y-71792500D01*
X130618675Y-71783824D01*
X130621040Y-71777484D01*
X130629685Y-71748043D01*
X130633580Y-71743858D01*
X130634731Y-71740774D01*
X130659687Y-71715817D01*
X130669735Y-71708295D01*
X130675688Y-71703838D01*
X130741151Y-71679420D01*
X130809424Y-71694270D01*
X130824306Y-71703834D01*
X130830265Y-71708295D01*
X130840313Y-71715817D01*
X130882183Y-71771751D01*
X130885029Y-71787529D01*
X130890000Y-71792500D01*
X130937828Y-71792500D01*
X130937839Y-71792499D01*
X130984396Y-71787493D01*
X131010906Y-71787493D01*
X131062127Y-71793000D01*
X131437872Y-71792999D01*
X131497483Y-71786591D01*
X131504902Y-71783824D01*
X131523188Y-71777004D01*
X131632328Y-71736297D01*
X131632327Y-71736297D01*
X131632331Y-71736296D01*
X131747546Y-71650046D01*
X131833796Y-71534831D01*
X131884091Y-71399983D01*
X131890500Y-71340373D01*
X131890499Y-68844628D01*
X131884091Y-68785017D01*
X131834517Y-68652104D01*
X131826700Y-68608772D01*
X131826700Y-68216577D01*
X131826700Y-68216575D01*
X131787399Y-68069901D01*
X131765342Y-68031698D01*
X131711477Y-67938400D01*
X131711472Y-67938394D01*
X131502719Y-67729641D01*
X131469234Y-67668318D01*
X131466400Y-67641960D01*
X131466400Y-62426211D01*
X131466400Y-62426210D01*
X131458412Y-62396400D01*
X131427099Y-62279536D01*
X131351175Y-62148032D01*
X128980987Y-59777844D01*
X143490000Y-59777844D01*
X143496401Y-59837372D01*
X143496403Y-59837379D01*
X143546645Y-59972086D01*
X143546649Y-59972093D01*
X143632809Y-60087187D01*
X143632812Y-60087190D01*
X143747906Y-60173350D01*
X143747913Y-60173354D01*
X143882620Y-60223596D01*
X143882627Y-60223598D01*
X143942155Y-60229999D01*
X143942172Y-60230000D01*
X144440000Y-60230000D01*
X144940000Y-60230000D01*
X145437828Y-60230000D01*
X145437844Y-60229999D01*
X145497372Y-60223598D01*
X145497379Y-60223596D01*
X145632086Y-60173354D01*
X145632093Y-60173350D01*
X145747187Y-60087190D01*
X145747190Y-60087187D01*
X145833350Y-59972093D01*
X145833354Y-59972086D01*
X145883596Y-59837379D01*
X145883598Y-59837372D01*
X145889999Y-59777844D01*
X145890000Y-59777827D01*
X145890000Y-59030000D01*
X144940000Y-59030000D01*
X144940000Y-60230000D01*
X144440000Y-60230000D01*
X144440000Y-59030000D01*
X143490000Y-59030000D01*
X143490000Y-59777844D01*
X128980987Y-59777844D01*
X128592719Y-59389576D01*
X128559234Y-59328253D01*
X128556400Y-59301895D01*
X128556400Y-57034000D01*
X128558128Y-57028112D01*
X128556974Y-57022088D01*
X128567856Y-56994982D01*
X128576085Y-56966961D01*
X128580720Y-56962944D01*
X128583007Y-56957249D01*
X128606823Y-56940326D01*
X128628889Y-56921206D01*
X128636233Y-56919428D01*
X128639962Y-56916779D01*
X128663430Y-56912844D01*
X128674625Y-56910135D01*
X128831878Y-56902804D01*
X128834242Y-56903380D01*
X128850909Y-56903380D01*
X128857514Y-56904090D01*
X128857517Y-56904091D01*
X128917127Y-56910500D01*
X129262872Y-56910499D01*
X129322483Y-56904091D01*
X129322486Y-56904089D01*
X129326744Y-56903632D01*
X129353254Y-56903632D01*
X129357514Y-56904089D01*
X129357517Y-56904091D01*
X129417127Y-56910500D01*
X129762872Y-56910499D01*
X129822483Y-56904091D01*
X129822483Y-56904090D01*
X129829096Y-56903380D01*
X129855607Y-56903381D01*
X129917157Y-56909999D01*
X129917172Y-56910000D01*
X129965000Y-56910000D01*
X129965051Y-56909948D01*
X129966282Y-56905755D01*
X129965314Y-56901309D01*
X129976036Y-56872537D01*
X129984685Y-56843084D01*
X129988567Y-56838912D01*
X129989713Y-56835839D01*
X130014658Y-56810880D01*
X130015669Y-56810124D01*
X130081121Y-56785692D01*
X130149398Y-56800526D01*
X130164318Y-56810114D01*
X130165338Y-56810878D01*
X130181890Y-56833001D01*
X130198817Y-56849919D01*
X130200570Y-56857967D01*
X130207193Y-56866820D01*
X130214972Y-56909972D01*
X130215000Y-56910000D01*
X130262828Y-56910000D01*
X130262839Y-56909999D01*
X130321242Y-56903719D01*
X130390002Y-56916123D01*
X130441140Y-56963732D01*
X130458500Y-57027008D01*
X130458500Y-57216820D01*
X130458500Y-57216822D01*
X130458499Y-57216822D01*
X130492374Y-57387118D01*
X130492377Y-57387128D01*
X130558821Y-57547540D01*
X130558828Y-57547553D01*
X130655293Y-57691922D01*
X130655296Y-57691926D01*
X130778073Y-57814703D01*
X130778077Y-57814706D01*
X130922446Y-57911171D01*
X130922459Y-57911178D01*
X131082871Y-57977622D01*
X131082876Y-57977624D01*
X131082880Y-57977624D01*
X131082881Y-57977625D01*
X131253177Y-58011500D01*
X131253180Y-58011500D01*
X131426822Y-58011500D01*
X131541394Y-57988709D01*
X131597124Y-57977624D01*
X131757547Y-57911175D01*
X131901923Y-57814706D01*
X132024706Y-57691923D01*
X132121175Y-57547547D01*
X132187624Y-57387124D01*
X132221500Y-57216820D01*
X132221500Y-57027513D01*
X132241185Y-56960474D01*
X132293989Y-56914719D01*
X132358755Y-56904224D01*
X132417127Y-56910500D01*
X132762872Y-56910499D01*
X132822483Y-56904091D01*
X132822483Y-56904090D01*
X132829096Y-56903380D01*
X132855607Y-56903381D01*
X132917157Y-56909999D01*
X132917172Y-56910000D01*
X132965000Y-56910000D01*
X132965051Y-56909948D01*
X132966287Y-56905737D01*
X132965316Y-56901270D01*
X132976042Y-56872515D01*
X132984685Y-56843084D01*
X132988584Y-56838895D01*
X132989737Y-56835807D01*
X133014689Y-56810857D01*
X133016697Y-56809353D01*
X133082161Y-56784941D01*
X133150433Y-56799797D01*
X133199836Y-56849205D01*
X133215000Y-56908626D01*
X133215000Y-56910000D01*
X133262828Y-56910000D01*
X133262841Y-56909999D01*
X133326743Y-56903128D01*
X133353257Y-56903128D01*
X133417158Y-56909999D01*
X133417172Y-56910000D01*
X133465000Y-56910000D01*
X133715000Y-56910000D01*
X133762828Y-56910000D01*
X133762841Y-56909999D01*
X133826743Y-56903128D01*
X133853257Y-56903128D01*
X133917158Y-56909999D01*
X133917172Y-56910000D01*
X133965000Y-56910000D01*
X133965000Y-56085000D01*
X133715000Y-56085000D01*
X133715000Y-56910000D01*
X133465000Y-56910000D01*
X133465000Y-56085000D01*
X133339500Y-56085000D01*
X133272461Y-56065315D01*
X133226706Y-56012511D01*
X133215500Y-55961062D01*
X133215499Y-55959062D01*
X133235150Y-55892013D01*
X133287931Y-55846231D01*
X133339499Y-55835000D01*
X133465000Y-55835000D01*
X133715000Y-55835000D01*
X133965000Y-55835000D01*
X133965000Y-55010000D01*
X134215000Y-55010000D01*
X134215000Y-55835000D01*
X134340500Y-55835000D01*
X134349155Y-55837541D01*
X134358086Y-55836253D01*
X134382161Y-55847233D01*
X134407539Y-55854685D01*
X134413445Y-55861501D01*
X134421656Y-55865246D01*
X134435973Y-55887499D01*
X134453294Y-55907489D01*
X134455576Y-55917970D01*
X134459460Y-55924006D01*
X134464500Y-55958938D01*
X134464501Y-55960938D01*
X134444850Y-56027987D01*
X134392069Y-56073769D01*
X134340501Y-56085000D01*
X134215000Y-56085000D01*
X134215000Y-56910000D01*
X134217463Y-56910000D01*
X134284502Y-56929685D01*
X134330257Y-56982489D01*
X134339964Y-57050003D01*
X134340097Y-57050017D01*
X134340044Y-57050555D01*
X134340201Y-57051647D01*
X134339578Y-57055279D01*
X134339500Y-57056079D01*
X134339500Y-57056080D01*
X134339500Y-57056082D01*
X134339500Y-57203918D01*
X134339500Y-57203920D01*
X134339499Y-57203920D01*
X134368340Y-57348907D01*
X134368343Y-57348917D01*
X134424912Y-57485488D01*
X134424919Y-57485501D01*
X134507048Y-57608415D01*
X134507051Y-57608419D01*
X134611580Y-57712948D01*
X134611584Y-57712951D01*
X134734498Y-57795080D01*
X134734511Y-57795087D01*
X134871082Y-57851656D01*
X134871087Y-57851658D01*
X134871091Y-57851658D01*
X134871092Y-57851659D01*
X135016079Y-57880500D01*
X135016082Y-57880500D01*
X135163920Y-57880500D01*
X135261462Y-57861096D01*
X135308913Y-57851658D01*
X135445495Y-57795084D01*
X135568416Y-57712951D01*
X135672951Y-57608416D01*
X135755084Y-57485495D01*
X135760338Y-57472812D01*
X135795829Y-57387128D01*
X135811658Y-57348913D01*
X135821096Y-57301462D01*
X135840500Y-57203920D01*
X135840500Y-57056079D01*
X135839903Y-57050017D01*
X135841668Y-57049843D01*
X135847145Y-56988605D01*
X135890005Y-56933426D01*
X135955894Y-56910178D01*
X135962537Y-56910000D01*
X135965000Y-56910000D01*
X136215000Y-56910000D01*
X136262828Y-56910000D01*
X136262841Y-56909999D01*
X136326743Y-56903128D01*
X136353257Y-56903128D01*
X136417158Y-56909999D01*
X136417172Y-56910000D01*
X136465000Y-56910000D01*
X136465000Y-56085000D01*
X136215000Y-56085000D01*
X136215000Y-56910000D01*
X135965000Y-56910000D01*
X135965000Y-56085000D01*
X135839500Y-56085000D01*
X135772461Y-56065315D01*
X135726706Y-56012511D01*
X135715500Y-55961062D01*
X135715499Y-55959062D01*
X135735150Y-55892013D01*
X135787931Y-55846231D01*
X135839499Y-55835000D01*
X135965000Y-55835000D01*
X136215000Y-55835000D01*
X136465000Y-55835000D01*
X136465000Y-55010000D01*
X136715000Y-55010000D01*
X136715000Y-55835000D01*
X136806750Y-55835000D01*
X136815435Y-55837550D01*
X136824397Y-55836262D01*
X136848437Y-55847240D01*
X136873789Y-55854685D01*
X136879716Y-55861525D01*
X136887953Y-55865287D01*
X136902242Y-55887521D01*
X136919544Y-55907489D01*
X136921831Y-55918003D01*
X136925727Y-55924065D01*
X136930750Y-55959000D01*
X136930750Y-55961000D01*
X136911065Y-56028039D01*
X136858261Y-56073794D01*
X136806750Y-56085000D01*
X136715000Y-56085000D01*
X136715000Y-56911825D01*
X136746289Y-56969127D01*
X136746741Y-57019674D01*
X136739500Y-57056080D01*
X136739500Y-57056082D01*
X136739500Y-57203918D01*
X136739500Y-57203920D01*
X136739499Y-57203920D01*
X136768340Y-57348907D01*
X136768343Y-57348917D01*
X136824912Y-57485488D01*
X136824919Y-57485501D01*
X136907048Y-57608415D01*
X136907051Y-57608419D01*
X137011580Y-57712948D01*
X137011584Y-57712951D01*
X137134498Y-57795080D01*
X137134511Y-57795087D01*
X137271082Y-57851656D01*
X137271087Y-57851658D01*
X137271091Y-57851658D01*
X137271092Y-57851659D01*
X137416079Y-57880500D01*
X137416082Y-57880500D01*
X137563920Y-57880500D01*
X137661462Y-57861096D01*
X137708913Y-57851658D01*
X137792549Y-57817014D01*
X137862016Y-57809546D01*
X137887447Y-57817013D01*
X137971087Y-57851658D01*
X137971091Y-57851658D01*
X137971092Y-57851659D01*
X138116079Y-57880500D01*
X138116082Y-57880500D01*
X138263920Y-57880500D01*
X138361462Y-57861096D01*
X138408913Y-57851658D01*
X138545495Y-57795084D01*
X138668416Y-57712951D01*
X138772951Y-57608416D01*
X138855084Y-57485495D01*
X138860338Y-57472812D01*
X138895829Y-57387128D01*
X138911658Y-57348913D01*
X138921096Y-57301462D01*
X138940500Y-57203920D01*
X138940500Y-57056079D01*
X138939903Y-57050017D01*
X138941815Y-57049828D01*
X138947240Y-56989114D01*
X138990096Y-56933931D01*
X139055983Y-56910678D01*
X139062614Y-56910499D01*
X139262872Y-56910499D01*
X139321245Y-56904224D01*
X139390004Y-56916629D01*
X139441142Y-56964239D01*
X139458500Y-57027513D01*
X139458500Y-57216820D01*
X139458500Y-57216822D01*
X139458499Y-57216822D01*
X139492374Y-57387118D01*
X139492377Y-57387128D01*
X139558821Y-57547540D01*
X139558828Y-57547553D01*
X139655293Y-57691922D01*
X139655296Y-57691926D01*
X139778073Y-57814703D01*
X139778077Y-57814706D01*
X139922446Y-57911171D01*
X139922459Y-57911178D01*
X140082871Y-57977622D01*
X140082876Y-57977624D01*
X140082880Y-57977624D01*
X140082881Y-57977625D01*
X140253177Y-58011500D01*
X140253180Y-58011500D01*
X140426822Y-58011500D01*
X140541394Y-57988709D01*
X140597124Y-57977624D01*
X140757547Y-57911175D01*
X140901923Y-57814706D01*
X140934474Y-57782155D01*
X143490000Y-57782155D01*
X143490000Y-58530000D01*
X144440000Y-58530000D01*
X144940000Y-58530000D01*
X145890000Y-58530000D01*
X145890000Y-57782172D01*
X145889999Y-57782155D01*
X145883598Y-57722627D01*
X145883596Y-57722620D01*
X145833354Y-57587913D01*
X145833350Y-57587906D01*
X145747190Y-57472812D01*
X145747187Y-57472809D01*
X145632093Y-57386649D01*
X145632086Y-57386645D01*
X145497379Y-57336403D01*
X145497372Y-57336401D01*
X145437844Y-57330000D01*
X144940000Y-57330000D01*
X144940000Y-58530000D01*
X144440000Y-58530000D01*
X144440000Y-57330000D01*
X143942155Y-57330000D01*
X143882627Y-57336401D01*
X143882620Y-57336403D01*
X143747913Y-57386645D01*
X143747906Y-57386649D01*
X143632812Y-57472809D01*
X143632809Y-57472812D01*
X143546649Y-57587906D01*
X143546645Y-57587913D01*
X143496403Y-57722620D01*
X143496401Y-57722627D01*
X143490000Y-57782155D01*
X140934474Y-57782155D01*
X141024706Y-57691923D01*
X141121175Y-57547547D01*
X141187624Y-57387124D01*
X141221500Y-57216820D01*
X141221500Y-57027513D01*
X141241185Y-56960474D01*
X141293989Y-56914719D01*
X141358755Y-56904224D01*
X141417127Y-56910500D01*
X141762872Y-56910499D01*
X141822483Y-56904091D01*
X141922382Y-56866830D01*
X141992072Y-56861847D01*
X142009047Y-56866831D01*
X142107620Y-56903596D01*
X142107627Y-56903598D01*
X142167155Y-56909999D01*
X142167172Y-56910000D01*
X142240000Y-56910000D01*
X142740000Y-56910000D01*
X142812828Y-56910000D01*
X142812844Y-56909999D01*
X142872372Y-56903598D01*
X142872379Y-56903596D01*
X143007086Y-56853354D01*
X143007093Y-56853350D01*
X143122187Y-56767190D01*
X143122190Y-56767187D01*
X143208350Y-56652093D01*
X143208354Y-56652086D01*
X143258596Y-56517379D01*
X143258598Y-56517372D01*
X143264999Y-56457844D01*
X143265000Y-56457827D01*
X143265000Y-56210000D01*
X142740000Y-56210000D01*
X142740000Y-56910000D01*
X142240000Y-56910000D01*
X142240000Y-55710000D01*
X142740000Y-55710000D01*
X143265000Y-55710000D01*
X143265000Y-55462172D01*
X143264999Y-55462155D01*
X143258598Y-55402627D01*
X143258596Y-55402620D01*
X143208354Y-55267913D01*
X143208350Y-55267906D01*
X143122190Y-55152812D01*
X143122187Y-55152809D01*
X143007093Y-55066649D01*
X143007086Y-55066645D01*
X142872379Y-55016403D01*
X142872372Y-55016401D01*
X142812844Y-55010000D01*
X142740000Y-55010000D01*
X142740000Y-55710000D01*
X142240000Y-55710000D01*
X142240000Y-55010000D01*
X142167155Y-55010000D01*
X142107627Y-55016401D01*
X142107617Y-55016403D01*
X142009046Y-55053168D01*
X141939355Y-55058152D01*
X141922381Y-55053168D01*
X141822486Y-55015910D01*
X141822485Y-55015909D01*
X141822483Y-55015909D01*
X141762873Y-55009500D01*
X141762863Y-55009500D01*
X141417130Y-55009500D01*
X141417120Y-55009501D01*
X141353248Y-55016367D01*
X141326742Y-55016367D01*
X141322483Y-55015909D01*
X141262873Y-55009500D01*
X141262865Y-55009500D01*
X140917130Y-55009500D01*
X140917120Y-55009501D01*
X140853248Y-55016367D01*
X140826742Y-55016367D01*
X140822483Y-55015909D01*
X140762873Y-55009500D01*
X140762865Y-55009500D01*
X140417130Y-55009500D01*
X140417120Y-55009501D01*
X140353248Y-55016367D01*
X140326742Y-55016367D01*
X140322483Y-55015909D01*
X140262873Y-55009500D01*
X140262865Y-55009500D01*
X139917130Y-55009500D01*
X139917120Y-55009501D01*
X139853248Y-55016367D01*
X139826742Y-55016367D01*
X139822483Y-55015909D01*
X139762873Y-55009500D01*
X139762865Y-55009500D01*
X139417130Y-55009500D01*
X139417120Y-55009501D01*
X139353248Y-55016367D01*
X139326742Y-55016367D01*
X139322483Y-55015909D01*
X139262873Y-55009500D01*
X139262865Y-55009500D01*
X138917130Y-55009500D01*
X138917120Y-55009501D01*
X138853248Y-55016367D01*
X138826742Y-55016367D01*
X138822483Y-55015909D01*
X138762873Y-55009500D01*
X138762865Y-55009500D01*
X138417130Y-55009500D01*
X138417120Y-55009501D01*
X138353248Y-55016367D01*
X138326742Y-55016367D01*
X138322483Y-55015909D01*
X138262873Y-55009500D01*
X138262865Y-55009500D01*
X137917130Y-55009500D01*
X137917120Y-55009501D01*
X137853248Y-55016367D01*
X137826742Y-55016367D01*
X137822483Y-55015909D01*
X137762873Y-55009500D01*
X137762865Y-55009500D01*
X137417130Y-55009500D01*
X137417125Y-55009501D01*
X137372857Y-55014260D01*
X137357517Y-55015909D01*
X137357516Y-55015909D01*
X137350904Y-55016620D01*
X137324393Y-55016619D01*
X137262842Y-55010000D01*
X137215000Y-55010000D01*
X137214948Y-55010051D01*
X137213712Y-55014260D01*
X137214684Y-55018728D01*
X137203957Y-55047482D01*
X137195315Y-55076914D01*
X137191415Y-55081102D01*
X137190263Y-55084191D01*
X137165305Y-55109146D01*
X137163305Y-55110643D01*
X137097839Y-55135057D01*
X137029567Y-55120201D01*
X136980164Y-55070793D01*
X136965000Y-55011372D01*
X136965000Y-55010000D01*
X136917172Y-55010000D01*
X136917153Y-55010001D01*
X136853255Y-55016871D01*
X136826745Y-55016871D01*
X136762846Y-55010001D01*
X136762828Y-55010000D01*
X136715000Y-55010000D01*
X136465000Y-55010000D01*
X136417172Y-55010000D01*
X136417153Y-55010001D01*
X136353255Y-55016871D01*
X136326745Y-55016871D01*
X136262846Y-55010001D01*
X136262828Y-55010000D01*
X136215000Y-55010000D01*
X136215000Y-55835000D01*
X135965000Y-55835000D01*
X135965000Y-55010000D01*
X135917172Y-55010000D01*
X135917153Y-55010001D01*
X135853255Y-55016871D01*
X135826745Y-55016871D01*
X135762846Y-55010001D01*
X135762828Y-55010000D01*
X135715000Y-55010000D01*
X135715000Y-55011372D01*
X135711206Y-55024291D01*
X135712168Y-55037723D01*
X135701554Y-55057163D01*
X135695315Y-55078411D01*
X135685139Y-55087228D01*
X135678686Y-55099048D01*
X135659247Y-55109664D01*
X135642511Y-55124166D01*
X135629184Y-55126082D01*
X135617365Y-55132537D01*
X135595273Y-55130958D01*
X135573353Y-55134110D01*
X135559584Y-55128407D01*
X135547673Y-55127556D01*
X135516695Y-55110643D01*
X135514695Y-55109146D01*
X135472821Y-55053215D01*
X135465027Y-55010027D01*
X135465000Y-55010000D01*
X135417166Y-55010000D01*
X135355595Y-55016619D01*
X135329088Y-55016619D01*
X135319818Y-55015622D01*
X135262873Y-55009500D01*
X135262865Y-55009500D01*
X134917130Y-55009500D01*
X134917125Y-55009501D01*
X134872857Y-55014260D01*
X134857517Y-55015909D01*
X134857516Y-55015909D01*
X134850904Y-55016620D01*
X134824393Y-55016619D01*
X134762842Y-55010000D01*
X134715000Y-55010000D01*
X134714948Y-55010051D01*
X134713712Y-55014260D01*
X134714684Y-55018728D01*
X134703957Y-55047482D01*
X134695315Y-55076914D01*
X134691415Y-55081102D01*
X134690263Y-55084191D01*
X134665305Y-55109146D01*
X134663305Y-55110643D01*
X134597839Y-55135057D01*
X134529567Y-55120201D01*
X134480164Y-55070793D01*
X134465000Y-55011372D01*
X134465000Y-55010000D01*
X134417172Y-55010000D01*
X134417153Y-55010001D01*
X134353255Y-55016871D01*
X134326745Y-55016871D01*
X134262846Y-55010001D01*
X134262828Y-55010000D01*
X134215000Y-55010000D01*
X133965000Y-55010000D01*
X133917172Y-55010000D01*
X133917153Y-55010001D01*
X133853255Y-55016871D01*
X133826745Y-55016871D01*
X133762846Y-55010001D01*
X133762828Y-55010000D01*
X133715000Y-55010000D01*
X133715000Y-55835000D01*
X133465000Y-55835000D01*
X133465000Y-55010000D01*
X133417172Y-55010000D01*
X133417153Y-55010001D01*
X133353255Y-55016871D01*
X133326745Y-55016871D01*
X133262846Y-55010001D01*
X133262828Y-55010000D01*
X133215000Y-55010000D01*
X133215000Y-55011372D01*
X133211206Y-55024291D01*
X133212168Y-55037723D01*
X133201554Y-55057163D01*
X133195315Y-55078411D01*
X133185139Y-55087228D01*
X133178686Y-55099048D01*
X133159247Y-55109664D01*
X133142511Y-55124166D01*
X133129184Y-55126082D01*
X133117365Y-55132537D01*
X133095273Y-55130958D01*
X133073353Y-55134110D01*
X133059584Y-55128407D01*
X133047673Y-55127556D01*
X133016695Y-55110643D01*
X133014695Y-55109146D01*
X132972821Y-55053215D01*
X132965027Y-55010027D01*
X132965000Y-55010000D01*
X132917166Y-55010000D01*
X132855595Y-55016619D01*
X132829088Y-55016619D01*
X132819818Y-55015622D01*
X132762873Y-55009500D01*
X132762865Y-55009500D01*
X132417130Y-55009500D01*
X132417120Y-55009501D01*
X132353248Y-55016367D01*
X132326742Y-55016367D01*
X132322483Y-55015909D01*
X132262873Y-55009500D01*
X132262865Y-55009500D01*
X131917130Y-55009500D01*
X131917120Y-55009501D01*
X131853248Y-55016367D01*
X131826742Y-55016367D01*
X131822483Y-55015909D01*
X131762873Y-55009500D01*
X131762865Y-55009500D01*
X131417130Y-55009500D01*
X131417120Y-55009501D01*
X131353248Y-55016367D01*
X131326742Y-55016367D01*
X131322483Y-55015909D01*
X131262873Y-55009500D01*
X131262865Y-55009500D01*
X130917130Y-55009500D01*
X130917120Y-55009501D01*
X130853248Y-55016367D01*
X130826742Y-55016367D01*
X130822483Y-55015909D01*
X130762873Y-55009500D01*
X130762865Y-55009500D01*
X130417130Y-55009500D01*
X130417125Y-55009501D01*
X130372857Y-55014260D01*
X130357517Y-55015909D01*
X130357516Y-55015909D01*
X130350904Y-55016620D01*
X130331876Y-55017196D01*
X130174626Y-55009866D01*
X130144206Y-54999372D01*
X130113361Y-54990315D01*
X130111404Y-54988056D01*
X130108576Y-54987081D01*
X130088654Y-54961802D01*
X130067606Y-54937511D01*
X130066879Y-54934171D01*
X130065329Y-54932204D01*
X130064433Y-54922929D01*
X130056400Y-54886000D01*
X130056400Y-54596212D01*
X130056400Y-54596210D01*
X130017099Y-54449536D01*
X129984219Y-54392587D01*
X129941177Y-54318035D01*
X129941172Y-54318029D01*
X129825324Y-54202181D01*
X129791839Y-54140858D01*
X129796823Y-54071166D01*
X129838695Y-54015233D01*
X129904159Y-53990816D01*
X129913005Y-53990500D01*
X145369517Y-53990500D01*
X147100108Y-53990500D01*
X147159916Y-53990500D01*
X147172045Y-53991095D01*
G37*
%TD.AperFunction*%
%TA.AperFunction,Conductor*%
G36*
X120456562Y-55066385D02*
G01*
X120502317Y-55119189D01*
X120512261Y-55188347D01*
X120488790Y-55245011D01*
X120471647Y-55267911D01*
X120471645Y-55267913D01*
X120421403Y-55402620D01*
X120421401Y-55402627D01*
X120415000Y-55462155D01*
X120415000Y-55710000D01*
X121340500Y-55710000D01*
X121407539Y-55729685D01*
X121453294Y-55782489D01*
X121464500Y-55834000D01*
X121464500Y-56134137D01*
X121444815Y-56201176D01*
X121440000Y-56207151D01*
X121440000Y-56910000D01*
X121512828Y-56910000D01*
X121512844Y-56909999D01*
X121572372Y-56903598D01*
X121572376Y-56903597D01*
X121670951Y-56866831D01*
X121740643Y-56861847D01*
X121757616Y-56866830D01*
X121857517Y-56904091D01*
X121917127Y-56910500D01*
X122262872Y-56910499D01*
X122322483Y-56904091D01*
X122322483Y-56904090D01*
X122329096Y-56903380D01*
X122348124Y-56902804D01*
X122505374Y-56910134D01*
X122535793Y-56920627D01*
X122566639Y-56929685D01*
X122568595Y-56931943D01*
X122571424Y-56932919D01*
X122591345Y-56958197D01*
X122612394Y-56982489D01*
X122613120Y-56985828D01*
X122614671Y-56987796D01*
X122615566Y-56997070D01*
X122623600Y-57034000D01*
X122623600Y-61051942D01*
X122623600Y-61203790D01*
X122647642Y-61293518D01*
X122662902Y-61350466D01*
X122662902Y-61350467D01*
X122738822Y-61481964D01*
X122738827Y-61481970D01*
X125497281Y-64240424D01*
X125530766Y-64301747D01*
X125533600Y-64328105D01*
X125533600Y-67641960D01*
X125513915Y-67708999D01*
X125497281Y-67729641D01*
X125288527Y-67938394D01*
X125288522Y-67938400D01*
X125212602Y-68069897D01*
X125212602Y-68069898D01*
X125212601Y-68069900D01*
X125212601Y-68069901D01*
X125183409Y-68178846D01*
X125173300Y-68216575D01*
X125173300Y-68269168D01*
X125172653Y-68271369D01*
X125173221Y-68273592D01*
X125162857Y-68304731D01*
X125153615Y-68336207D01*
X125151881Y-68337708D01*
X125151157Y-68339887D01*
X125125598Y-68360483D01*
X125100811Y-68381962D01*
X125097982Y-68382737D01*
X125096754Y-68383728D01*
X125062557Y-68392457D01*
X125013257Y-68397758D01*
X124986743Y-68397758D01*
X124937443Y-68392457D01*
X124872892Y-68365718D01*
X124833045Y-68308325D01*
X124826700Y-68269168D01*
X124826700Y-68216577D01*
X124826700Y-68216575D01*
X124809254Y-68151465D01*
X124810917Y-68081619D01*
X124841342Y-68031699D01*
X124871164Y-68001875D01*
X124913566Y-67938394D01*
X124946432Y-67889190D01*
X124946434Y-67889186D01*
X124998261Y-67763974D01*
X125018273Y-67663181D01*
X125024626Y-67639475D01*
X125024626Y-67631189D01*
X125024653Y-67631054D01*
X125024634Y-67586080D01*
X125024646Y-67585890D01*
X125024643Y-67577948D01*
X125024645Y-67577944D01*
X125024639Y-67559355D01*
X125024702Y-67559140D01*
X125024688Y-67507920D01*
X125024689Y-67507920D01*
X125024671Y-67440187D01*
X125024626Y-67439961D01*
X125024626Y-67432147D01*
X125018560Y-67409509D01*
X124998207Y-67307330D01*
X124946332Y-67182189D01*
X124871039Y-67069574D01*
X124871037Y-67069572D01*
X124871036Y-67069570D01*
X124775225Y-66973814D01*
X124775223Y-66973812D01*
X124662568Y-66898584D01*
X124542980Y-66849090D01*
X124488564Y-66805264D01*
X124466480Y-66738976D01*
X124466400Y-66734515D01*
X124466400Y-64426212D01*
X124466400Y-64426210D01*
X124427099Y-64279536D01*
X124425486Y-64276743D01*
X124351177Y-64148035D01*
X124351172Y-64148029D01*
X121281970Y-61078827D01*
X121281964Y-61078822D01*
X121150466Y-61002902D01*
X121150465Y-61002901D01*
X121150464Y-61002901D01*
X121003790Y-60963600D01*
X121003789Y-60963600D01*
X118608105Y-60963600D01*
X118541066Y-60943915D01*
X118520424Y-60927281D01*
X118002160Y-60409017D01*
X117968675Y-60347694D01*
X117973659Y-60278002D01*
X118015531Y-60222069D01*
X118080995Y-60197652D01*
X118133175Y-60205154D01*
X118182623Y-60223597D01*
X118182627Y-60223598D01*
X118242155Y-60229999D01*
X118242172Y-60230000D01*
X118740000Y-60230000D01*
X119240000Y-60230000D01*
X119737828Y-60230000D01*
X119737844Y-60229999D01*
X119797372Y-60223598D01*
X119797379Y-60223596D01*
X119932086Y-60173354D01*
X119932093Y-60173350D01*
X120047187Y-60087190D01*
X120047190Y-60087187D01*
X120133350Y-59972093D01*
X120133354Y-59972086D01*
X120183596Y-59837379D01*
X120183598Y-59837372D01*
X120189999Y-59777844D01*
X120190000Y-59777827D01*
X120190000Y-59030000D01*
X119240000Y-59030000D01*
X119240000Y-60230000D01*
X118740000Y-60230000D01*
X118740000Y-59030000D01*
X117790000Y-59030000D01*
X117790000Y-59777844D01*
X117796401Y-59837372D01*
X117796403Y-59837379D01*
X117814845Y-59886825D01*
X117819829Y-59956517D01*
X117786344Y-60017840D01*
X117725020Y-60051324D01*
X117655329Y-60046340D01*
X117610982Y-60017839D01*
X117012719Y-59419576D01*
X116979234Y-59358253D01*
X116976400Y-59331895D01*
X116976400Y-57782155D01*
X117790000Y-57782155D01*
X117790000Y-58530000D01*
X118740000Y-58530000D01*
X119240000Y-58530000D01*
X120190000Y-58530000D01*
X120190000Y-57782172D01*
X120189999Y-57782155D01*
X120183598Y-57722627D01*
X120183596Y-57722620D01*
X120133354Y-57587913D01*
X120133350Y-57587906D01*
X120047190Y-57472812D01*
X120047187Y-57472809D01*
X119932093Y-57386649D01*
X119932086Y-57386645D01*
X119797379Y-57336403D01*
X119797372Y-57336401D01*
X119737844Y-57330000D01*
X119240000Y-57330000D01*
X119240000Y-58530000D01*
X118740000Y-58530000D01*
X118740000Y-57330000D01*
X118242155Y-57330000D01*
X118182627Y-57336401D01*
X118182620Y-57336403D01*
X118047913Y-57386645D01*
X118047906Y-57386649D01*
X117932812Y-57472809D01*
X117932809Y-57472812D01*
X117846649Y-57587906D01*
X117846645Y-57587913D01*
X117796403Y-57722620D01*
X117796401Y-57722627D01*
X117790000Y-57782155D01*
X116976400Y-57782155D01*
X116976400Y-56457844D01*
X120415000Y-56457844D01*
X120421401Y-56517372D01*
X120421403Y-56517379D01*
X120471645Y-56652086D01*
X120471649Y-56652093D01*
X120557809Y-56767187D01*
X120557812Y-56767190D01*
X120672906Y-56853350D01*
X120672913Y-56853354D01*
X120807620Y-56903596D01*
X120807627Y-56903598D01*
X120867155Y-56909999D01*
X120867172Y-56910000D01*
X120940000Y-56910000D01*
X120940000Y-56210000D01*
X120415000Y-56210000D01*
X120415000Y-56457844D01*
X116976400Y-56457844D01*
X116976400Y-55508105D01*
X116996085Y-55441066D01*
X117012719Y-55420424D01*
X117350124Y-55083019D01*
X117411447Y-55049534D01*
X117437805Y-55046700D01*
X120389523Y-55046700D01*
X120456562Y-55066385D01*
G37*
%TD.AperFunction*%
%TD*%
M02*
