%TF.GenerationSoftware,KiCad,Pcbnew,9.0.6*%
%TF.CreationDate,2026-03-04T08:52:34-05:00*%
%TF.ProjectId,source,736f7572-6365-42e6-9b69-6361645f7063,rev?*%
%TF.SameCoordinates,Original*%
%TF.FileFunction,Legend,Bot*%
%TF.FilePolarity,Positive*%
%FSLAX46Y46*%
G04 Gerber Fmt 4.6, Leading zero omitted, Abs format (unit mm)*
G04 Created by KiCad (PCBNEW 9.0.6) date 2026-03-04 08:52:34*
%MOMM*%
%LPD*%
G01*
G04 APERTURE LIST*
G04 Aperture macros list*
%AMRoundRect*
0 Rectangle with rounded corners*
0 $1 Rounding radius*
0 $2 $3 $4 $5 $6 $7 $8 $9 X,Y pos of 4 corners*
0 Add a 4 corners polygon primitive as box body*
4,1,4,$2,$3,$4,$5,$6,$7,$8,$9,$2,$3,0*
0 Add four circle primitives for the rounded corners*
1,1,$1+$1,$2,$3*
1,1,$1+$1,$4,$5*
1,1,$1+$1,$6,$7*
1,1,$1+$1,$8,$9*
0 Add four rect primitives between the rounded corners*
20,1,$1+$1,$2,$3,$4,$5,0*
20,1,$1+$1,$4,$5,$6,$7,0*
20,1,$1+$1,$6,$7,$8,$9,0*
20,1,$1+$1,$8,$9,$2,$3,0*%
G04 Aperture macros list end*
%ADD10C,0.152400*%
%ADD11C,2.600000*%
%ADD12C,3.800000*%
%ADD13C,1.400000*%
%ADD14O,1.552400X2.952400*%
%ADD15O,1.352400X2.552400*%
%ADD16C,3.054000*%
%ADD17RoundRect,0.102000X-1.425000X-1.425000X1.425000X-1.425000X1.425000X1.425000X-1.425000X1.425000X0*%
%ADD18RoundRect,0.102000X-0.604000X-0.604000X0.604000X-0.604000X0.604000X0.604000X-0.604000X0.604000X0*%
G04 APERTURE END LIST*
D10*
X153653070Y-82872075D02*
X153748308Y-82919694D01*
X153748308Y-82919694D02*
X153938784Y-82919694D01*
X153938784Y-82919694D02*
X154034022Y-82872075D01*
X154034022Y-82872075D02*
X154081641Y-82824455D01*
X154081641Y-82824455D02*
X154129260Y-82729217D01*
X154129260Y-82729217D02*
X154129260Y-82443503D01*
X154129260Y-82443503D02*
X154081641Y-82348265D01*
X154081641Y-82348265D02*
X154034022Y-82300646D01*
X154034022Y-82300646D02*
X153938784Y-82253027D01*
X153938784Y-82253027D02*
X153748308Y-82253027D01*
X153748308Y-82253027D02*
X153653070Y-82300646D01*
X153224498Y-82919694D02*
X153224498Y-81919694D01*
X152795927Y-82919694D02*
X152795927Y-82395884D01*
X152795927Y-82395884D02*
X152843546Y-82300646D01*
X152843546Y-82300646D02*
X152938784Y-82253027D01*
X152938784Y-82253027D02*
X153081641Y-82253027D01*
X153081641Y-82253027D02*
X153176879Y-82300646D01*
X153176879Y-82300646D02*
X153224498Y-82348265D01*
X152319736Y-82919694D02*
X152319736Y-82253027D01*
X152319736Y-81919694D02*
X152367355Y-81967313D01*
X152367355Y-81967313D02*
X152319736Y-82014932D01*
X152319736Y-82014932D02*
X152272117Y-81967313D01*
X152272117Y-81967313D02*
X152319736Y-81919694D01*
X152319736Y-81919694D02*
X152319736Y-82014932D01*
X151843546Y-82253027D02*
X151843546Y-82919694D01*
X151843546Y-82348265D02*
X151795927Y-82300646D01*
X151795927Y-82300646D02*
X151700689Y-82253027D01*
X151700689Y-82253027D02*
X151557832Y-82253027D01*
X151557832Y-82253027D02*
X151462594Y-82300646D01*
X151462594Y-82300646D02*
X151414975Y-82395884D01*
X151414975Y-82395884D02*
X151414975Y-82919694D01*
X150938784Y-82919694D02*
X150938784Y-81919694D01*
X150510213Y-82919694D02*
X150510213Y-82395884D01*
X150510213Y-82395884D02*
X150557832Y-82300646D01*
X150557832Y-82300646D02*
X150653070Y-82253027D01*
X150653070Y-82253027D02*
X150795927Y-82253027D01*
X150795927Y-82253027D02*
X150891165Y-82300646D01*
X150891165Y-82300646D02*
X150938784Y-82348265D01*
X149605451Y-82253027D02*
X149605451Y-82919694D01*
X149843546Y-81872075D02*
X150081641Y-82586360D01*
X150081641Y-82586360D02*
X149462594Y-82586360D01*
%LPC*%
D11*
%TO.C,H2*%
X149170000Y-65000000D03*
D12*
X149170000Y-65000000D03*
%TD*%
D13*
%TO.C,J2*%
X125750000Y-80372500D03*
D14*
X117500000Y-72692500D03*
X134000000Y-72692500D03*
D15*
X117500000Y-79472500D03*
X134000000Y-79472500D03*
%TD*%
D16*
%TO.C,J3*%
X146800000Y-72950000D03*
D17*
X141800000Y-72950000D03*
D18*
X150650000Y-76180000D03*
X150650000Y-74180000D03*
%TD*%
D11*
%TO.C,H1*%
X118990000Y-64980000D03*
D12*
X118990000Y-64980000D03*
%TD*%
%LPD*%
M02*
