%TF.GenerationSoftware,KiCad,Pcbnew,9.0.6*%
%TF.CreationDate,2026-03-05T08:52:22-05:00*%
%TF.ProjectId,combined,636f6d62-696e-4656-942e-6b696361645f,rev?*%
%TF.SameCoordinates,Original*%
%TF.FileFunction,Legend,Top*%
%TF.FilePolarity,Positive*%
%FSLAX46Y46*%
G04 Gerber Fmt 4.6, Leading zero omitted, Abs format (unit mm)*
G04 Created by KiCad (PCBNEW 9.0.6) date 2026-03-05 08:52:22*
%MOMM*%
%LPD*%
G01*
G04 APERTURE LIST*
G04 Aperture macros list*
%AMRoundRect*
0 Rectangle with rounded corners*
0 $1 Rounding radius*
0 $2 $3 $4 $5 $6 $7 $8 $9 X,Y pos of 4 corners*
0 Add a 4 corners polygon primitive as box body*
4,1,4,$2,$3,$4,$5,$6,$7,$8,$9,$2,$3,0*
0 Add four circle primitives for the rounded corners*
1,1,$1+$1,$2,$3*
1,1,$1+$1,$4,$5*
1,1,$1+$1,$6,$7*
1,1,$1+$1,$8,$9*
0 Add four rect primitives between the rounded corners*
20,1,$1+$1,$2,$3,$4,$5,0*
20,1,$1+$1,$4,$5,$6,$7,0*
20,1,$1+$1,$6,$7,$8,$9,0*
20,1,$1+$1,$8,$9,$2,$3,0*%
G04 Aperture macros list end*
%ADD10C,0.152400*%
%ADD11C,0.381000*%
%ADD12C,0.300000*%
%ADD13C,0.120000*%
%ADD14C,0.127000*%
%ADD15C,0.200000*%
%ADD16RoundRect,0.237500X-0.237500X0.300000X-0.237500X-0.300000X0.237500X-0.300000X0.237500X0.300000X0*%
%ADD17C,1.400000*%
%ADD18RoundRect,0.076200X-0.140000X-1.200000X0.140000X-1.200000X0.140000X1.200000X-0.140000X1.200000X0*%
%ADD19O,1.552400X2.952400*%
%ADD20O,1.352400X2.552400*%
%ADD21C,0.500000*%
%ADD22C,3.054000*%
%ADD23RoundRect,0.102000X-1.425000X-1.425000X1.425000X-1.425000X1.425000X1.425000X-1.425000X1.425000X0*%
%ADD24RoundRect,0.102000X-0.604000X-0.604000X0.604000X-0.604000X0.604000X0.604000X-0.604000X0.604000X0*%
%ADD25RoundRect,0.102000X0.125000X0.450000X-0.125000X0.450000X-0.125000X-0.450000X0.125000X-0.450000X0*%
%ADD26RoundRect,0.102000X0.275000X0.450000X-0.275000X0.450000X-0.275000X-0.450000X0.275000X-0.450000X0*%
%ADD27RoundRect,0.102000X0.700000X0.950000X-0.700000X0.950000X-0.700000X-0.950000X0.700000X-0.950000X0*%
%ADD28C,2.600000*%
%ADD29C,3.800000*%
%ADD30RoundRect,0.237500X0.237500X-0.300000X0.237500X0.300000X-0.237500X0.300000X-0.237500X-0.300000X0*%
%ADD31RoundRect,0.102000X-0.125000X-0.450000X0.125000X-0.450000X0.125000X0.450000X-0.125000X0.450000X0*%
%ADD32RoundRect,0.102000X-0.275000X-0.450000X0.275000X-0.450000X0.275000X0.450000X-0.275000X0.450000X0*%
%ADD33RoundRect,0.102000X-0.700000X-0.950000X0.700000X-0.950000X0.700000X0.950000X-0.700000X0.950000X0*%
G04 APERTURE END LIST*
D10*
X93204072Y-131259694D02*
X93204072Y-131973979D01*
X93204072Y-131973979D02*
X93156453Y-132116836D01*
X93156453Y-132116836D02*
X93061215Y-132212075D01*
X93061215Y-132212075D02*
X92918358Y-132259694D01*
X92918358Y-132259694D02*
X92823120Y-132259694D01*
X94156453Y-132259694D02*
X93680263Y-132259694D01*
X93680263Y-132259694D02*
X93680263Y-131259694D01*
X95061215Y-132164455D02*
X95013596Y-132212075D01*
X95013596Y-132212075D02*
X94870739Y-132259694D01*
X94870739Y-132259694D02*
X94775501Y-132259694D01*
X94775501Y-132259694D02*
X94632644Y-132212075D01*
X94632644Y-132212075D02*
X94537406Y-132116836D01*
X94537406Y-132116836D02*
X94489787Y-132021598D01*
X94489787Y-132021598D02*
X94442168Y-131831122D01*
X94442168Y-131831122D02*
X94442168Y-131688265D01*
X94442168Y-131688265D02*
X94489787Y-131497789D01*
X94489787Y-131497789D02*
X94537406Y-131402551D01*
X94537406Y-131402551D02*
X94632644Y-131307313D01*
X94632644Y-131307313D02*
X94775501Y-131259694D01*
X94775501Y-131259694D02*
X94870739Y-131259694D01*
X94870739Y-131259694D02*
X95013596Y-131307313D01*
X95013596Y-131307313D02*
X95061215Y-131354932D01*
X95775501Y-131259694D02*
X95775501Y-131973979D01*
X95775501Y-131973979D02*
X95727882Y-132116836D01*
X95727882Y-132116836D02*
X95632644Y-132212075D01*
X95632644Y-132212075D02*
X95489787Y-132259694D01*
X95489787Y-132259694D02*
X95394549Y-132259694D01*
X96727882Y-132259694D02*
X96251692Y-132259694D01*
X96251692Y-132259694D02*
X96251692Y-131259694D01*
X97632644Y-132164455D02*
X97585025Y-132212075D01*
X97585025Y-132212075D02*
X97442168Y-132259694D01*
X97442168Y-132259694D02*
X97346930Y-132259694D01*
X97346930Y-132259694D02*
X97204073Y-132212075D01*
X97204073Y-132212075D02*
X97108835Y-132116836D01*
X97108835Y-132116836D02*
X97061216Y-132021598D01*
X97061216Y-132021598D02*
X97013597Y-131831122D01*
X97013597Y-131831122D02*
X97013597Y-131688265D01*
X97013597Y-131688265D02*
X97061216Y-131497789D01*
X97061216Y-131497789D02*
X97108835Y-131402551D01*
X97108835Y-131402551D02*
X97204073Y-131307313D01*
X97204073Y-131307313D02*
X97346930Y-131259694D01*
X97346930Y-131259694D02*
X97442168Y-131259694D01*
X97442168Y-131259694D02*
X97585025Y-131307313D01*
X97585025Y-131307313D02*
X97632644Y-131354932D01*
X98346930Y-131259694D02*
X98346930Y-131973979D01*
X98346930Y-131973979D02*
X98299311Y-132116836D01*
X98299311Y-132116836D02*
X98204073Y-132212075D01*
X98204073Y-132212075D02*
X98061216Y-132259694D01*
X98061216Y-132259694D02*
X97965978Y-132259694D01*
X99299311Y-132259694D02*
X98823121Y-132259694D01*
X98823121Y-132259694D02*
X98823121Y-131259694D01*
X100204073Y-132164455D02*
X100156454Y-132212075D01*
X100156454Y-132212075D02*
X100013597Y-132259694D01*
X100013597Y-132259694D02*
X99918359Y-132259694D01*
X99918359Y-132259694D02*
X99775502Y-132212075D01*
X99775502Y-132212075D02*
X99680264Y-132116836D01*
X99680264Y-132116836D02*
X99632645Y-132021598D01*
X99632645Y-132021598D02*
X99585026Y-131831122D01*
X99585026Y-131831122D02*
X99585026Y-131688265D01*
X99585026Y-131688265D02*
X99632645Y-131497789D01*
X99632645Y-131497789D02*
X99680264Y-131402551D01*
X99680264Y-131402551D02*
X99775502Y-131307313D01*
X99775502Y-131307313D02*
X99918359Y-131259694D01*
X99918359Y-131259694D02*
X100013597Y-131259694D01*
X100013597Y-131259694D02*
X100156454Y-131307313D01*
X100156454Y-131307313D02*
X100204073Y-131354932D01*
X100918359Y-131259694D02*
X100918359Y-131973979D01*
X100918359Y-131973979D02*
X100870740Y-132116836D01*
X100870740Y-132116836D02*
X100775502Y-132212075D01*
X100775502Y-132212075D02*
X100632645Y-132259694D01*
X100632645Y-132259694D02*
X100537407Y-132259694D01*
X101870740Y-132259694D02*
X101394550Y-132259694D01*
X101394550Y-132259694D02*
X101394550Y-131259694D01*
X102775502Y-132164455D02*
X102727883Y-132212075D01*
X102727883Y-132212075D02*
X102585026Y-132259694D01*
X102585026Y-132259694D02*
X102489788Y-132259694D01*
X102489788Y-132259694D02*
X102346931Y-132212075D01*
X102346931Y-132212075D02*
X102251693Y-132116836D01*
X102251693Y-132116836D02*
X102204074Y-132021598D01*
X102204074Y-132021598D02*
X102156455Y-131831122D01*
X102156455Y-131831122D02*
X102156455Y-131688265D01*
X102156455Y-131688265D02*
X102204074Y-131497789D01*
X102204074Y-131497789D02*
X102251693Y-131402551D01*
X102251693Y-131402551D02*
X102346931Y-131307313D01*
X102346931Y-131307313D02*
X102489788Y-131259694D01*
X102489788Y-131259694D02*
X102585026Y-131259694D01*
X102585026Y-131259694D02*
X102727883Y-131307313D01*
X102727883Y-131307313D02*
X102775502Y-131354932D01*
D11*
G36*
X102111290Y-114069108D02*
G01*
X101978025Y-114060635D01*
X101866439Y-114036933D01*
X101773019Y-113999884D01*
X101694862Y-113950368D01*
X101636076Y-113895952D01*
X101596933Y-113840502D01*
X101574329Y-113783119D01*
X101566816Y-113722287D01*
X101577007Y-113660871D01*
X101606365Y-113612480D01*
X101635332Y-113588682D01*
X101671102Y-113574043D01*
X101715706Y-113568836D01*
X101772084Y-113579374D01*
X101816954Y-113610323D01*
X101853151Y-113665708D01*
X101889372Y-113719442D01*
X101942721Y-113759141D01*
X102017743Y-113785309D01*
X102121712Y-113795150D01*
X102239477Y-113786602D01*
X102354678Y-113760965D01*
X102468441Y-113717727D01*
X102555258Y-113669861D01*
X102607108Y-113625491D01*
X102633982Y-113583909D01*
X102642270Y-113543153D01*
X102634816Y-113480965D01*
X102614276Y-113433755D01*
X102581341Y-113397862D01*
X102533952Y-113371650D01*
X102437614Y-113350280D01*
X102224819Y-113336567D01*
X102106074Y-113326773D01*
X101998981Y-113303946D01*
X101902005Y-113268822D01*
X101827412Y-113227599D01*
X101774501Y-113182657D01*
X101739122Y-113133995D01*
X101718707Y-113080655D01*
X101712542Y-113020827D01*
X101721410Y-112944476D01*
X101745778Y-112870185D01*
X101786824Y-112796653D01*
X101846837Y-112722901D01*
X101929085Y-112648321D01*
X102040559Y-112573091D01*
X102155194Y-112520680D01*
X102274333Y-112489459D01*
X102399672Y-112478958D01*
X102506483Y-112489299D01*
X102651576Y-112525487D01*
X102748644Y-112562786D01*
X102803458Y-112597177D01*
X102830116Y-112628657D01*
X102837968Y-112658930D01*
X102828687Y-112709311D01*
X102800466Y-112754033D01*
X102770134Y-112779841D01*
X102734922Y-112795232D01*
X102693265Y-112800562D01*
X102638636Y-112796237D01*
X102546980Y-112779717D01*
X102455190Y-112763219D01*
X102399672Y-112758872D01*
X102311712Y-112766513D01*
X102227030Y-112787976D01*
X102144604Y-112823640D01*
X102068392Y-112873867D01*
X102030875Y-112920006D01*
X102019722Y-112964527D01*
X102028853Y-113000098D01*
X102057689Y-113029853D01*
X102101369Y-113050404D01*
X102171683Y-113065866D01*
X102437174Y-113080476D01*
X102552852Y-113096508D01*
X102650598Y-113124242D01*
X102733084Y-113162463D01*
X102802513Y-113210662D01*
X102866445Y-113278162D01*
X102912123Y-113356683D01*
X102940427Y-113448415D01*
X102950380Y-113556553D01*
X102942199Y-113640953D01*
X102918309Y-113716902D01*
X102878641Y-113786262D01*
X102821744Y-113850295D01*
X102744903Y-113909555D01*
X102644317Y-113963861D01*
X102526893Y-114008846D01*
X102399724Y-114041746D01*
X102261628Y-114062097D01*
X102111290Y-114069108D01*
G37*
G36*
X103338891Y-112752917D02*
G01*
X103276664Y-112741673D01*
X103223315Y-112707971D01*
X103195888Y-112675371D01*
X103179828Y-112639188D01*
X103174367Y-112598071D01*
X103179830Y-112556957D01*
X103195891Y-112520806D01*
X103223315Y-112488264D01*
X103258088Y-112463146D01*
X103296218Y-112448283D01*
X103338891Y-112443225D01*
X103381548Y-112448295D01*
X103419483Y-112463165D01*
X103453909Y-112488264D01*
X103480995Y-112520766D01*
X103496887Y-112556919D01*
X103502299Y-112598071D01*
X103496889Y-112639226D01*
X103480998Y-112675411D01*
X103453909Y-112707971D01*
X103419489Y-112733014D01*
X103381554Y-112747856D01*
X103338891Y-112752917D01*
G37*
G36*
X103427388Y-113515050D02*
G01*
X103431017Y-113705164D01*
X103434646Y-113895279D01*
X103424304Y-113950609D01*
X103393981Y-113994477D01*
X103348638Y-114023385D01*
X103290967Y-114033375D01*
X103233280Y-114023388D01*
X103187861Y-113994477D01*
X103157610Y-113950617D01*
X103147288Y-113895279D01*
X103143659Y-113705164D01*
X103140029Y-113515050D01*
X103150452Y-113283525D01*
X103160874Y-113051814D01*
X103171199Y-112996493D01*
X103201447Y-112952709D01*
X103246874Y-112923726D01*
X103304553Y-112913718D01*
X103362217Y-112923729D01*
X103407567Y-112952709D01*
X103437887Y-112996500D01*
X103448233Y-113051814D01*
X103437810Y-113283525D01*
X103427388Y-113515050D01*
G37*
G36*
X104518941Y-114075064D02*
G01*
X104459971Y-114066560D01*
X104419108Y-114043551D01*
X104391443Y-114006095D01*
X104376285Y-113949531D01*
X104347159Y-113734663D01*
X104335297Y-113621961D01*
X104331525Y-113519796D01*
X104335154Y-113427484D01*
X104338784Y-113335078D01*
X104340831Y-113298228D01*
X104342971Y-113250025D01*
X104336213Y-113196069D01*
X104320756Y-113171379D01*
X104298211Y-113163854D01*
X104239141Y-113174864D01*
X104177432Y-113210463D01*
X104110330Y-113278221D01*
X104055256Y-113357989D01*
X104007019Y-113453758D01*
X103966185Y-113567906D01*
X103956787Y-113661428D01*
X103950552Y-113755043D01*
X103957252Y-113844935D01*
X103964045Y-113934735D01*
X103953611Y-113990493D01*
X103922914Y-114035143D01*
X103877026Y-114064862D01*
X103819342Y-114075064D01*
X103761723Y-114064889D01*
X103716235Y-114035329D01*
X103685971Y-113990904D01*
X103675663Y-113935293D01*
X103669428Y-113845866D01*
X103663193Y-113756438D01*
X103677710Y-113473826D01*
X103692320Y-113191120D01*
X103688691Y-113096295D01*
X103685062Y-113002681D01*
X103695704Y-112948257D01*
X103727216Y-112904692D01*
X103773712Y-112875906D01*
X103830788Y-112866074D01*
X103890822Y-112876337D01*
X103933069Y-112904885D01*
X103962023Y-112953795D01*
X103976515Y-113031528D01*
X103977538Y-113042974D01*
X104059094Y-112972708D01*
X104138853Y-112925741D01*
X104218024Y-112898751D01*
X104298211Y-112889896D01*
X104375264Y-112897086D01*
X104438683Y-112917286D01*
X104491222Y-112949534D01*
X104534729Y-112994390D01*
X104569936Y-113053862D01*
X104595341Y-113129338D01*
X104613103Y-113236054D01*
X104619907Y-113382816D01*
X104619907Y-113456517D01*
X104618884Y-113523983D01*
X104623815Y-113610379D01*
X104641217Y-113732616D01*
X104658708Y-113854640D01*
X104663644Y-113940132D01*
X104653150Y-113993504D01*
X104621955Y-114036632D01*
X104575938Y-114065255D01*
X104518941Y-114075064D01*
G37*
G36*
X105690802Y-114045286D02*
G01*
X105640574Y-114036597D01*
X105599755Y-114011163D01*
X105565920Y-113966374D01*
X105506262Y-113869163D01*
X105412842Y-113742573D01*
X105245247Y-113529194D01*
X105107803Y-113622902D01*
X105097380Y-113899745D01*
X105087072Y-113955357D01*
X105056808Y-113999781D01*
X105011400Y-114029190D01*
X104953701Y-114039330D01*
X104900191Y-114032139D01*
X104861142Y-114012446D01*
X104832788Y-113980490D01*
X104814076Y-113933157D01*
X104806951Y-113864663D01*
X104818862Y-113618715D01*
X104830867Y-113372766D01*
X104835519Y-113028085D01*
X104840265Y-112685451D01*
X104835519Y-112579925D01*
X104830867Y-112474306D01*
X104841192Y-112418888D01*
X104871439Y-112375014D01*
X104916867Y-112346031D01*
X104974546Y-112336024D01*
X105032202Y-112346055D01*
X105077559Y-112375107D01*
X105107879Y-112418988D01*
X105118225Y-112474399D01*
X105123436Y-112582623D01*
X105128647Y-112690848D01*
X105122413Y-112984441D01*
X105117201Y-113273847D01*
X105274577Y-113139265D01*
X105548239Y-112876217D01*
X105597859Y-112841494D01*
X105652276Y-112830340D01*
X105706845Y-112840838D01*
X105755383Y-112872960D01*
X105789233Y-112919573D01*
X105800143Y-112971693D01*
X105790584Y-113017331D01*
X105759478Y-113064191D01*
X105628902Y-113200583D01*
X105467001Y-113350991D01*
X105683543Y-113629602D01*
X105785977Y-113777403D01*
X105830180Y-113862704D01*
X105840716Y-113908121D01*
X105835669Y-113944173D01*
X105820726Y-113976153D01*
X105794932Y-114005272D01*
X105745734Y-114035387D01*
X105690802Y-114045286D01*
G37*
G36*
X106332613Y-113175766D02*
G01*
X106272899Y-113165768D01*
X106225970Y-113136961D01*
X106194470Y-113093100D01*
X106183815Y-113038228D01*
X106179069Y-113002587D01*
X106174417Y-112965737D01*
X106179402Y-112928596D01*
X106193939Y-112896692D01*
X106218618Y-112868679D01*
X106266876Y-112840040D01*
X106324331Y-112830340D01*
X106379858Y-112838429D01*
X106421138Y-112860920D01*
X106451835Y-112898285D01*
X106472512Y-112954916D01*
X106480480Y-113038228D01*
X106469825Y-113093100D01*
X106438325Y-113136961D01*
X106391522Y-113165805D01*
X106332613Y-113175766D01*
G37*
G36*
X106349270Y-113878529D02*
G01*
X106293442Y-113869679D01*
X106251089Y-113844651D01*
X106218789Y-113801992D01*
X106196572Y-113735765D01*
X106187910Y-113636675D01*
X106193087Y-113600233D01*
X106208368Y-113568277D01*
X106234717Y-113539524D01*
X106283132Y-113512478D01*
X106339871Y-113503325D01*
X106394553Y-113512032D01*
X106436084Y-113536683D01*
X106467800Y-113578756D01*
X106489640Y-113644161D01*
X106498160Y-113742108D01*
X106487425Y-113796118D01*
X106455447Y-113839817D01*
X106408264Y-113868604D01*
X106349270Y-113878529D01*
G37*
G36*
X108086799Y-112394448D02*
G01*
X108214123Y-112448157D01*
X108405726Y-112534513D01*
X108554917Y-112591655D01*
X108690632Y-112661625D01*
X108814096Y-112744372D01*
X108926284Y-112840204D01*
X109022919Y-112946008D01*
X109094626Y-113052358D01*
X109144241Y-113160122D01*
X109173589Y-113270537D01*
X109183399Y-113385143D01*
X109173607Y-113502910D01*
X109144325Y-113616471D01*
X109094903Y-113727312D01*
X109028192Y-113830824D01*
X108947646Y-113918772D01*
X108852304Y-113992523D01*
X108765050Y-114038387D01*
X108657670Y-114073579D01*
X108526227Y-114096532D01*
X108366177Y-114104842D01*
X108287743Y-114099783D01*
X108191231Y-114082974D01*
X108079148Y-114049863D01*
X108002791Y-114012251D01*
X107945983Y-114001091D01*
X107899685Y-113970189D01*
X107868476Y-113924751D01*
X107858088Y-113870805D01*
X107861187Y-113772816D01*
X108154753Y-113772816D01*
X108197659Y-113795334D01*
X108247902Y-113811900D01*
X108302161Y-113821523D01*
X108365060Y-113824928D01*
X108515397Y-113816197D01*
X108618975Y-113793860D01*
X108687780Y-113762394D01*
X108745018Y-113718355D01*
X108793960Y-113664839D01*
X108835089Y-113600848D01*
X108865731Y-113531107D01*
X108883795Y-113460524D01*
X108889806Y-113388214D01*
X108878856Y-113292320D01*
X108845970Y-113201413D01*
X108789392Y-113113355D01*
X108705248Y-113026760D01*
X108587838Y-112941077D01*
X108456746Y-112872208D01*
X108154753Y-112741006D01*
X108154753Y-113772816D01*
X107861187Y-113772816D01*
X107867952Y-113558879D01*
X107877816Y-113246861D01*
X107873163Y-112900504D01*
X107868511Y-112554241D01*
X107874033Y-112518088D01*
X107891528Y-112480552D01*
X107923693Y-112440340D01*
X107963106Y-112407679D01*
X108001902Y-112389531D01*
X108041317Y-112383669D01*
X108086799Y-112394448D01*
G37*
G36*
X109854156Y-112373896D02*
G01*
X109950403Y-112398122D01*
X110044616Y-112439019D01*
X110137787Y-112497942D01*
X110212574Y-112562887D01*
X110267830Y-112630559D01*
X110306110Y-112701520D01*
X110328928Y-112776832D01*
X110336649Y-112857978D01*
X110327851Y-112962149D01*
X110302408Y-113054759D01*
X110260836Y-113137930D01*
X110202432Y-113213233D01*
X110125317Y-113281571D01*
X110028538Y-113341394D01*
X109922959Y-113384417D01*
X109807009Y-113410836D01*
X109678739Y-113419946D01*
X109591266Y-113412688D01*
X109585031Y-113892766D01*
X109575396Y-113944213D01*
X109546506Y-113987777D01*
X109503222Y-114017324D01*
X109448610Y-114027419D01*
X109393895Y-114017363D01*
X109350157Y-113987870D01*
X109320895Y-113944296D01*
X109311166Y-113893045D01*
X109311166Y-113602337D01*
X109315559Y-113421393D01*
X109330934Y-113143661D01*
X109607923Y-113143661D01*
X109678739Y-113151943D01*
X109784582Y-113142715D01*
X109873358Y-113116653D01*
X109948324Y-113074985D01*
X109999418Y-113029453D01*
X110034561Y-112978872D01*
X110055630Y-112922179D01*
X110062877Y-112857512D01*
X110052268Y-112803826D01*
X110018765Y-112752212D01*
X109955582Y-112700433D01*
X109884515Y-112663294D01*
X109810016Y-112641234D01*
X109730758Y-112633804D01*
X109671853Y-112634363D01*
X109628675Y-112636968D01*
X109627651Y-112783625D01*
X109607923Y-113143661D01*
X109330934Y-113143661D01*
X109332011Y-113124212D01*
X109352855Y-112643948D01*
X109362136Y-112529345D01*
X109384510Y-112456555D01*
X109415565Y-112412898D01*
X109454581Y-112389838D01*
X109504817Y-112384599D01*
X109602712Y-112370548D01*
X109754673Y-112365802D01*
X109854156Y-112373896D01*
G37*
G36*
X112219275Y-113550970D02*
G01*
X112047703Y-113559195D01*
X111708116Y-113562881D01*
X111646549Y-113555392D01*
X111594587Y-113533847D01*
X111562024Y-113506635D01*
X111543585Y-113475339D01*
X111537357Y-113438371D01*
X111543589Y-113401342D01*
X111562031Y-113370017D01*
X111594587Y-113342802D01*
X111646615Y-113320480D01*
X111708116Y-113312745D01*
X111954809Y-113306789D01*
X112201502Y-113300834D01*
X112263252Y-113307598D01*
X112315031Y-113326889D01*
X112350414Y-113353439D01*
X112370564Y-113385783D01*
X112377472Y-113425902D01*
X112368300Y-113474694D01*
X112342018Y-113510581D01*
X112295352Y-113536588D01*
X112219275Y-113550970D01*
G37*
G36*
X113651695Y-113407663D02*
G01*
X113480746Y-113546079D01*
X113305928Y-113671433D01*
X113127042Y-113784169D01*
X113087787Y-113801553D01*
X113049991Y-113807061D01*
X112997897Y-113797432D01*
X112954701Y-113768815D01*
X112925216Y-113727182D01*
X112915710Y-113680970D01*
X112921629Y-113645803D01*
X112939608Y-113613824D01*
X112971917Y-113583725D01*
X113333162Y-113333590D01*
X113216276Y-113242429D01*
X113103126Y-113141056D01*
X113012154Y-113046132D01*
X112973065Y-112988947D01*
X112963635Y-112955873D01*
X112973923Y-112908664D01*
X113005789Y-112867469D01*
X113051169Y-112839536D01*
X113102103Y-112830340D01*
X113154592Y-112841402D01*
X113203069Y-112876124D01*
X113365798Y-113029835D01*
X113503660Y-113135876D01*
X113620521Y-113203776D01*
X113670173Y-113236238D01*
X113696401Y-113271404D01*
X113704830Y-113310884D01*
X113699495Y-113342678D01*
X113682695Y-113374540D01*
X113651695Y-113407663D01*
G37*
G36*
X115991136Y-112663583D02*
G01*
X115947399Y-112657906D01*
X115779363Y-112626208D01*
X115619468Y-112615938D01*
X115540134Y-112618803D01*
X115451873Y-112627849D01*
X115261386Y-112663583D01*
X115251988Y-113080476D01*
X115659017Y-113045021D01*
X115910921Y-113026875D01*
X115968198Y-113036845D01*
X116016075Y-113066331D01*
X116040157Y-113095084D01*
X116054713Y-113129357D01*
X116059811Y-113170834D01*
X116051164Y-113227721D01*
X116027409Y-113268135D01*
X115987986Y-113296400D01*
X115927578Y-113312745D01*
X115678745Y-113330891D01*
X115233190Y-113366345D01*
X115225932Y-113576839D01*
X115230330Y-113717564D01*
X115239750Y-113782562D01*
X115249847Y-113805851D01*
X115274224Y-113814164D01*
X115381057Y-113819345D01*
X115575731Y-113816181D01*
X115770405Y-113813017D01*
X115831823Y-113806782D01*
X115892216Y-113800547D01*
X115948810Y-113809387D01*
X115995323Y-113835071D01*
X116022227Y-113864011D01*
X116038516Y-113899690D01*
X116044271Y-113944226D01*
X116036322Y-113998114D01*
X116014315Y-114037589D01*
X115977827Y-114066362D01*
X115922460Y-114084928D01*
X115790694Y-114098419D01*
X115490398Y-114104842D01*
X115309522Y-114096719D01*
X115184151Y-114075950D01*
X115100723Y-114047025D01*
X115047915Y-114012902D01*
X115004849Y-113959250D01*
X114969362Y-113875852D01*
X114944246Y-113751968D01*
X114934479Y-113574327D01*
X114938730Y-113416762D01*
X114954765Y-113153990D01*
X114970809Y-112891353D01*
X114975051Y-112734771D01*
X114964629Y-112626732D01*
X114954207Y-112518600D01*
X114961002Y-112457442D01*
X114979025Y-112414608D01*
X115006797Y-112385153D01*
X115045765Y-112366672D01*
X115099933Y-112359846D01*
X115143900Y-112366338D01*
X115184335Y-112385902D01*
X115303947Y-112360029D01*
X115413813Y-112343189D01*
X115521348Y-112333242D01*
X115619468Y-112330068D01*
X115794719Y-112337786D01*
X115932377Y-112358622D01*
X116039060Y-112389624D01*
X116082395Y-112412441D01*
X116111382Y-112441249D01*
X116128720Y-112476690D01*
X116134815Y-112520927D01*
X116125527Y-112571373D01*
X116097313Y-112616031D01*
X116066929Y-112642512D01*
X116032040Y-112658186D01*
X115991136Y-112663583D01*
G37*
G36*
X116545265Y-112394448D02*
G01*
X116672588Y-112448157D01*
X116864192Y-112534513D01*
X117013383Y-112591655D01*
X117149098Y-112661625D01*
X117272562Y-112744372D01*
X117384750Y-112840204D01*
X117481385Y-112946008D01*
X117553092Y-113052358D01*
X117602707Y-113160122D01*
X117632055Y-113270537D01*
X117641865Y-113385143D01*
X117632073Y-113502910D01*
X117602790Y-113616471D01*
X117553368Y-113727312D01*
X117486658Y-113830824D01*
X117406112Y-113918772D01*
X117310770Y-113992523D01*
X117223516Y-114038387D01*
X117116136Y-114073579D01*
X116984693Y-114096532D01*
X116824643Y-114104842D01*
X116746209Y-114099783D01*
X116649697Y-114082974D01*
X116537614Y-114049863D01*
X116461257Y-114012251D01*
X116404449Y-114001091D01*
X116358150Y-113970189D01*
X116326942Y-113924751D01*
X116316554Y-113870805D01*
X116319653Y-113772816D01*
X116613218Y-113772816D01*
X116656125Y-113795334D01*
X116706368Y-113811900D01*
X116760627Y-113821523D01*
X116823526Y-113824928D01*
X116973863Y-113816197D01*
X117077441Y-113793860D01*
X117146246Y-113762394D01*
X117203484Y-113718355D01*
X117252426Y-113664839D01*
X117293555Y-113600848D01*
X117324197Y-113531107D01*
X117342261Y-113460524D01*
X117348272Y-113388214D01*
X117337321Y-113292320D01*
X117304436Y-113201413D01*
X117247858Y-113113355D01*
X117163714Y-113026760D01*
X117046303Y-112941077D01*
X116915212Y-112872208D01*
X116613218Y-112741006D01*
X116613218Y-113772816D01*
X116319653Y-113772816D01*
X116326418Y-113558879D01*
X116336282Y-113246861D01*
X116331629Y-112900504D01*
X116326977Y-112554241D01*
X116332499Y-112518088D01*
X116349994Y-112480552D01*
X116382159Y-112440340D01*
X116421572Y-112407679D01*
X116460368Y-112389531D01*
X116499782Y-112383669D01*
X116545265Y-112394448D01*
G37*
G36*
X118312622Y-112373896D02*
G01*
X118408868Y-112398122D01*
X118503082Y-112439019D01*
X118596253Y-112497942D01*
X118671040Y-112562887D01*
X118726296Y-112630559D01*
X118764576Y-112701520D01*
X118787394Y-112776832D01*
X118795115Y-112857978D01*
X118786317Y-112962149D01*
X118760873Y-113054759D01*
X118719302Y-113137930D01*
X118660898Y-113213233D01*
X118583783Y-113281571D01*
X118487004Y-113341394D01*
X118381425Y-113384417D01*
X118265474Y-113410836D01*
X118137205Y-113419946D01*
X118049732Y-113412688D01*
X118043497Y-113892766D01*
X118033862Y-113944213D01*
X118004972Y-113987777D01*
X117961688Y-114017324D01*
X117907076Y-114027419D01*
X117852361Y-114017363D01*
X117808623Y-113987870D01*
X117779360Y-113944296D01*
X117769632Y-113893045D01*
X117769632Y-113602337D01*
X117774025Y-113421393D01*
X117789399Y-113143661D01*
X118066389Y-113143661D01*
X118137205Y-113151943D01*
X118243048Y-113142715D01*
X118331824Y-113116653D01*
X118406790Y-113074985D01*
X118457884Y-113029453D01*
X118493027Y-112978872D01*
X118514096Y-112922179D01*
X118521342Y-112857512D01*
X118510734Y-112803826D01*
X118477230Y-112752212D01*
X118414048Y-112700433D01*
X118342981Y-112663294D01*
X118268482Y-112641234D01*
X118189224Y-112633804D01*
X118130319Y-112634363D01*
X118087141Y-112636968D01*
X118086117Y-112783625D01*
X118066389Y-113143661D01*
X117789399Y-113143661D01*
X117790476Y-113124212D01*
X117811321Y-112643948D01*
X117820602Y-112529345D01*
X117842976Y-112456555D01*
X117874031Y-112412898D01*
X117913047Y-112389838D01*
X117963282Y-112384599D01*
X118061178Y-112370548D01*
X118213139Y-112365802D01*
X118312622Y-112373896D01*
G37*
D12*
G36*
X141887814Y-108252804D02*
G01*
X141754549Y-108244331D01*
X141642963Y-108220629D01*
X141549543Y-108183580D01*
X141471386Y-108134064D01*
X141412600Y-108079648D01*
X141373457Y-108024198D01*
X141350853Y-107966815D01*
X141343340Y-107905983D01*
X141353531Y-107844567D01*
X141382889Y-107796176D01*
X141411856Y-107772378D01*
X141447626Y-107757739D01*
X141492230Y-107752532D01*
X141548608Y-107763070D01*
X141593478Y-107794019D01*
X141629675Y-107849404D01*
X141665896Y-107903138D01*
X141719245Y-107942837D01*
X141794267Y-107969005D01*
X141898236Y-107978846D01*
X142016001Y-107970298D01*
X142131202Y-107944661D01*
X142244965Y-107901423D01*
X142331782Y-107853557D01*
X142383632Y-107809187D01*
X142410506Y-107767605D01*
X142418794Y-107726849D01*
X142411340Y-107664661D01*
X142390800Y-107617451D01*
X142357865Y-107581558D01*
X142310476Y-107555346D01*
X142214138Y-107533976D01*
X142001343Y-107520263D01*
X141882598Y-107510469D01*
X141775505Y-107487642D01*
X141678529Y-107452518D01*
X141603936Y-107411295D01*
X141551025Y-107366353D01*
X141515646Y-107317691D01*
X141495231Y-107264351D01*
X141489066Y-107204523D01*
X141497934Y-107128172D01*
X141522302Y-107053881D01*
X141563348Y-106980349D01*
X141623361Y-106906597D01*
X141705609Y-106832017D01*
X141817083Y-106756787D01*
X141931718Y-106704376D01*
X142050857Y-106673155D01*
X142176196Y-106662654D01*
X142283007Y-106672995D01*
X142428100Y-106709183D01*
X142525168Y-106746482D01*
X142579982Y-106780873D01*
X142606640Y-106812353D01*
X142614492Y-106842626D01*
X142605211Y-106893007D01*
X142576990Y-106937729D01*
X142546658Y-106963537D01*
X142511446Y-106978928D01*
X142469789Y-106984258D01*
X142415160Y-106979933D01*
X142323504Y-106963413D01*
X142231714Y-106946915D01*
X142176196Y-106942568D01*
X142088236Y-106950209D01*
X142003554Y-106971672D01*
X141921128Y-107007336D01*
X141844916Y-107057563D01*
X141807399Y-107103702D01*
X141796246Y-107148223D01*
X141805377Y-107183794D01*
X141834213Y-107213549D01*
X141877893Y-107234100D01*
X141948207Y-107249562D01*
X142213698Y-107264172D01*
X142329376Y-107280204D01*
X142427122Y-107307938D01*
X142509608Y-107346159D01*
X142579037Y-107394358D01*
X142642969Y-107461858D01*
X142688647Y-107540379D01*
X142716951Y-107632111D01*
X142726904Y-107740249D01*
X142718723Y-107824649D01*
X142694833Y-107900598D01*
X142655165Y-107969958D01*
X142598268Y-108033991D01*
X142521427Y-108093251D01*
X142420841Y-108147557D01*
X142303417Y-108192542D01*
X142176248Y-108225442D01*
X142038152Y-108245793D01*
X141887814Y-108252804D01*
G37*
G36*
X143483200Y-107120034D02*
G01*
X143570035Y-107150942D01*
X143646397Y-107201989D01*
X143714048Y-107275432D01*
X143761229Y-107352410D01*
X143795592Y-107438695D01*
X143816962Y-107535874D01*
X143824413Y-107645890D01*
X143815868Y-107765144D01*
X143791160Y-107872175D01*
X143751031Y-107968915D01*
X143695344Y-108056920D01*
X143632645Y-108126087D01*
X143563585Y-108178579D01*
X143487322Y-108215999D01*
X143402435Y-108238921D01*
X143307019Y-108246849D01*
X143213149Y-108238439D01*
X143127767Y-108213841D01*
X143049117Y-108173102D01*
X142975924Y-108115081D01*
X142909941Y-108038330D01*
X142861512Y-107950101D01*
X142830093Y-107848294D01*
X142816611Y-107730013D01*
X142816642Y-107729361D01*
X143104993Y-107729361D01*
X143113664Y-107809269D01*
X143137641Y-107871462D01*
X143175809Y-107920034D01*
X143215787Y-107949640D01*
X143259052Y-107967014D01*
X143306926Y-107972890D01*
X143364924Y-107966025D01*
X143416779Y-107945850D01*
X143464098Y-107911752D01*
X143506147Y-107859746D01*
X143533349Y-107796199D01*
X143545336Y-107718008D01*
X143542506Y-107596480D01*
X143525882Y-107510992D01*
X143499480Y-107452576D01*
X143465279Y-107414203D01*
X143422837Y-107391458D01*
X143369367Y-107383284D01*
X143308669Y-107390168D01*
X143255936Y-107411169D01*
X143209190Y-107446755D01*
X143167434Y-107499326D01*
X143133224Y-107567389D01*
X143112255Y-107643469D01*
X143104993Y-107729361D01*
X142816642Y-107729361D01*
X142821929Y-107617152D01*
X142844687Y-107512408D01*
X142884662Y-107414138D01*
X142942609Y-107321029D01*
X143011133Y-107244551D01*
X143088001Y-107186150D01*
X143174297Y-107144216D01*
X143271819Y-107118335D01*
X143382953Y-107109326D01*
X143483200Y-107120034D01*
G37*
G36*
X144911127Y-107584100D02*
G01*
X144912151Y-107793105D01*
X144913174Y-108002017D01*
X144916803Y-108066691D01*
X144920526Y-108131272D01*
X144909918Y-108184331D01*
X144878371Y-108226935D01*
X144831940Y-108255072D01*
X144774799Y-108264716D01*
X144721475Y-108256317D01*
X144680503Y-108232484D01*
X144648801Y-108191945D01*
X144558889Y-108219145D01*
X144467123Y-108235434D01*
X144372888Y-108240893D01*
X144276035Y-108233441D01*
X144193986Y-108212390D01*
X144124148Y-108178917D01*
X144072857Y-108138917D01*
X144033799Y-108091687D01*
X144005802Y-108036303D01*
X143988751Y-107971122D01*
X143957661Y-107718851D01*
X143948178Y-107509190D01*
X143955451Y-107370742D01*
X143979445Y-107202289D01*
X143996790Y-107149781D01*
X144024902Y-107114778D01*
X144064582Y-107093343D01*
X144119960Y-107085503D01*
X144176303Y-107095069D01*
X144222974Y-107123191D01*
X144254969Y-107165814D01*
X144265687Y-107218667D01*
X144250612Y-107361137D01*
X144235537Y-107508631D01*
X144245401Y-107763141D01*
X144258518Y-107867165D01*
X144275086Y-107943205D01*
X144325522Y-107960793D01*
X144372981Y-107966935D01*
X144490753Y-107959076D01*
X144626932Y-107933713D01*
X144625909Y-107751788D01*
X144623862Y-107577121D01*
X144629197Y-107371278D01*
X144643590Y-107209175D01*
X144659070Y-107153453D01*
X144686696Y-107116525D01*
X144727166Y-107093863D01*
X144785222Y-107085503D01*
X144842583Y-107095222D01*
X144890375Y-107123843D01*
X144914475Y-107151767D01*
X144927784Y-107183311D01*
X144930948Y-107219970D01*
X144911127Y-107584100D01*
G37*
G36*
X145980812Y-107438281D02*
G01*
X145966549Y-107512762D01*
X145937992Y-107559925D01*
X145896050Y-107587663D01*
X145836109Y-107597686D01*
X145776765Y-107588612D01*
X145738013Y-107564409D01*
X145714048Y-107524813D01*
X145704992Y-107463592D01*
X145699781Y-107359462D01*
X145609018Y-107381839D01*
X145531885Y-107416824D01*
X145466242Y-107464105D01*
X145410653Y-107524393D01*
X145364498Y-107599361D01*
X145365522Y-108121688D01*
X145355243Y-108176128D01*
X145324949Y-108219769D01*
X145279599Y-108248749D01*
X145221936Y-108258760D01*
X145180802Y-108253784D01*
X145148152Y-108239820D01*
X145121993Y-108217071D01*
X145097334Y-108175286D01*
X145088679Y-108121222D01*
X145088679Y-107438653D01*
X145090726Y-107342246D01*
X145092866Y-107245840D01*
X145101811Y-107191632D01*
X145127670Y-107148409D01*
X145168621Y-107119643D01*
X145227147Y-107109326D01*
X145280152Y-107117106D01*
X145318765Y-107138591D01*
X145346708Y-107174125D01*
X145364498Y-107227973D01*
X145460126Y-107167743D01*
X145559413Y-107125422D01*
X145663468Y-107100036D01*
X145773668Y-107091459D01*
X145836864Y-107099045D01*
X145886122Y-107120169D01*
X145924805Y-107154382D01*
X145954417Y-107203896D01*
X145974317Y-107273196D01*
X145981835Y-107368488D01*
X145980812Y-107438281D01*
G37*
G36*
X146611735Y-108252804D02*
G01*
X146498542Y-108244149D01*
X146398116Y-108219205D01*
X146308323Y-108178750D01*
X146227505Y-108122525D01*
X146155900Y-108048141D01*
X146105511Y-107964361D01*
X146074770Y-107869273D01*
X146064097Y-107759977D01*
X146072524Y-107659835D01*
X146098511Y-107555990D01*
X146143776Y-107447056D01*
X146210847Y-107331731D01*
X146285921Y-107233903D01*
X146361339Y-107163598D01*
X146437639Y-107116239D01*
X146515995Y-107088704D01*
X146598149Y-107079548D01*
X146669341Y-107085244D01*
X146752877Y-107103805D01*
X146851076Y-107137894D01*
X146939233Y-107181969D01*
X146991605Y-107223765D01*
X147018676Y-107263663D01*
X147027046Y-107303535D01*
X147018291Y-107351520D01*
X146991685Y-107394172D01*
X146948992Y-107426084D01*
X146894813Y-107436885D01*
X146849564Y-107426716D01*
X146787053Y-107389240D01*
X146742452Y-107364464D01*
X146681160Y-107347848D01*
X146598149Y-107341595D01*
X146563655Y-107348607D01*
X146524658Y-107372235D01*
X146478824Y-107419037D01*
X146424319Y-107498395D01*
X146371246Y-107602741D01*
X146343217Y-107688733D01*
X146334799Y-107760163D01*
X146343974Y-107829036D01*
X146370174Y-107885143D01*
X146413897Y-107931573D01*
X146466867Y-107963422D01*
X146531798Y-107983544D01*
X146611735Y-107990757D01*
X146683677Y-107979060D01*
X146782401Y-107937157D01*
X146875802Y-107892591D01*
X146910446Y-107883556D01*
X146962577Y-107893728D01*
X147006760Y-107924408D01*
X147037070Y-107968588D01*
X147046867Y-108017464D01*
X147039117Y-108051615D01*
X147012968Y-108088878D01*
X146960459Y-108131464D01*
X146869874Y-108180592D01*
X146761699Y-108223838D01*
X146677236Y-108246251D01*
X146611735Y-108252804D01*
G37*
G36*
X147845056Y-107104576D02*
G01*
X147944212Y-107124473D01*
X148026101Y-107155296D01*
X148097060Y-107200679D01*
X148144865Y-107254330D01*
X148173371Y-107317437D01*
X148183274Y-107393055D01*
X148176017Y-107445642D01*
X148153934Y-107495815D01*
X148114979Y-107545081D01*
X148055228Y-107594243D01*
X147981308Y-107636821D01*
X147821005Y-107711960D01*
X147470181Y-107865689D01*
X147525452Y-107917866D01*
X147590969Y-107955023D01*
X147665189Y-107977026D01*
X147753352Y-107984802D01*
X147844892Y-107977999D01*
X147922914Y-107958750D01*
X147989716Y-107928130D01*
X148073476Y-107888128D01*
X148128184Y-107877600D01*
X148177756Y-107884842D01*
X148209702Y-107903948D01*
X148229142Y-107934706D01*
X148236409Y-107981638D01*
X148227178Y-108033426D01*
X148198715Y-108081561D01*
X148146565Y-108128044D01*
X148062579Y-108173148D01*
X147963779Y-108207376D01*
X147861019Y-108227982D01*
X147753352Y-108234937D01*
X147628905Y-108226741D01*
X147521219Y-108203458D01*
X147427727Y-108166424D01*
X147346323Y-108116104D01*
X147283387Y-108059299D01*
X147235161Y-107995135D01*
X147200408Y-107922648D01*
X147178888Y-107840267D01*
X147171377Y-107745925D01*
X147180618Y-107615050D01*
X147183224Y-107603642D01*
X147449337Y-107603642D01*
X147683560Y-107503513D01*
X147816005Y-107439572D01*
X147907361Y-107386820D01*
X147859282Y-107366002D01*
X147799424Y-107352468D01*
X147725156Y-107347550D01*
X147663153Y-107354811D01*
X147608576Y-107376000D01*
X147559609Y-107411573D01*
X147519234Y-107457975D01*
X147482290Y-107520783D01*
X147449337Y-107603642D01*
X147183224Y-107603642D01*
X147207247Y-107498472D01*
X147250317Y-107393960D01*
X147309845Y-107299719D01*
X147376589Y-107226140D01*
X147450284Y-107170241D01*
X147531844Y-107130347D01*
X147622813Y-107105883D01*
X147725249Y-107097414D01*
X147845056Y-107104576D01*
G37*
G36*
X148787676Y-107359462D02*
G01*
X148727962Y-107349464D01*
X148681033Y-107320657D01*
X148649533Y-107276796D01*
X148638878Y-107221924D01*
X148634132Y-107186283D01*
X148629480Y-107149433D01*
X148634465Y-107112292D01*
X148649002Y-107080388D01*
X148673681Y-107052375D01*
X148721939Y-107023736D01*
X148779394Y-107014036D01*
X148834921Y-107022125D01*
X148876201Y-107044616D01*
X148906898Y-107081981D01*
X148927575Y-107138612D01*
X148935543Y-107221924D01*
X148924888Y-107276796D01*
X148893388Y-107320657D01*
X148846585Y-107349501D01*
X148787676Y-107359462D01*
G37*
G36*
X148804333Y-108062225D02*
G01*
X148748505Y-108053375D01*
X148706152Y-108028347D01*
X148673852Y-107985688D01*
X148651635Y-107919461D01*
X148642973Y-107820371D01*
X148648150Y-107783929D01*
X148663431Y-107751973D01*
X148689780Y-107723220D01*
X148738195Y-107696174D01*
X148794934Y-107687021D01*
X148849616Y-107695728D01*
X148891147Y-107720379D01*
X148922863Y-107762452D01*
X148944703Y-107827857D01*
X148953223Y-107925804D01*
X148942488Y-107979814D01*
X148910510Y-108023513D01*
X148863327Y-108052300D01*
X148804333Y-108062225D01*
G37*
G36*
X151318813Y-106847279D02*
G01*
X151275077Y-106841602D01*
X151107041Y-106809904D01*
X150947145Y-106799634D01*
X150867812Y-106802499D01*
X150779551Y-106811545D01*
X150589064Y-106847279D01*
X150579665Y-107264172D01*
X150986694Y-107228717D01*
X151238598Y-107210571D01*
X151295876Y-107220541D01*
X151343752Y-107250027D01*
X151367835Y-107278780D01*
X151382390Y-107313053D01*
X151387489Y-107354530D01*
X151378842Y-107411417D01*
X151355087Y-107451831D01*
X151315663Y-107480096D01*
X151255256Y-107496441D01*
X151006422Y-107514587D01*
X150560868Y-107550041D01*
X150553609Y-107760535D01*
X150558008Y-107901260D01*
X150567428Y-107966258D01*
X150577525Y-107989547D01*
X150601901Y-107997860D01*
X150708735Y-108003041D01*
X150903409Y-107999877D01*
X151098083Y-107996713D01*
X151159500Y-107990478D01*
X151219894Y-107984243D01*
X151276488Y-107993083D01*
X151323001Y-108018767D01*
X151349905Y-108047707D01*
X151366193Y-108083386D01*
X151371948Y-108127922D01*
X151364000Y-108181810D01*
X151341993Y-108221285D01*
X151305505Y-108250058D01*
X151250137Y-108268624D01*
X151118372Y-108282115D01*
X150818076Y-108288538D01*
X150637200Y-108280415D01*
X150511829Y-108259646D01*
X150428400Y-108230721D01*
X150375592Y-108196598D01*
X150332527Y-108142946D01*
X150297039Y-108059548D01*
X150271924Y-107935664D01*
X150262156Y-107758023D01*
X150266408Y-107600458D01*
X150282443Y-107337686D01*
X150298487Y-107075049D01*
X150302729Y-106918467D01*
X150292307Y-106810428D01*
X150281884Y-106702296D01*
X150288679Y-106641138D01*
X150306702Y-106598304D01*
X150334475Y-106568849D01*
X150373442Y-106550368D01*
X150427611Y-106543542D01*
X150471578Y-106550034D01*
X150512013Y-106569598D01*
X150631625Y-106543725D01*
X150741491Y-106526885D01*
X150849026Y-106516938D01*
X150947145Y-106513764D01*
X151122396Y-106521482D01*
X151260055Y-106542318D01*
X151366737Y-106573320D01*
X151410073Y-106596137D01*
X151439060Y-106624945D01*
X151456398Y-106660386D01*
X151462492Y-106704623D01*
X151453205Y-106755069D01*
X151424991Y-106799727D01*
X151394607Y-106826208D01*
X151359717Y-106841882D01*
X151318813Y-106847279D01*
G37*
G36*
X151872943Y-106578144D02*
G01*
X152000266Y-106631853D01*
X152191870Y-106718209D01*
X152341060Y-106775351D01*
X152476775Y-106845321D01*
X152600240Y-106928068D01*
X152712428Y-107023900D01*
X152809062Y-107129704D01*
X152880770Y-107236054D01*
X152930385Y-107343818D01*
X152959733Y-107454233D01*
X152969543Y-107568839D01*
X152959750Y-107686606D01*
X152930468Y-107800167D01*
X152881046Y-107911008D01*
X152814335Y-108014520D01*
X152733789Y-108102468D01*
X152638448Y-108176219D01*
X152551194Y-108222083D01*
X152443814Y-108257275D01*
X152312371Y-108280228D01*
X152152320Y-108288538D01*
X152073887Y-108283479D01*
X151977374Y-108266670D01*
X151865292Y-108233559D01*
X151788935Y-108195947D01*
X151732126Y-108184787D01*
X151685828Y-108153885D01*
X151654620Y-108108447D01*
X151644232Y-108054501D01*
X151647331Y-107956512D01*
X151940896Y-107956512D01*
X151983803Y-107979030D01*
X152034046Y-107995596D01*
X152088305Y-108005219D01*
X152151204Y-108008624D01*
X152301540Y-107999893D01*
X152405118Y-107977556D01*
X152473924Y-107946090D01*
X152531161Y-107902051D01*
X152580104Y-107848535D01*
X152621232Y-107784544D01*
X152651875Y-107714803D01*
X152669939Y-107644220D01*
X152675950Y-107571910D01*
X152664999Y-107476016D01*
X152632113Y-107385109D01*
X152575536Y-107297051D01*
X152491392Y-107210456D01*
X152373981Y-107124773D01*
X152242890Y-107055904D01*
X151940896Y-106924702D01*
X151940896Y-107956512D01*
X151647331Y-107956512D01*
X151654096Y-107742575D01*
X151663960Y-107430557D01*
X151659307Y-107084200D01*
X151654654Y-106737937D01*
X151660177Y-106701784D01*
X151677671Y-106664248D01*
X151709837Y-106624036D01*
X151749250Y-106591375D01*
X151788046Y-106573227D01*
X151827460Y-106567365D01*
X151872943Y-106578144D01*
G37*
G36*
X153640300Y-106557592D02*
G01*
X153736546Y-106581818D01*
X153830759Y-106622715D01*
X153923931Y-106681638D01*
X153998718Y-106746583D01*
X154053974Y-106814255D01*
X154092254Y-106885216D01*
X154115071Y-106960528D01*
X154122792Y-107041674D01*
X154113994Y-107145845D01*
X154088551Y-107238455D01*
X154046980Y-107321626D01*
X153988575Y-107396929D01*
X153911461Y-107465267D01*
X153814682Y-107525090D01*
X153709103Y-107568113D01*
X153593152Y-107594532D01*
X153464883Y-107603642D01*
X153377410Y-107596384D01*
X153371175Y-108076462D01*
X153361539Y-108127909D01*
X153332649Y-108171473D01*
X153289365Y-108201020D01*
X153234754Y-108211115D01*
X153180039Y-108201059D01*
X153136300Y-108171566D01*
X153107038Y-108127992D01*
X153097309Y-108076741D01*
X153097309Y-107786033D01*
X153101702Y-107605089D01*
X153117077Y-107327357D01*
X153394067Y-107327357D01*
X153464883Y-107335639D01*
X153570725Y-107326411D01*
X153659502Y-107300349D01*
X153734468Y-107258681D01*
X153785562Y-107213149D01*
X153820704Y-107162568D01*
X153841773Y-107105875D01*
X153849020Y-107041208D01*
X153838411Y-106987522D01*
X153804908Y-106935908D01*
X153741726Y-106884129D01*
X153670658Y-106846990D01*
X153596159Y-106824930D01*
X153516901Y-106817500D01*
X153457997Y-106818059D01*
X153414818Y-106820664D01*
X153413795Y-106967321D01*
X153394067Y-107327357D01*
X153117077Y-107327357D01*
X153118154Y-107307908D01*
X153138999Y-106827644D01*
X153148280Y-106713041D01*
X153170654Y-106640251D01*
X153201709Y-106596594D01*
X153240725Y-106573534D01*
X153290960Y-106568295D01*
X153388856Y-106554244D01*
X153540817Y-106549498D01*
X153640300Y-106557592D01*
G37*
G36*
X156005419Y-107734666D02*
G01*
X155833847Y-107742891D01*
X155494259Y-107746577D01*
X155432693Y-107739088D01*
X155380731Y-107717543D01*
X155348168Y-107690331D01*
X155329729Y-107659035D01*
X155323501Y-107622067D01*
X155329732Y-107585038D01*
X155348175Y-107553713D01*
X155380731Y-107526498D01*
X155432758Y-107504176D01*
X155494259Y-107496441D01*
X155740952Y-107490485D01*
X155987645Y-107484530D01*
X156049396Y-107491294D01*
X156101174Y-107510585D01*
X156136558Y-107537135D01*
X156156708Y-107569479D01*
X156163615Y-107609598D01*
X156154444Y-107658390D01*
X156128162Y-107694277D01*
X156081495Y-107720284D01*
X156005419Y-107734666D01*
G37*
G36*
X157437838Y-107591359D02*
G01*
X157266889Y-107729775D01*
X157092071Y-107855129D01*
X156913185Y-107967865D01*
X156873931Y-107985249D01*
X156836135Y-107990757D01*
X156784041Y-107981128D01*
X156740845Y-107952511D01*
X156711360Y-107910878D01*
X156701854Y-107864666D01*
X156707773Y-107829499D01*
X156725752Y-107797520D01*
X156758060Y-107767421D01*
X157119306Y-107517286D01*
X157002420Y-107426125D01*
X156889270Y-107324752D01*
X156798298Y-107229828D01*
X156759209Y-107172643D01*
X156749778Y-107139569D01*
X156760066Y-107092360D01*
X156791933Y-107051165D01*
X156837313Y-107023232D01*
X156888246Y-107014036D01*
X156940736Y-107025098D01*
X156989213Y-107059820D01*
X157151942Y-107213531D01*
X157289804Y-107319572D01*
X157406664Y-107387472D01*
X157456316Y-107419934D01*
X157482544Y-107455100D01*
X157490973Y-107494580D01*
X157485638Y-107526374D01*
X157468838Y-107558236D01*
X157437838Y-107591359D01*
G37*
G36*
X159000328Y-106578144D02*
G01*
X159127651Y-106631853D01*
X159319255Y-106718209D01*
X159468446Y-106775351D01*
X159604161Y-106845321D01*
X159727625Y-106928068D01*
X159839813Y-107023900D01*
X159936448Y-107129704D01*
X160008155Y-107236054D01*
X160057770Y-107343818D01*
X160087118Y-107454233D01*
X160096928Y-107568839D01*
X160087136Y-107686606D01*
X160057853Y-107800167D01*
X160008431Y-107911008D01*
X159941721Y-108014520D01*
X159861175Y-108102468D01*
X159765833Y-108176219D01*
X159678579Y-108222083D01*
X159571199Y-108257275D01*
X159439756Y-108280228D01*
X159279706Y-108288538D01*
X159201272Y-108283479D01*
X159104760Y-108266670D01*
X158992677Y-108233559D01*
X158916320Y-108195947D01*
X158859512Y-108184787D01*
X158813213Y-108153885D01*
X158782005Y-108108447D01*
X158771617Y-108054501D01*
X158774716Y-107956512D01*
X159068281Y-107956512D01*
X159111188Y-107979030D01*
X159161431Y-107995596D01*
X159215690Y-108005219D01*
X159278589Y-108008624D01*
X159428926Y-107999893D01*
X159532504Y-107977556D01*
X159601309Y-107946090D01*
X159658547Y-107902051D01*
X159707489Y-107848535D01*
X159748618Y-107784544D01*
X159779260Y-107714803D01*
X159797324Y-107644220D01*
X159803335Y-107571910D01*
X159792384Y-107476016D01*
X159759499Y-107385109D01*
X159702921Y-107297051D01*
X159618777Y-107210456D01*
X159501366Y-107124773D01*
X159370275Y-107055904D01*
X159068281Y-106924702D01*
X159068281Y-107956512D01*
X158774716Y-107956512D01*
X158781481Y-107742575D01*
X158791345Y-107430557D01*
X158786692Y-107084200D01*
X158782040Y-106737937D01*
X158787562Y-106701784D01*
X158805057Y-106664248D01*
X158837222Y-106624036D01*
X158876635Y-106591375D01*
X158915431Y-106573227D01*
X158954846Y-106567365D01*
X159000328Y-106578144D01*
G37*
G36*
X160767685Y-106557592D02*
G01*
X160863931Y-106581818D01*
X160958145Y-106622715D01*
X161051316Y-106681638D01*
X161126103Y-106746583D01*
X161181359Y-106814255D01*
X161219639Y-106885216D01*
X161242457Y-106960528D01*
X161250178Y-107041674D01*
X161241380Y-107145845D01*
X161215936Y-107238455D01*
X161174365Y-107321626D01*
X161115961Y-107396929D01*
X161038846Y-107465267D01*
X160942067Y-107525090D01*
X160836488Y-107568113D01*
X160720537Y-107594532D01*
X160592268Y-107603642D01*
X160504795Y-107596384D01*
X160498560Y-108076462D01*
X160488925Y-108127909D01*
X160460035Y-108171473D01*
X160416751Y-108201020D01*
X160362139Y-108211115D01*
X160307424Y-108201059D01*
X160263686Y-108171566D01*
X160234423Y-108127992D01*
X160224695Y-108076741D01*
X160224695Y-107786033D01*
X160229088Y-107605089D01*
X160244463Y-107327357D01*
X160521452Y-107327357D01*
X160592268Y-107335639D01*
X160698111Y-107326411D01*
X160786887Y-107300349D01*
X160861853Y-107258681D01*
X160912947Y-107213149D01*
X160948090Y-107162568D01*
X160969159Y-107105875D01*
X160976405Y-107041208D01*
X160965797Y-106987522D01*
X160932293Y-106935908D01*
X160869111Y-106884129D01*
X160798044Y-106846990D01*
X160723545Y-106824930D01*
X160644287Y-106817500D01*
X160585382Y-106818059D01*
X160542204Y-106820664D01*
X160541180Y-106967321D01*
X160521452Y-107327357D01*
X160244463Y-107327357D01*
X160245540Y-107307908D01*
X160266384Y-106827644D01*
X160275665Y-106713041D01*
X160298039Y-106640251D01*
X160329094Y-106596594D01*
X160368110Y-106573534D01*
X160418345Y-106568295D01*
X160516241Y-106554244D01*
X160668202Y-106549498D01*
X160767685Y-106557592D01*
G37*
D13*
%TO.C,C1*%
X110170035Y-106233733D02*
X110170035Y-106526267D01*
X111190035Y-106233733D02*
X111190035Y-106526267D01*
D14*
%TO.C,J1*%
X109840000Y-119500000D02*
X109840000Y-120200000D01*
X109840000Y-123630000D02*
X109840000Y-127180000D01*
X109840000Y-130210000D02*
X109840000Y-132870000D01*
X109840000Y-132870000D02*
X126740000Y-132870000D01*
X113840000Y-119500000D02*
X109840000Y-119500000D01*
X126740000Y-119500000D02*
X124240000Y-119500000D01*
X126740000Y-119500000D02*
X126740000Y-120200000D01*
X126740000Y-123630000D02*
X126740000Y-127180000D01*
X126740000Y-130210000D02*
X126740000Y-132870000D01*
D15*
X123890000Y-117470000D02*
G75*
G02*
X123690000Y-117470000I-100000J0D01*
G01*
X123690000Y-117470000D02*
G75*
G02*
X123890000Y-117470000I100000J0D01*
G01*
D14*
%TO.C,J2*%
X89340000Y-121107500D02*
X90340000Y-121107500D01*
X89840000Y-120607500D02*
X89840000Y-121607500D01*
X91050000Y-124037500D02*
X101550000Y-124037500D01*
X91050000Y-132837500D02*
X91050000Y-124037500D01*
X101550000Y-124837500D02*
X101550000Y-124037500D01*
X104950000Y-124837500D02*
X103524000Y-124837500D01*
X104950000Y-124837500D02*
X104950000Y-132837500D01*
X104950000Y-132837500D02*
X91050000Y-132837500D01*
X105660000Y-121107500D02*
X106660000Y-121107500D01*
%TO.C,J3*%
X97945000Y-103040000D02*
X97945000Y-101360000D01*
X98930000Y-103040000D02*
X97945000Y-103040000D01*
X121980000Y-99090000D02*
X98380000Y-99090000D01*
X122415000Y-103040000D02*
X121430000Y-103040000D01*
X122415000Y-103040000D02*
X122415000Y-101360000D01*
D15*
X120030000Y-103890000D02*
G75*
G02*
X119830000Y-103890000I-100000J0D01*
G01*
X119830000Y-103890000D02*
G75*
G02*
X120030000Y-103890000I100000J0D01*
G01*
D13*
%TO.C,C2*%
X103920035Y-106626267D02*
X103920035Y-106333733D01*
X104940035Y-106626267D02*
X104940035Y-106333733D01*
D14*
%TO.C,J4*%
X133575678Y-112746196D02*
X133575678Y-113446196D01*
X133575678Y-116876196D02*
X133575678Y-120426196D01*
X133575678Y-123456196D02*
X133575678Y-126116196D01*
X133575678Y-126116196D02*
X150475678Y-126116196D01*
X137575678Y-112746196D02*
X133575678Y-112746196D01*
X150475678Y-112746196D02*
X147975678Y-112746196D01*
X150475678Y-112746196D02*
X150475678Y-113446196D01*
X150475678Y-116876196D02*
X150475678Y-120426196D01*
X150475678Y-123456196D02*
X150475678Y-126116196D01*
D15*
X147625678Y-110716196D02*
G75*
G02*
X147425678Y-110716196I-100000J0D01*
G01*
X147425678Y-110716196D02*
G75*
G02*
X147625678Y-110716196I100000J0D01*
G01*
D14*
%TO.C,J6*%
X135880678Y-98293696D02*
X135880678Y-99973696D01*
X135880678Y-98293696D02*
X136865678Y-98293696D01*
X136315678Y-102243696D02*
X159915678Y-102243696D01*
X159365678Y-98293696D02*
X160350678Y-98293696D01*
X160350678Y-98293696D02*
X160350678Y-99973696D01*
D15*
X138465678Y-97443696D02*
G75*
G02*
X138265678Y-97443696I-100000J0D01*
G01*
X138265678Y-97443696D02*
G75*
G02*
X138465678Y-97443696I100000J0D01*
G01*
D14*
%TO.C,J5*%
X153665678Y-115413696D02*
X154665678Y-115413696D01*
X154165678Y-114913696D02*
X154165678Y-115913696D01*
X155375678Y-118343696D02*
X165875678Y-118343696D01*
X155375678Y-127143696D02*
X155375678Y-118343696D01*
X165875678Y-119143696D02*
X165875678Y-118343696D01*
X169275678Y-119143696D02*
X167849678Y-119143696D01*
X169275678Y-119143696D02*
X169275678Y-127143696D01*
X169275678Y-127143696D02*
X155375678Y-127143696D01*
X169985678Y-115413696D02*
X170985678Y-115413696D01*
%TD*%
%LPC*%
D16*
%TO.C,C1*%
X110680035Y-105517500D03*
X110680035Y-107242500D03*
%TD*%
D17*
%TO.C,J1*%
X118290000Y-129590000D03*
D18*
X123790000Y-119310000D03*
X123290000Y-119310000D03*
X122790000Y-119310000D03*
X122290000Y-119310000D03*
X121790000Y-119310000D03*
X121290000Y-119310000D03*
X120790000Y-119310000D03*
X120290000Y-119310000D03*
X119790000Y-119310000D03*
X119290000Y-119310000D03*
X118790000Y-119310000D03*
X118290000Y-119310000D03*
X117790000Y-119310000D03*
X117290000Y-119310000D03*
X116790000Y-119310000D03*
X116290000Y-119310000D03*
X115790000Y-119310000D03*
X115290000Y-119310000D03*
X114790000Y-119310000D03*
X114290000Y-119310000D03*
D19*
X110040000Y-121910000D03*
X126540000Y-121910000D03*
D20*
X110040000Y-128690000D03*
X126540000Y-128690000D03*
%TD*%
D21*
%TO.C,REF\u002A\u002A*%
X129030000Y-103540000D03*
X131530000Y-103540000D03*
X129030000Y-102690000D03*
X131530000Y-102690000D03*
X129030000Y-101840000D03*
X131530000Y-101840000D03*
X129030000Y-100990000D03*
X131530000Y-100990000D03*
X129030000Y-100140000D03*
X131530000Y-100140000D03*
X129030000Y-99290000D03*
X131530000Y-99290000D03*
X129030000Y-98440000D03*
X131530000Y-98440000D03*
%TD*%
D22*
%TO.C,J2*%
X98750000Y-121107500D03*
D23*
X93750000Y-121107500D03*
D24*
X102600000Y-124337500D03*
X102600000Y-122337500D03*
%TD*%
D21*
%TO.C,REF\u002A\u002A*%
X129030000Y-123540000D03*
X131530000Y-123540000D03*
X129030000Y-122690000D03*
X131530000Y-122690000D03*
X129030000Y-121840000D03*
X131530000Y-121840000D03*
X129030000Y-120990000D03*
X131530000Y-120990000D03*
X129030000Y-120140000D03*
X131530000Y-120140000D03*
X129030000Y-119290000D03*
X131530000Y-119290000D03*
X129030000Y-118440000D03*
X131530000Y-118440000D03*
%TD*%
D25*
%TO.C,J3*%
X119930000Y-102910000D03*
X119430000Y-102910000D03*
X118930000Y-102910000D03*
X118430000Y-102910000D03*
X117930000Y-102910000D03*
X117430000Y-102910000D03*
X116930000Y-102910000D03*
X116430000Y-102910000D03*
X115930000Y-102910000D03*
X115430000Y-102910000D03*
X114930000Y-102910000D03*
X114430000Y-102910000D03*
X113930000Y-102910000D03*
X113430000Y-102910000D03*
X112930000Y-102910000D03*
X112430000Y-102910000D03*
X111930000Y-102910000D03*
X111430000Y-102910000D03*
X110930000Y-102910000D03*
X110430000Y-102910000D03*
X109930000Y-102910000D03*
X109430000Y-102910000D03*
X108930000Y-102910000D03*
X108430000Y-102910000D03*
X107930000Y-102910000D03*
X107430000Y-102910000D03*
X106930000Y-102910000D03*
X106430000Y-102910000D03*
X105930000Y-102910000D03*
X105430000Y-102910000D03*
X104930000Y-102910000D03*
X104430000Y-102910000D03*
X103930000Y-102910000D03*
X103430000Y-102910000D03*
X102930000Y-102910000D03*
X102430000Y-102910000D03*
X101930000Y-102910000D03*
X101430000Y-102910000D03*
X100930000Y-102910000D03*
X100430000Y-102910000D03*
D26*
X120830000Y-102910000D03*
D27*
X123030000Y-100090000D03*
D26*
X99530000Y-102910000D03*
D27*
X97330000Y-100090000D03*
%TD*%
D28*
%TO.C,H2*%
X165445678Y-107463696D03*
D29*
X165445678Y-107463696D03*
%TD*%
D28*
%TO.C,H1*%
X96300000Y-113280000D03*
D29*
X96300000Y-113280000D03*
%TD*%
D30*
%TO.C,C2*%
X104430035Y-107342500D03*
X104430035Y-105617500D03*
%TD*%
D28*
%TO.C,H1*%
X135265678Y-107443696D03*
D29*
X135265678Y-107443696D03*
%TD*%
D17*
%TO.C,J4*%
X142025678Y-122836196D03*
D18*
X147525678Y-112556196D03*
X147025678Y-112556196D03*
X146525678Y-112556196D03*
X146025678Y-112556196D03*
X145525678Y-112556196D03*
X145025678Y-112556196D03*
X144525678Y-112556196D03*
X144025678Y-112556196D03*
X143525678Y-112556196D03*
X143025678Y-112556196D03*
X142525678Y-112556196D03*
X142025678Y-112556196D03*
X141525678Y-112556196D03*
X141025678Y-112556196D03*
X140525678Y-112556196D03*
X140025678Y-112556196D03*
X139525678Y-112556196D03*
X139025678Y-112556196D03*
X138525678Y-112556196D03*
X138025678Y-112556196D03*
D19*
X133775678Y-115156196D03*
X150275678Y-115156196D03*
D20*
X133775678Y-121936196D03*
X150275678Y-121936196D03*
%TD*%
D31*
%TO.C,J6*%
X138365678Y-98423696D03*
X138865678Y-98423696D03*
X139365678Y-98423696D03*
X139865678Y-98423696D03*
X140365678Y-98423696D03*
X140865678Y-98423696D03*
X141365678Y-98423696D03*
X141865678Y-98423696D03*
X142365678Y-98423696D03*
X142865678Y-98423696D03*
X143365678Y-98423696D03*
X143865678Y-98423696D03*
X144365678Y-98423696D03*
X144865678Y-98423696D03*
X145365678Y-98423696D03*
X145865678Y-98423696D03*
X146365678Y-98423696D03*
X146865678Y-98423696D03*
X147365678Y-98423696D03*
X147865678Y-98423696D03*
X148365678Y-98423696D03*
X148865678Y-98423696D03*
X149365678Y-98423696D03*
X149865678Y-98423696D03*
X150365678Y-98423696D03*
X150865678Y-98423696D03*
X151365678Y-98423696D03*
X151865678Y-98423696D03*
X152365678Y-98423696D03*
X152865678Y-98423696D03*
X153365678Y-98423696D03*
X153865678Y-98423696D03*
X154365678Y-98423696D03*
X154865678Y-98423696D03*
X155365678Y-98423696D03*
X155865678Y-98423696D03*
X156365678Y-98423696D03*
X156865678Y-98423696D03*
X157365678Y-98423696D03*
X157865678Y-98423696D03*
D32*
X137465678Y-98423696D03*
D33*
X135265678Y-101243696D03*
D32*
X158765678Y-98423696D03*
D33*
X160965678Y-101243696D03*
%TD*%
D28*
%TO.C,H2*%
X126280000Y-113280000D03*
D29*
X126280000Y-113280000D03*
%TD*%
D22*
%TO.C,J5*%
X163075678Y-115413696D03*
D23*
X158075678Y-115413696D03*
D24*
X166925678Y-118643696D03*
X166925678Y-116643696D03*
%TD*%
%LPD*%
M02*
