%TF.GenerationSoftware,KiCad,Pcbnew,9.0.6*%
%TF.CreationDate,2026-03-05T08:52:22-05:00*%
%TF.ProjectId,combined,636f6d62-696e-4656-942e-6b696361645f,rev?*%
%TF.SameCoordinates,Original*%
%TF.FileFunction,Copper,L3,Inr*%
%TF.FilePolarity,Positive*%
%FSLAX46Y46*%
G04 Gerber Fmt 4.6, Leading zero omitted, Abs format (unit mm)*
G04 Created by KiCad (PCBNEW 9.0.6) date 2026-03-05 08:52:22*
%MOMM*%
%LPD*%
G01*
G04 APERTURE LIST*
%TA.AperFunction,ComponentPad*%
%ADD10O,1.400000X2.800000*%
%TD*%
%TA.AperFunction,ComponentPad*%
%ADD11O,1.200000X2.400000*%
%TD*%
%TA.AperFunction,ComponentPad*%
%ADD12C,2.850000*%
%TD*%
%TA.AperFunction,ComponentPad*%
%ADD13R,2.850000X2.850000*%
%TD*%
%TA.AperFunction,ComponentPad*%
%ADD14R,1.208000X1.208000*%
%TD*%
%TA.AperFunction,ComponentPad*%
%ADD15C,2.600000*%
%TD*%
%TA.AperFunction,ViaPad*%
%ADD16C,0.500000*%
%TD*%
%TA.AperFunction,ViaPad*%
%ADD17C,0.600000*%
%TD*%
%TA.AperFunction,Conductor*%
%ADD18C,1.778000*%
%TD*%
%TA.AperFunction,Conductor*%
%ADD19C,0.762000*%
%TD*%
G04 APERTURE END LIST*
D10*
%TO.N,GND*%
%TO.C,J1*%
X110040000Y-121910000D03*
X126540000Y-121910000D03*
D11*
X110040000Y-128690000D03*
X126540000Y-128690000D03*
%TD*%
D12*
%TO.N,GND*%
%TO.C,J2*%
X98750000Y-121107500D03*
D13*
%TO.N,+5V*%
X93750000Y-121107500D03*
D14*
%TO.N,BLK_OFF_N*%
X102600000Y-124337500D03*
%TO.N,BLK_PWM_LCD*%
X102600000Y-122337500D03*
%TD*%
D15*
%TO.N,GND*%
%TO.C,H2*%
X165445678Y-107463696D03*
%TD*%
%TO.N,GND*%
%TO.C,H1*%
X96300000Y-113280000D03*
%TD*%
%TO.N,GND*%
%TO.C,H1*%
X135265678Y-107443696D03*
%TD*%
D10*
%TO.N,GND*%
%TO.C,J4*%
X133775678Y-115156196D03*
X150275678Y-115156196D03*
D11*
X133775678Y-121936196D03*
X150275678Y-121936196D03*
%TD*%
D15*
%TO.N,GND*%
%TO.C,H2*%
X126280000Y-113280000D03*
%TD*%
D12*
%TO.N,GND*%
%TO.C,J5*%
X163075678Y-115413696D03*
D13*
%TO.N,+5V*%
X158075678Y-115413696D03*
D14*
%TO.N,BLK_OFF_N*%
X166925678Y-118643696D03*
%TO.N,BLK_PWM_LCD*%
X166925678Y-116643696D03*
%TD*%
D16*
%TO.N,+3.3V*%
X147615678Y-99593696D03*
X109690000Y-105250000D03*
D17*
X138025678Y-110563696D03*
D16*
X114280000Y-117590000D03*
%TO.N,GND*%
X114930035Y-104160000D03*
X108930000Y-104160000D03*
X111930035Y-104160000D03*
X153365678Y-97523696D03*
X123290000Y-121150000D03*
X106330000Y-104160000D03*
X114790000Y-121150000D03*
X119430035Y-104160000D03*
X117930035Y-104160000D03*
X144865678Y-99593696D03*
D17*
X145525678Y-114463696D03*
X142525678Y-114463696D03*
D16*
X143365678Y-99593696D03*
X107530000Y-104160000D03*
X105090000Y-104160000D03*
X117190000Y-121150000D03*
D17*
X141695678Y-114463696D03*
D16*
X116290000Y-121150000D03*
X120290000Y-121150000D03*
X138865678Y-99593696D03*
X116430035Y-104160000D03*
X118790000Y-121150000D03*
X140365678Y-99593696D03*
D17*
X147025678Y-114463696D03*
D16*
X149365678Y-97523696D03*
D17*
X140835678Y-114463696D03*
D16*
X141865678Y-99593696D03*
X146365678Y-99593696D03*
X121790000Y-121150000D03*
X151865678Y-97523696D03*
D17*
X140025678Y-114463696D03*
D16*
X146365678Y-97523696D03*
X117890000Y-121150000D03*
D17*
X144025678Y-114463696D03*
D16*
X150865678Y-97523696D03*
D17*
X138525678Y-114463696D03*
D16*
X144865678Y-97523696D03*
X113430035Y-104160000D03*
%TO.N,+5V*%
X156615678Y-99593696D03*
X101760000Y-105660000D03*
%TO.N,BLK_OFF_N*%
X105530000Y-106720000D03*
X153633678Y-99593696D03*
%TO.N,BLK_PWM_LCD*%
X154597678Y-99593696D03*
X103470000Y-104330000D03*
D17*
%TO.N,EDP_HPD*%
X138355000Y-108475000D03*
D16*
X151365678Y-99593696D03*
%TD*%
D18*
%TO.N,+5V*%
X156850000Y-106550000D02*
X156850000Y-99828018D01*
X158310000Y-108010000D02*
X156850000Y-106550000D01*
X156850000Y-99828018D02*
X156615678Y-99593696D01*
X158310000Y-116870000D02*
X158310000Y-108010000D01*
X101760000Y-113097500D02*
X101760000Y-105660000D01*
X93750000Y-121107500D02*
X101760000Y-113097500D01*
D19*
%TO.N,BLK_OFF_N*%
X165795000Y-121000000D02*
X166925678Y-119869322D01*
X153890000Y-119510000D02*
X155380000Y-121000000D01*
X153633678Y-109793678D02*
X153890000Y-110050000D01*
X153633678Y-99593696D02*
X153633678Y-109793678D01*
X166925678Y-119869322D02*
X166925678Y-118643696D01*
X155380000Y-121000000D02*
X165795000Y-121000000D01*
X103966000Y-124337500D02*
X102600000Y-124337500D01*
X105530000Y-114830000D02*
X105530000Y-106720000D01*
X105530000Y-114830000D02*
X105530000Y-122773500D01*
X153890000Y-110050000D02*
X153890000Y-119510000D01*
X105530000Y-122773500D02*
X103966000Y-124337500D01*
%TO.N,BLK_PWM_LCD*%
X154915000Y-118440000D02*
X154915000Y-109715000D01*
X154915000Y-109715000D02*
X154597678Y-109397678D01*
X164375000Y-119905000D02*
X156380000Y-119905000D01*
X165225000Y-119055000D02*
X164375000Y-119905000D01*
X166356304Y-116643696D02*
X165225000Y-117775000D01*
X102600000Y-114910000D02*
X103470000Y-114040000D01*
X102600000Y-122337500D02*
X102600000Y-114910000D01*
X154597678Y-109397678D02*
X154597678Y-99593696D01*
X166925678Y-116643696D02*
X166356304Y-116643696D01*
X103470000Y-114040000D02*
X103470000Y-104330000D01*
X156380000Y-119905000D02*
X154915000Y-118440000D01*
X165225000Y-117775000D02*
X165225000Y-119055000D01*
%TD*%
%TA.AperFunction,Conductor*%
%TO.N,+3.3V*%
G36*
X163375797Y-96454198D02*
G01*
X163435601Y-96454196D01*
X163447742Y-96454791D01*
X163526937Y-96462587D01*
X163550769Y-96467326D01*
X163564110Y-96471371D01*
X163621060Y-96488639D01*
X163643501Y-96497929D01*
X163688798Y-96522130D01*
X163708293Y-96532546D01*
X163728499Y-96546041D01*
X163790025Y-96596507D01*
X163799031Y-96604664D01*
X163805789Y-96611418D01*
X163826725Y-96632341D01*
X163846693Y-96652297D01*
X163846715Y-96652317D01*
X170664426Y-103465457D01*
X170672607Y-103474479D01*
X170723149Y-103536033D01*
X170736662Y-103556247D01*
X170763209Y-103605892D01*
X170771336Y-103621090D01*
X170780645Y-103643555D01*
X170801997Y-103713918D01*
X170806743Y-103737767D01*
X170814580Y-103817313D01*
X170815177Y-103829469D01*
X170815177Y-103860029D01*
X170815177Y-103888995D01*
X170815177Y-103888997D01*
X170815178Y-103898989D01*
X170815178Y-125236737D01*
X170814398Y-125250621D01*
X170804219Y-125340960D01*
X170798040Y-125368032D01*
X170770327Y-125447229D01*
X170758280Y-125472245D01*
X170713640Y-125543289D01*
X170696327Y-125564999D01*
X170636995Y-125624330D01*
X170615286Y-125641642D01*
X170544238Y-125686284D01*
X170519217Y-125698333D01*
X170440022Y-125726042D01*
X170412952Y-125732220D01*
X170322446Y-125742416D01*
X170308567Y-125743195D01*
X170291219Y-125743195D01*
X170249797Y-125743194D01*
X170249790Y-125743195D01*
X170241147Y-125743196D01*
X170241146Y-125743195D01*
X170241145Y-125743196D01*
X132282959Y-125743196D01*
X132269070Y-125742416D01*
X132178705Y-125732230D01*
X132151629Y-125726048D01*
X132072416Y-125698322D01*
X132047395Y-125686269D01*
X131976341Y-125641610D01*
X131954630Y-125624291D01*
X131895359Y-125564999D01*
X131895294Y-125564933D01*
X131877985Y-125543219D01*
X131833347Y-125472143D01*
X131821305Y-125447123D01*
X131793605Y-125367893D01*
X131787435Y-125340828D01*
X131777284Y-125250481D01*
X131776511Y-125236156D01*
X131780235Y-124306877D01*
X131780500Y-124305892D01*
X131780500Y-124240993D01*
X131780760Y-124176114D01*
X131780782Y-124170647D01*
X131780500Y-124166199D01*
X131780500Y-124121910D01*
X131778728Y-124110720D01*
X131772266Y-124069923D01*
X131781220Y-124000634D01*
X131826216Y-123947181D01*
X131832732Y-123943145D01*
X131837314Y-123940500D01*
X131930500Y-123847314D01*
X131996392Y-123733186D01*
X132030500Y-123605892D01*
X132030500Y-123474108D01*
X131996392Y-123346814D01*
X131930500Y-123232686D01*
X131900495Y-123202681D01*
X131867010Y-123141358D01*
X131871994Y-123071666D01*
X131900495Y-123027319D01*
X131911616Y-123016198D01*
X131930500Y-122997314D01*
X131996392Y-122883186D01*
X132030500Y-122755892D01*
X132030500Y-122624108D01*
X131996392Y-122496814D01*
X131930500Y-122382686D01*
X131900495Y-122352681D01*
X131867010Y-122291358D01*
X131871994Y-122221666D01*
X131900495Y-122177319D01*
X131930500Y-122147314D01*
X131996392Y-122033186D01*
X132030500Y-121905892D01*
X132030500Y-121774108D01*
X131996392Y-121646814D01*
X131930500Y-121532686D01*
X131900495Y-121502681D01*
X131867010Y-121441358D01*
X131871994Y-121371666D01*
X131885660Y-121345240D01*
X131892232Y-121335581D01*
X131930500Y-121297314D01*
X131958056Y-121249585D01*
X132675178Y-121249585D01*
X132675178Y-122622807D01*
X132683355Y-122674435D01*
X132702275Y-122793893D01*
X132702275Y-122793895D01*
X132702276Y-122793897D01*
X132755160Y-122956657D01*
X132755806Y-122958643D01*
X132790798Y-123027319D01*
X132834446Y-123112984D01*
X132936264Y-123253124D01*
X133058750Y-123375610D01*
X133198890Y-123477428D01*
X133353233Y-123556069D01*
X133517977Y-123609598D01*
X133689067Y-123636696D01*
X133689068Y-123636696D01*
X133862288Y-123636696D01*
X133862289Y-123636696D01*
X134033379Y-123609598D01*
X134198123Y-123556069D01*
X134352466Y-123477428D01*
X134492606Y-123375610D01*
X134615092Y-123253124D01*
X134716910Y-123112984D01*
X134795551Y-122958641D01*
X134849080Y-122793897D01*
X134857209Y-122742575D01*
X141075178Y-122742575D01*
X141075178Y-122929816D01*
X141111703Y-123113439D01*
X141111705Y-123113447D01*
X141183354Y-123286424D01*
X141183359Y-123286433D01*
X141287375Y-123442103D01*
X141287378Y-123442107D01*
X141419766Y-123574495D01*
X141419770Y-123574498D01*
X141575440Y-123678514D01*
X141575446Y-123678517D01*
X141575447Y-123678518D01*
X141748427Y-123750169D01*
X141932057Y-123786695D01*
X141932061Y-123786696D01*
X141932062Y-123786696D01*
X142119295Y-123786696D01*
X142119296Y-123786695D01*
X142302929Y-123750169D01*
X142475909Y-123678518D01*
X142631586Y-123574498D01*
X142763980Y-123442104D01*
X142868000Y-123286427D01*
X142939651Y-123113447D01*
X142976178Y-122929812D01*
X142976178Y-122742580D01*
X142939651Y-122558945D01*
X142868000Y-122385965D01*
X142867999Y-122385964D01*
X142867996Y-122385958D01*
X142763980Y-122230288D01*
X142763977Y-122230284D01*
X142631589Y-122097896D01*
X142631585Y-122097893D01*
X142475915Y-121993877D01*
X142475906Y-121993872D01*
X142302929Y-121922223D01*
X142302921Y-121922221D01*
X142119298Y-121885696D01*
X142119294Y-121885696D01*
X141932062Y-121885696D01*
X141932057Y-121885696D01*
X141748434Y-121922221D01*
X141748426Y-121922223D01*
X141575449Y-121993872D01*
X141575440Y-121993877D01*
X141419770Y-122097893D01*
X141419766Y-122097896D01*
X141287378Y-122230284D01*
X141287375Y-122230288D01*
X141183359Y-122385958D01*
X141183354Y-122385967D01*
X141111705Y-122558944D01*
X141111703Y-122558952D01*
X141075178Y-122742575D01*
X134857209Y-122742575D01*
X134876178Y-122622807D01*
X134876178Y-121249585D01*
X149175178Y-121249585D01*
X149175178Y-122622807D01*
X149183355Y-122674435D01*
X149202275Y-122793893D01*
X149202275Y-122793895D01*
X149202276Y-122793897D01*
X149255160Y-122956657D01*
X149255806Y-122958643D01*
X149290798Y-123027319D01*
X149334446Y-123112984D01*
X149436264Y-123253124D01*
X149558750Y-123375610D01*
X149698890Y-123477428D01*
X149853233Y-123556069D01*
X150017977Y-123609598D01*
X150189067Y-123636696D01*
X150189068Y-123636696D01*
X150362288Y-123636696D01*
X150362289Y-123636696D01*
X150533379Y-123609598D01*
X150698123Y-123556069D01*
X150852466Y-123477428D01*
X150992606Y-123375610D01*
X151115092Y-123253124D01*
X151216910Y-123112984D01*
X151295551Y-122958641D01*
X151349080Y-122793897D01*
X151376178Y-122622807D01*
X151376178Y-121249585D01*
X151349080Y-121078495D01*
X151295551Y-120913751D01*
X151216910Y-120759408D01*
X151115092Y-120619268D01*
X150992606Y-120496782D01*
X150852466Y-120394964D01*
X150698123Y-120316323D01*
X150533379Y-120262794D01*
X150533377Y-120262793D01*
X150533376Y-120262793D01*
X150401949Y-120241977D01*
X150362289Y-120235696D01*
X150189067Y-120235696D01*
X150149406Y-120241977D01*
X150017980Y-120262793D01*
X149853230Y-120316324D01*
X149698889Y-120394964D01*
X149626838Y-120447313D01*
X149558750Y-120496782D01*
X149558748Y-120496784D01*
X149558747Y-120496784D01*
X149436266Y-120619265D01*
X149436266Y-120619266D01*
X149436264Y-120619268D01*
X149411988Y-120652681D01*
X149334446Y-120759407D01*
X149255806Y-120913748D01*
X149202275Y-121078498D01*
X149185694Y-121183187D01*
X149175178Y-121249585D01*
X134876178Y-121249585D01*
X134849080Y-121078495D01*
X134795551Y-120913751D01*
X134716910Y-120759408D01*
X134615092Y-120619268D01*
X134492606Y-120496782D01*
X134352466Y-120394964D01*
X134198123Y-120316323D01*
X134033379Y-120262794D01*
X134033377Y-120262793D01*
X134033376Y-120262793D01*
X133901949Y-120241977D01*
X133862289Y-120235696D01*
X133689067Y-120235696D01*
X133649406Y-120241977D01*
X133517980Y-120262793D01*
X133353230Y-120316324D01*
X133198889Y-120394964D01*
X133126838Y-120447313D01*
X133058750Y-120496782D01*
X133058748Y-120496784D01*
X133058747Y-120496784D01*
X132936266Y-120619265D01*
X132936266Y-120619266D01*
X132936264Y-120619268D01*
X132911988Y-120652681D01*
X132834446Y-120759407D01*
X132755806Y-120913748D01*
X132702275Y-121078498D01*
X132685694Y-121183187D01*
X132675178Y-121249585D01*
X131958056Y-121249585D01*
X131996392Y-121183186D01*
X132030500Y-121055892D01*
X132030500Y-120924108D01*
X131996392Y-120796814D01*
X131930500Y-120682686D01*
X131900495Y-120652681D01*
X131867010Y-120591358D01*
X131871994Y-120521666D01*
X131900495Y-120477319D01*
X131930500Y-120447314D01*
X131996392Y-120333186D01*
X132030500Y-120205892D01*
X132030500Y-120074108D01*
X131996392Y-119946814D01*
X131930500Y-119832686D01*
X131900495Y-119802681D01*
X131867010Y-119741358D01*
X131871994Y-119671666D01*
X131900495Y-119627319D01*
X131910891Y-119616923D01*
X131930500Y-119597314D01*
X131996392Y-119483186D01*
X132030500Y-119355892D01*
X132030500Y-119224108D01*
X131996392Y-119096814D01*
X131930500Y-118982686D01*
X131900495Y-118952681D01*
X131867010Y-118891358D01*
X131871994Y-118821666D01*
X131900495Y-118777319D01*
X131930500Y-118747314D01*
X131996392Y-118633186D01*
X132030500Y-118505892D01*
X132030500Y-118374108D01*
X131996392Y-118246814D01*
X131930500Y-118132686D01*
X131837314Y-118039500D01*
X131832733Y-118036855D01*
X131784521Y-117986286D01*
X131771301Y-117917679D01*
X131772260Y-117910111D01*
X131780500Y-117858092D01*
X131780500Y-117740000D01*
X131780500Y-117674108D01*
X131780500Y-114361709D01*
X132575178Y-114361709D01*
X132575178Y-115950682D01*
X132604737Y-116137314D01*
X132663132Y-116317032D01*
X132748918Y-116485395D01*
X132859988Y-116638269D01*
X132993605Y-116771886D01*
X133146479Y-116882956D01*
X133153590Y-116886579D01*
X133314841Y-116968741D01*
X133314843Y-116968741D01*
X133314846Y-116968743D01*
X133411175Y-117000042D01*
X133494559Y-117027136D01*
X133681192Y-117056696D01*
X133681197Y-117056696D01*
X133870164Y-117056696D01*
X134056796Y-117027136D01*
X134236510Y-116968743D01*
X134404877Y-116882956D01*
X134557751Y-116771886D01*
X134691368Y-116638269D01*
X134802438Y-116485395D01*
X134888225Y-116317028D01*
X134946618Y-116137314D01*
X134976178Y-115950682D01*
X134976178Y-114384849D01*
X137725178Y-114384849D01*
X137725178Y-114542542D01*
X137755939Y-114697185D01*
X137755942Y-114697197D01*
X137816280Y-114842868D01*
X137816287Y-114842881D01*
X137903888Y-114973984D01*
X137903891Y-114973988D01*
X138015385Y-115085482D01*
X138015389Y-115085485D01*
X138146492Y-115173086D01*
X138146505Y-115173093D01*
X138292176Y-115233431D01*
X138292181Y-115233433D01*
X138446831Y-115264195D01*
X138446834Y-115264196D01*
X138446836Y-115264196D01*
X138604522Y-115264196D01*
X138604523Y-115264195D01*
X138759175Y-115233433D01*
X138871844Y-115186763D01*
X138904850Y-115173093D01*
X138904850Y-115173092D01*
X138904857Y-115173090D01*
X139035967Y-115085485D01*
X139147467Y-114973985D01*
X139154823Y-114962975D01*
X139172576Y-114936408D01*
X139226188Y-114891602D01*
X139295513Y-114882895D01*
X139358540Y-114913049D01*
X139378780Y-114936408D01*
X139403885Y-114973980D01*
X139403891Y-114973988D01*
X139515385Y-115085482D01*
X139515389Y-115085485D01*
X139646492Y-115173086D01*
X139646505Y-115173093D01*
X139792176Y-115233431D01*
X139792181Y-115233433D01*
X139946831Y-115264195D01*
X139946834Y-115264196D01*
X139946836Y-115264196D01*
X140104522Y-115264196D01*
X140104523Y-115264195D01*
X140259175Y-115233433D01*
X140335476Y-115201828D01*
X140383226Y-115182050D01*
X140452695Y-115174581D01*
X140478130Y-115182050D01*
X140602176Y-115233431D01*
X140602181Y-115233433D01*
X140756831Y-115264195D01*
X140756834Y-115264196D01*
X140756836Y-115264196D01*
X140914522Y-115264196D01*
X140914523Y-115264195D01*
X141069175Y-115233433D01*
X141131704Y-115207532D01*
X141218226Y-115171695D01*
X141287695Y-115164226D01*
X141313130Y-115171695D01*
X141462176Y-115233431D01*
X141462181Y-115233433D01*
X141616831Y-115264195D01*
X141616834Y-115264196D01*
X141616836Y-115264196D01*
X141774522Y-115264196D01*
X141774523Y-115264195D01*
X141929175Y-115233433D01*
X141998669Y-115204647D01*
X142063226Y-115177908D01*
X142132695Y-115170439D01*
X142158130Y-115177908D01*
X142292176Y-115233431D01*
X142292181Y-115233433D01*
X142446831Y-115264195D01*
X142446834Y-115264196D01*
X142446836Y-115264196D01*
X142604522Y-115264196D01*
X142604523Y-115264195D01*
X142759175Y-115233433D01*
X142871844Y-115186763D01*
X142904850Y-115173093D01*
X142904850Y-115173092D01*
X142904857Y-115173090D01*
X143035967Y-115085485D01*
X143147467Y-114973985D01*
X143154823Y-114962975D01*
X143172576Y-114936408D01*
X143226188Y-114891602D01*
X143295513Y-114882895D01*
X143358540Y-114913049D01*
X143378780Y-114936408D01*
X143403885Y-114973980D01*
X143403891Y-114973988D01*
X143515385Y-115085482D01*
X143515389Y-115085485D01*
X143646492Y-115173086D01*
X143646505Y-115173093D01*
X143792176Y-115233431D01*
X143792181Y-115233433D01*
X143946831Y-115264195D01*
X143946834Y-115264196D01*
X143946836Y-115264196D01*
X144104522Y-115264196D01*
X144104523Y-115264195D01*
X144259175Y-115233433D01*
X144371844Y-115186763D01*
X144404850Y-115173093D01*
X144404850Y-115173092D01*
X144404857Y-115173090D01*
X144535967Y-115085485D01*
X144647467Y-114973985D01*
X144654823Y-114962975D01*
X144672576Y-114936408D01*
X144726188Y-114891602D01*
X144795513Y-114882895D01*
X144858540Y-114913049D01*
X144878780Y-114936408D01*
X144903885Y-114973980D01*
X144903891Y-114973988D01*
X145015385Y-115085482D01*
X145015389Y-115085485D01*
X145146492Y-115173086D01*
X145146505Y-115173093D01*
X145292176Y-115233431D01*
X145292181Y-115233433D01*
X145446831Y-115264195D01*
X145446834Y-115264196D01*
X145446836Y-115264196D01*
X145604522Y-115264196D01*
X145604523Y-115264195D01*
X145759175Y-115233433D01*
X145871844Y-115186763D01*
X145904850Y-115173093D01*
X145904850Y-115173092D01*
X145904857Y-115173090D01*
X146035967Y-115085485D01*
X146147467Y-114973985D01*
X146154823Y-114962975D01*
X146172576Y-114936408D01*
X146226188Y-114891602D01*
X146295513Y-114882895D01*
X146358540Y-114913049D01*
X146378780Y-114936408D01*
X146403885Y-114973980D01*
X146403891Y-114973988D01*
X146515385Y-115085482D01*
X146515389Y-115085485D01*
X146646492Y-115173086D01*
X146646505Y-115173093D01*
X146792176Y-115233431D01*
X146792181Y-115233433D01*
X146946831Y-115264195D01*
X146946834Y-115264196D01*
X146946836Y-115264196D01*
X147104522Y-115264196D01*
X147104523Y-115264195D01*
X147259175Y-115233433D01*
X147371844Y-115186763D01*
X147404850Y-115173093D01*
X147404850Y-115173092D01*
X147404857Y-115173090D01*
X147535967Y-115085485D01*
X147647467Y-114973985D01*
X147735072Y-114842875D01*
X147795415Y-114697193D01*
X147826178Y-114542538D01*
X147826178Y-114384854D01*
X147825418Y-114381032D01*
X147825418Y-114381030D01*
X147821575Y-114361709D01*
X149075178Y-114361709D01*
X149075178Y-115950682D01*
X149104737Y-116137314D01*
X149163132Y-116317032D01*
X149248918Y-116485395D01*
X149359988Y-116638269D01*
X149493605Y-116771886D01*
X149646479Y-116882956D01*
X149653590Y-116886579D01*
X149814841Y-116968741D01*
X149814843Y-116968741D01*
X149814846Y-116968743D01*
X149911175Y-117000042D01*
X149994559Y-117027136D01*
X150181192Y-117056696D01*
X150181197Y-117056696D01*
X150370164Y-117056696D01*
X150556796Y-117027136D01*
X150736510Y-116968743D01*
X150904877Y-116882956D01*
X151057751Y-116771886D01*
X151191368Y-116638269D01*
X151302438Y-116485395D01*
X151388225Y-116317028D01*
X151446618Y-116137314D01*
X151476178Y-115950682D01*
X151476178Y-114361709D01*
X151446618Y-114175077D01*
X151388223Y-113995359D01*
X151302437Y-113826996D01*
X151191368Y-113674123D01*
X151057751Y-113540506D01*
X150904877Y-113429436D01*
X150736514Y-113343650D01*
X150556796Y-113285255D01*
X150370164Y-113255696D01*
X150370159Y-113255696D01*
X150181197Y-113255696D01*
X150181192Y-113255696D01*
X149994559Y-113285255D01*
X149814841Y-113343650D01*
X149646478Y-113429436D01*
X149581027Y-113476990D01*
X149493605Y-113540506D01*
X149493603Y-113540508D01*
X149493602Y-113540508D01*
X149359990Y-113674120D01*
X149359990Y-113674121D01*
X149359988Y-113674123D01*
X149345576Y-113693960D01*
X149248918Y-113826996D01*
X149163132Y-113995359D01*
X149104737Y-114175077D01*
X149075178Y-114361709D01*
X147821575Y-114361709D01*
X147795416Y-114230204D01*
X147795415Y-114230203D01*
X147795415Y-114230199D01*
X147775678Y-114182549D01*
X147735075Y-114084523D01*
X147735068Y-114084510D01*
X147647467Y-113953407D01*
X147647464Y-113953403D01*
X147535970Y-113841909D01*
X147535966Y-113841906D01*
X147404863Y-113754305D01*
X147404850Y-113754298D01*
X147259179Y-113693960D01*
X147259167Y-113693957D01*
X147104523Y-113663196D01*
X147104520Y-113663196D01*
X146946836Y-113663196D01*
X146946833Y-113663196D01*
X146792188Y-113693957D01*
X146792176Y-113693960D01*
X146646505Y-113754298D01*
X146646492Y-113754305D01*
X146515389Y-113841906D01*
X146515385Y-113841909D01*
X146403891Y-113953403D01*
X146378780Y-113990985D01*
X146325167Y-114035789D01*
X146255842Y-114044496D01*
X146192815Y-114014341D01*
X146172576Y-113990985D01*
X146147464Y-113953403D01*
X146035970Y-113841909D01*
X146035966Y-113841906D01*
X145904863Y-113754305D01*
X145904850Y-113754298D01*
X145759179Y-113693960D01*
X145759167Y-113693957D01*
X145604523Y-113663196D01*
X145604520Y-113663196D01*
X145446836Y-113663196D01*
X145446833Y-113663196D01*
X145292188Y-113693957D01*
X145292176Y-113693960D01*
X145146505Y-113754298D01*
X145146492Y-113754305D01*
X145015389Y-113841906D01*
X145015385Y-113841909D01*
X144903891Y-113953403D01*
X144878780Y-113990985D01*
X144825167Y-114035789D01*
X144755842Y-114044496D01*
X144692815Y-114014341D01*
X144672576Y-113990985D01*
X144647464Y-113953403D01*
X144535970Y-113841909D01*
X144535966Y-113841906D01*
X144404863Y-113754305D01*
X144404850Y-113754298D01*
X144259179Y-113693960D01*
X144259167Y-113693957D01*
X144104523Y-113663196D01*
X144104520Y-113663196D01*
X143946836Y-113663196D01*
X143946833Y-113663196D01*
X143792188Y-113693957D01*
X143792176Y-113693960D01*
X143646505Y-113754298D01*
X143646492Y-113754305D01*
X143515389Y-113841906D01*
X143515385Y-113841909D01*
X143403891Y-113953403D01*
X143378780Y-113990985D01*
X143325167Y-114035789D01*
X143255842Y-114044496D01*
X143192815Y-114014341D01*
X143172576Y-113990985D01*
X143147464Y-113953403D01*
X143035970Y-113841909D01*
X143035966Y-113841906D01*
X142904863Y-113754305D01*
X142904850Y-113754298D01*
X142759179Y-113693960D01*
X142759167Y-113693957D01*
X142604523Y-113663196D01*
X142604520Y-113663196D01*
X142446836Y-113663196D01*
X142446833Y-113663196D01*
X142292188Y-113693957D01*
X142292176Y-113693960D01*
X142158130Y-113749484D01*
X142088661Y-113756953D01*
X142063226Y-113749484D01*
X141929179Y-113693960D01*
X141929167Y-113693957D01*
X141774523Y-113663196D01*
X141774520Y-113663196D01*
X141616836Y-113663196D01*
X141616833Y-113663196D01*
X141462188Y-113693957D01*
X141462176Y-113693960D01*
X141313130Y-113755697D01*
X141243661Y-113763166D01*
X141218226Y-113755697D01*
X141069179Y-113693960D01*
X141069167Y-113693957D01*
X140914523Y-113663196D01*
X140914520Y-113663196D01*
X140756836Y-113663196D01*
X140756833Y-113663196D01*
X140602188Y-113693957D01*
X140602176Y-113693960D01*
X140478130Y-113745341D01*
X140408660Y-113752810D01*
X140383226Y-113745341D01*
X140259179Y-113693960D01*
X140259167Y-113693957D01*
X140104523Y-113663196D01*
X140104520Y-113663196D01*
X139946836Y-113663196D01*
X139946833Y-113663196D01*
X139792188Y-113693957D01*
X139792176Y-113693960D01*
X139646505Y-113754298D01*
X139646492Y-113754305D01*
X139515389Y-113841906D01*
X139515385Y-113841909D01*
X139403891Y-113953403D01*
X139378780Y-113990985D01*
X139325167Y-114035789D01*
X139255842Y-114044496D01*
X139192815Y-114014341D01*
X139172576Y-113990985D01*
X139147464Y-113953403D01*
X139035970Y-113841909D01*
X139035966Y-113841906D01*
X138904863Y-113754305D01*
X138904850Y-113754298D01*
X138759179Y-113693960D01*
X138759167Y-113693957D01*
X138604523Y-113663196D01*
X138604520Y-113663196D01*
X138446836Y-113663196D01*
X138446833Y-113663196D01*
X138292188Y-113693957D01*
X138292176Y-113693960D01*
X138146505Y-113754298D01*
X138146492Y-113754305D01*
X138015389Y-113841906D01*
X138015385Y-113841909D01*
X137903891Y-113953403D01*
X137903888Y-113953407D01*
X137816287Y-114084510D01*
X137816280Y-114084523D01*
X137755942Y-114230194D01*
X137755939Y-114230206D01*
X137725178Y-114384849D01*
X134976178Y-114384849D01*
X134976178Y-114361709D01*
X134946618Y-114175077D01*
X134888223Y-113995359D01*
X134802437Y-113826996D01*
X134691368Y-113674123D01*
X134557751Y-113540506D01*
X134404877Y-113429436D01*
X134236514Y-113343650D01*
X134056796Y-113285255D01*
X133870164Y-113255696D01*
X133870159Y-113255696D01*
X133681197Y-113255696D01*
X133681192Y-113255696D01*
X133494559Y-113285255D01*
X133314841Y-113343650D01*
X133146478Y-113429436D01*
X133081027Y-113476990D01*
X132993605Y-113540506D01*
X132993603Y-113540508D01*
X132993602Y-113540508D01*
X132859990Y-113674120D01*
X132859990Y-113674121D01*
X132859988Y-113674123D01*
X132845576Y-113693960D01*
X132748918Y-113826996D01*
X132663132Y-113995359D01*
X132604737Y-114175077D01*
X132575178Y-114361709D01*
X131780500Y-114361709D01*
X131780500Y-109880501D01*
X152752177Y-109880501D01*
X152786052Y-110050796D01*
X152786055Y-110050806D01*
X152852500Y-110211221D01*
X152852503Y-110211225D01*
X152948972Y-110355602D01*
X152972181Y-110378811D01*
X153005666Y-110440132D01*
X153008500Y-110466492D01*
X153008500Y-119423179D01*
X153008500Y-119596821D01*
X153008500Y-119596823D01*
X153008499Y-119596823D01*
X153042374Y-119767118D01*
X153042377Y-119767128D01*
X153108822Y-119927543D01*
X153205295Y-120071926D01*
X153205296Y-120071927D01*
X154695294Y-121561923D01*
X154780183Y-121646812D01*
X154818078Y-121684707D01*
X154962446Y-121781171D01*
X154962459Y-121781178D01*
X155122871Y-121847622D01*
X155122876Y-121847624D01*
X155122880Y-121847624D01*
X155122881Y-121847625D01*
X155293176Y-121881500D01*
X155293179Y-121881500D01*
X165881823Y-121881500D01*
X165996393Y-121858709D01*
X166052124Y-121847624D01*
X166132335Y-121814399D01*
X166212543Y-121781177D01*
X166212544Y-121781176D01*
X166212547Y-121781175D01*
X166356924Y-121684706D01*
X167610384Y-120431246D01*
X167706853Y-120286869D01*
X167728050Y-120235696D01*
X167773300Y-120126450D01*
X167773302Y-120126446D01*
X167807178Y-119956143D01*
X167807178Y-119782501D01*
X167807178Y-119727233D01*
X167826863Y-119660194D01*
X167856868Y-119627966D01*
X167887224Y-119605242D01*
X167973474Y-119490027D01*
X168023769Y-119355179D01*
X168030178Y-119295569D01*
X168030177Y-117991824D01*
X168023769Y-117932213D01*
X168022890Y-117929857D01*
X167973475Y-117797367D01*
X167973471Y-117797360D01*
X167914067Y-117718007D01*
X167889649Y-117652543D01*
X167904500Y-117584270D01*
X167914067Y-117569385D01*
X167973471Y-117490031D01*
X167973470Y-117490031D01*
X167973474Y-117490027D01*
X168023769Y-117355179D01*
X168030178Y-117295569D01*
X168030177Y-115991824D01*
X168024907Y-115942795D01*
X168023769Y-115932212D01*
X167973475Y-115797367D01*
X167973471Y-115797360D01*
X167887225Y-115682151D01*
X167887222Y-115682148D01*
X167772013Y-115595902D01*
X167772006Y-115595898D01*
X167637160Y-115545604D01*
X167637161Y-115545604D01*
X167577561Y-115539197D01*
X167577559Y-115539196D01*
X167577551Y-115539196D01*
X167577542Y-115539196D01*
X166273807Y-115539196D01*
X166273801Y-115539197D01*
X166214194Y-115545604D01*
X166079349Y-115595898D01*
X166079342Y-115595902D01*
X165964133Y-115682148D01*
X165964130Y-115682151D01*
X165877884Y-115797360D01*
X165877881Y-115797365D01*
X165839300Y-115900806D01*
X165830329Y-115913538D01*
X165826505Y-115925934D01*
X165809717Y-115942795D01*
X165803030Y-115952288D01*
X165797743Y-115956743D01*
X165794381Y-115958990D01*
X165794380Y-115958991D01*
X165790650Y-115962720D01*
X165790644Y-115962726D01*
X164540298Y-117213070D01*
X164540292Y-117213077D01*
X164479326Y-117304321D01*
X164479326Y-117304322D01*
X164464334Y-117326759D01*
X164443825Y-117357452D01*
X164443821Y-117357459D01*
X164377377Y-117517871D01*
X164377374Y-117517881D01*
X164343500Y-117688177D01*
X164343500Y-118638508D01*
X164323815Y-118705547D01*
X164307181Y-118726189D01*
X164046189Y-118987181D01*
X163984866Y-119020666D01*
X163958508Y-119023500D01*
X156796492Y-119023500D01*
X156729453Y-119003815D01*
X156708811Y-118987181D01*
X155832819Y-118111189D01*
X155799334Y-118049866D01*
X155796500Y-118023508D01*
X155796500Y-109628177D01*
X155762625Y-109457881D01*
X155762624Y-109457880D01*
X155762624Y-109457876D01*
X155762622Y-109457871D01*
X155696177Y-109297456D01*
X155599704Y-109153073D01*
X155515497Y-109068866D01*
X155482012Y-109007543D01*
X155479178Y-108981185D01*
X155479178Y-107408818D01*
X155498863Y-107341779D01*
X155551667Y-107296024D01*
X155620825Y-107286080D01*
X155684381Y-107315105D01*
X155703496Y-107335933D01*
X155790142Y-107455193D01*
X155951862Y-107616913D01*
X155951876Y-107616925D01*
X156884181Y-108549230D01*
X156917666Y-108610553D01*
X156920500Y-108636911D01*
X156920500Y-113364196D01*
X156900815Y-113431235D01*
X156848011Y-113476990D01*
X156796501Y-113488196D01*
X156602808Y-113488196D01*
X156602801Y-113488197D01*
X156543194Y-113494604D01*
X156408349Y-113544898D01*
X156408342Y-113544902D01*
X156293133Y-113631148D01*
X156293130Y-113631151D01*
X156206884Y-113746360D01*
X156206880Y-113746367D01*
X156156586Y-113881213D01*
X156150179Y-113940812D01*
X156150179Y-113940819D01*
X156150178Y-113940831D01*
X156150178Y-116886566D01*
X156150179Y-116886572D01*
X156156586Y-116946179D01*
X156206880Y-117081024D01*
X156206884Y-117081031D01*
X156293130Y-117196240D01*
X156293133Y-117196243D01*
X156408342Y-117282489D01*
X156408349Y-117282493D01*
X156443384Y-117295560D01*
X156543195Y-117332787D01*
X156602805Y-117339196D01*
X156913606Y-117339195D01*
X156980645Y-117358879D01*
X157024091Y-117406900D01*
X157114466Y-117584270D01*
X157121595Y-117598260D01*
X157250142Y-117775193D01*
X157404806Y-117929857D01*
X157555722Y-118039502D01*
X157581743Y-118058407D01*
X157650028Y-118093200D01*
X157776616Y-118157701D01*
X157776619Y-118157702D01*
X157822410Y-118172580D01*
X157984625Y-118225286D01*
X158074369Y-118239500D01*
X158200639Y-118259500D01*
X158200644Y-118259500D01*
X158419361Y-118259500D01*
X158524082Y-118242912D01*
X158635375Y-118225286D01*
X158843383Y-118157701D01*
X159038257Y-118058407D01*
X159137601Y-117986229D01*
X159215193Y-117929857D01*
X159215195Y-117929854D01*
X159215199Y-117929852D01*
X159369852Y-117775199D01*
X159369854Y-117775195D01*
X159369857Y-117775193D01*
X159426229Y-117697601D01*
X159498407Y-117598257D01*
X159597701Y-117403383D01*
X159603857Y-117384435D01*
X159643292Y-117326759D01*
X159678454Y-117306568D01*
X159743009Y-117282492D01*
X159858224Y-117196242D01*
X159944474Y-117081027D01*
X159994769Y-116946179D01*
X160001178Y-116886569D01*
X160001177Y-115287484D01*
X161150178Y-115287484D01*
X161150178Y-115539907D01*
X161168906Y-115682151D01*
X161183124Y-115790148D01*
X161207035Y-115879386D01*
X161248451Y-116033954D01*
X161345041Y-116267143D01*
X161345050Y-116267160D01*
X161471244Y-116485737D01*
X161471246Y-116485741D01*
X161624905Y-116685990D01*
X161624913Y-116685999D01*
X161803375Y-116864461D01*
X161803383Y-116864468D01*
X162003632Y-117018127D01*
X162003636Y-117018129D01*
X162222213Y-117144323D01*
X162222230Y-117144332D01*
X162347547Y-117196240D01*
X162455418Y-117240922D01*
X162699226Y-117306250D01*
X162949474Y-117339196D01*
X162949481Y-117339196D01*
X163201875Y-117339196D01*
X163201882Y-117339196D01*
X163452130Y-117306250D01*
X163695938Y-117240922D01*
X163929132Y-117144329D01*
X164147719Y-117018129D01*
X164147723Y-117018127D01*
X164185520Y-116989123D01*
X164347972Y-116864469D01*
X164347976Y-116864464D01*
X164347981Y-116864461D01*
X164526443Y-116685999D01*
X164526446Y-116685994D01*
X164526451Y-116685990D01*
X164680108Y-116485742D01*
X164806311Y-116267150D01*
X164902904Y-116033956D01*
X164968232Y-115790148D01*
X165001178Y-115539900D01*
X165001178Y-115287492D01*
X164968232Y-115037244D01*
X164902904Y-114793436D01*
X164859832Y-114689454D01*
X164806314Y-114560248D01*
X164806305Y-114560231D01*
X164680111Y-114341654D01*
X164680109Y-114341650D01*
X164526450Y-114141401D01*
X164526443Y-114141393D01*
X164347981Y-113962931D01*
X164347972Y-113962923D01*
X164147723Y-113809264D01*
X164147719Y-113809262D01*
X163929142Y-113683068D01*
X163929125Y-113683059D01*
X163695936Y-113586469D01*
X163524405Y-113540508D01*
X163452130Y-113521142D01*
X163420849Y-113517023D01*
X163201889Y-113488196D01*
X163201882Y-113488196D01*
X162949474Y-113488196D01*
X162949466Y-113488196D01*
X162699226Y-113521142D01*
X162455419Y-113586469D01*
X162222230Y-113683059D01*
X162222213Y-113683068D01*
X162003636Y-113809262D01*
X162003632Y-113809264D01*
X161803383Y-113962923D01*
X161624905Y-114141401D01*
X161471246Y-114341650D01*
X161471244Y-114341654D01*
X161345050Y-114560231D01*
X161345041Y-114560248D01*
X161248451Y-114793437D01*
X161183124Y-115037244D01*
X161150178Y-115287484D01*
X160001177Y-115287484D01*
X160001177Y-113940824D01*
X159994769Y-113881213D01*
X159980108Y-113841906D01*
X159944475Y-113746367D01*
X159944471Y-113746360D01*
X159858225Y-113631151D01*
X159749188Y-113549525D01*
X159707318Y-113493591D01*
X159699500Y-113450259D01*
X159699500Y-108124491D01*
X159699501Y-108124466D01*
X159699501Y-107900645D01*
X159686048Y-107815710D01*
X159665286Y-107684625D01*
X159597701Y-107476617D01*
X159597701Y-107476616D01*
X159563155Y-107408818D01*
X159530990Y-107345691D01*
X163645178Y-107345691D01*
X163645178Y-107581700D01*
X163645179Y-107581716D01*
X163675984Y-107815706D01*
X163737072Y-108043689D01*
X163827392Y-108261741D01*
X163827397Y-108261752D01*
X163898355Y-108384653D01*
X163945405Y-108466146D01*
X163945407Y-108466149D01*
X163945408Y-108466150D01*
X164089084Y-108653393D01*
X164089090Y-108653400D01*
X164255973Y-108820283D01*
X164255980Y-108820289D01*
X164300154Y-108854185D01*
X164443228Y-108963969D01*
X164562010Y-109032548D01*
X164647621Y-109081976D01*
X164647626Y-109081978D01*
X164647629Y-109081980D01*
X164865685Y-109172302D01*
X165093664Y-109233389D01*
X165327667Y-109264196D01*
X165327674Y-109264196D01*
X165563682Y-109264196D01*
X165563689Y-109264196D01*
X165797692Y-109233389D01*
X166025671Y-109172302D01*
X166243727Y-109081980D01*
X166448128Y-108963969D01*
X166635377Y-108820288D01*
X166802270Y-108653395D01*
X166945951Y-108466146D01*
X167063962Y-108261745D01*
X167154284Y-108043689D01*
X167215371Y-107815710D01*
X167246178Y-107581707D01*
X167246178Y-107345685D01*
X167215371Y-107111682D01*
X167154284Y-106883703D01*
X167063962Y-106665647D01*
X167063960Y-106665644D01*
X167063958Y-106665639D01*
X167021796Y-106592614D01*
X166945951Y-106461246D01*
X166802270Y-106273997D01*
X166802265Y-106273991D01*
X166635382Y-106107108D01*
X166635375Y-106107102D01*
X166448132Y-105963426D01*
X166448131Y-105963425D01*
X166448128Y-105963423D01*
X166366635Y-105916373D01*
X166243734Y-105845415D01*
X166243723Y-105845410D01*
X166025671Y-105755090D01*
X165797688Y-105694002D01*
X165563698Y-105663197D01*
X165563695Y-105663196D01*
X165563689Y-105663196D01*
X165327667Y-105663196D01*
X165327661Y-105663196D01*
X165327657Y-105663197D01*
X165093667Y-105694002D01*
X164865684Y-105755090D01*
X164647632Y-105845410D01*
X164647621Y-105845415D01*
X164443223Y-105963426D01*
X164255980Y-106107102D01*
X164255973Y-106107108D01*
X164089090Y-106273991D01*
X164089084Y-106273998D01*
X163945408Y-106461241D01*
X163827397Y-106665639D01*
X163827392Y-106665650D01*
X163737072Y-106883702D01*
X163675984Y-107111685D01*
X163645179Y-107345675D01*
X163645178Y-107345691D01*
X159530990Y-107345691D01*
X159498407Y-107281743D01*
X159495874Y-107278257D01*
X159369852Y-107104801D01*
X159215199Y-106950148D01*
X159213529Y-106948478D01*
X159213502Y-106948452D01*
X158275819Y-106010769D01*
X158242334Y-105949446D01*
X158239500Y-105923088D01*
X158239500Y-99942509D01*
X158239501Y-99942484D01*
X158239501Y-99718663D01*
X158232057Y-99671666D01*
X158205286Y-99502643D01*
X158205285Y-99502639D01*
X158137703Y-99294639D01*
X158137701Y-99294633D01*
X158038410Y-99099767D01*
X158038407Y-99099761D01*
X158038403Y-99099756D01*
X158038401Y-99099752D01*
X158030167Y-99088419D01*
X158030165Y-99088418D01*
X157909852Y-98922819D01*
X157755199Y-98768166D01*
X157755198Y-98768165D01*
X157752087Y-98765054D01*
X157752072Y-98765040D01*
X157520879Y-98533847D01*
X157520877Y-98533845D01*
X157343935Y-98405289D01*
X157149061Y-98305994D01*
X157149058Y-98305993D01*
X156941054Y-98238410D01*
X156833043Y-98221302D01*
X156725034Y-98204195D01*
X156506322Y-98204195D01*
X156434315Y-98215600D01*
X156290301Y-98238410D01*
X156082297Y-98305993D01*
X156082294Y-98305994D01*
X155887420Y-98405289D01*
X155786469Y-98478634D01*
X155710479Y-98533845D01*
X155710477Y-98533847D01*
X155710476Y-98533847D01*
X155555829Y-98688494D01*
X155555829Y-98688495D01*
X155555827Y-98688497D01*
X155500616Y-98764487D01*
X155427271Y-98865438D01*
X155399703Y-98919542D01*
X155351728Y-98970337D01*
X155283906Y-98987131D01*
X155217772Y-98964592D01*
X155201538Y-98950926D01*
X155159604Y-98908992D01*
X155159600Y-98908989D01*
X155015231Y-98812524D01*
X155015218Y-98812517D01*
X154854806Y-98746073D01*
X154854796Y-98746070D01*
X154684500Y-98712196D01*
X154684498Y-98712196D01*
X154510858Y-98712196D01*
X154510856Y-98712196D01*
X154340559Y-98746070D01*
X154340549Y-98746073D01*
X154180132Y-98812519D01*
X154174761Y-98815391D01*
X154173502Y-98813036D01*
X154117807Y-98830435D01*
X154057430Y-98813827D01*
X154056595Y-98815391D01*
X154051223Y-98812519D01*
X153890806Y-98746073D01*
X153890796Y-98746070D01*
X153720500Y-98712196D01*
X153720498Y-98712196D01*
X153546858Y-98712196D01*
X153546856Y-98712196D01*
X153376559Y-98746070D01*
X153376549Y-98746073D01*
X153216137Y-98812517D01*
X153216124Y-98812524D01*
X153071755Y-98908989D01*
X153071751Y-98908992D01*
X152948974Y-99031769D01*
X152948971Y-99031773D01*
X152852506Y-99176142D01*
X152852499Y-99176155D01*
X152786055Y-99336567D01*
X152786052Y-99336577D01*
X152752178Y-99506873D01*
X152752178Y-99506876D01*
X152752178Y-109706857D01*
X152752178Y-109880499D01*
X152752178Y-109880501D01*
X152752177Y-109880501D01*
X131780500Y-109880501D01*
X131780500Y-107325691D01*
X133465178Y-107325691D01*
X133465178Y-107561700D01*
X133465179Y-107561716D01*
X133495984Y-107795706D01*
X133557072Y-108023689D01*
X133647392Y-108241741D01*
X133647397Y-108241752D01*
X133697231Y-108328065D01*
X133765405Y-108446146D01*
X133765407Y-108446149D01*
X133765408Y-108446150D01*
X133909084Y-108633393D01*
X133909090Y-108633400D01*
X134075973Y-108800283D01*
X134075980Y-108800289D01*
X134102045Y-108820289D01*
X134263228Y-108943969D01*
X134394596Y-109019814D01*
X134467621Y-109061976D01*
X134467626Y-109061978D01*
X134467629Y-109061980D01*
X134685685Y-109152302D01*
X134913664Y-109213389D01*
X135147667Y-109244196D01*
X135147674Y-109244196D01*
X135383682Y-109244196D01*
X135383689Y-109244196D01*
X135617692Y-109213389D01*
X135845671Y-109152302D01*
X136063727Y-109061980D01*
X136268128Y-108943969D01*
X136455377Y-108800288D01*
X136622270Y-108633395D01*
X136765951Y-108446146D01*
X136794814Y-108396153D01*
X137554500Y-108396153D01*
X137554500Y-108553846D01*
X137585261Y-108708489D01*
X137585264Y-108708501D01*
X137645602Y-108854172D01*
X137645609Y-108854185D01*
X137733210Y-108985288D01*
X137733213Y-108985292D01*
X137844707Y-109096786D01*
X137844711Y-109096789D01*
X137975814Y-109184390D01*
X137975827Y-109184397D01*
X138094106Y-109233389D01*
X138121503Y-109244737D01*
X138276153Y-109275499D01*
X138276156Y-109275500D01*
X138276158Y-109275500D01*
X138433844Y-109275500D01*
X138433845Y-109275499D01*
X138588497Y-109244737D01*
X138734179Y-109184394D01*
X138865289Y-109096789D01*
X138976789Y-108985289D01*
X139064394Y-108854179D01*
X139124737Y-108708497D01*
X139155500Y-108553842D01*
X139155500Y-108396158D01*
X139155500Y-108396155D01*
X139155499Y-108396153D01*
X139141955Y-108328063D01*
X139124737Y-108241503D01*
X139124735Y-108241498D01*
X139064397Y-108095827D01*
X139064390Y-108095814D01*
X138976789Y-107964711D01*
X138976786Y-107964707D01*
X138865292Y-107853213D01*
X138865288Y-107853210D01*
X138734185Y-107765609D01*
X138734172Y-107765602D01*
X138588501Y-107705264D01*
X138588489Y-107705261D01*
X138433845Y-107674500D01*
X138433842Y-107674500D01*
X138276158Y-107674500D01*
X138276155Y-107674500D01*
X138121510Y-107705261D01*
X138121498Y-107705264D01*
X137975827Y-107765602D01*
X137975814Y-107765609D01*
X137844711Y-107853210D01*
X137844707Y-107853213D01*
X137733213Y-107964707D01*
X137733210Y-107964711D01*
X137645609Y-108095814D01*
X137645602Y-108095827D01*
X137585264Y-108241498D01*
X137585261Y-108241510D01*
X137554500Y-108396153D01*
X136794814Y-108396153D01*
X136883962Y-108241745D01*
X136974284Y-108023689D01*
X137035371Y-107795710D01*
X137066178Y-107561707D01*
X137066178Y-107325685D01*
X137035371Y-107091682D01*
X136974284Y-106863703D01*
X136883962Y-106645647D01*
X136883960Y-106645644D01*
X136883958Y-106645639D01*
X136841796Y-106572614D01*
X136765951Y-106441246D01*
X136622270Y-106253997D01*
X136622265Y-106253991D01*
X136455382Y-106087108D01*
X136455375Y-106087102D01*
X136268132Y-105943426D01*
X136268131Y-105943425D01*
X136268128Y-105943423D01*
X136186635Y-105896373D01*
X136063734Y-105825415D01*
X136063723Y-105825410D01*
X135845671Y-105735090D01*
X135617688Y-105674002D01*
X135383698Y-105643197D01*
X135383695Y-105643196D01*
X135383689Y-105643196D01*
X135147667Y-105643196D01*
X135147661Y-105643196D01*
X135147657Y-105643197D01*
X134913667Y-105674002D01*
X134685684Y-105735090D01*
X134467632Y-105825410D01*
X134467621Y-105825415D01*
X134263223Y-105943426D01*
X134075980Y-106087102D01*
X134075973Y-106087108D01*
X133909090Y-106253991D01*
X133909084Y-106253998D01*
X133765408Y-106441241D01*
X133647397Y-106645639D01*
X133647392Y-106645650D01*
X133557072Y-106863702D01*
X133495984Y-107091685D01*
X133465179Y-107325675D01*
X133465178Y-107325691D01*
X131780500Y-107325691D01*
X131780500Y-104174108D01*
X131780500Y-104121908D01*
X131772266Y-104069923D01*
X131781220Y-104000634D01*
X131826216Y-103947181D01*
X131832732Y-103943145D01*
X131837314Y-103940500D01*
X131930500Y-103847314D01*
X131996392Y-103733186D01*
X132030500Y-103605892D01*
X132030500Y-103474108D01*
X131996392Y-103346814D01*
X131930500Y-103232686D01*
X131900495Y-103202681D01*
X131867010Y-103141358D01*
X131871994Y-103071666D01*
X131900495Y-103027319D01*
X131911616Y-103016198D01*
X131930500Y-102997314D01*
X131996392Y-102883186D01*
X132030500Y-102755892D01*
X132030500Y-102624108D01*
X131996392Y-102496814D01*
X131930500Y-102382686D01*
X131900495Y-102352681D01*
X131867010Y-102291358D01*
X131871994Y-102221666D01*
X131900495Y-102177319D01*
X131930500Y-102147314D01*
X131996392Y-102033186D01*
X132030500Y-101905892D01*
X132030500Y-101774108D01*
X131996392Y-101646814D01*
X131930500Y-101532686D01*
X131900495Y-101502681D01*
X131867010Y-101441358D01*
X131871994Y-101371666D01*
X131900495Y-101327319D01*
X131930500Y-101297314D01*
X131996392Y-101183186D01*
X132030500Y-101055892D01*
X132030500Y-100924108D01*
X131996392Y-100796814D01*
X131930500Y-100682686D01*
X131900495Y-100652681D01*
X131867010Y-100591358D01*
X131871994Y-100521666D01*
X131900495Y-100477319D01*
X131930500Y-100447314D01*
X131996392Y-100333186D01*
X132030500Y-100205892D01*
X132030500Y-100074108D01*
X131996392Y-99946814D01*
X131930500Y-99832686D01*
X131900495Y-99802681D01*
X131867010Y-99741358D01*
X131871994Y-99671666D01*
X131874013Y-99667616D01*
X138115177Y-99667616D01*
X138144018Y-99812603D01*
X138144021Y-99812613D01*
X138200590Y-99949184D01*
X138200597Y-99949197D01*
X138282726Y-100072111D01*
X138282729Y-100072115D01*
X138387258Y-100176644D01*
X138387262Y-100176647D01*
X138510176Y-100258776D01*
X138510189Y-100258783D01*
X138646760Y-100315352D01*
X138646765Y-100315354D01*
X138646769Y-100315354D01*
X138646770Y-100315355D01*
X138791757Y-100344196D01*
X138791760Y-100344196D01*
X138939598Y-100344196D01*
X139037140Y-100324792D01*
X139084591Y-100315354D01*
X139221173Y-100258780D01*
X139344094Y-100176647D01*
X139448629Y-100072112D01*
X139512576Y-99976409D01*
X139566188Y-99931604D01*
X139635513Y-99922897D01*
X139698540Y-99953051D01*
X139718780Y-99976409D01*
X139782726Y-100072111D01*
X139782729Y-100072115D01*
X139887258Y-100176644D01*
X139887262Y-100176647D01*
X140010176Y-100258776D01*
X140010189Y-100258783D01*
X140146760Y-100315352D01*
X140146765Y-100315354D01*
X140146769Y-100315354D01*
X140146770Y-100315355D01*
X140291757Y-100344196D01*
X140291760Y-100344196D01*
X140439598Y-100344196D01*
X140537140Y-100324792D01*
X140584591Y-100315354D01*
X140721173Y-100258780D01*
X140844094Y-100176647D01*
X140948629Y-100072112D01*
X141012576Y-99976409D01*
X141066188Y-99931604D01*
X141135513Y-99922897D01*
X141198540Y-99953051D01*
X141218780Y-99976409D01*
X141282726Y-100072111D01*
X141282729Y-100072115D01*
X141387258Y-100176644D01*
X141387262Y-100176647D01*
X141510176Y-100258776D01*
X141510189Y-100258783D01*
X141646760Y-100315352D01*
X141646765Y-100315354D01*
X141646769Y-100315354D01*
X141646770Y-100315355D01*
X141791757Y-100344196D01*
X141791760Y-100344196D01*
X141939598Y-100344196D01*
X142037140Y-100324792D01*
X142084591Y-100315354D01*
X142221173Y-100258780D01*
X142344094Y-100176647D01*
X142448629Y-100072112D01*
X142512576Y-99976409D01*
X142566188Y-99931604D01*
X142635513Y-99922897D01*
X142698540Y-99953051D01*
X142718780Y-99976409D01*
X142782726Y-100072111D01*
X142782729Y-100072115D01*
X142887258Y-100176644D01*
X142887262Y-100176647D01*
X143010176Y-100258776D01*
X143010189Y-100258783D01*
X143146760Y-100315352D01*
X143146765Y-100315354D01*
X143146769Y-100315354D01*
X143146770Y-100315355D01*
X143291757Y-100344196D01*
X143291760Y-100344196D01*
X143439598Y-100344196D01*
X143537140Y-100324792D01*
X143584591Y-100315354D01*
X143721173Y-100258780D01*
X143844094Y-100176647D01*
X143948629Y-100072112D01*
X144012576Y-99976409D01*
X144066188Y-99931604D01*
X144135513Y-99922897D01*
X144198540Y-99953051D01*
X144218780Y-99976409D01*
X144282726Y-100072111D01*
X144282729Y-100072115D01*
X144387258Y-100176644D01*
X144387262Y-100176647D01*
X144510176Y-100258776D01*
X144510189Y-100258783D01*
X144646760Y-100315352D01*
X144646765Y-100315354D01*
X144646769Y-100315354D01*
X144646770Y-100315355D01*
X144791757Y-100344196D01*
X144791760Y-100344196D01*
X144939598Y-100344196D01*
X145037140Y-100324792D01*
X145084591Y-100315354D01*
X145221173Y-100258780D01*
X145344094Y-100176647D01*
X145448629Y-100072112D01*
X145512576Y-99976409D01*
X145566188Y-99931604D01*
X145635513Y-99922897D01*
X145698540Y-99953051D01*
X145718780Y-99976409D01*
X145782726Y-100072111D01*
X145782729Y-100072115D01*
X145887258Y-100176644D01*
X145887262Y-100176647D01*
X146010176Y-100258776D01*
X146010189Y-100258783D01*
X146146760Y-100315352D01*
X146146765Y-100315354D01*
X146146769Y-100315354D01*
X146146770Y-100315355D01*
X146291757Y-100344196D01*
X146291760Y-100344196D01*
X146439598Y-100344196D01*
X146537140Y-100324792D01*
X146584591Y-100315354D01*
X146721173Y-100258780D01*
X146844094Y-100176647D01*
X146948629Y-100072112D01*
X147030762Y-99949191D01*
X147031748Y-99946812D01*
X147087334Y-99812613D01*
X147087336Y-99812609D01*
X147101879Y-99739500D01*
X147116178Y-99667616D01*
X150615177Y-99667616D01*
X150644018Y-99812603D01*
X150644021Y-99812613D01*
X150700590Y-99949184D01*
X150700597Y-99949197D01*
X150782726Y-100072111D01*
X150782729Y-100072115D01*
X150887258Y-100176644D01*
X150887262Y-100176647D01*
X151010176Y-100258776D01*
X151010189Y-100258783D01*
X151146760Y-100315352D01*
X151146765Y-100315354D01*
X151146769Y-100315354D01*
X151146770Y-100315355D01*
X151291757Y-100344196D01*
X151291760Y-100344196D01*
X151439598Y-100344196D01*
X151537140Y-100324792D01*
X151584591Y-100315354D01*
X151721173Y-100258780D01*
X151844094Y-100176647D01*
X151948629Y-100072112D01*
X152030762Y-99949191D01*
X152031748Y-99946812D01*
X152087334Y-99812613D01*
X152087336Y-99812609D01*
X152101879Y-99739500D01*
X152116178Y-99667616D01*
X152116178Y-99519777D01*
X152087337Y-99374788D01*
X152087336Y-99374787D01*
X152087336Y-99374783D01*
X152071509Y-99336572D01*
X152030765Y-99238207D01*
X152030758Y-99238194D01*
X151948629Y-99115280D01*
X151948626Y-99115276D01*
X151844097Y-99010747D01*
X151844093Y-99010744D01*
X151721179Y-98928615D01*
X151721166Y-98928608D01*
X151584595Y-98872039D01*
X151584585Y-98872036D01*
X151439598Y-98843196D01*
X151439596Y-98843196D01*
X151291760Y-98843196D01*
X151291758Y-98843196D01*
X151146770Y-98872036D01*
X151146760Y-98872039D01*
X151010189Y-98928608D01*
X151010176Y-98928615D01*
X150887262Y-99010744D01*
X150887258Y-99010747D01*
X150782729Y-99115276D01*
X150782726Y-99115280D01*
X150700597Y-99238194D01*
X150700590Y-99238207D01*
X150644021Y-99374778D01*
X150644018Y-99374788D01*
X150615178Y-99519775D01*
X150615178Y-99519777D01*
X150615178Y-99519778D01*
X150615178Y-99667614D01*
X150615178Y-99667616D01*
X150615177Y-99667616D01*
X147116178Y-99667616D01*
X147116178Y-99519775D01*
X147087337Y-99374788D01*
X147087336Y-99374787D01*
X147087336Y-99374783D01*
X147071509Y-99336572D01*
X147030765Y-99238207D01*
X147030758Y-99238194D01*
X146948629Y-99115280D01*
X146948626Y-99115276D01*
X146844097Y-99010747D01*
X146844093Y-99010744D01*
X146721179Y-98928615D01*
X146721166Y-98928608D01*
X146584595Y-98872039D01*
X146584585Y-98872036D01*
X146439598Y-98843196D01*
X146439596Y-98843196D01*
X146291760Y-98843196D01*
X146291758Y-98843196D01*
X146146770Y-98872036D01*
X146146760Y-98872039D01*
X146010189Y-98928608D01*
X146010176Y-98928615D01*
X145887262Y-99010744D01*
X145887258Y-99010747D01*
X145782729Y-99115276D01*
X145782726Y-99115280D01*
X145718780Y-99210982D01*
X145665167Y-99255787D01*
X145595842Y-99264494D01*
X145532815Y-99234339D01*
X145512576Y-99210982D01*
X145448629Y-99115280D01*
X145448626Y-99115276D01*
X145344097Y-99010747D01*
X145344093Y-99010744D01*
X145221179Y-98928615D01*
X145221166Y-98928608D01*
X145084595Y-98872039D01*
X145084585Y-98872036D01*
X144939598Y-98843196D01*
X144939596Y-98843196D01*
X144791760Y-98843196D01*
X144791758Y-98843196D01*
X144646770Y-98872036D01*
X144646760Y-98872039D01*
X144510189Y-98928608D01*
X144510176Y-98928615D01*
X144387262Y-99010744D01*
X144387258Y-99010747D01*
X144282729Y-99115276D01*
X144282726Y-99115280D01*
X144218780Y-99210982D01*
X144165167Y-99255787D01*
X144095842Y-99264494D01*
X144032815Y-99234339D01*
X144012576Y-99210982D01*
X143948629Y-99115280D01*
X143948626Y-99115276D01*
X143844097Y-99010747D01*
X143844093Y-99010744D01*
X143721179Y-98928615D01*
X143721166Y-98928608D01*
X143584595Y-98872039D01*
X143584585Y-98872036D01*
X143439598Y-98843196D01*
X143439596Y-98843196D01*
X143291760Y-98843196D01*
X143291758Y-98843196D01*
X143146770Y-98872036D01*
X143146760Y-98872039D01*
X143010189Y-98928608D01*
X143010176Y-98928615D01*
X142887262Y-99010744D01*
X142887258Y-99010747D01*
X142782729Y-99115276D01*
X142782726Y-99115280D01*
X142718780Y-99210982D01*
X142665167Y-99255787D01*
X142595842Y-99264494D01*
X142532815Y-99234339D01*
X142512576Y-99210982D01*
X142448629Y-99115280D01*
X142448626Y-99115276D01*
X142344097Y-99010747D01*
X142344093Y-99010744D01*
X142221179Y-98928615D01*
X142221166Y-98928608D01*
X142084595Y-98872039D01*
X142084585Y-98872036D01*
X141939598Y-98843196D01*
X141939596Y-98843196D01*
X141791760Y-98843196D01*
X141791758Y-98843196D01*
X141646770Y-98872036D01*
X141646760Y-98872039D01*
X141510189Y-98928608D01*
X141510176Y-98928615D01*
X141387262Y-99010744D01*
X141387258Y-99010747D01*
X141282729Y-99115276D01*
X141282726Y-99115280D01*
X141218780Y-99210982D01*
X141165167Y-99255787D01*
X141095842Y-99264494D01*
X141032815Y-99234339D01*
X141012576Y-99210982D01*
X140948629Y-99115280D01*
X140948626Y-99115276D01*
X140844097Y-99010747D01*
X140844093Y-99010744D01*
X140721179Y-98928615D01*
X140721166Y-98928608D01*
X140584595Y-98872039D01*
X140584585Y-98872036D01*
X140439598Y-98843196D01*
X140439596Y-98843196D01*
X140291760Y-98843196D01*
X140291758Y-98843196D01*
X140146770Y-98872036D01*
X140146760Y-98872039D01*
X140010189Y-98928608D01*
X140010176Y-98928615D01*
X139887262Y-99010744D01*
X139887258Y-99010747D01*
X139782729Y-99115276D01*
X139782726Y-99115280D01*
X139718780Y-99210982D01*
X139665167Y-99255787D01*
X139595842Y-99264494D01*
X139532815Y-99234339D01*
X139512576Y-99210982D01*
X139448629Y-99115280D01*
X139448626Y-99115276D01*
X139344097Y-99010747D01*
X139344093Y-99010744D01*
X139221179Y-98928615D01*
X139221166Y-98928608D01*
X139084595Y-98872039D01*
X139084585Y-98872036D01*
X138939598Y-98843196D01*
X138939596Y-98843196D01*
X138791760Y-98843196D01*
X138791758Y-98843196D01*
X138646770Y-98872036D01*
X138646760Y-98872039D01*
X138510189Y-98928608D01*
X138510176Y-98928615D01*
X138387262Y-99010744D01*
X138387258Y-99010747D01*
X138282729Y-99115276D01*
X138282726Y-99115280D01*
X138200597Y-99238194D01*
X138200590Y-99238207D01*
X138144021Y-99374778D01*
X138144018Y-99374788D01*
X138115178Y-99519775D01*
X138115178Y-99519777D01*
X138115178Y-99519778D01*
X138115178Y-99667614D01*
X138115178Y-99667616D01*
X138115177Y-99667616D01*
X131874013Y-99667616D01*
X131883635Y-99648314D01*
X131890919Y-99636894D01*
X131930500Y-99597314D01*
X131996392Y-99483186D01*
X132030500Y-99355892D01*
X132030500Y-99224108D01*
X131996392Y-99096814D01*
X131930500Y-98982686D01*
X131900495Y-98952681D01*
X131867010Y-98891358D01*
X131871994Y-98821666D01*
X131900495Y-98777319D01*
X131912774Y-98765040D01*
X131930500Y-98747314D01*
X131996392Y-98633186D01*
X132030500Y-98505892D01*
X132030500Y-98374108D01*
X131996392Y-98246814D01*
X131930500Y-98132686D01*
X131837314Y-98039500D01*
X131832733Y-98036855D01*
X131822247Y-98025856D01*
X131808772Y-98018834D01*
X131798627Y-98001082D01*
X131784521Y-97986286D01*
X131781107Y-97970422D01*
X131774106Y-97958171D01*
X131773162Y-97933502D01*
X131770907Y-97923022D01*
X131771245Y-97916522D01*
X131780500Y-97858092D01*
X131780500Y-97741647D01*
X131781479Y-97597616D01*
X144115177Y-97597616D01*
X144144018Y-97742603D01*
X144144021Y-97742613D01*
X144200590Y-97879184D01*
X144200597Y-97879197D01*
X144282726Y-98002111D01*
X144282729Y-98002115D01*
X144387258Y-98106644D01*
X144387262Y-98106647D01*
X144510176Y-98188776D01*
X144510189Y-98188783D01*
X144632632Y-98239500D01*
X144646765Y-98245354D01*
X144646769Y-98245354D01*
X144646770Y-98245355D01*
X144791757Y-98274196D01*
X144791760Y-98274196D01*
X144939598Y-98274196D01*
X145037140Y-98254792D01*
X145084591Y-98245354D01*
X145221173Y-98188780D01*
X145344094Y-98106647D01*
X145448629Y-98002112D01*
X145512576Y-97906409D01*
X145566188Y-97861604D01*
X145635513Y-97852897D01*
X145698540Y-97883051D01*
X145718780Y-97906409D01*
X145782726Y-98002111D01*
X145782729Y-98002115D01*
X145887258Y-98106644D01*
X145887262Y-98106647D01*
X146010176Y-98188776D01*
X146010189Y-98188783D01*
X146132632Y-98239500D01*
X146146765Y-98245354D01*
X146146769Y-98245354D01*
X146146770Y-98245355D01*
X146291757Y-98274196D01*
X146291760Y-98274196D01*
X146439598Y-98274196D01*
X146537140Y-98254792D01*
X146584591Y-98245354D01*
X146721173Y-98188780D01*
X146844094Y-98106647D01*
X146948629Y-98002112D01*
X147030762Y-97879191D01*
X147039502Y-97858092D01*
X147087334Y-97742613D01*
X147087336Y-97742609D01*
X147101295Y-97672434D01*
X147116178Y-97597616D01*
X148615177Y-97597616D01*
X148644018Y-97742603D01*
X148644021Y-97742613D01*
X148700590Y-97879184D01*
X148700597Y-97879197D01*
X148782726Y-98002111D01*
X148782729Y-98002115D01*
X148887258Y-98106644D01*
X148887262Y-98106647D01*
X149010176Y-98188776D01*
X149010189Y-98188783D01*
X149132632Y-98239500D01*
X149146765Y-98245354D01*
X149146769Y-98245354D01*
X149146770Y-98245355D01*
X149291757Y-98274196D01*
X149291760Y-98274196D01*
X149439598Y-98274196D01*
X149537140Y-98254792D01*
X149584591Y-98245354D01*
X149721173Y-98188780D01*
X149844094Y-98106647D01*
X149948629Y-98002112D01*
X150012576Y-97906409D01*
X150066188Y-97861604D01*
X150135513Y-97852897D01*
X150198540Y-97883051D01*
X150218780Y-97906409D01*
X150282726Y-98002111D01*
X150282729Y-98002115D01*
X150387258Y-98106644D01*
X150387262Y-98106647D01*
X150510176Y-98188776D01*
X150510189Y-98188783D01*
X150632632Y-98239500D01*
X150646765Y-98245354D01*
X150646769Y-98245354D01*
X150646770Y-98245355D01*
X150791757Y-98274196D01*
X150791760Y-98274196D01*
X150939598Y-98274196D01*
X151037140Y-98254792D01*
X151084591Y-98245354D01*
X151221173Y-98188780D01*
X151296789Y-98138255D01*
X151363464Y-98117378D01*
X151430844Y-98135862D01*
X151434526Y-98138227D01*
X151510183Y-98188780D01*
X151510185Y-98188781D01*
X151510189Y-98188783D01*
X151632632Y-98239500D01*
X151646765Y-98245354D01*
X151646769Y-98245354D01*
X151646770Y-98245355D01*
X151791757Y-98274196D01*
X151791760Y-98274196D01*
X151939598Y-98274196D01*
X152037140Y-98254792D01*
X152084591Y-98245354D01*
X152221173Y-98188780D01*
X152344094Y-98106647D01*
X152448629Y-98002112D01*
X152512576Y-97906409D01*
X152566188Y-97861604D01*
X152635513Y-97852897D01*
X152698540Y-97883051D01*
X152718780Y-97906409D01*
X152782726Y-98002111D01*
X152782729Y-98002115D01*
X152887258Y-98106644D01*
X152887262Y-98106647D01*
X153010176Y-98188776D01*
X153010189Y-98188783D01*
X153132632Y-98239500D01*
X153146765Y-98245354D01*
X153146769Y-98245354D01*
X153146770Y-98245355D01*
X153291757Y-98274196D01*
X153291760Y-98274196D01*
X153439598Y-98274196D01*
X153537140Y-98254792D01*
X153584591Y-98245354D01*
X153721173Y-98188780D01*
X153844094Y-98106647D01*
X153948629Y-98002112D01*
X154030762Y-97879191D01*
X154039502Y-97858092D01*
X154087334Y-97742613D01*
X154087336Y-97742609D01*
X154101295Y-97672434D01*
X154116178Y-97597616D01*
X154116178Y-97449775D01*
X154087337Y-97304788D01*
X154087336Y-97304787D01*
X154087336Y-97304783D01*
X154041653Y-97194494D01*
X154030765Y-97168207D01*
X154030758Y-97168194D01*
X153948629Y-97045280D01*
X153948626Y-97045276D01*
X153844097Y-96940747D01*
X153844093Y-96940744D01*
X153721179Y-96858615D01*
X153721166Y-96858608D01*
X153584595Y-96802039D01*
X153584585Y-96802036D01*
X153439598Y-96773196D01*
X153439596Y-96773196D01*
X153291760Y-96773196D01*
X153291758Y-96773196D01*
X153146770Y-96802036D01*
X153146760Y-96802039D01*
X153010189Y-96858608D01*
X153010176Y-96858615D01*
X152887262Y-96940744D01*
X152887258Y-96940747D01*
X152782729Y-97045276D01*
X152782726Y-97045280D01*
X152718780Y-97140982D01*
X152665167Y-97185787D01*
X152595842Y-97194494D01*
X152532815Y-97164339D01*
X152512576Y-97140982D01*
X152448629Y-97045280D01*
X152448626Y-97045276D01*
X152344097Y-96940747D01*
X152344093Y-96940744D01*
X152221179Y-96858615D01*
X152221166Y-96858608D01*
X152084595Y-96802039D01*
X152084585Y-96802036D01*
X151939598Y-96773196D01*
X151939596Y-96773196D01*
X151791760Y-96773196D01*
X151791758Y-96773196D01*
X151646770Y-96802036D01*
X151646760Y-96802039D01*
X151510189Y-96858608D01*
X151510176Y-96858615D01*
X151434569Y-96909135D01*
X151367891Y-96930013D01*
X151300511Y-96911528D01*
X151296787Y-96909135D01*
X151221179Y-96858615D01*
X151221166Y-96858608D01*
X151084595Y-96802039D01*
X151084585Y-96802036D01*
X150939598Y-96773196D01*
X150939596Y-96773196D01*
X150791760Y-96773196D01*
X150791758Y-96773196D01*
X150646770Y-96802036D01*
X150646760Y-96802039D01*
X150510189Y-96858608D01*
X150510176Y-96858615D01*
X150387262Y-96940744D01*
X150387258Y-96940747D01*
X150282729Y-97045276D01*
X150282726Y-97045280D01*
X150218780Y-97140982D01*
X150165167Y-97185787D01*
X150095842Y-97194494D01*
X150032815Y-97164339D01*
X150012576Y-97140982D01*
X149948629Y-97045280D01*
X149948626Y-97045276D01*
X149844097Y-96940747D01*
X149844093Y-96940744D01*
X149721179Y-96858615D01*
X149721166Y-96858608D01*
X149584595Y-96802039D01*
X149584585Y-96802036D01*
X149439598Y-96773196D01*
X149439596Y-96773196D01*
X149291760Y-96773196D01*
X149291758Y-96773196D01*
X149146770Y-96802036D01*
X149146760Y-96802039D01*
X149010189Y-96858608D01*
X149010176Y-96858615D01*
X148887262Y-96940744D01*
X148887258Y-96940747D01*
X148782729Y-97045276D01*
X148782726Y-97045280D01*
X148700597Y-97168194D01*
X148700590Y-97168207D01*
X148644021Y-97304778D01*
X148644018Y-97304788D01*
X148615178Y-97449775D01*
X148615178Y-97449778D01*
X148615178Y-97597614D01*
X148615178Y-97597616D01*
X148615177Y-97597616D01*
X147116178Y-97597616D01*
X147116178Y-97449775D01*
X147087337Y-97304788D01*
X147087336Y-97304787D01*
X147087336Y-97304783D01*
X147041653Y-97194494D01*
X147030765Y-97168207D01*
X147030758Y-97168194D01*
X146948629Y-97045280D01*
X146948626Y-97045276D01*
X146844097Y-96940747D01*
X146844093Y-96940744D01*
X146721179Y-96858615D01*
X146721166Y-96858608D01*
X146584595Y-96802039D01*
X146584585Y-96802036D01*
X146439598Y-96773196D01*
X146439596Y-96773196D01*
X146291760Y-96773196D01*
X146291758Y-96773196D01*
X146146770Y-96802036D01*
X146146760Y-96802039D01*
X146010189Y-96858608D01*
X146010176Y-96858615D01*
X145887262Y-96940744D01*
X145887258Y-96940747D01*
X145782729Y-97045276D01*
X145782726Y-97045280D01*
X145718780Y-97140982D01*
X145665167Y-97185787D01*
X145595842Y-97194494D01*
X145532815Y-97164339D01*
X145512576Y-97140982D01*
X145448629Y-97045280D01*
X145448626Y-97045276D01*
X145344097Y-96940747D01*
X145344093Y-96940744D01*
X145221179Y-96858615D01*
X145221166Y-96858608D01*
X145084595Y-96802039D01*
X145084585Y-96802036D01*
X144939598Y-96773196D01*
X144939596Y-96773196D01*
X144791760Y-96773196D01*
X144791758Y-96773196D01*
X144646770Y-96802036D01*
X144646760Y-96802039D01*
X144510189Y-96858608D01*
X144510176Y-96858615D01*
X144387262Y-96940744D01*
X144387258Y-96940747D01*
X144282729Y-97045276D01*
X144282726Y-97045280D01*
X144200597Y-97168194D01*
X144200590Y-97168207D01*
X144144021Y-97304778D01*
X144144018Y-97304788D01*
X144115178Y-97449775D01*
X144115178Y-97449778D01*
X144115178Y-97597614D01*
X144115178Y-97597616D01*
X144115177Y-97597616D01*
X131781479Y-97597616D01*
X131785352Y-97027933D01*
X131785403Y-97020995D01*
X131785825Y-97019425D01*
X131785844Y-96959987D01*
X131785847Y-96959642D01*
X131785902Y-96959456D01*
X131786628Y-96946617D01*
X131796834Y-96856292D01*
X131803015Y-96829244D01*
X131830750Y-96750053D01*
X131842792Y-96725063D01*
X131887445Y-96654036D01*
X131904755Y-96632341D01*
X131964085Y-96573033D01*
X131985785Y-96555733D01*
X132056833Y-96511104D01*
X132081830Y-96499070D01*
X132161030Y-96471367D01*
X132188075Y-96465197D01*
X132278861Y-96454974D01*
X132292729Y-96454196D01*
X132351216Y-96454199D01*
X132351220Y-96454197D01*
X132359455Y-96454198D01*
X132359500Y-96454196D01*
X161645195Y-96454196D01*
X163375790Y-96454196D01*
X163375797Y-96454198D01*
G37*
%TD.AperFunction*%
%TD*%
%TA.AperFunction,Conductor*%
%TO.N,+3.3V*%
G36*
X128214193Y-96990502D02*
G01*
X128273125Y-96990500D01*
X128286999Y-96991278D01*
X128377352Y-97001456D01*
X128404419Y-97007633D01*
X128438121Y-97019425D01*
X128483618Y-97035343D01*
X128508634Y-97047389D01*
X128579685Y-97092028D01*
X128601391Y-97109335D01*
X128660731Y-97168670D01*
X128678040Y-97190373D01*
X128722687Y-97261419D01*
X128734736Y-97286435D01*
X128762454Y-97365633D01*
X128768634Y-97392704D01*
X128778788Y-97482772D01*
X128779569Y-97496698D01*
X128779521Y-97665969D01*
X128779519Y-97674036D01*
X128779500Y-97674108D01*
X128779500Y-97738369D01*
X128779500Y-97739908D01*
X128779500Y-97739978D01*
X128779479Y-97813791D01*
X128779500Y-97814106D01*
X128779500Y-97858097D01*
X128787732Y-97910074D01*
X128778777Y-97979367D01*
X128733781Y-98032819D01*
X128727268Y-98036853D01*
X128722691Y-98039495D01*
X128722686Y-98039499D01*
X128629500Y-98132686D01*
X128563608Y-98246812D01*
X128529500Y-98374108D01*
X128529500Y-98505891D01*
X128563608Y-98633187D01*
X128596554Y-98690250D01*
X128629500Y-98747314D01*
X128629502Y-98747316D01*
X128659505Y-98777319D01*
X128692990Y-98838642D01*
X128688006Y-98908334D01*
X128659505Y-98952681D01*
X128629502Y-98982683D01*
X128629500Y-98982686D01*
X128563608Y-99096812D01*
X128529500Y-99224108D01*
X128529500Y-99355891D01*
X128563608Y-99483187D01*
X128596554Y-99540250D01*
X128629500Y-99597314D01*
X128629502Y-99597316D01*
X128659505Y-99627319D01*
X128692990Y-99688642D01*
X128688006Y-99758334D01*
X128659505Y-99802681D01*
X128629502Y-99832683D01*
X128629500Y-99832686D01*
X128563608Y-99946812D01*
X128529500Y-100074108D01*
X128529500Y-100205891D01*
X128563608Y-100333187D01*
X128596554Y-100390250D01*
X128629500Y-100447314D01*
X128629502Y-100447316D01*
X128659505Y-100477319D01*
X128692990Y-100538642D01*
X128688006Y-100608334D01*
X128659505Y-100652681D01*
X128629502Y-100682683D01*
X128629500Y-100682686D01*
X128563608Y-100796812D01*
X128529500Y-100924108D01*
X128529500Y-101055891D01*
X128563608Y-101183187D01*
X128596554Y-101240250D01*
X128629500Y-101297314D01*
X128629502Y-101297316D01*
X128659505Y-101327319D01*
X128692990Y-101388642D01*
X128688006Y-101458334D01*
X128659505Y-101502681D01*
X128629502Y-101532683D01*
X128629500Y-101532686D01*
X128563608Y-101646812D01*
X128529500Y-101774108D01*
X128529500Y-101905891D01*
X128563608Y-102033187D01*
X128596554Y-102090250D01*
X128629500Y-102147314D01*
X128629502Y-102147316D01*
X128659505Y-102177319D01*
X128692990Y-102238642D01*
X128688006Y-102308334D01*
X128659505Y-102352681D01*
X128629502Y-102382683D01*
X128629500Y-102382686D01*
X128563608Y-102496812D01*
X128529500Y-102624108D01*
X128529500Y-102755892D01*
X128535008Y-102776447D01*
X128563608Y-102883187D01*
X128596554Y-102940250D01*
X128629500Y-102997314D01*
X128629502Y-102997316D01*
X128659505Y-103027319D01*
X128692990Y-103088642D01*
X128688006Y-103158334D01*
X128659505Y-103202681D01*
X128629502Y-103232683D01*
X128629500Y-103232686D01*
X128563608Y-103346812D01*
X128529500Y-103474108D01*
X128529500Y-103605892D01*
X128538492Y-103639452D01*
X128563608Y-103733187D01*
X128571734Y-103747261D01*
X128629500Y-103847314D01*
X128722686Y-103940500D01*
X128727259Y-103943140D01*
X128775474Y-103993706D01*
X128788698Y-104062312D01*
X128787733Y-104069924D01*
X128779500Y-104121908D01*
X128779500Y-117858097D01*
X128787732Y-117910074D01*
X128778777Y-117979367D01*
X128733781Y-118032819D01*
X128727268Y-118036853D01*
X128722691Y-118039495D01*
X128722686Y-118039499D01*
X128629500Y-118132686D01*
X128563608Y-118246812D01*
X128529500Y-118374108D01*
X128529500Y-118505891D01*
X128563608Y-118633187D01*
X128596554Y-118690250D01*
X128629500Y-118747314D01*
X128629502Y-118747316D01*
X128659505Y-118777319D01*
X128692990Y-118838642D01*
X128688006Y-118908334D01*
X128659505Y-118952681D01*
X128629502Y-118982683D01*
X128629500Y-118982686D01*
X128563608Y-119096812D01*
X128529500Y-119224108D01*
X128529500Y-119355891D01*
X128563608Y-119483187D01*
X128575086Y-119503067D01*
X128629500Y-119597314D01*
X128629502Y-119597316D01*
X128659505Y-119627319D01*
X128692990Y-119688642D01*
X128688006Y-119758334D01*
X128659505Y-119802681D01*
X128629502Y-119832683D01*
X128629500Y-119832686D01*
X128563608Y-119946812D01*
X128529500Y-120074108D01*
X128529500Y-120205891D01*
X128563608Y-120333187D01*
X128596554Y-120390250D01*
X128629500Y-120447314D01*
X128629502Y-120447316D01*
X128659505Y-120477319D01*
X128692990Y-120538642D01*
X128688006Y-120608334D01*
X128659505Y-120652681D01*
X128629502Y-120682683D01*
X128629500Y-120682686D01*
X128563608Y-120796812D01*
X128529500Y-120924108D01*
X128529500Y-121055891D01*
X128563608Y-121183187D01*
X128592771Y-121233697D01*
X128629500Y-121297314D01*
X128629502Y-121297316D01*
X128659505Y-121327319D01*
X128692990Y-121388642D01*
X128688006Y-121458334D01*
X128659505Y-121502681D01*
X128629502Y-121532683D01*
X128629500Y-121532686D01*
X128563608Y-121646812D01*
X128529500Y-121774108D01*
X128529500Y-121905891D01*
X128563608Y-122033187D01*
X128596554Y-122090250D01*
X128629500Y-122147314D01*
X128629502Y-122147316D01*
X128659505Y-122177319D01*
X128692990Y-122238642D01*
X128688006Y-122308334D01*
X128659505Y-122352681D01*
X128629502Y-122382683D01*
X128629500Y-122382686D01*
X128563608Y-122496812D01*
X128541218Y-122580376D01*
X128529500Y-122624108D01*
X128529500Y-122755892D01*
X128535008Y-122776447D01*
X128563608Y-122883187D01*
X128593365Y-122934726D01*
X128629500Y-122997314D01*
X128629502Y-122997316D01*
X128659505Y-123027319D01*
X128692990Y-123088642D01*
X128688006Y-123158334D01*
X128659505Y-123202681D01*
X128629502Y-123232683D01*
X128629500Y-123232686D01*
X128563608Y-123346812D01*
X128551480Y-123392075D01*
X128529500Y-123474108D01*
X128529500Y-123605892D01*
X128537771Y-123636759D01*
X128563608Y-123733187D01*
X128577657Y-123757520D01*
X128629500Y-123847314D01*
X128722686Y-123940500D01*
X128727259Y-123943140D01*
X128739103Y-123955562D01*
X128754062Y-123963982D01*
X128762714Y-123980324D01*
X128775474Y-123993706D01*
X128778875Y-124010847D01*
X128786755Y-124025731D01*
X128787373Y-124053679D01*
X128788819Y-124060965D01*
X128788438Y-124065471D01*
X128779500Y-124121908D01*
X128779500Y-124171269D01*
X128779477Y-124171542D01*
X128779500Y-124239325D01*
X128779500Y-124313638D01*
X128779523Y-124314003D01*
X128781980Y-131923505D01*
X128781201Y-131937425D01*
X128771024Y-132027769D01*
X128764846Y-132054839D01*
X128737130Y-132134056D01*
X128725084Y-132159073D01*
X128680438Y-132230134D01*
X128663127Y-132251844D01*
X128603785Y-132311192D01*
X128582078Y-132328505D01*
X128511017Y-132373162D01*
X128486000Y-132385211D01*
X128406788Y-132412934D01*
X128379720Y-132419114D01*
X128312228Y-132426724D01*
X128289668Y-132429268D01*
X128275777Y-132430049D01*
X89916960Y-132430049D01*
X89903078Y-132429269D01*
X89882390Y-132426938D01*
X89812728Y-132419089D01*
X89785658Y-132412911D01*
X89706445Y-132385194D01*
X89681429Y-132373147D01*
X89610375Y-132328503D01*
X89588666Y-132311191D01*
X89529323Y-132251851D01*
X89512014Y-132230148D01*
X89467361Y-132159089D01*
X89455314Y-132134075D01*
X89427595Y-132054869D01*
X89421415Y-132027798D01*
X89411280Y-131937877D01*
X89410500Y-131923989D01*
X89410500Y-128003389D01*
X108939500Y-128003389D01*
X108939500Y-129376610D01*
X108966597Y-129547697D01*
X108966597Y-129547699D01*
X108966598Y-129547701D01*
X109020127Y-129712445D01*
X109098768Y-129866788D01*
X109200586Y-130006928D01*
X109323072Y-130129414D01*
X109463212Y-130231232D01*
X109617555Y-130309873D01*
X109782299Y-130363402D01*
X109953389Y-130390500D01*
X109953390Y-130390500D01*
X110126610Y-130390500D01*
X110126611Y-130390500D01*
X110297701Y-130363402D01*
X110462445Y-130309873D01*
X110616788Y-130231232D01*
X110756928Y-130129414D01*
X110879414Y-130006928D01*
X110981232Y-129866788D01*
X111059873Y-129712445D01*
X111113402Y-129547701D01*
X111121531Y-129496379D01*
X117339500Y-129496379D01*
X117339500Y-129683620D01*
X117376025Y-129867243D01*
X117376027Y-129867251D01*
X117447676Y-130040228D01*
X117447681Y-130040237D01*
X117551697Y-130195907D01*
X117551700Y-130195911D01*
X117684088Y-130328299D01*
X117684092Y-130328302D01*
X117839762Y-130432318D01*
X117839768Y-130432321D01*
X117839769Y-130432322D01*
X118012749Y-130503973D01*
X118196379Y-130540499D01*
X118196383Y-130540500D01*
X118196384Y-130540500D01*
X118383617Y-130540500D01*
X118383618Y-130540499D01*
X118567251Y-130503973D01*
X118740231Y-130432322D01*
X118895908Y-130328302D01*
X119028302Y-130195908D01*
X119132322Y-130040231D01*
X119203973Y-129867251D01*
X119240500Y-129683616D01*
X119240500Y-129496384D01*
X119203973Y-129312749D01*
X119132322Y-129139769D01*
X119132321Y-129139768D01*
X119132318Y-129139762D01*
X119028302Y-128984092D01*
X119028299Y-128984088D01*
X118895911Y-128851700D01*
X118895907Y-128851697D01*
X118740237Y-128747681D01*
X118740228Y-128747676D01*
X118567251Y-128676027D01*
X118567243Y-128676025D01*
X118383620Y-128639500D01*
X118383616Y-128639500D01*
X118196384Y-128639500D01*
X118196379Y-128639500D01*
X118012756Y-128676025D01*
X118012748Y-128676027D01*
X117839771Y-128747676D01*
X117839762Y-128747681D01*
X117684092Y-128851697D01*
X117684088Y-128851700D01*
X117551700Y-128984088D01*
X117551697Y-128984092D01*
X117447681Y-129139762D01*
X117447676Y-129139771D01*
X117376027Y-129312748D01*
X117376025Y-129312756D01*
X117339500Y-129496379D01*
X111121531Y-129496379D01*
X111140500Y-129376611D01*
X111140500Y-128003389D01*
X125439500Y-128003389D01*
X125439500Y-129376610D01*
X125466597Y-129547697D01*
X125466597Y-129547699D01*
X125466598Y-129547701D01*
X125520127Y-129712445D01*
X125598768Y-129866788D01*
X125700586Y-130006928D01*
X125823072Y-130129414D01*
X125963212Y-130231232D01*
X126117555Y-130309873D01*
X126282299Y-130363402D01*
X126453389Y-130390500D01*
X126453390Y-130390500D01*
X126626610Y-130390500D01*
X126626611Y-130390500D01*
X126797701Y-130363402D01*
X126962445Y-130309873D01*
X127116788Y-130231232D01*
X127256928Y-130129414D01*
X127379414Y-130006928D01*
X127481232Y-129866788D01*
X127559873Y-129712445D01*
X127613402Y-129547701D01*
X127640500Y-129376611D01*
X127640500Y-128003389D01*
X127613402Y-127832299D01*
X127559873Y-127667555D01*
X127481232Y-127513212D01*
X127379414Y-127373072D01*
X127256928Y-127250586D01*
X127116788Y-127148768D01*
X126962445Y-127070127D01*
X126797701Y-127016598D01*
X126797699Y-127016597D01*
X126797698Y-127016597D01*
X126666271Y-126995781D01*
X126626611Y-126989500D01*
X126453389Y-126989500D01*
X126413728Y-126995781D01*
X126282302Y-127016597D01*
X126117552Y-127070128D01*
X125963211Y-127148768D01*
X125883256Y-127206859D01*
X125823072Y-127250586D01*
X125823070Y-127250588D01*
X125823069Y-127250588D01*
X125700588Y-127373069D01*
X125700588Y-127373070D01*
X125700586Y-127373072D01*
X125656859Y-127433256D01*
X125598768Y-127513211D01*
X125520128Y-127667552D01*
X125466597Y-127832302D01*
X125439500Y-128003389D01*
X111140500Y-128003389D01*
X111113402Y-127832299D01*
X111059873Y-127667555D01*
X110981232Y-127513212D01*
X110879414Y-127373072D01*
X110756928Y-127250586D01*
X110616788Y-127148768D01*
X110462445Y-127070127D01*
X110297701Y-127016598D01*
X110297699Y-127016597D01*
X110297698Y-127016597D01*
X110166271Y-126995781D01*
X110126611Y-126989500D01*
X109953389Y-126989500D01*
X109913728Y-126995781D01*
X109782302Y-127016597D01*
X109617552Y-127070128D01*
X109463211Y-127148768D01*
X109383256Y-127206859D01*
X109323072Y-127250586D01*
X109323070Y-127250588D01*
X109323069Y-127250588D01*
X109200588Y-127373069D01*
X109200588Y-127373070D01*
X109200586Y-127373072D01*
X109156859Y-127433256D01*
X109098768Y-127513211D01*
X109020128Y-127667552D01*
X108966597Y-127832302D01*
X108939500Y-128003389D01*
X89410500Y-128003389D01*
X89410500Y-119634635D01*
X91824500Y-119634635D01*
X91824500Y-122580370D01*
X91824501Y-122580376D01*
X91830908Y-122639983D01*
X91881202Y-122774828D01*
X91881206Y-122774835D01*
X91967452Y-122890044D01*
X91967455Y-122890047D01*
X92082664Y-122976293D01*
X92082671Y-122976297D01*
X92217517Y-123026591D01*
X92217516Y-123026591D01*
X92224288Y-123027319D01*
X92277127Y-123033000D01*
X95222872Y-123032999D01*
X95282483Y-123026591D01*
X95417331Y-122976296D01*
X95532546Y-122890046D01*
X95618796Y-122774831D01*
X95669091Y-122639983D01*
X95675500Y-122580373D01*
X95675499Y-121198410D01*
X95695184Y-121131372D01*
X95711813Y-121110735D01*
X96990024Y-119832524D01*
X97051345Y-119799041D01*
X97121037Y-119804025D01*
X97176970Y-119845897D01*
X97201387Y-119911361D01*
X97186535Y-119979634D01*
X97176079Y-119995693D01*
X97145567Y-120035456D01*
X97145566Y-120035458D01*
X97019372Y-120254035D01*
X97019363Y-120254052D01*
X96922773Y-120487241D01*
X96857446Y-120731048D01*
X96824500Y-120981288D01*
X96824500Y-121233711D01*
X96848368Y-121415000D01*
X96857446Y-121483952D01*
X96881357Y-121573190D01*
X96922773Y-121727758D01*
X97019363Y-121960947D01*
X97019372Y-121960964D01*
X97145566Y-122179541D01*
X97145568Y-122179545D01*
X97299227Y-122379794D01*
X97299235Y-122379803D01*
X97477697Y-122558265D01*
X97477705Y-122558272D01*
X97677954Y-122711931D01*
X97677958Y-122711933D01*
X97896535Y-122838127D01*
X97896552Y-122838136D01*
X98005315Y-122883187D01*
X98129740Y-122934726D01*
X98373548Y-123000054D01*
X98605703Y-123030618D01*
X98623780Y-123032998D01*
X98623796Y-123033000D01*
X98623803Y-123033000D01*
X98876197Y-123033000D01*
X98876204Y-123033000D01*
X99126452Y-123000054D01*
X99370260Y-122934726D01*
X99603454Y-122838133D01*
X99822041Y-122711933D01*
X99822045Y-122711931D01*
X99915808Y-122639983D01*
X100022294Y-122558273D01*
X100022298Y-122558268D01*
X100022303Y-122558265D01*
X100200765Y-122379803D01*
X100200768Y-122379798D01*
X100200773Y-122379794D01*
X100354430Y-122179546D01*
X100480633Y-121960954D01*
X100577226Y-121727760D01*
X100642554Y-121483952D01*
X100675500Y-121233704D01*
X100675500Y-120981296D01*
X100642554Y-120731048D01*
X100577226Y-120487240D01*
X100497311Y-120294310D01*
X100480636Y-120254052D01*
X100480627Y-120254035D01*
X100354433Y-120035458D01*
X100354431Y-120035454D01*
X100229775Y-119873002D01*
X100200773Y-119835206D01*
X100200772Y-119835205D01*
X100200765Y-119835197D01*
X100022303Y-119656735D01*
X100022294Y-119656727D01*
X99822045Y-119503068D01*
X99822041Y-119503066D01*
X99603464Y-119376872D01*
X99603447Y-119376863D01*
X99370258Y-119280273D01*
X99160645Y-119224108D01*
X99126452Y-119214946D01*
X99095171Y-119210827D01*
X98876211Y-119182000D01*
X98876204Y-119182000D01*
X98623796Y-119182000D01*
X98623788Y-119182000D01*
X98373548Y-119214946D01*
X98129741Y-119280273D01*
X97896552Y-119376863D01*
X97896535Y-119376872D01*
X97677958Y-119503066D01*
X97677956Y-119503067D01*
X97638193Y-119533579D01*
X97573023Y-119558773D01*
X97504579Y-119544734D01*
X97454589Y-119495920D01*
X97438926Y-119427828D01*
X97462563Y-119362078D01*
X97475020Y-119347528D01*
X101506819Y-115315730D01*
X101568142Y-115282245D01*
X101637834Y-115287229D01*
X101693767Y-115329101D01*
X101718184Y-115394565D01*
X101718500Y-115403411D01*
X101718500Y-121253961D01*
X101698815Y-121321000D01*
X101668812Y-121353227D01*
X101638457Y-121375950D01*
X101638451Y-121375957D01*
X101552206Y-121491164D01*
X101552202Y-121491171D01*
X101501908Y-121626017D01*
X101495501Y-121685616D01*
X101495501Y-121685623D01*
X101495500Y-121685635D01*
X101495500Y-122989370D01*
X101495501Y-122989376D01*
X101501908Y-123048983D01*
X101552202Y-123183828D01*
X101552204Y-123183831D01*
X101611611Y-123263189D01*
X101636028Y-123328654D01*
X101621176Y-123396927D01*
X101611611Y-123411811D01*
X101552204Y-123491168D01*
X101552202Y-123491171D01*
X101501908Y-123626017D01*
X101495501Y-123685616D01*
X101495500Y-123685635D01*
X101495500Y-124989370D01*
X101495501Y-124989376D01*
X101501908Y-125048983D01*
X101552202Y-125183828D01*
X101552206Y-125183835D01*
X101638452Y-125299044D01*
X101638455Y-125299047D01*
X101753664Y-125385293D01*
X101753671Y-125385297D01*
X101888517Y-125435591D01*
X101888516Y-125435591D01*
X101895444Y-125436335D01*
X101948127Y-125442000D01*
X103251872Y-125441999D01*
X103311483Y-125435591D01*
X103446331Y-125385296D01*
X103561546Y-125299046D01*
X103584272Y-125268688D01*
X103640206Y-125226818D01*
X103683538Y-125219000D01*
X104052823Y-125219000D01*
X104167393Y-125196209D01*
X104223124Y-125185124D01*
X104303335Y-125151899D01*
X104383543Y-125118677D01*
X104383544Y-125118676D01*
X104383547Y-125118675D01*
X104527924Y-125022206D01*
X106214706Y-123335424D01*
X106311175Y-123191047D01*
X106314166Y-123183828D01*
X106376640Y-123032999D01*
X106377624Y-123030624D01*
X106405587Y-122890047D01*
X106411500Y-122860323D01*
X106411500Y-121115513D01*
X108839500Y-121115513D01*
X108839500Y-122704486D01*
X108869059Y-122891118D01*
X108927454Y-123070836D01*
X108988703Y-123191043D01*
X109013240Y-123239199D01*
X109124310Y-123392073D01*
X109257927Y-123525690D01*
X109410801Y-123636760D01*
X109490347Y-123677290D01*
X109579163Y-123722545D01*
X109579165Y-123722545D01*
X109579168Y-123722547D01*
X109675497Y-123753846D01*
X109758881Y-123780940D01*
X109945514Y-123810500D01*
X109945519Y-123810500D01*
X110134486Y-123810500D01*
X110321118Y-123780940D01*
X110500832Y-123722547D01*
X110669199Y-123636760D01*
X110822073Y-123525690D01*
X110955690Y-123392073D01*
X111066760Y-123239199D01*
X111152547Y-123070832D01*
X111210940Y-122891118D01*
X111212196Y-122883186D01*
X111240500Y-122704486D01*
X111240500Y-121223920D01*
X114039499Y-121223920D01*
X114068340Y-121368907D01*
X114068343Y-121368917D01*
X114124912Y-121505488D01*
X114124919Y-121505501D01*
X114207048Y-121628415D01*
X114207051Y-121628419D01*
X114311580Y-121732948D01*
X114311584Y-121732951D01*
X114434498Y-121815080D01*
X114434511Y-121815087D01*
X114571082Y-121871656D01*
X114571087Y-121871658D01*
X114571091Y-121871658D01*
X114571092Y-121871659D01*
X114716079Y-121900500D01*
X114716082Y-121900500D01*
X114863920Y-121900500D01*
X114961462Y-121881096D01*
X115008913Y-121871658D01*
X115145495Y-121815084D01*
X115268416Y-121732951D01*
X115372951Y-121628416D01*
X115436898Y-121532713D01*
X115490510Y-121487908D01*
X115559835Y-121479201D01*
X115622862Y-121509355D01*
X115643102Y-121532713D01*
X115707048Y-121628415D01*
X115707051Y-121628419D01*
X115811580Y-121732948D01*
X115811584Y-121732951D01*
X115934498Y-121815080D01*
X115934511Y-121815087D01*
X116071082Y-121871656D01*
X116071087Y-121871658D01*
X116071091Y-121871658D01*
X116071092Y-121871659D01*
X116216079Y-121900500D01*
X116216082Y-121900500D01*
X116363920Y-121900500D01*
X116461462Y-121881096D01*
X116508913Y-121871658D01*
X116645495Y-121815084D01*
X116671110Y-121797967D01*
X116737784Y-121777090D01*
X116805165Y-121795573D01*
X116808838Y-121797933D01*
X116834505Y-121815084D01*
X116971087Y-121871658D01*
X116971091Y-121871658D01*
X116971092Y-121871659D01*
X117116079Y-121900500D01*
X117116082Y-121900500D01*
X117263920Y-121900500D01*
X117361462Y-121881096D01*
X117408913Y-121871658D01*
X117492549Y-121837014D01*
X117562016Y-121829546D01*
X117587447Y-121837013D01*
X117671087Y-121871658D01*
X117671091Y-121871658D01*
X117671092Y-121871659D01*
X117816079Y-121900500D01*
X117816082Y-121900500D01*
X117963920Y-121900500D01*
X118061462Y-121881096D01*
X118108913Y-121871658D01*
X118245495Y-121815084D01*
X118271110Y-121797967D01*
X118337784Y-121777090D01*
X118405165Y-121795573D01*
X118408838Y-121797933D01*
X118434505Y-121815084D01*
X118571087Y-121871658D01*
X118571091Y-121871658D01*
X118571092Y-121871659D01*
X118716079Y-121900500D01*
X118716082Y-121900500D01*
X118863920Y-121900500D01*
X118961462Y-121881096D01*
X119008913Y-121871658D01*
X119145495Y-121815084D01*
X119268416Y-121732951D01*
X119372951Y-121628416D01*
X119436898Y-121532713D01*
X119490510Y-121487908D01*
X119559835Y-121479201D01*
X119622862Y-121509355D01*
X119643102Y-121532713D01*
X119707048Y-121628415D01*
X119707051Y-121628419D01*
X119811580Y-121732948D01*
X119811584Y-121732951D01*
X119934498Y-121815080D01*
X119934511Y-121815087D01*
X120071082Y-121871656D01*
X120071087Y-121871658D01*
X120071091Y-121871658D01*
X120071092Y-121871659D01*
X120216079Y-121900500D01*
X120216082Y-121900500D01*
X120363920Y-121900500D01*
X120461462Y-121881096D01*
X120508913Y-121871658D01*
X120645495Y-121815084D01*
X120768416Y-121732951D01*
X120872951Y-121628416D01*
X120936898Y-121532713D01*
X120990510Y-121487908D01*
X121059835Y-121479201D01*
X121122862Y-121509355D01*
X121143102Y-121532713D01*
X121207048Y-121628415D01*
X121207051Y-121628419D01*
X121311580Y-121732948D01*
X121311584Y-121732951D01*
X121434498Y-121815080D01*
X121434511Y-121815087D01*
X121571082Y-121871656D01*
X121571087Y-121871658D01*
X121571091Y-121871658D01*
X121571092Y-121871659D01*
X121716079Y-121900500D01*
X121716082Y-121900500D01*
X121863920Y-121900500D01*
X121961462Y-121881096D01*
X122008913Y-121871658D01*
X122145495Y-121815084D01*
X122268416Y-121732951D01*
X122372951Y-121628416D01*
X122436898Y-121532713D01*
X122490510Y-121487908D01*
X122559835Y-121479201D01*
X122622862Y-121509355D01*
X122643102Y-121532713D01*
X122707048Y-121628415D01*
X122707051Y-121628419D01*
X122811580Y-121732948D01*
X122811584Y-121732951D01*
X122934498Y-121815080D01*
X122934511Y-121815087D01*
X123071082Y-121871656D01*
X123071087Y-121871658D01*
X123071091Y-121871658D01*
X123071092Y-121871659D01*
X123216079Y-121900500D01*
X123216082Y-121900500D01*
X123363920Y-121900500D01*
X123461462Y-121881096D01*
X123508913Y-121871658D01*
X123645495Y-121815084D01*
X123768416Y-121732951D01*
X123872951Y-121628416D01*
X123955084Y-121505495D01*
X124011658Y-121368913D01*
X124025900Y-121297314D01*
X124040500Y-121223920D01*
X124040500Y-121115513D01*
X125339500Y-121115513D01*
X125339500Y-122704486D01*
X125369059Y-122891118D01*
X125427454Y-123070836D01*
X125488703Y-123191043D01*
X125513240Y-123239199D01*
X125624310Y-123392073D01*
X125757927Y-123525690D01*
X125910801Y-123636760D01*
X125990347Y-123677290D01*
X126079163Y-123722545D01*
X126079165Y-123722545D01*
X126079168Y-123722547D01*
X126175497Y-123753846D01*
X126258881Y-123780940D01*
X126445514Y-123810500D01*
X126445519Y-123810500D01*
X126634486Y-123810500D01*
X126821118Y-123780940D01*
X127000832Y-123722547D01*
X127169199Y-123636760D01*
X127322073Y-123525690D01*
X127455690Y-123392073D01*
X127566760Y-123239199D01*
X127652547Y-123070832D01*
X127710940Y-122891118D01*
X127712196Y-122883186D01*
X127740500Y-122704486D01*
X127740500Y-121115513D01*
X127710940Y-120928881D01*
X127668028Y-120796814D01*
X127652547Y-120749168D01*
X127652545Y-120749165D01*
X127652545Y-120749163D01*
X127603385Y-120652681D01*
X127566760Y-120580801D01*
X127455690Y-120427927D01*
X127322073Y-120294310D01*
X127169199Y-120183240D01*
X127000836Y-120097454D01*
X126821118Y-120039059D01*
X126634486Y-120009500D01*
X126634481Y-120009500D01*
X126445519Y-120009500D01*
X126445514Y-120009500D01*
X126258881Y-120039059D01*
X126079163Y-120097454D01*
X125910800Y-120183240D01*
X125879623Y-120205892D01*
X125757927Y-120294310D01*
X125757925Y-120294312D01*
X125757924Y-120294312D01*
X125624312Y-120427924D01*
X125624312Y-120427925D01*
X125624310Y-120427927D01*
X125584559Y-120482639D01*
X125513240Y-120580800D01*
X125427454Y-120749163D01*
X125369059Y-120928881D01*
X125339500Y-121115513D01*
X124040500Y-121115513D01*
X124040500Y-121076079D01*
X124011659Y-120931092D01*
X124011658Y-120931091D01*
X124011658Y-120931087D01*
X123965975Y-120820798D01*
X123955087Y-120794511D01*
X123955080Y-120794498D01*
X123872951Y-120671584D01*
X123872948Y-120671580D01*
X123768419Y-120567051D01*
X123768415Y-120567048D01*
X123645501Y-120484919D01*
X123645488Y-120484912D01*
X123508917Y-120428343D01*
X123508907Y-120428340D01*
X123363920Y-120399500D01*
X123363918Y-120399500D01*
X123216082Y-120399500D01*
X123216080Y-120399500D01*
X123071092Y-120428340D01*
X123071082Y-120428343D01*
X122934511Y-120484912D01*
X122934498Y-120484919D01*
X122811584Y-120567048D01*
X122811580Y-120567051D01*
X122707051Y-120671580D01*
X122707048Y-120671584D01*
X122643102Y-120767286D01*
X122589489Y-120812091D01*
X122520164Y-120820798D01*
X122457137Y-120790643D01*
X122436898Y-120767286D01*
X122372951Y-120671584D01*
X122372948Y-120671580D01*
X122268419Y-120567051D01*
X122268415Y-120567048D01*
X122145501Y-120484919D01*
X122145488Y-120484912D01*
X122008917Y-120428343D01*
X122008907Y-120428340D01*
X121863920Y-120399500D01*
X121863918Y-120399500D01*
X121716082Y-120399500D01*
X121716080Y-120399500D01*
X121571092Y-120428340D01*
X121571082Y-120428343D01*
X121434511Y-120484912D01*
X121434498Y-120484919D01*
X121311584Y-120567048D01*
X121311580Y-120567051D01*
X121207051Y-120671580D01*
X121207048Y-120671584D01*
X121143102Y-120767286D01*
X121089489Y-120812091D01*
X121020164Y-120820798D01*
X120957137Y-120790643D01*
X120936898Y-120767286D01*
X120872951Y-120671584D01*
X120872948Y-120671580D01*
X120768419Y-120567051D01*
X120768415Y-120567048D01*
X120645501Y-120484919D01*
X120645488Y-120484912D01*
X120508917Y-120428343D01*
X120508907Y-120428340D01*
X120363920Y-120399500D01*
X120363918Y-120399500D01*
X120216082Y-120399500D01*
X120216080Y-120399500D01*
X120071092Y-120428340D01*
X120071082Y-120428343D01*
X119934511Y-120484912D01*
X119934498Y-120484919D01*
X119811584Y-120567048D01*
X119811580Y-120567051D01*
X119707051Y-120671580D01*
X119707048Y-120671584D01*
X119643102Y-120767286D01*
X119589489Y-120812091D01*
X119520164Y-120820798D01*
X119457137Y-120790643D01*
X119436898Y-120767286D01*
X119372951Y-120671584D01*
X119372948Y-120671580D01*
X119268419Y-120567051D01*
X119268415Y-120567048D01*
X119145501Y-120484919D01*
X119145488Y-120484912D01*
X119008917Y-120428343D01*
X119008907Y-120428340D01*
X118863920Y-120399500D01*
X118863918Y-120399500D01*
X118716082Y-120399500D01*
X118716080Y-120399500D01*
X118571092Y-120428340D01*
X118571082Y-120428343D01*
X118434506Y-120484914D01*
X118434504Y-120484915D01*
X118408889Y-120502031D01*
X118342211Y-120522908D01*
X118274831Y-120504422D01*
X118271111Y-120502031D01*
X118245495Y-120484915D01*
X118245493Y-120484914D01*
X118108917Y-120428343D01*
X118108907Y-120428340D01*
X117963920Y-120399500D01*
X117963918Y-120399500D01*
X117816082Y-120399500D01*
X117816080Y-120399500D01*
X117671093Y-120428340D01*
X117671085Y-120428342D01*
X117587452Y-120462984D01*
X117517982Y-120470453D01*
X117492548Y-120462984D01*
X117408914Y-120428342D01*
X117408906Y-120428340D01*
X117263920Y-120399500D01*
X117263918Y-120399500D01*
X117116082Y-120399500D01*
X117116080Y-120399500D01*
X116971092Y-120428340D01*
X116971082Y-120428343D01*
X116834506Y-120484914D01*
X116834504Y-120484915D01*
X116808889Y-120502031D01*
X116742211Y-120522908D01*
X116674831Y-120504422D01*
X116671111Y-120502031D01*
X116645495Y-120484915D01*
X116645493Y-120484914D01*
X116508917Y-120428343D01*
X116508907Y-120428340D01*
X116363920Y-120399500D01*
X116363918Y-120399500D01*
X116216082Y-120399500D01*
X116216080Y-120399500D01*
X116071092Y-120428340D01*
X116071082Y-120428343D01*
X115934511Y-120484912D01*
X115934498Y-120484919D01*
X115811584Y-120567048D01*
X115811580Y-120567051D01*
X115707051Y-120671580D01*
X115707048Y-120671584D01*
X115643102Y-120767286D01*
X115589489Y-120812091D01*
X115520164Y-120820798D01*
X115457137Y-120790643D01*
X115436898Y-120767286D01*
X115372951Y-120671584D01*
X115372948Y-120671580D01*
X115268419Y-120567051D01*
X115268415Y-120567048D01*
X115145501Y-120484919D01*
X115145488Y-120484912D01*
X115008917Y-120428343D01*
X115008907Y-120428340D01*
X114863920Y-120399500D01*
X114863918Y-120399500D01*
X114716082Y-120399500D01*
X114716080Y-120399500D01*
X114571092Y-120428340D01*
X114571082Y-120428343D01*
X114434511Y-120484912D01*
X114434498Y-120484919D01*
X114311584Y-120567048D01*
X114311580Y-120567051D01*
X114207051Y-120671580D01*
X114207048Y-120671584D01*
X114124919Y-120794498D01*
X114124912Y-120794511D01*
X114068343Y-120931082D01*
X114068340Y-120931092D01*
X114039500Y-121076079D01*
X114039500Y-121076082D01*
X114039500Y-121223918D01*
X114039500Y-121223920D01*
X114039499Y-121223920D01*
X111240500Y-121223920D01*
X111240500Y-121115513D01*
X111236362Y-121089388D01*
X111210940Y-120928881D01*
X111168028Y-120796814D01*
X111152547Y-120749168D01*
X111152545Y-120749165D01*
X111152545Y-120749163D01*
X111103385Y-120652681D01*
X111066760Y-120580801D01*
X110955690Y-120427927D01*
X110822073Y-120294310D01*
X110669199Y-120183240D01*
X110500836Y-120097454D01*
X110321118Y-120039059D01*
X110134486Y-120009500D01*
X110134481Y-120009500D01*
X109945519Y-120009500D01*
X109945514Y-120009500D01*
X109758881Y-120039059D01*
X109579163Y-120097454D01*
X109410800Y-120183240D01*
X109379623Y-120205892D01*
X109257927Y-120294310D01*
X109257925Y-120294312D01*
X109257924Y-120294312D01*
X109124312Y-120427924D01*
X109124312Y-120427925D01*
X109124310Y-120427927D01*
X109084559Y-120482639D01*
X109013240Y-120580800D01*
X108927454Y-120749163D01*
X108869059Y-120928881D01*
X108839500Y-121115513D01*
X106411500Y-121115513D01*
X106411500Y-113161995D01*
X124479500Y-113161995D01*
X124479500Y-113398004D01*
X124479501Y-113398020D01*
X124510306Y-113632010D01*
X124571394Y-113859993D01*
X124661714Y-114078045D01*
X124661719Y-114078056D01*
X124732677Y-114200957D01*
X124779727Y-114282450D01*
X124779729Y-114282453D01*
X124779730Y-114282454D01*
X124923406Y-114469697D01*
X124923412Y-114469704D01*
X125090295Y-114636587D01*
X125090301Y-114636592D01*
X125277550Y-114780273D01*
X125408918Y-114856118D01*
X125481943Y-114898280D01*
X125481948Y-114898282D01*
X125481951Y-114898284D01*
X125700007Y-114988606D01*
X125927986Y-115049693D01*
X126161989Y-115080500D01*
X126161996Y-115080500D01*
X126398004Y-115080500D01*
X126398011Y-115080500D01*
X126632014Y-115049693D01*
X126859993Y-114988606D01*
X127078049Y-114898284D01*
X127282450Y-114780273D01*
X127469699Y-114636592D01*
X127636592Y-114469699D01*
X127780273Y-114282450D01*
X127898284Y-114078049D01*
X127988606Y-113859993D01*
X128049693Y-113632014D01*
X128080500Y-113398011D01*
X128080500Y-113161989D01*
X128049693Y-112927986D01*
X127988606Y-112700007D01*
X127898284Y-112481951D01*
X127898282Y-112481948D01*
X127898280Y-112481943D01*
X127856118Y-112408918D01*
X127780273Y-112277550D01*
X127636592Y-112090301D01*
X127636587Y-112090295D01*
X127469704Y-111923412D01*
X127469697Y-111923406D01*
X127282454Y-111779730D01*
X127282453Y-111779729D01*
X127282450Y-111779727D01*
X127200957Y-111732677D01*
X127078056Y-111661719D01*
X127078045Y-111661714D01*
X126859993Y-111571394D01*
X126632010Y-111510306D01*
X126398020Y-111479501D01*
X126398017Y-111479500D01*
X126398011Y-111479500D01*
X126161989Y-111479500D01*
X126161983Y-111479500D01*
X126161979Y-111479501D01*
X125927989Y-111510306D01*
X125700006Y-111571394D01*
X125481954Y-111661714D01*
X125481943Y-111661719D01*
X125277545Y-111779730D01*
X125090302Y-111923406D01*
X125090295Y-111923412D01*
X124923412Y-112090295D01*
X124923406Y-112090302D01*
X124779730Y-112277545D01*
X124661719Y-112481943D01*
X124661714Y-112481954D01*
X124571394Y-112700006D01*
X124510306Y-112927989D01*
X124479501Y-113161979D01*
X124479500Y-113161995D01*
X106411500Y-113161995D01*
X106411500Y-106633177D01*
X106377625Y-106462881D01*
X106377624Y-106462880D01*
X106377624Y-106462876D01*
X106377622Y-106462871D01*
X106311178Y-106302459D01*
X106311171Y-106302446D01*
X106214706Y-106158077D01*
X106214703Y-106158073D01*
X106091926Y-106035296D01*
X106091922Y-106035293D01*
X105947553Y-105938828D01*
X105947540Y-105938821D01*
X105787128Y-105872377D01*
X105787118Y-105872374D01*
X105616822Y-105838500D01*
X105616820Y-105838500D01*
X105443180Y-105838500D01*
X105443178Y-105838500D01*
X105272881Y-105872374D01*
X105272871Y-105872377D01*
X105112459Y-105938821D01*
X105112446Y-105938828D01*
X104968077Y-106035293D01*
X104968073Y-106035296D01*
X104845296Y-106158073D01*
X104845293Y-106158077D01*
X104748828Y-106302446D01*
X104748821Y-106302459D01*
X104682377Y-106462871D01*
X104682374Y-106462881D01*
X104648500Y-106633177D01*
X104648500Y-122357007D01*
X104628815Y-122424046D01*
X104612181Y-122444688D01*
X103909315Y-123147553D01*
X103847992Y-123181038D01*
X103778300Y-123176054D01*
X103722367Y-123134182D01*
X103697950Y-123068718D01*
X103698345Y-123046616D01*
X103699810Y-123032999D01*
X103704500Y-122989373D01*
X103704499Y-121685628D01*
X103698091Y-121626017D01*
X103653141Y-121505501D01*
X103647797Y-121491171D01*
X103647793Y-121491164D01*
X103561548Y-121375957D01*
X103561546Y-121375954D01*
X103561544Y-121375952D01*
X103561542Y-121375950D01*
X103531188Y-121353227D01*
X103489317Y-121297292D01*
X103481500Y-121253961D01*
X103481500Y-115326491D01*
X103501185Y-115259452D01*
X103517819Y-115238810D01*
X104154703Y-114601926D01*
X104154706Y-114601923D01*
X104251175Y-114457547D01*
X104296519Y-114348077D01*
X104317625Y-114297124D01*
X104351500Y-114126821D01*
X104351500Y-113953179D01*
X104351500Y-104782230D01*
X104371185Y-104715191D01*
X104423989Y-104669436D01*
X104493147Y-104659492D01*
X104556703Y-104688517D01*
X104563181Y-104694549D01*
X104611580Y-104742948D01*
X104611584Y-104742951D01*
X104734498Y-104825080D01*
X104734511Y-104825087D01*
X104871082Y-104881656D01*
X104871087Y-104881658D01*
X104871091Y-104881658D01*
X104871092Y-104881659D01*
X105016079Y-104910500D01*
X105016082Y-104910500D01*
X105163920Y-104910500D01*
X105261462Y-104891096D01*
X105308913Y-104881658D01*
X105445495Y-104825084D01*
X105568416Y-104742951D01*
X105568419Y-104742948D01*
X105622319Y-104689049D01*
X105683642Y-104655564D01*
X105753334Y-104660548D01*
X105797681Y-104689049D01*
X105851580Y-104742948D01*
X105851584Y-104742951D01*
X105974498Y-104825080D01*
X105974511Y-104825087D01*
X106111082Y-104881656D01*
X106111087Y-104881658D01*
X106111091Y-104881658D01*
X106111092Y-104881659D01*
X106256079Y-104910500D01*
X106256082Y-104910500D01*
X106403920Y-104910500D01*
X106501462Y-104891096D01*
X106548913Y-104881658D01*
X106685495Y-104825084D01*
X106808416Y-104742951D01*
X106808419Y-104742948D01*
X106842319Y-104709049D01*
X106903642Y-104675564D01*
X106973334Y-104680548D01*
X107017681Y-104709049D01*
X107051580Y-104742948D01*
X107051584Y-104742951D01*
X107174498Y-104825080D01*
X107174511Y-104825087D01*
X107311082Y-104881656D01*
X107311087Y-104881658D01*
X107311091Y-104881658D01*
X107311092Y-104881659D01*
X107456079Y-104910500D01*
X107456082Y-104910500D01*
X107603920Y-104910500D01*
X107701462Y-104891096D01*
X107748913Y-104881658D01*
X107885495Y-104825084D01*
X108008416Y-104742951D01*
X108112951Y-104638416D01*
X108126897Y-104617543D01*
X108180509Y-104572738D01*
X108249834Y-104564031D01*
X108312862Y-104594185D01*
X108333103Y-104617544D01*
X108347050Y-104638418D01*
X108451580Y-104742948D01*
X108451584Y-104742951D01*
X108574498Y-104825080D01*
X108574511Y-104825087D01*
X108711082Y-104881656D01*
X108711087Y-104881658D01*
X108711091Y-104881658D01*
X108711092Y-104881659D01*
X108856079Y-104910500D01*
X108856082Y-104910500D01*
X109003920Y-104910500D01*
X109101462Y-104891096D01*
X109148913Y-104881658D01*
X109285495Y-104825084D01*
X109408416Y-104742951D01*
X109512951Y-104638416D01*
X109595084Y-104515495D01*
X109651658Y-104378913D01*
X109663313Y-104320319D01*
X109680500Y-104233920D01*
X111179534Y-104233920D01*
X111208375Y-104378907D01*
X111208378Y-104378917D01*
X111264947Y-104515488D01*
X111264954Y-104515501D01*
X111347083Y-104638415D01*
X111347086Y-104638419D01*
X111451615Y-104742948D01*
X111451619Y-104742951D01*
X111574533Y-104825080D01*
X111574546Y-104825087D01*
X111711117Y-104881656D01*
X111711122Y-104881658D01*
X111711126Y-104881658D01*
X111711127Y-104881659D01*
X111856114Y-104910500D01*
X111856117Y-104910500D01*
X112003955Y-104910500D01*
X112101497Y-104891096D01*
X112148948Y-104881658D01*
X112285530Y-104825084D01*
X112408451Y-104742951D01*
X112512986Y-104638416D01*
X112556871Y-104572738D01*
X112576933Y-104542713D01*
X112630545Y-104497908D01*
X112699870Y-104489201D01*
X112762897Y-104519355D01*
X112783137Y-104542713D01*
X112847083Y-104638415D01*
X112847086Y-104638419D01*
X112951615Y-104742948D01*
X112951619Y-104742951D01*
X113074533Y-104825080D01*
X113074546Y-104825087D01*
X113211117Y-104881656D01*
X113211122Y-104881658D01*
X113211126Y-104881658D01*
X113211127Y-104881659D01*
X113356114Y-104910500D01*
X113356117Y-104910500D01*
X113503955Y-104910500D01*
X113601497Y-104891096D01*
X113648948Y-104881658D01*
X113785530Y-104825084D01*
X113908451Y-104742951D01*
X114012986Y-104638416D01*
X114056871Y-104572738D01*
X114076933Y-104542713D01*
X114130545Y-104497908D01*
X114199870Y-104489201D01*
X114262897Y-104519355D01*
X114283137Y-104542713D01*
X114347083Y-104638415D01*
X114347086Y-104638419D01*
X114451615Y-104742948D01*
X114451619Y-104742951D01*
X114574533Y-104825080D01*
X114574546Y-104825087D01*
X114711117Y-104881656D01*
X114711122Y-104881658D01*
X114711126Y-104881658D01*
X114711127Y-104881659D01*
X114856114Y-104910500D01*
X114856117Y-104910500D01*
X115003955Y-104910500D01*
X115101497Y-104891096D01*
X115148948Y-104881658D01*
X115285530Y-104825084D01*
X115408451Y-104742951D01*
X115512986Y-104638416D01*
X115556871Y-104572738D01*
X115576933Y-104542713D01*
X115630545Y-104497908D01*
X115699870Y-104489201D01*
X115762897Y-104519355D01*
X115783137Y-104542713D01*
X115847083Y-104638415D01*
X115847086Y-104638419D01*
X115951615Y-104742948D01*
X115951619Y-104742951D01*
X116074533Y-104825080D01*
X116074546Y-104825087D01*
X116211117Y-104881656D01*
X116211122Y-104881658D01*
X116211126Y-104881658D01*
X116211127Y-104881659D01*
X116356114Y-104910500D01*
X116356117Y-104910500D01*
X116503955Y-104910500D01*
X116601497Y-104891096D01*
X116648948Y-104881658D01*
X116785530Y-104825084D01*
X116908451Y-104742951D01*
X117012986Y-104638416D01*
X117056871Y-104572738D01*
X117076933Y-104542713D01*
X117130545Y-104497908D01*
X117199870Y-104489201D01*
X117262897Y-104519355D01*
X117283137Y-104542713D01*
X117347083Y-104638415D01*
X117347086Y-104638419D01*
X117451615Y-104742948D01*
X117451619Y-104742951D01*
X117574533Y-104825080D01*
X117574546Y-104825087D01*
X117711117Y-104881656D01*
X117711122Y-104881658D01*
X117711126Y-104881658D01*
X117711127Y-104881659D01*
X117856114Y-104910500D01*
X117856117Y-104910500D01*
X118003955Y-104910500D01*
X118101497Y-104891096D01*
X118148948Y-104881658D01*
X118285530Y-104825084D01*
X118408451Y-104742951D01*
X118512986Y-104638416D01*
X118556871Y-104572738D01*
X118576933Y-104542713D01*
X118630545Y-104497908D01*
X118699870Y-104489201D01*
X118762897Y-104519355D01*
X118783137Y-104542713D01*
X118847083Y-104638415D01*
X118847086Y-104638419D01*
X118951615Y-104742948D01*
X118951619Y-104742951D01*
X119074533Y-104825080D01*
X119074546Y-104825087D01*
X119211117Y-104881656D01*
X119211122Y-104881658D01*
X119211126Y-104881658D01*
X119211127Y-104881659D01*
X119356114Y-104910500D01*
X119356117Y-104910500D01*
X119503955Y-104910500D01*
X119601497Y-104891096D01*
X119648948Y-104881658D01*
X119785530Y-104825084D01*
X119908451Y-104742951D01*
X120012986Y-104638416D01*
X120095119Y-104515495D01*
X120151693Y-104378913D01*
X120163348Y-104320319D01*
X120180535Y-104233920D01*
X120180535Y-104086079D01*
X120151694Y-103941092D01*
X120151693Y-103941091D01*
X120151693Y-103941087D01*
X120151450Y-103940500D01*
X120095122Y-103804511D01*
X120095115Y-103804498D01*
X120012986Y-103681584D01*
X120012983Y-103681580D01*
X119908454Y-103577051D01*
X119908450Y-103577048D01*
X119785536Y-103494919D01*
X119785523Y-103494912D01*
X119648952Y-103438343D01*
X119648942Y-103438340D01*
X119503955Y-103409500D01*
X119503953Y-103409500D01*
X119356117Y-103409500D01*
X119356115Y-103409500D01*
X119211127Y-103438340D01*
X119211117Y-103438343D01*
X119074546Y-103494912D01*
X119074533Y-103494919D01*
X118951619Y-103577048D01*
X118951615Y-103577051D01*
X118847086Y-103681580D01*
X118847083Y-103681584D01*
X118783137Y-103777286D01*
X118729524Y-103822091D01*
X118660199Y-103830798D01*
X118597172Y-103800643D01*
X118576933Y-103777286D01*
X118512986Y-103681584D01*
X118512983Y-103681580D01*
X118408454Y-103577051D01*
X118408450Y-103577048D01*
X118285536Y-103494919D01*
X118285523Y-103494912D01*
X118148952Y-103438343D01*
X118148942Y-103438340D01*
X118003955Y-103409500D01*
X118003953Y-103409500D01*
X117856117Y-103409500D01*
X117856115Y-103409500D01*
X117711127Y-103438340D01*
X117711117Y-103438343D01*
X117574546Y-103494912D01*
X117574533Y-103494919D01*
X117451619Y-103577048D01*
X117451615Y-103577051D01*
X117347086Y-103681580D01*
X117347083Y-103681584D01*
X117283137Y-103777286D01*
X117229524Y-103822091D01*
X117160199Y-103830798D01*
X117097172Y-103800643D01*
X117076933Y-103777286D01*
X117012986Y-103681584D01*
X117012983Y-103681580D01*
X116908454Y-103577051D01*
X116908450Y-103577048D01*
X116785536Y-103494919D01*
X116785523Y-103494912D01*
X116648952Y-103438343D01*
X116648942Y-103438340D01*
X116503955Y-103409500D01*
X116503953Y-103409500D01*
X116356117Y-103409500D01*
X116356115Y-103409500D01*
X116211127Y-103438340D01*
X116211117Y-103438343D01*
X116074546Y-103494912D01*
X116074533Y-103494919D01*
X115951619Y-103577048D01*
X115951615Y-103577051D01*
X115847086Y-103681580D01*
X115847083Y-103681584D01*
X115783137Y-103777286D01*
X115729524Y-103822091D01*
X115660199Y-103830798D01*
X115597172Y-103800643D01*
X115576933Y-103777286D01*
X115512986Y-103681584D01*
X115512983Y-103681580D01*
X115408454Y-103577051D01*
X115408450Y-103577048D01*
X115285536Y-103494919D01*
X115285523Y-103494912D01*
X115148952Y-103438343D01*
X115148942Y-103438340D01*
X115003955Y-103409500D01*
X115003953Y-103409500D01*
X114856117Y-103409500D01*
X114856115Y-103409500D01*
X114711127Y-103438340D01*
X114711117Y-103438343D01*
X114574546Y-103494912D01*
X114574533Y-103494919D01*
X114451619Y-103577048D01*
X114451615Y-103577051D01*
X114347086Y-103681580D01*
X114347083Y-103681584D01*
X114283137Y-103777286D01*
X114229524Y-103822091D01*
X114160199Y-103830798D01*
X114097172Y-103800643D01*
X114076933Y-103777286D01*
X114012986Y-103681584D01*
X114012983Y-103681580D01*
X113908454Y-103577051D01*
X113908450Y-103577048D01*
X113785536Y-103494919D01*
X113785523Y-103494912D01*
X113648952Y-103438343D01*
X113648942Y-103438340D01*
X113503955Y-103409500D01*
X113503953Y-103409500D01*
X113356117Y-103409500D01*
X113356115Y-103409500D01*
X113211127Y-103438340D01*
X113211117Y-103438343D01*
X113074546Y-103494912D01*
X113074533Y-103494919D01*
X112951619Y-103577048D01*
X112951615Y-103577051D01*
X112847086Y-103681580D01*
X112847083Y-103681584D01*
X112783137Y-103777286D01*
X112729524Y-103822091D01*
X112660199Y-103830798D01*
X112597172Y-103800643D01*
X112576933Y-103777286D01*
X112512986Y-103681584D01*
X112512983Y-103681580D01*
X112408454Y-103577051D01*
X112408450Y-103577048D01*
X112285536Y-103494919D01*
X112285523Y-103494912D01*
X112148952Y-103438343D01*
X112148942Y-103438340D01*
X112003955Y-103409500D01*
X112003953Y-103409500D01*
X111856117Y-103409500D01*
X111856115Y-103409500D01*
X111711127Y-103438340D01*
X111711117Y-103438343D01*
X111574546Y-103494912D01*
X111574533Y-103494919D01*
X111451619Y-103577048D01*
X111451615Y-103577051D01*
X111347086Y-103681580D01*
X111347083Y-103681584D01*
X111264954Y-103804498D01*
X111264947Y-103804511D01*
X111208378Y-103941082D01*
X111208375Y-103941092D01*
X111179535Y-104086079D01*
X111179535Y-104086082D01*
X111179535Y-104233918D01*
X111179535Y-104233920D01*
X111179534Y-104233920D01*
X109680500Y-104233920D01*
X109680500Y-104086079D01*
X109651659Y-103941092D01*
X109651658Y-103941091D01*
X109651658Y-103941087D01*
X109651415Y-103940500D01*
X109595087Y-103804511D01*
X109595080Y-103804498D01*
X109512951Y-103681584D01*
X109512948Y-103681580D01*
X109408419Y-103577051D01*
X109408415Y-103577048D01*
X109285501Y-103494919D01*
X109285488Y-103494912D01*
X109148917Y-103438343D01*
X109148907Y-103438340D01*
X109003920Y-103409500D01*
X109003918Y-103409500D01*
X108856082Y-103409500D01*
X108856080Y-103409500D01*
X108711092Y-103438340D01*
X108711082Y-103438343D01*
X108574511Y-103494912D01*
X108574498Y-103494919D01*
X108451584Y-103577048D01*
X108451580Y-103577051D01*
X108347051Y-103681580D01*
X108347046Y-103681586D01*
X108333101Y-103702457D01*
X108279489Y-103747261D01*
X108210164Y-103755968D01*
X108147136Y-103725813D01*
X108126899Y-103702457D01*
X108112953Y-103681586D01*
X108112948Y-103681580D01*
X108008419Y-103577051D01*
X108008415Y-103577048D01*
X107885501Y-103494919D01*
X107885488Y-103494912D01*
X107748917Y-103438343D01*
X107748907Y-103438340D01*
X107603920Y-103409500D01*
X107603918Y-103409500D01*
X107456082Y-103409500D01*
X107456080Y-103409500D01*
X107311092Y-103438340D01*
X107311082Y-103438343D01*
X107174511Y-103494912D01*
X107174498Y-103494919D01*
X107051584Y-103577048D01*
X107051580Y-103577051D01*
X107017681Y-103610951D01*
X106956358Y-103644436D01*
X106886666Y-103639452D01*
X106842319Y-103610951D01*
X106808419Y-103577051D01*
X106808415Y-103577048D01*
X106685501Y-103494919D01*
X106685488Y-103494912D01*
X106548917Y-103438343D01*
X106548907Y-103438340D01*
X106403920Y-103409500D01*
X106403918Y-103409500D01*
X106256082Y-103409500D01*
X106256080Y-103409500D01*
X106111092Y-103438340D01*
X106111082Y-103438343D01*
X105974511Y-103494912D01*
X105974498Y-103494919D01*
X105851584Y-103577048D01*
X105851580Y-103577051D01*
X105797681Y-103630951D01*
X105736358Y-103664436D01*
X105666666Y-103659452D01*
X105622319Y-103630951D01*
X105568419Y-103577051D01*
X105568415Y-103577048D01*
X105445501Y-103494919D01*
X105445488Y-103494912D01*
X105308917Y-103438343D01*
X105308907Y-103438340D01*
X105163920Y-103409500D01*
X105163918Y-103409500D01*
X105016082Y-103409500D01*
X105016080Y-103409500D01*
X104871092Y-103438340D01*
X104871082Y-103438343D01*
X104734511Y-103494912D01*
X104734498Y-103494919D01*
X104611584Y-103577048D01*
X104611580Y-103577051D01*
X104507051Y-103681580D01*
X104507048Y-103681584D01*
X104424919Y-103804498D01*
X104424913Y-103804509D01*
X104419601Y-103817334D01*
X104375758Y-103871735D01*
X104309463Y-103893797D01*
X104241764Y-103876515D01*
X104201940Y-103838767D01*
X104154706Y-103768077D01*
X104154703Y-103768073D01*
X104031926Y-103645296D01*
X104031922Y-103645293D01*
X103887553Y-103548828D01*
X103887540Y-103548821D01*
X103727128Y-103482377D01*
X103727118Y-103482374D01*
X103556822Y-103448500D01*
X103556820Y-103448500D01*
X103383180Y-103448500D01*
X103383178Y-103448500D01*
X103212881Y-103482374D01*
X103212871Y-103482377D01*
X103052459Y-103548821D01*
X103052446Y-103548828D01*
X102908077Y-103645293D01*
X102908073Y-103645296D01*
X102785296Y-103768073D01*
X102785293Y-103768077D01*
X102688828Y-103912446D01*
X102688821Y-103912459D01*
X102622377Y-104072871D01*
X102622374Y-104072881D01*
X102588500Y-104243177D01*
X102588500Y-104320319D01*
X102568815Y-104387358D01*
X102516011Y-104433113D01*
X102446853Y-104443057D01*
X102408205Y-104430804D01*
X102293383Y-104372298D01*
X102293380Y-104372297D01*
X102085376Y-104304714D01*
X101869361Y-104270500D01*
X101869356Y-104270500D01*
X101650644Y-104270500D01*
X101650639Y-104270500D01*
X101434623Y-104304714D01*
X101226619Y-104372297D01*
X101226616Y-104372298D01*
X101031739Y-104471595D01*
X100854806Y-104600142D01*
X100700142Y-104754806D01*
X100571595Y-104931739D01*
X100472298Y-105126616D01*
X100472297Y-105126619D01*
X100404714Y-105334623D01*
X100370500Y-105550638D01*
X100370500Y-112470587D01*
X100350815Y-112537626D01*
X100334181Y-112558268D01*
X93746767Y-119145681D01*
X93685444Y-119179166D01*
X93659086Y-119182000D01*
X92277129Y-119182000D01*
X92277123Y-119182001D01*
X92217516Y-119188408D01*
X92082671Y-119238702D01*
X92082664Y-119238706D01*
X91967455Y-119324952D01*
X91967452Y-119324955D01*
X91881206Y-119440164D01*
X91881202Y-119440171D01*
X91830908Y-119575017D01*
X91824501Y-119634616D01*
X91824500Y-119634635D01*
X89410500Y-119634635D01*
X89410500Y-113161995D01*
X94499500Y-113161995D01*
X94499500Y-113398004D01*
X94499501Y-113398020D01*
X94530306Y-113632010D01*
X94591394Y-113859993D01*
X94681714Y-114078045D01*
X94681719Y-114078056D01*
X94752677Y-114200957D01*
X94799727Y-114282450D01*
X94799729Y-114282453D01*
X94799730Y-114282454D01*
X94943406Y-114469697D01*
X94943412Y-114469704D01*
X95110295Y-114636587D01*
X95110301Y-114636592D01*
X95297550Y-114780273D01*
X95428918Y-114856118D01*
X95501943Y-114898280D01*
X95501948Y-114898282D01*
X95501951Y-114898284D01*
X95720007Y-114988606D01*
X95947986Y-115049693D01*
X96181989Y-115080500D01*
X96181996Y-115080500D01*
X96418004Y-115080500D01*
X96418011Y-115080500D01*
X96652014Y-115049693D01*
X96879993Y-114988606D01*
X97098049Y-114898284D01*
X97302450Y-114780273D01*
X97489699Y-114636592D01*
X97656592Y-114469699D01*
X97800273Y-114282450D01*
X97918284Y-114078049D01*
X98008606Y-113859993D01*
X98069693Y-113632014D01*
X98100500Y-113398011D01*
X98100500Y-113161989D01*
X98069693Y-112927986D01*
X98008606Y-112700007D01*
X97918284Y-112481951D01*
X97918282Y-112481948D01*
X97918280Y-112481943D01*
X97876118Y-112408918D01*
X97800273Y-112277550D01*
X97656592Y-112090301D01*
X97656587Y-112090295D01*
X97489704Y-111923412D01*
X97489697Y-111923406D01*
X97302454Y-111779730D01*
X97302453Y-111779729D01*
X97302450Y-111779727D01*
X97220957Y-111732677D01*
X97098056Y-111661719D01*
X97098045Y-111661714D01*
X96879993Y-111571394D01*
X96652010Y-111510306D01*
X96418020Y-111479501D01*
X96418017Y-111479500D01*
X96418011Y-111479500D01*
X96181989Y-111479500D01*
X96181983Y-111479500D01*
X96181979Y-111479501D01*
X95947989Y-111510306D01*
X95720006Y-111571394D01*
X95501954Y-111661714D01*
X95501943Y-111661719D01*
X95297545Y-111779730D01*
X95110302Y-111923406D01*
X95110295Y-111923412D01*
X94943412Y-112090295D01*
X94943406Y-112090302D01*
X94799730Y-112277545D01*
X94681719Y-112481943D01*
X94681714Y-112481954D01*
X94591394Y-112700006D01*
X94530306Y-112927989D01*
X94499501Y-113161979D01*
X94499500Y-113161995D01*
X89410500Y-113161995D01*
X89410500Y-97496961D01*
X89411280Y-97483077D01*
X89411314Y-97482772D01*
X89421459Y-97392731D01*
X89427635Y-97365670D01*
X89455353Y-97286456D01*
X89467396Y-97261450D01*
X89512046Y-97190389D01*
X89529351Y-97168690D01*
X89588690Y-97109351D01*
X89610389Y-97092046D01*
X89681450Y-97047396D01*
X89706456Y-97035353D01*
X89785670Y-97007635D01*
X89812733Y-97001459D01*
X89875419Y-96994396D01*
X89903079Y-96991280D01*
X89916962Y-96990500D01*
X89975892Y-96990500D01*
X128214186Y-96990500D01*
X128214193Y-96990502D01*
G37*
%TD.AperFunction*%
%TD*%
M02*
