M48
; DRILL file {KiCad 9.0.6} date 2026-03-05T08:52:22-0500
; FORMAT={-:-/ absolute / inch / decimal}
; #@! TF.CreationDate,2026-03-05T08:52:22-05:00
; #@! TF.GenerationSoftware,Kicad,Pcbnew,9.0.6
; #@! TF.FileFunction,Plated,1,4,PTH
FMAT,2
INCH
; #@! TA.AperFunction,Plated,PTH,ViaDrill
T1C0.0118
; #@! TA.AperFunction,Plated,PTH,ComponentDrill
T2C0.0236
; #@! TA.AperFunction,Plated,PTH,ComponentDrill
T3C0.0276
; #@! TA.AperFunction,Plated,PTH,ComponentDrill
T4C0.0748
; #@! TA.AperFunction,Plated,PTH,ComponentDrill
T5C0.0866
%
G90
G05
T1
X4.0063Y-4.1598
X4.0736Y-4.1075
X4.1374Y-4.1008
X4.1547Y-4.2016
X4.1862Y-4.1008
X4.2335Y-4.1008
X4.2886Y-4.1008
X4.3185Y-4.1437
X4.4067Y-4.1008
X4.4657Y-4.1008
X4.4992Y-4.6295
X4.5193Y-4.7697
X4.5248Y-4.1008
X4.5783Y-4.7697
X4.5839Y-4.1008
X4.6138Y-4.7697
X4.6413Y-4.7697
X4.6429Y-4.1008
X4.6768Y-4.7697
X4.702Y-4.1008
X4.7358Y-4.7697
X4.7949Y-4.7697
X4.8539Y-4.7697
X5.4341Y-4.3529
X5.447Y-4.2707
X5.4538Y-4.5064
X5.4672Y-3.921
X5.5128Y-4.5064
X5.5262Y-3.921
X5.5447Y-4.5064
X5.5786Y-4.5064
X5.5853Y-3.921
X5.6112Y-4.5064
X5.6443Y-3.921
X5.6703Y-4.5064
X5.7034Y-3.8395
X5.7034Y-3.921
X5.7294Y-4.5064
X5.7624Y-3.8395
X5.7624Y-3.921
X5.7884Y-4.5064
X5.8116Y-3.921
X5.8805Y-3.8395
X5.9396Y-3.8395
X5.9593Y-3.921
X5.979Y-3.8395
X6.038Y-3.8395
X6.0486Y-3.921
X6.0865Y-3.921
X6.166Y-3.921
T3
X4.0394Y-4.8164
X4.0394Y-4.8952
X6.5719Y-4.5923
X6.5719Y-4.671
T4
X3.6909Y-4.768
X3.8878Y-4.768
X6.2235Y-4.5438
X6.4203Y-4.5438
T5
X3.7913Y-4.4598
X4.9717Y-4.4598
X5.3254Y-4.2301
X6.5136Y-4.2309
T2
G00X4.3323Y-4.7681
M15
G01X4.3323Y-4.8311
M16
G05
G00X4.3323Y-5.0449
M15
G01X4.3323Y-5.0882
M16
G05
G00X4.9819Y-4.7681
M15
G01X4.9819Y-4.8311
M16
G05
G00X4.9819Y-5.0449
M15
G01X4.9819Y-5.0882
M16
G05
G00X5.2668Y-4.5022
M15
G01X5.2668Y-4.5652
M16
G05
G00X5.2668Y-4.779
M15
G01X5.2668Y-4.8223
M16
G05
G00X5.9164Y-4.5022
M15
G01X5.9164Y-4.5652
M16
G05
G00X5.9164Y-4.779
M15
G01X5.9164Y-4.8223
M16
G05
M30
