%TF.GenerationSoftware,KiCad,Pcbnew,9.0.7*%
%TF.CreationDate,2026-04-05T23:21:26-04:00*%
%TF.ProjectId,combined,636f6d62-696e-4656-942e-6b696361645f,rev?*%
%TF.SameCoordinates,Original*%
%TF.FileFunction,Profile,NP*%
%FSLAX46Y46*%
G04 Gerber Fmt 4.6, Leading zero omitted, Abs format (unit mm)*
G04 Created by KiCad (PCBNEW 9.0.7) date 2026-04-05 23:21:26*
%MOMM*%
%LPD*%
G01*
G04 APERTURE LIST*
%TA.AperFunction,Profile*%
%ADD10C,0.050000*%
%TD*%
G04 APERTURE END LIST*
D10*
X128280070Y-96490000D02*
G75*
G02*
X129280100Y-97489930I30J-1000000D01*
G01*
X129282483Y-131930479D02*
G75*
G02*
X128282483Y-132930583I-1000083J-21D01*
G01*
X161711087Y-95953696D02*
X163441678Y-95953696D01*
X171022543Y-103115757D02*
X164148531Y-96246352D01*
X128280070Y-96490000D02*
X89910000Y-96490000D01*
X88910000Y-97490000D02*
X88910000Y-131930549D01*
X129280070Y-97497745D02*
X129280000Y-97740000D01*
X89910000Y-132930549D02*
G75*
G02*
X88909951Y-131930549I0J1000049D01*
G01*
X132275979Y-126243696D02*
G75*
G02*
X131276004Y-125243365I21J999996D01*
G01*
X131285347Y-96953365D02*
G75*
G02*
X132285347Y-95953747I999953J-335D01*
G01*
X163441678Y-95953696D02*
G75*
G02*
X164148530Y-96246353I22J-999904D01*
G01*
X171022543Y-103115757D02*
G75*
G02*
X171315651Y-103823106I-706943J-707343D01*
G01*
X132285347Y-95953696D02*
X161711087Y-95953696D01*
X128282483Y-132930549D02*
X89910000Y-132930549D01*
X131280000Y-124240000D02*
X131275979Y-125243365D01*
X129280000Y-124240000D02*
X129282483Y-131930500D01*
X129280000Y-104240000D02*
X129280000Y-117740000D01*
X171315678Y-125243696D02*
X171315678Y-103823106D01*
X170315678Y-126243696D02*
X132275979Y-126243696D01*
X131285347Y-96953700D02*
X131280000Y-97740000D01*
X131280000Y-104240000D02*
X131280000Y-117740000D01*
X171315678Y-125243696D02*
G75*
G02*
X170315678Y-126243678I-999978J-4D01*
G01*
X88910000Y-97490000D02*
G75*
G02*
X89910000Y-96490000I1000000J0D01*
G01*
%TO.C,REF\u002A\u002A*%
X129280000Y-104240000D02*
G75*
G02*
X131280000Y-104240000I1000000J0D01*
G01*
X131280000Y-97740000D02*
G75*
G02*
X129280000Y-97740000I-1000000J0D01*
G01*
X129280000Y-124240000D02*
G75*
G02*
X131280000Y-124240000I1000000J0D01*
G01*
X131280000Y-117740000D02*
G75*
G02*
X129280000Y-117740000I-1000000J0D01*
G01*
%TD*%
M02*
