M48
; DRILL file {KiCad 9.0.6} date 2026-03-05T08:52:22-0500
; FORMAT={-:-/ absolute / inch / decimal}
; #@! TF.CreationDate,2026-03-05T08:52:22-05:00
; #@! TF.GenerationSoftware,Kicad,Pcbnew,9.0.6
; #@! TF.FileFunction,NonPlated,1,4,NPTH
FMAT,2
INCH
; #@! TA.AperFunction,NonPlated,NPTH,ComponentDrill
T1C0.0197
; #@! TA.AperFunction,NonPlated,NPTH,ComponentDrill
T2C0.0551
%
G90
G05
T1
X5.0799Y-3.8756
X5.0799Y-3.9091
X5.0799Y-3.9425
X5.0799Y-3.976
X5.0799Y-4.0094
X5.0799Y-4.0429
X5.0799Y-4.0764
X5.0799Y-4.663
X5.0799Y-4.6965
X5.0799Y-4.7299
X5.0799Y-4.7634
X5.0799Y-4.7969
X5.0799Y-4.8303
X5.0799Y-4.8638
X5.1783Y-3.8756
X5.1783Y-3.9091
X5.1783Y-3.9425
X5.1783Y-3.976
X5.1783Y-4.0094
X5.1783Y-4.0429
X5.1783Y-4.0764
X5.1783Y-4.663
X5.1783Y-4.6965
X5.1783Y-4.7299
X5.1783Y-4.7634
X5.1783Y-4.7969
X5.1783Y-4.8303
X5.1783Y-4.8638
T2
X4.6571Y-5.102
X5.5916Y-4.8361
M30
