%TF.GenerationSoftware,KiCad,Pcbnew,9.0.7*%
%TF.CreationDate,2026-04-05T23:21:26-04:00*%
%TF.ProjectId,combined,636f6d62-696e-4656-942e-6b696361645f,rev?*%
%TF.SameCoordinates,Original*%
%TF.FileFunction,Copper,L2,Inr*%
%TF.FilePolarity,Positive*%
%FSLAX46Y46*%
G04 Gerber Fmt 4.6, Leading zero omitted, Abs format (unit mm)*
G04 Created by KiCad (PCBNEW 9.0.7) date 2026-04-05 23:21:26*
%MOMM*%
%LPD*%
G01*
G04 APERTURE LIST*
%TA.AperFunction,ComponentPad*%
%ADD10O,1.400000X2.800000*%
%TD*%
%TA.AperFunction,ComponentPad*%
%ADD11O,1.200000X2.400000*%
%TD*%
%TA.AperFunction,ComponentPad*%
%ADD12C,2.850000*%
%TD*%
%TA.AperFunction,ComponentPad*%
%ADD13R,2.850000X2.850000*%
%TD*%
%TA.AperFunction,ComponentPad*%
%ADD14R,1.208000X1.208000*%
%TD*%
%TA.AperFunction,ComponentPad*%
%ADD15C,2.600000*%
%TD*%
%TA.AperFunction,ViaPad*%
%ADD16C,0.500000*%
%TD*%
%TA.AperFunction,ViaPad*%
%ADD17C,0.600000*%
%TD*%
G04 APERTURE END LIST*
D10*
%TO.N,GND*%
%TO.C,J1*%
X110040000Y-121910000D03*
X126540000Y-121910000D03*
D11*
X110040000Y-128690000D03*
X126540000Y-128690000D03*
%TD*%
D12*
%TO.N,GND*%
%TO.C,J2*%
X98750000Y-121107500D03*
D13*
%TO.N,+5V*%
X93750000Y-121107500D03*
D14*
%TO.N,BLK_OFF_N*%
X102600000Y-124337500D03*
%TO.N,BLK_PWM_LCD*%
X102600000Y-122337500D03*
%TD*%
D15*
%TO.N,GND*%
%TO.C,H2*%
X165445678Y-107463696D03*
%TD*%
%TO.N,GND*%
%TO.C,H1*%
X96300000Y-113280000D03*
%TD*%
%TO.N,GND*%
%TO.C,H1*%
X135265678Y-107443696D03*
%TD*%
D10*
%TO.N,GND*%
%TO.C,J4*%
X133775678Y-115156196D03*
X150275678Y-115156196D03*
D11*
X133775678Y-121936196D03*
X150275678Y-121936196D03*
%TD*%
D15*
%TO.N,GND*%
%TO.C,H2*%
X126280000Y-113280000D03*
%TD*%
D12*
%TO.N,GND*%
%TO.C,J5*%
X163075678Y-115413696D03*
D13*
%TO.N,+5V*%
X158075678Y-115413696D03*
D14*
%TO.N,BLK_OFF_N*%
X166925678Y-118643696D03*
%TO.N,BLK_PWM_LCD*%
X166925678Y-116643696D03*
%TD*%
D16*
%TO.N,+3.3V*%
X147615678Y-99593696D03*
X109690000Y-105250000D03*
D17*
X138025678Y-110563696D03*
D16*
X114280000Y-117590000D03*
%TO.N,GND*%
X114930035Y-104160000D03*
X108930000Y-104160000D03*
X111930035Y-104160000D03*
X153365678Y-97523696D03*
X123290000Y-121150000D03*
X106330000Y-104160000D03*
X114790000Y-121150000D03*
X119430035Y-104160000D03*
X117930035Y-104160000D03*
X144865678Y-99593696D03*
D17*
X145525678Y-114463696D03*
X142525678Y-114463696D03*
D16*
X143365678Y-99593696D03*
X107530000Y-104160000D03*
X105090000Y-104160000D03*
X117190000Y-121150000D03*
D17*
X141695678Y-114463696D03*
D16*
X116290000Y-121150000D03*
X120290000Y-121150000D03*
X138865678Y-99593696D03*
X116430035Y-104160000D03*
X118790000Y-121150000D03*
X140365678Y-99593696D03*
D17*
X147025678Y-114463696D03*
D16*
X149365678Y-97523696D03*
D17*
X140835678Y-114463696D03*
D16*
X141865678Y-99593696D03*
X146365678Y-99593696D03*
X121790000Y-121150000D03*
X151865678Y-97523696D03*
D17*
X140025678Y-114463696D03*
D16*
X146365678Y-97523696D03*
X117890000Y-121150000D03*
D17*
X144025678Y-114463696D03*
D16*
X150865678Y-97523696D03*
D17*
X138525678Y-114463696D03*
D16*
X144865678Y-97523696D03*
X113430035Y-104160000D03*
%TO.N,+5V*%
X156615678Y-99593696D03*
X101760000Y-105660000D03*
%TO.N,BLK_OFF_N*%
X105530000Y-106720000D03*
X153633678Y-99593696D03*
%TO.N,BLK_PWM_LCD*%
X154597678Y-99593696D03*
X103470000Y-104330000D03*
D17*
%TO.N,EDP_HPD*%
X138355000Y-108475000D03*
D16*
X151365678Y-99593696D03*
%TD*%
%TA.AperFunction,Conductor*%
%TO.N,GND*%
G36*
X163375797Y-96454198D02*
G01*
X163435601Y-96454196D01*
X163447742Y-96454791D01*
X163526937Y-96462587D01*
X163550769Y-96467326D01*
X163564110Y-96471371D01*
X163621060Y-96488639D01*
X163643501Y-96497929D01*
X163688798Y-96522130D01*
X163708293Y-96532546D01*
X163728499Y-96546041D01*
X163790025Y-96596507D01*
X163799031Y-96604664D01*
X163805789Y-96611418D01*
X163826725Y-96632341D01*
X163846693Y-96652297D01*
X163846715Y-96652317D01*
X170664426Y-103465457D01*
X170672607Y-103474479D01*
X170723149Y-103536033D01*
X170736662Y-103556247D01*
X170763209Y-103605892D01*
X170771336Y-103621090D01*
X170780645Y-103643555D01*
X170801997Y-103713918D01*
X170806743Y-103737767D01*
X170814580Y-103817313D01*
X170815177Y-103829469D01*
X170815177Y-103860029D01*
X170815177Y-103888995D01*
X170815177Y-103888997D01*
X170815178Y-103898989D01*
X170815178Y-125236737D01*
X170814398Y-125250621D01*
X170804219Y-125340960D01*
X170798040Y-125368032D01*
X170770327Y-125447229D01*
X170758280Y-125472245D01*
X170713640Y-125543289D01*
X170696327Y-125564999D01*
X170636995Y-125624330D01*
X170615286Y-125641642D01*
X170544238Y-125686284D01*
X170519217Y-125698333D01*
X170440022Y-125726042D01*
X170412952Y-125732220D01*
X170322446Y-125742416D01*
X170308567Y-125743195D01*
X170291219Y-125743195D01*
X170249797Y-125743194D01*
X170249790Y-125743195D01*
X170241147Y-125743196D01*
X170241146Y-125743195D01*
X170241145Y-125743196D01*
X132282959Y-125743196D01*
X132269070Y-125742416D01*
X132178705Y-125732230D01*
X132151629Y-125726048D01*
X132072416Y-125698322D01*
X132047395Y-125686269D01*
X131976341Y-125641610D01*
X131954630Y-125624291D01*
X131895359Y-125564999D01*
X131895294Y-125564933D01*
X131877985Y-125543219D01*
X131833347Y-125472143D01*
X131821305Y-125447123D01*
X131793605Y-125367893D01*
X131787435Y-125340828D01*
X131777284Y-125250481D01*
X131776511Y-125236156D01*
X131780235Y-124306877D01*
X131780500Y-124305892D01*
X131780500Y-124240993D01*
X131780760Y-124176114D01*
X131780782Y-124170647D01*
X131780500Y-124166199D01*
X131780500Y-124121910D01*
X131778728Y-124110720D01*
X131772266Y-124069923D01*
X131781220Y-124000634D01*
X131826216Y-123947181D01*
X131832732Y-123943145D01*
X131837314Y-123940500D01*
X131930500Y-123847314D01*
X131996392Y-123733186D01*
X132030500Y-123605892D01*
X132030500Y-123474108D01*
X131996392Y-123346814D01*
X131930500Y-123232686D01*
X131900495Y-123202681D01*
X131867010Y-123141358D01*
X131871994Y-123071666D01*
X131900495Y-123027319D01*
X131911616Y-123016198D01*
X131930500Y-122997314D01*
X131996392Y-122883186D01*
X132030500Y-122755892D01*
X132030500Y-122624108D01*
X131996392Y-122496814D01*
X131930500Y-122382686D01*
X131900495Y-122352681D01*
X131867010Y-122291358D01*
X131871994Y-122221666D01*
X131887177Y-122193062D01*
X131893179Y-122184634D01*
X131930500Y-122147314D01*
X131996392Y-122033186D01*
X132030500Y-121905892D01*
X132030500Y-121774108D01*
X131996392Y-121646814D01*
X131930500Y-121532686D01*
X131900495Y-121502681D01*
X131867010Y-121441358D01*
X131871994Y-121371666D01*
X131885661Y-121345238D01*
X131892231Y-121335582D01*
X131930500Y-121297314D01*
X131958034Y-121249624D01*
X132675678Y-121249624D01*
X132675678Y-121686196D01*
X133475678Y-121686196D01*
X133475678Y-122186196D01*
X132675678Y-122186196D01*
X132675678Y-122622767D01*
X132702763Y-122793780D01*
X132756269Y-122958453D01*
X132834873Y-123112720D01*
X132936645Y-123252798D01*
X133059075Y-123375228D01*
X133199153Y-123477000D01*
X133353422Y-123555604D01*
X133518093Y-123609110D01*
X133518092Y-123609110D01*
X133525677Y-123610311D01*
X133525678Y-123610310D01*
X133525678Y-122653184D01*
X133535618Y-122670401D01*
X133591473Y-122726256D01*
X133659882Y-122765752D01*
X133736182Y-122786196D01*
X133815174Y-122786196D01*
X133891474Y-122765752D01*
X133959883Y-122726256D01*
X134015738Y-122670401D01*
X134025678Y-122653184D01*
X134025678Y-123610311D01*
X134033262Y-123609110D01*
X134197933Y-123555604D01*
X134352202Y-123477000D01*
X134492280Y-123375228D01*
X134614710Y-123252798D01*
X134716482Y-123112720D01*
X134795086Y-122958453D01*
X134848592Y-122793780D01*
X134856702Y-122742575D01*
X141075178Y-122742575D01*
X141075178Y-122929816D01*
X141111703Y-123113439D01*
X141111705Y-123113447D01*
X141183354Y-123286424D01*
X141183359Y-123286433D01*
X141287375Y-123442103D01*
X141287378Y-123442107D01*
X141419766Y-123574495D01*
X141419770Y-123574498D01*
X141575440Y-123678514D01*
X141575446Y-123678517D01*
X141575447Y-123678518D01*
X141748427Y-123750169D01*
X141932057Y-123786695D01*
X141932061Y-123786696D01*
X141932062Y-123786696D01*
X142119295Y-123786696D01*
X142119296Y-123786695D01*
X142302929Y-123750169D01*
X142475909Y-123678518D01*
X142631586Y-123574498D01*
X142763980Y-123442104D01*
X142868000Y-123286427D01*
X142939651Y-123113447D01*
X142976178Y-122929812D01*
X142976178Y-122742580D01*
X142939651Y-122558945D01*
X142868000Y-122385965D01*
X142867999Y-122385964D01*
X142867996Y-122385958D01*
X142763980Y-122230288D01*
X142763977Y-122230284D01*
X142631589Y-122097896D01*
X142631585Y-122097893D01*
X142475915Y-121993877D01*
X142475906Y-121993872D01*
X142302929Y-121922223D01*
X142302921Y-121922221D01*
X142119298Y-121885696D01*
X142119294Y-121885696D01*
X141932062Y-121885696D01*
X141932057Y-121885696D01*
X141748434Y-121922221D01*
X141748426Y-121922223D01*
X141575449Y-121993872D01*
X141575440Y-121993877D01*
X141419770Y-122097893D01*
X141419766Y-122097896D01*
X141287378Y-122230284D01*
X141287375Y-122230288D01*
X141183359Y-122385958D01*
X141183354Y-122385967D01*
X141111705Y-122558944D01*
X141111703Y-122558952D01*
X141075178Y-122742575D01*
X134856702Y-122742575D01*
X134860739Y-122717090D01*
X134875678Y-122622767D01*
X134875678Y-122186196D01*
X134075678Y-122186196D01*
X134075678Y-121686196D01*
X134875678Y-121686196D01*
X134875678Y-121249624D01*
X149175678Y-121249624D01*
X149175678Y-121686196D01*
X149975678Y-121686196D01*
X149975678Y-122186196D01*
X149175678Y-122186196D01*
X149175678Y-122622767D01*
X149202763Y-122793780D01*
X149256269Y-122958453D01*
X149334873Y-123112720D01*
X149436645Y-123252798D01*
X149559075Y-123375228D01*
X149699153Y-123477000D01*
X149853422Y-123555604D01*
X150018093Y-123609110D01*
X150018092Y-123609110D01*
X150025677Y-123610311D01*
X150025678Y-123610310D01*
X150025678Y-122653184D01*
X150035618Y-122670401D01*
X150091473Y-122726256D01*
X150159882Y-122765752D01*
X150236182Y-122786196D01*
X150315174Y-122786196D01*
X150391474Y-122765752D01*
X150459883Y-122726256D01*
X150515738Y-122670401D01*
X150525678Y-122653184D01*
X150525678Y-123610311D01*
X150533262Y-123609110D01*
X150697933Y-123555604D01*
X150852202Y-123477000D01*
X150992280Y-123375228D01*
X151114710Y-123252798D01*
X151216482Y-123112720D01*
X151295086Y-122958453D01*
X151348592Y-122793780D01*
X151375678Y-122622767D01*
X151375678Y-122186196D01*
X150575678Y-122186196D01*
X150575678Y-121686196D01*
X151375678Y-121686196D01*
X151375678Y-121249624D01*
X151348592Y-121078611D01*
X151295086Y-120913938D01*
X151216482Y-120759671D01*
X151114710Y-120619593D01*
X150992280Y-120497163D01*
X150852202Y-120395391D01*
X150697935Y-120316787D01*
X150533267Y-120263283D01*
X150533259Y-120263281D01*
X150525678Y-120262080D01*
X150525678Y-121219207D01*
X150515738Y-121201991D01*
X150459883Y-121146136D01*
X150391474Y-121106640D01*
X150315174Y-121086196D01*
X150236182Y-121086196D01*
X150159882Y-121106640D01*
X150091473Y-121146136D01*
X150035618Y-121201991D01*
X150025678Y-121219207D01*
X150025678Y-120262080D01*
X150025677Y-120262080D01*
X150018096Y-120263281D01*
X150018088Y-120263283D01*
X149853420Y-120316787D01*
X149699153Y-120395391D01*
X149559075Y-120497163D01*
X149436645Y-120619593D01*
X149334873Y-120759671D01*
X149256269Y-120913938D01*
X149202763Y-121078611D01*
X149175678Y-121249624D01*
X134875678Y-121249624D01*
X134848592Y-121078611D01*
X134795086Y-120913938D01*
X134716482Y-120759671D01*
X134614710Y-120619593D01*
X134492280Y-120497163D01*
X134352202Y-120395391D01*
X134197935Y-120316787D01*
X134033267Y-120263283D01*
X134033259Y-120263281D01*
X134025678Y-120262080D01*
X134025678Y-121219207D01*
X134015738Y-121201991D01*
X133959883Y-121146136D01*
X133891474Y-121106640D01*
X133815174Y-121086196D01*
X133736182Y-121086196D01*
X133659882Y-121106640D01*
X133591473Y-121146136D01*
X133535618Y-121201991D01*
X133525678Y-121219207D01*
X133525678Y-120262080D01*
X133525677Y-120262080D01*
X133518096Y-120263281D01*
X133518088Y-120263283D01*
X133353420Y-120316787D01*
X133199153Y-120395391D01*
X133059075Y-120497163D01*
X132936645Y-120619593D01*
X132834873Y-120759671D01*
X132756269Y-120913938D01*
X132702763Y-121078611D01*
X132675678Y-121249624D01*
X131958034Y-121249624D01*
X131996392Y-121183186D01*
X132030500Y-121055892D01*
X132030500Y-120924108D01*
X131996392Y-120796814D01*
X131930500Y-120682686D01*
X131900495Y-120652681D01*
X131867010Y-120591358D01*
X131871994Y-120521666D01*
X131900495Y-120477319D01*
X131930500Y-120447314D01*
X131996392Y-120333186D01*
X132030500Y-120205892D01*
X132030500Y-120074108D01*
X131996392Y-119946814D01*
X131930500Y-119832686D01*
X131900495Y-119802681D01*
X131867010Y-119741358D01*
X131871994Y-119671666D01*
X131900495Y-119627319D01*
X131930500Y-119597314D01*
X131996392Y-119483186D01*
X132030500Y-119355892D01*
X132030500Y-119224108D01*
X131996392Y-119096814D01*
X131930500Y-118982686D01*
X131900495Y-118952681D01*
X131867010Y-118891358D01*
X131871994Y-118821666D01*
X131900495Y-118777319D01*
X131930500Y-118747314D01*
X131996392Y-118633186D01*
X132030500Y-118505892D01*
X132030500Y-118374108D01*
X131996392Y-118246814D01*
X131930500Y-118132686D01*
X131837314Y-118039500D01*
X131832733Y-118036855D01*
X131784521Y-117986286D01*
X131771301Y-117917679D01*
X131772260Y-117910111D01*
X131780500Y-117858092D01*
X131780500Y-117740000D01*
X131780500Y-117674108D01*
X131780500Y-114361748D01*
X132575678Y-114361748D01*
X132575678Y-114906196D01*
X133475678Y-114906196D01*
X133475678Y-115406196D01*
X132575678Y-115406196D01*
X132575678Y-115950643D01*
X132605226Y-116137198D01*
X132663592Y-116316833D01*
X132749348Y-116485136D01*
X132860363Y-116637937D01*
X132860367Y-116637942D01*
X132993931Y-116771506D01*
X132993936Y-116771510D01*
X133146737Y-116882525D01*
X133315040Y-116968281D01*
X133494675Y-117026647D01*
X133525678Y-117031558D01*
X133525678Y-116123184D01*
X133535618Y-116140401D01*
X133591473Y-116196256D01*
X133659882Y-116235752D01*
X133736182Y-116256196D01*
X133815174Y-116256196D01*
X133891474Y-116235752D01*
X133959883Y-116196256D01*
X134015738Y-116140401D01*
X134025678Y-116123184D01*
X134025678Y-117031557D01*
X134056680Y-117026647D01*
X134236315Y-116968281D01*
X134404618Y-116882525D01*
X134557419Y-116771510D01*
X134557424Y-116771506D01*
X134690988Y-116637942D01*
X134690992Y-116637937D01*
X134802007Y-116485136D01*
X134887763Y-116316833D01*
X134946129Y-116137198D01*
X134975678Y-115950643D01*
X134975678Y-115406196D01*
X134075678Y-115406196D01*
X134075678Y-114906196D01*
X134975678Y-114906196D01*
X134975678Y-114361748D01*
X149075678Y-114361748D01*
X149075678Y-114906196D01*
X149975678Y-114906196D01*
X149975678Y-115406196D01*
X149075678Y-115406196D01*
X149075678Y-115950643D01*
X149105226Y-116137198D01*
X149163592Y-116316833D01*
X149249348Y-116485136D01*
X149360363Y-116637937D01*
X149360367Y-116637942D01*
X149493931Y-116771506D01*
X149493936Y-116771510D01*
X149646737Y-116882525D01*
X149815040Y-116968281D01*
X149994675Y-117026647D01*
X150025678Y-117031558D01*
X150025678Y-116123184D01*
X150035618Y-116140401D01*
X150091473Y-116196256D01*
X150159882Y-116235752D01*
X150236182Y-116256196D01*
X150315174Y-116256196D01*
X150391474Y-116235752D01*
X150459883Y-116196256D01*
X150515738Y-116140401D01*
X150525678Y-116123184D01*
X150525678Y-117031557D01*
X150556680Y-117026647D01*
X150736315Y-116968281D01*
X150904618Y-116882525D01*
X151057419Y-116771510D01*
X151057424Y-116771506D01*
X151190988Y-116637942D01*
X151190992Y-116637937D01*
X151302007Y-116485136D01*
X151387763Y-116316833D01*
X151446129Y-116137198D01*
X151475678Y-115950643D01*
X151475678Y-115406196D01*
X150575678Y-115406196D01*
X150575678Y-114906196D01*
X151475678Y-114906196D01*
X151475678Y-114361748D01*
X151446129Y-114175193D01*
X151387763Y-113995558D01*
X151386865Y-113993795D01*
X151359878Y-113940831D01*
X156150178Y-113940831D01*
X156150178Y-116886566D01*
X156150179Y-116886572D01*
X156156586Y-116946179D01*
X156206880Y-117081024D01*
X156206884Y-117081031D01*
X156293130Y-117196240D01*
X156293133Y-117196243D01*
X156408342Y-117282489D01*
X156408349Y-117282493D01*
X156543195Y-117332787D01*
X156543194Y-117332787D01*
X156550122Y-117333531D01*
X156602805Y-117339196D01*
X159548550Y-117339195D01*
X159608161Y-117332787D01*
X159743009Y-117282492D01*
X159858224Y-117196242D01*
X159944474Y-117081027D01*
X159994769Y-116946179D01*
X160001178Y-116886569D01*
X160001177Y-115287517D01*
X161150678Y-115287517D01*
X161150678Y-115539874D01*
X161183616Y-115790049D01*
X161248926Y-116033793D01*
X161345488Y-116266916D01*
X161345495Y-116266931D01*
X161471664Y-116485462D01*
X161549247Y-116586571D01*
X161549248Y-116586571D01*
X162249152Y-115886667D01*
X162337765Y-116019286D01*
X162470088Y-116151609D01*
X162602705Y-116240221D01*
X161902801Y-116940124D01*
X161902801Y-116940125D01*
X162003911Y-117017709D01*
X162222442Y-117143878D01*
X162222457Y-117143885D01*
X162455580Y-117240447D01*
X162699324Y-117305757D01*
X162949499Y-117338695D01*
X162949514Y-117338696D01*
X163201842Y-117338696D01*
X163201856Y-117338695D01*
X163452031Y-117305757D01*
X163695775Y-117240447D01*
X163928898Y-117143885D01*
X163928912Y-117143878D01*
X164147445Y-117017708D01*
X164248553Y-116940124D01*
X163548650Y-116240221D01*
X163681268Y-116151609D01*
X163813591Y-116019286D01*
X163902203Y-115886668D01*
X164602106Y-116586571D01*
X164679690Y-116485463D01*
X164805860Y-116266930D01*
X164805867Y-116266916D01*
X164902429Y-116033793D01*
X164913673Y-115991831D01*
X165821178Y-115991831D01*
X165821178Y-117295566D01*
X165821179Y-117295572D01*
X165827586Y-117355179D01*
X165877880Y-117490024D01*
X165877882Y-117490027D01*
X165937289Y-117569385D01*
X165961706Y-117634850D01*
X165946854Y-117703123D01*
X165937289Y-117718007D01*
X165877882Y-117797364D01*
X165877880Y-117797367D01*
X165827586Y-117932213D01*
X165821773Y-117986286D01*
X165821179Y-117991819D01*
X165821178Y-117991831D01*
X165821178Y-119295566D01*
X165821179Y-119295572D01*
X165827586Y-119355179D01*
X165877880Y-119490024D01*
X165877884Y-119490031D01*
X165964130Y-119605240D01*
X165964133Y-119605243D01*
X166079342Y-119691489D01*
X166079349Y-119691493D01*
X166214195Y-119741787D01*
X166214194Y-119741787D01*
X166221122Y-119742531D01*
X166273805Y-119748196D01*
X167577550Y-119748195D01*
X167637161Y-119741787D01*
X167772009Y-119691492D01*
X167887224Y-119605242D01*
X167973474Y-119490027D01*
X168023769Y-119355179D01*
X168030178Y-119295569D01*
X168030177Y-117991824D01*
X168023769Y-117932213D01*
X168018348Y-117917679D01*
X167973475Y-117797367D01*
X167973471Y-117797360D01*
X167914067Y-117718007D01*
X167889649Y-117652543D01*
X167904500Y-117584270D01*
X167914067Y-117569385D01*
X167973471Y-117490031D01*
X167973470Y-117490031D01*
X167973474Y-117490027D01*
X168023769Y-117355179D01*
X168030178Y-117295569D01*
X168030177Y-115991824D01*
X168023769Y-115932213D01*
X167973474Y-115797365D01*
X167973473Y-115797364D01*
X167973471Y-115797360D01*
X167887225Y-115682151D01*
X167887222Y-115682148D01*
X167772013Y-115595902D01*
X167772006Y-115595898D01*
X167637160Y-115545604D01*
X167637161Y-115545604D01*
X167577561Y-115539197D01*
X167577559Y-115539196D01*
X167577551Y-115539196D01*
X167577542Y-115539196D01*
X166273807Y-115539196D01*
X166273801Y-115539197D01*
X166214194Y-115545604D01*
X166079349Y-115595898D01*
X166079342Y-115595902D01*
X165964133Y-115682148D01*
X165964130Y-115682151D01*
X165877884Y-115797360D01*
X165877880Y-115797367D01*
X165827586Y-115932213D01*
X165821179Y-115991812D01*
X165821179Y-115991819D01*
X165821178Y-115991831D01*
X164913673Y-115991831D01*
X164923164Y-115956409D01*
X164923164Y-115956408D01*
X164967740Y-115790047D01*
X165000677Y-115539874D01*
X165000678Y-115539860D01*
X165000678Y-115287531D01*
X165000677Y-115287517D01*
X164967739Y-115037342D01*
X164902429Y-114793598D01*
X164805867Y-114560475D01*
X164805860Y-114560460D01*
X164679691Y-114341929D01*
X164602107Y-114240819D01*
X164602106Y-114240819D01*
X163902202Y-114940722D01*
X163813591Y-114808106D01*
X163681268Y-114675783D01*
X163548649Y-114587169D01*
X164248553Y-113887266D01*
X164248553Y-113887265D01*
X164147444Y-113809682D01*
X163928913Y-113683513D01*
X163928898Y-113683506D01*
X163695775Y-113586944D01*
X163452031Y-113521634D01*
X163201856Y-113488696D01*
X162949499Y-113488696D01*
X162699324Y-113521634D01*
X162455580Y-113586944D01*
X162222457Y-113683506D01*
X162222442Y-113683513D01*
X162003920Y-113809676D01*
X162003913Y-113809682D01*
X161902801Y-113887265D01*
X161902801Y-113887266D01*
X162602705Y-114587170D01*
X162470088Y-114675783D01*
X162337765Y-114808106D01*
X162249152Y-114940723D01*
X161549248Y-114240819D01*
X161549247Y-114240819D01*
X161471664Y-114341931D01*
X161471658Y-114341938D01*
X161345495Y-114560460D01*
X161345488Y-114560475D01*
X161248926Y-114793598D01*
X161183616Y-115037342D01*
X161150678Y-115287517D01*
X160001177Y-115287517D01*
X160001177Y-113940824D01*
X159994769Y-113881213D01*
X159968087Y-113809676D01*
X159944475Y-113746367D01*
X159944471Y-113746360D01*
X159858225Y-113631151D01*
X159858222Y-113631148D01*
X159743013Y-113544902D01*
X159743006Y-113544898D01*
X159608160Y-113494604D01*
X159608161Y-113494604D01*
X159548561Y-113488197D01*
X159548559Y-113488196D01*
X159548551Y-113488196D01*
X159548542Y-113488196D01*
X156602807Y-113488196D01*
X156602801Y-113488197D01*
X156543194Y-113494604D01*
X156408349Y-113544898D01*
X156408342Y-113544902D01*
X156293133Y-113631148D01*
X156293130Y-113631151D01*
X156206884Y-113746360D01*
X156206880Y-113746367D01*
X156156586Y-113881213D01*
X156150179Y-113940812D01*
X156150178Y-113940831D01*
X151359878Y-113940831D01*
X151302007Y-113827255D01*
X151190992Y-113674454D01*
X151190988Y-113674449D01*
X151057424Y-113540885D01*
X151057419Y-113540881D01*
X150904618Y-113429866D01*
X150736313Y-113344109D01*
X150556682Y-113285745D01*
X150556673Y-113285743D01*
X150525678Y-113280833D01*
X150525678Y-114189207D01*
X150515738Y-114171991D01*
X150459883Y-114116136D01*
X150391474Y-114076640D01*
X150315174Y-114056196D01*
X150236182Y-114056196D01*
X150159882Y-114076640D01*
X150091473Y-114116136D01*
X150035618Y-114171991D01*
X150025678Y-114189207D01*
X150025678Y-113280833D01*
X150025677Y-113280833D01*
X149994682Y-113285743D01*
X149994673Y-113285745D01*
X149815042Y-113344109D01*
X149646737Y-113429866D01*
X149493936Y-113540881D01*
X149493931Y-113540885D01*
X149360367Y-113674449D01*
X149360363Y-113674454D01*
X149249348Y-113827255D01*
X149163592Y-113995558D01*
X149105226Y-114175193D01*
X149075678Y-114361748D01*
X134975678Y-114361748D01*
X134946129Y-114175193D01*
X134887763Y-113995558D01*
X134802007Y-113827255D01*
X134690992Y-113674454D01*
X134690988Y-113674449D01*
X134557424Y-113540885D01*
X134557419Y-113540881D01*
X134404618Y-113429866D01*
X134236313Y-113344109D01*
X134056682Y-113285745D01*
X134056673Y-113285743D01*
X134025678Y-113280833D01*
X134025678Y-114189207D01*
X134015738Y-114171991D01*
X133959883Y-114116136D01*
X133891474Y-114076640D01*
X133815174Y-114056196D01*
X133736182Y-114056196D01*
X133659882Y-114076640D01*
X133591473Y-114116136D01*
X133535618Y-114171991D01*
X133525678Y-114189207D01*
X133525678Y-113280833D01*
X133525677Y-113280833D01*
X133494682Y-113285743D01*
X133494673Y-113285745D01*
X133315042Y-113344109D01*
X133146737Y-113429866D01*
X132993936Y-113540881D01*
X132993931Y-113540885D01*
X132860367Y-113674449D01*
X132860363Y-113674454D01*
X132749348Y-113827255D01*
X132663592Y-113995558D01*
X132605226Y-114175193D01*
X132575678Y-114361748D01*
X131780500Y-114361748D01*
X131780500Y-110484849D01*
X137225178Y-110484849D01*
X137225178Y-110642542D01*
X137255939Y-110797185D01*
X137255942Y-110797197D01*
X137316280Y-110942868D01*
X137316287Y-110942881D01*
X137403888Y-111073984D01*
X137403891Y-111073988D01*
X137515385Y-111185482D01*
X137515389Y-111185485D01*
X137646492Y-111273086D01*
X137646505Y-111273093D01*
X137792176Y-111333431D01*
X137792181Y-111333433D01*
X137946831Y-111364195D01*
X137946834Y-111364196D01*
X137946836Y-111364196D01*
X138104522Y-111364196D01*
X138104523Y-111364195D01*
X138259175Y-111333433D01*
X138404857Y-111273090D01*
X138535967Y-111185485D01*
X138647467Y-111073985D01*
X138735072Y-110942875D01*
X138795415Y-110797193D01*
X138826178Y-110642538D01*
X138826178Y-110484854D01*
X138826178Y-110484851D01*
X138826177Y-110484849D01*
X138795416Y-110330206D01*
X138795415Y-110330199D01*
X138795413Y-110330194D01*
X138735075Y-110184523D01*
X138735068Y-110184510D01*
X138647467Y-110053407D01*
X138647464Y-110053403D01*
X138535970Y-109941909D01*
X138535966Y-109941906D01*
X138404863Y-109854305D01*
X138404850Y-109854298D01*
X138259179Y-109793960D01*
X138259167Y-109793957D01*
X138104523Y-109763196D01*
X138104520Y-109763196D01*
X137946836Y-109763196D01*
X137946833Y-109763196D01*
X137792188Y-109793957D01*
X137792176Y-109793960D01*
X137646505Y-109854298D01*
X137646492Y-109854305D01*
X137515389Y-109941906D01*
X137515385Y-109941909D01*
X137403891Y-110053403D01*
X137403888Y-110053407D01*
X137316287Y-110184510D01*
X137316280Y-110184523D01*
X137255942Y-110330194D01*
X137255939Y-110330206D01*
X137225178Y-110484849D01*
X131780500Y-110484849D01*
X131780500Y-108396153D01*
X137554500Y-108396153D01*
X137554500Y-108553846D01*
X137585261Y-108708489D01*
X137585264Y-108708501D01*
X137645602Y-108854172D01*
X137645609Y-108854185D01*
X137733210Y-108985288D01*
X137733213Y-108985292D01*
X137844707Y-109096786D01*
X137844711Y-109096789D01*
X137975814Y-109184390D01*
X137975827Y-109184397D01*
X138121498Y-109244735D01*
X138121503Y-109244737D01*
X138276153Y-109275499D01*
X138276156Y-109275500D01*
X138276158Y-109275500D01*
X138433844Y-109275500D01*
X138433845Y-109275499D01*
X138588497Y-109244737D01*
X138734179Y-109184394D01*
X138865289Y-109096789D01*
X138976789Y-108985289D01*
X139064394Y-108854179D01*
X139124737Y-108708497D01*
X139155500Y-108553842D01*
X139155500Y-108396158D01*
X139155500Y-108396155D01*
X139155499Y-108396153D01*
X139124738Y-108241510D01*
X139124737Y-108241503D01*
X139124735Y-108241498D01*
X139064397Y-108095827D01*
X139064390Y-108095814D01*
X138976789Y-107964711D01*
X138976786Y-107964707D01*
X138865292Y-107853213D01*
X138865288Y-107853210D01*
X138734185Y-107765609D01*
X138734172Y-107765602D01*
X138588501Y-107705264D01*
X138588489Y-107705261D01*
X138433845Y-107674500D01*
X138433842Y-107674500D01*
X138276158Y-107674500D01*
X138276155Y-107674500D01*
X138121510Y-107705261D01*
X138121498Y-107705264D01*
X137975827Y-107765602D01*
X137975814Y-107765609D01*
X137844711Y-107853210D01*
X137844707Y-107853213D01*
X137733213Y-107964707D01*
X137733210Y-107964711D01*
X137645609Y-108095814D01*
X137645602Y-108095827D01*
X137585264Y-108241498D01*
X137585261Y-108241510D01*
X137554500Y-108396153D01*
X131780500Y-108396153D01*
X131780500Y-104174108D01*
X131780500Y-104121908D01*
X131772266Y-104069923D01*
X131781220Y-104000634D01*
X131826216Y-103947181D01*
X131832732Y-103943145D01*
X131837314Y-103940500D01*
X131930500Y-103847314D01*
X131996392Y-103733186D01*
X132030500Y-103605892D01*
X132030500Y-103474108D01*
X131996392Y-103346814D01*
X131930500Y-103232686D01*
X131900495Y-103202681D01*
X131867010Y-103141358D01*
X131871994Y-103071666D01*
X131900495Y-103027319D01*
X131911616Y-103016198D01*
X131930500Y-102997314D01*
X131996392Y-102883186D01*
X132030500Y-102755892D01*
X132030500Y-102624108D01*
X131996392Y-102496814D01*
X131930500Y-102382686D01*
X131900495Y-102352681D01*
X131867010Y-102291358D01*
X131871994Y-102221666D01*
X131900495Y-102177319D01*
X131930500Y-102147314D01*
X131996392Y-102033186D01*
X132030500Y-101905892D01*
X132030500Y-101774108D01*
X131996392Y-101646814D01*
X131930500Y-101532686D01*
X131900495Y-101502681D01*
X131867010Y-101441358D01*
X131871994Y-101371666D01*
X131900495Y-101327319D01*
X131930500Y-101297314D01*
X131996392Y-101183186D01*
X132030500Y-101055892D01*
X132030500Y-100924108D01*
X131996392Y-100796814D01*
X131930500Y-100682686D01*
X131900495Y-100652681D01*
X131867010Y-100591358D01*
X131871994Y-100521666D01*
X131900495Y-100477319D01*
X131930500Y-100447314D01*
X131996392Y-100333186D01*
X132030500Y-100205892D01*
X132030500Y-100074108D01*
X131996392Y-99946814D01*
X131930500Y-99832686D01*
X131900495Y-99802681D01*
X131867010Y-99741358D01*
X131871994Y-99671666D01*
X131874013Y-99667616D01*
X146865177Y-99667616D01*
X146894018Y-99812603D01*
X146894021Y-99812613D01*
X146950590Y-99949184D01*
X146950597Y-99949197D01*
X147032726Y-100072111D01*
X147032729Y-100072115D01*
X147137258Y-100176644D01*
X147137262Y-100176647D01*
X147260176Y-100258776D01*
X147260189Y-100258783D01*
X147396760Y-100315352D01*
X147396765Y-100315354D01*
X147396769Y-100315354D01*
X147396770Y-100315355D01*
X147541757Y-100344196D01*
X147541760Y-100344196D01*
X147689598Y-100344196D01*
X147787140Y-100324792D01*
X147834591Y-100315354D01*
X147971173Y-100258780D01*
X148094094Y-100176647D01*
X148198629Y-100072112D01*
X148280762Y-99949191D01*
X148281748Y-99946812D01*
X148337334Y-99812613D01*
X148337336Y-99812609D01*
X148366178Y-99667616D01*
X150615177Y-99667616D01*
X150644018Y-99812603D01*
X150644021Y-99812613D01*
X150700590Y-99949184D01*
X150700597Y-99949197D01*
X150782726Y-100072111D01*
X150782729Y-100072115D01*
X150887258Y-100176644D01*
X150887262Y-100176647D01*
X151010176Y-100258776D01*
X151010189Y-100258783D01*
X151146760Y-100315352D01*
X151146765Y-100315354D01*
X151146769Y-100315354D01*
X151146770Y-100315355D01*
X151291757Y-100344196D01*
X151291760Y-100344196D01*
X151439598Y-100344196D01*
X151537140Y-100324792D01*
X151584591Y-100315354D01*
X151721173Y-100258780D01*
X151844094Y-100176647D01*
X151948629Y-100072112D01*
X152030762Y-99949191D01*
X152031748Y-99946812D01*
X152087334Y-99812613D01*
X152087336Y-99812609D01*
X152116178Y-99667616D01*
X152883177Y-99667616D01*
X152912018Y-99812603D01*
X152912021Y-99812613D01*
X152968590Y-99949184D01*
X152968597Y-99949197D01*
X153050726Y-100072111D01*
X153050729Y-100072115D01*
X153155258Y-100176644D01*
X153155262Y-100176647D01*
X153278176Y-100258776D01*
X153278189Y-100258783D01*
X153414760Y-100315352D01*
X153414765Y-100315354D01*
X153414769Y-100315354D01*
X153414770Y-100315355D01*
X153559757Y-100344196D01*
X153559760Y-100344196D01*
X153707598Y-100344196D01*
X153805140Y-100324792D01*
X153852591Y-100315354D01*
X153989173Y-100258780D01*
X153989179Y-100258776D01*
X154046787Y-100220284D01*
X154113464Y-100199406D01*
X154180845Y-100217890D01*
X154184569Y-100220284D01*
X154242176Y-100258776D01*
X154242189Y-100258783D01*
X154378760Y-100315352D01*
X154378765Y-100315354D01*
X154378769Y-100315354D01*
X154378770Y-100315355D01*
X154523757Y-100344196D01*
X154523760Y-100344196D01*
X154671598Y-100344196D01*
X154769140Y-100324792D01*
X154816591Y-100315354D01*
X154953173Y-100258780D01*
X155076094Y-100176647D01*
X155180629Y-100072112D01*
X155262762Y-99949191D01*
X155263748Y-99946812D01*
X155319334Y-99812613D01*
X155319336Y-99812609D01*
X155348178Y-99667616D01*
X155865177Y-99667616D01*
X155894018Y-99812603D01*
X155894021Y-99812613D01*
X155950590Y-99949184D01*
X155950597Y-99949197D01*
X156032726Y-100072111D01*
X156032729Y-100072115D01*
X156137258Y-100176644D01*
X156137262Y-100176647D01*
X156260176Y-100258776D01*
X156260189Y-100258783D01*
X156396760Y-100315352D01*
X156396765Y-100315354D01*
X156396769Y-100315354D01*
X156396770Y-100315355D01*
X156541757Y-100344196D01*
X156541760Y-100344196D01*
X156689598Y-100344196D01*
X156787140Y-100324792D01*
X156834591Y-100315354D01*
X156971173Y-100258780D01*
X157094094Y-100176647D01*
X157198629Y-100072112D01*
X157280762Y-99949191D01*
X157281748Y-99946812D01*
X157337334Y-99812613D01*
X157337336Y-99812609D01*
X157366178Y-99667614D01*
X157366178Y-99519778D01*
X157366178Y-99519775D01*
X157337337Y-99374788D01*
X157337336Y-99374787D01*
X157337336Y-99374783D01*
X157293598Y-99269190D01*
X157280765Y-99238207D01*
X157280758Y-99238194D01*
X157198629Y-99115280D01*
X157198626Y-99115276D01*
X157094097Y-99010747D01*
X157094093Y-99010744D01*
X156971179Y-98928615D01*
X156971166Y-98928608D01*
X156834595Y-98872039D01*
X156834585Y-98872036D01*
X156689598Y-98843196D01*
X156689596Y-98843196D01*
X156541760Y-98843196D01*
X156541758Y-98843196D01*
X156396770Y-98872036D01*
X156396760Y-98872039D01*
X156260189Y-98928608D01*
X156260176Y-98928615D01*
X156137262Y-99010744D01*
X156137258Y-99010747D01*
X156032729Y-99115276D01*
X156032726Y-99115280D01*
X155950597Y-99238194D01*
X155950590Y-99238207D01*
X155894021Y-99374778D01*
X155894018Y-99374788D01*
X155865178Y-99519775D01*
X155865178Y-99519778D01*
X155865178Y-99667614D01*
X155865178Y-99667616D01*
X155865177Y-99667616D01*
X155348178Y-99667616D01*
X155348178Y-99667614D01*
X155348178Y-99519778D01*
X155348178Y-99519775D01*
X155319337Y-99374788D01*
X155319336Y-99374787D01*
X155319336Y-99374783D01*
X155275598Y-99269190D01*
X155262765Y-99238207D01*
X155262758Y-99238194D01*
X155180629Y-99115280D01*
X155180626Y-99115276D01*
X155076097Y-99010747D01*
X155076093Y-99010744D01*
X154953179Y-98928615D01*
X154953166Y-98928608D01*
X154816595Y-98872039D01*
X154816585Y-98872036D01*
X154671598Y-98843196D01*
X154671596Y-98843196D01*
X154523760Y-98843196D01*
X154523758Y-98843196D01*
X154378770Y-98872036D01*
X154378760Y-98872039D01*
X154242189Y-98928608D01*
X154242178Y-98928614D01*
X154184568Y-98967108D01*
X154117890Y-98987985D01*
X154050510Y-98969500D01*
X154046788Y-98967108D01*
X153989177Y-98928614D01*
X153989166Y-98928608D01*
X153852595Y-98872039D01*
X153852585Y-98872036D01*
X153707598Y-98843196D01*
X153707596Y-98843196D01*
X153559760Y-98843196D01*
X153559758Y-98843196D01*
X153414770Y-98872036D01*
X153414760Y-98872039D01*
X153278189Y-98928608D01*
X153278176Y-98928615D01*
X153155262Y-99010744D01*
X153155258Y-99010747D01*
X153050729Y-99115276D01*
X153050726Y-99115280D01*
X152968597Y-99238194D01*
X152968590Y-99238207D01*
X152912021Y-99374778D01*
X152912018Y-99374788D01*
X152883178Y-99519775D01*
X152883178Y-99519778D01*
X152883178Y-99667614D01*
X152883178Y-99667616D01*
X152883177Y-99667616D01*
X152116178Y-99667616D01*
X152116178Y-99667614D01*
X152116178Y-99519778D01*
X152116178Y-99519775D01*
X152087337Y-99374788D01*
X152087336Y-99374787D01*
X152087336Y-99374783D01*
X152043598Y-99269190D01*
X152030765Y-99238207D01*
X152030758Y-99238194D01*
X151948629Y-99115280D01*
X151948626Y-99115276D01*
X151844097Y-99010747D01*
X151844093Y-99010744D01*
X151721179Y-98928615D01*
X151721166Y-98928608D01*
X151584595Y-98872039D01*
X151584585Y-98872036D01*
X151439598Y-98843196D01*
X151439596Y-98843196D01*
X151291760Y-98843196D01*
X151291758Y-98843196D01*
X151146770Y-98872036D01*
X151146760Y-98872039D01*
X151010189Y-98928608D01*
X151010176Y-98928615D01*
X150887262Y-99010744D01*
X150887258Y-99010747D01*
X150782729Y-99115276D01*
X150782726Y-99115280D01*
X150700597Y-99238194D01*
X150700590Y-99238207D01*
X150644021Y-99374778D01*
X150644018Y-99374788D01*
X150615178Y-99519775D01*
X150615178Y-99519778D01*
X150615178Y-99667614D01*
X150615178Y-99667616D01*
X150615177Y-99667616D01*
X148366178Y-99667616D01*
X148366178Y-99667614D01*
X148366178Y-99519778D01*
X148366178Y-99519775D01*
X148337337Y-99374788D01*
X148337336Y-99374787D01*
X148337336Y-99374783D01*
X148293598Y-99269190D01*
X148280765Y-99238207D01*
X148280758Y-99238194D01*
X148198629Y-99115280D01*
X148198626Y-99115276D01*
X148094097Y-99010747D01*
X148094093Y-99010744D01*
X147971179Y-98928615D01*
X147971166Y-98928608D01*
X147834595Y-98872039D01*
X147834585Y-98872036D01*
X147689598Y-98843196D01*
X147689596Y-98843196D01*
X147541760Y-98843196D01*
X147541758Y-98843196D01*
X147396770Y-98872036D01*
X147396760Y-98872039D01*
X147260189Y-98928608D01*
X147260176Y-98928615D01*
X147137262Y-99010744D01*
X147137258Y-99010747D01*
X147032729Y-99115276D01*
X147032726Y-99115280D01*
X146950597Y-99238194D01*
X146950590Y-99238207D01*
X146894021Y-99374778D01*
X146894018Y-99374788D01*
X146865178Y-99519775D01*
X146865178Y-99519778D01*
X146865178Y-99667614D01*
X146865178Y-99667616D01*
X146865177Y-99667616D01*
X131874013Y-99667616D01*
X131883635Y-99648314D01*
X131890919Y-99636894D01*
X131930500Y-99597314D01*
X131996392Y-99483186D01*
X132030500Y-99355892D01*
X132030500Y-99224108D01*
X131996392Y-99096814D01*
X131930500Y-98982686D01*
X131900495Y-98952681D01*
X131867010Y-98891358D01*
X131871994Y-98821666D01*
X131900495Y-98777319D01*
X131930500Y-98747314D01*
X131996392Y-98633186D01*
X132030500Y-98505892D01*
X132030500Y-98374108D01*
X131996392Y-98246814D01*
X131930500Y-98132686D01*
X131837314Y-98039500D01*
X131832733Y-98036855D01*
X131822247Y-98025856D01*
X131808772Y-98018834D01*
X131798627Y-98001082D01*
X131784521Y-97986286D01*
X131781107Y-97970422D01*
X131774106Y-97958171D01*
X131773162Y-97933502D01*
X131770907Y-97923022D01*
X131771245Y-97916522D01*
X131780500Y-97858092D01*
X131780500Y-97741647D01*
X131785335Y-97030450D01*
X131785823Y-97023413D01*
X131785824Y-97019427D01*
X131785825Y-97019425D01*
X131785844Y-96960492D01*
X131786628Y-96946617D01*
X131796834Y-96856292D01*
X131803015Y-96829244D01*
X131830750Y-96750053D01*
X131842792Y-96725063D01*
X131887445Y-96654036D01*
X131904755Y-96632341D01*
X131964085Y-96573033D01*
X131985785Y-96555733D01*
X132056833Y-96511104D01*
X132081830Y-96499070D01*
X132161030Y-96471367D01*
X132188075Y-96465197D01*
X132278861Y-96454974D01*
X132292729Y-96454196D01*
X132351216Y-96454199D01*
X132351220Y-96454197D01*
X132359455Y-96454198D01*
X132359500Y-96454196D01*
X161645195Y-96454196D01*
X163375790Y-96454196D01*
X163375797Y-96454198D01*
G37*
%TD.AperFunction*%
%TD*%
%TA.AperFunction,Conductor*%
%TO.N,GND*%
G36*
X128214193Y-96990502D02*
G01*
X128273125Y-96990500D01*
X128286999Y-96991278D01*
X128377352Y-97001456D01*
X128404419Y-97007633D01*
X128444019Y-97021488D01*
X128483618Y-97035343D01*
X128508634Y-97047389D01*
X128579685Y-97092028D01*
X128601391Y-97109335D01*
X128660731Y-97168670D01*
X128678040Y-97190373D01*
X128722687Y-97261419D01*
X128734736Y-97286435D01*
X128762454Y-97365633D01*
X128768634Y-97392704D01*
X128778788Y-97482772D01*
X128779569Y-97496698D01*
X128779521Y-97665969D01*
X128779519Y-97674036D01*
X128779500Y-97674108D01*
X128779500Y-97739908D01*
X128779500Y-97739978D01*
X128779479Y-97813791D01*
X128779500Y-97814106D01*
X128779500Y-97858097D01*
X128787732Y-97910074D01*
X128778777Y-97979367D01*
X128733781Y-98032819D01*
X128727268Y-98036853D01*
X128722691Y-98039495D01*
X128722686Y-98039499D01*
X128629500Y-98132686D01*
X128563608Y-98246812D01*
X128529500Y-98374108D01*
X128529500Y-98505891D01*
X128563608Y-98633187D01*
X128596554Y-98690250D01*
X128629500Y-98747314D01*
X128629502Y-98747316D01*
X128659505Y-98777319D01*
X128692990Y-98838642D01*
X128688006Y-98908334D01*
X128659505Y-98952681D01*
X128629502Y-98982683D01*
X128629500Y-98982686D01*
X128563608Y-99096812D01*
X128529500Y-99224108D01*
X128529500Y-99355891D01*
X128563608Y-99483187D01*
X128581611Y-99514368D01*
X128629500Y-99597314D01*
X128629502Y-99597316D01*
X128659505Y-99627319D01*
X128692990Y-99688642D01*
X128688006Y-99758334D01*
X128659505Y-99802681D01*
X128629502Y-99832683D01*
X128629500Y-99832686D01*
X128563608Y-99946812D01*
X128529500Y-100074108D01*
X128529500Y-100205891D01*
X128563608Y-100333187D01*
X128568401Y-100341488D01*
X128629500Y-100447314D01*
X128629502Y-100447316D01*
X128659505Y-100477319D01*
X128692990Y-100538642D01*
X128688006Y-100608334D01*
X128659505Y-100652681D01*
X128629502Y-100682683D01*
X128629500Y-100682686D01*
X128563608Y-100796812D01*
X128552468Y-100838389D01*
X128529500Y-100924108D01*
X128529500Y-101055892D01*
X128542452Y-101104230D01*
X128563608Y-101183187D01*
X128565895Y-101187148D01*
X128629500Y-101297314D01*
X128629502Y-101297316D01*
X128659505Y-101327319D01*
X128692990Y-101388642D01*
X128688006Y-101458334D01*
X128659505Y-101502681D01*
X128629502Y-101532683D01*
X128629500Y-101532686D01*
X128563608Y-101646812D01*
X128544163Y-101719385D01*
X128529500Y-101774108D01*
X128529500Y-101905892D01*
X128538776Y-101940512D01*
X128563608Y-102033187D01*
X128572989Y-102049435D01*
X128629500Y-102147314D01*
X128629502Y-102147316D01*
X128659505Y-102177319D01*
X128692990Y-102238642D01*
X128688006Y-102308334D01*
X128659505Y-102352681D01*
X128629502Y-102382683D01*
X128629500Y-102382686D01*
X128563608Y-102496812D01*
X128529500Y-102624108D01*
X128529500Y-102755891D01*
X128563608Y-102883187D01*
X128596554Y-102940250D01*
X128629500Y-102997314D01*
X128629502Y-102997316D01*
X128659505Y-103027319D01*
X128692990Y-103088642D01*
X128688006Y-103158334D01*
X128659505Y-103202681D01*
X128629502Y-103232683D01*
X128629500Y-103232686D01*
X128563608Y-103346812D01*
X128535004Y-103453567D01*
X128529500Y-103474108D01*
X128529500Y-103605892D01*
X128530157Y-103608343D01*
X128563608Y-103733187D01*
X128571613Y-103747051D01*
X128629500Y-103847314D01*
X128722686Y-103940500D01*
X128727259Y-103943140D01*
X128775474Y-103993706D01*
X128788698Y-104062312D01*
X128787733Y-104069924D01*
X128779500Y-104121908D01*
X128779500Y-117858097D01*
X128787732Y-117910074D01*
X128778777Y-117979367D01*
X128733781Y-118032819D01*
X128727268Y-118036853D01*
X128722691Y-118039495D01*
X128722686Y-118039499D01*
X128629500Y-118132686D01*
X128563608Y-118246812D01*
X128529500Y-118374108D01*
X128529500Y-118505891D01*
X128563608Y-118633187D01*
X128596554Y-118690250D01*
X128629500Y-118747314D01*
X128629502Y-118747316D01*
X128659505Y-118777319D01*
X128692990Y-118838642D01*
X128688006Y-118908334D01*
X128659505Y-118952681D01*
X128629502Y-118982683D01*
X128629500Y-118982686D01*
X128563608Y-119096812D01*
X128540783Y-119182000D01*
X128529500Y-119224108D01*
X128529500Y-119355892D01*
X128545709Y-119416385D01*
X128563608Y-119483187D01*
X128575328Y-119503486D01*
X128629500Y-119597314D01*
X128629502Y-119597316D01*
X128659505Y-119627319D01*
X128692990Y-119688642D01*
X128688006Y-119758334D01*
X128659505Y-119802681D01*
X128629502Y-119832683D01*
X128629500Y-119832686D01*
X128563608Y-119946812D01*
X128529500Y-120074108D01*
X128529500Y-120205891D01*
X128563608Y-120333187D01*
X128584624Y-120369587D01*
X128629500Y-120447314D01*
X128629502Y-120447316D01*
X128659505Y-120477319D01*
X128692990Y-120538642D01*
X128688006Y-120608334D01*
X128659505Y-120652681D01*
X128629502Y-120682683D01*
X128629500Y-120682686D01*
X128563608Y-120796812D01*
X128544014Y-120869940D01*
X128529500Y-120924108D01*
X128529500Y-121055892D01*
X128543328Y-121107499D01*
X128563608Y-121183187D01*
X128592760Y-121233678D01*
X128629500Y-121297314D01*
X128629502Y-121297316D01*
X128659505Y-121327319D01*
X128692990Y-121388642D01*
X128688006Y-121458334D01*
X128659505Y-121502681D01*
X128629502Y-121532683D01*
X128629500Y-121532686D01*
X128563608Y-121646812D01*
X128534148Y-121756760D01*
X128529500Y-121774108D01*
X128529500Y-121905892D01*
X128541152Y-121949379D01*
X128563608Y-122033187D01*
X128596554Y-122090250D01*
X128629500Y-122147314D01*
X128629502Y-122147316D01*
X128659505Y-122177319D01*
X128692990Y-122238642D01*
X128688006Y-122308334D01*
X128659505Y-122352681D01*
X128629502Y-122382683D01*
X128629500Y-122382686D01*
X128563608Y-122496812D01*
X128529500Y-122624108D01*
X128529500Y-122755891D01*
X128563608Y-122883187D01*
X128593090Y-122934251D01*
X128629500Y-122997314D01*
X128629502Y-122997316D01*
X128659505Y-123027319D01*
X128692990Y-123088642D01*
X128688006Y-123158334D01*
X128659505Y-123202681D01*
X128629502Y-123232683D01*
X128629500Y-123232686D01*
X128563608Y-123346812D01*
X128550180Y-123396927D01*
X128529500Y-123474108D01*
X128529500Y-123605892D01*
X128545072Y-123664008D01*
X128563608Y-123733187D01*
X128593731Y-123785361D01*
X128629500Y-123847314D01*
X128722686Y-123940500D01*
X128727259Y-123943140D01*
X128739103Y-123955562D01*
X128754062Y-123963982D01*
X128762714Y-123980324D01*
X128775474Y-123993706D01*
X128778875Y-124010847D01*
X128786755Y-124025731D01*
X128787373Y-124053679D01*
X128788819Y-124060965D01*
X128788438Y-124065471D01*
X128779500Y-124121908D01*
X128779500Y-124171269D01*
X128779477Y-124171542D01*
X128779500Y-124239325D01*
X128779500Y-124313638D01*
X128779523Y-124314003D01*
X128781980Y-131923505D01*
X128781201Y-131937425D01*
X128771024Y-132027769D01*
X128764846Y-132054839D01*
X128737130Y-132134056D01*
X128725084Y-132159073D01*
X128680438Y-132230134D01*
X128663127Y-132251844D01*
X128603785Y-132311192D01*
X128582078Y-132328505D01*
X128511017Y-132373162D01*
X128486000Y-132385211D01*
X128406788Y-132412934D01*
X128379720Y-132419114D01*
X128312228Y-132426724D01*
X128289668Y-132429268D01*
X128275777Y-132430049D01*
X89916960Y-132430049D01*
X89903078Y-132429269D01*
X89882390Y-132426938D01*
X89812728Y-132419089D01*
X89785658Y-132412911D01*
X89706445Y-132385194D01*
X89681429Y-132373147D01*
X89610375Y-132328503D01*
X89588666Y-132311191D01*
X89529323Y-132251851D01*
X89512014Y-132230148D01*
X89467361Y-132159089D01*
X89455314Y-132134075D01*
X89427595Y-132054869D01*
X89421415Y-132027798D01*
X89411280Y-131937877D01*
X89410500Y-131923989D01*
X89410500Y-128003428D01*
X108940000Y-128003428D01*
X108940000Y-128440000D01*
X109740000Y-128440000D01*
X109740000Y-128940000D01*
X108940000Y-128940000D01*
X108940000Y-129376571D01*
X108967085Y-129547584D01*
X109020591Y-129712257D01*
X109099195Y-129866524D01*
X109200967Y-130006602D01*
X109323397Y-130129032D01*
X109463475Y-130230804D01*
X109617744Y-130309408D01*
X109782415Y-130362914D01*
X109782414Y-130362914D01*
X109789999Y-130364115D01*
X109790000Y-130364114D01*
X109790000Y-129406988D01*
X109799940Y-129424205D01*
X109855795Y-129480060D01*
X109924204Y-129519556D01*
X110000504Y-129540000D01*
X110079496Y-129540000D01*
X110155796Y-129519556D01*
X110224205Y-129480060D01*
X110280060Y-129424205D01*
X110290000Y-129406988D01*
X110290000Y-130364115D01*
X110297584Y-130362914D01*
X110462255Y-130309408D01*
X110616524Y-130230804D01*
X110756602Y-130129032D01*
X110879032Y-130006602D01*
X110980804Y-129866524D01*
X111059408Y-129712257D01*
X111112914Y-129547584D01*
X111121024Y-129496379D01*
X117339500Y-129496379D01*
X117339500Y-129683620D01*
X117376025Y-129867243D01*
X117376027Y-129867251D01*
X117447676Y-130040228D01*
X117447681Y-130040237D01*
X117551697Y-130195907D01*
X117551700Y-130195911D01*
X117684088Y-130328299D01*
X117684092Y-130328302D01*
X117839762Y-130432318D01*
X117839768Y-130432321D01*
X117839769Y-130432322D01*
X118012749Y-130503973D01*
X118196379Y-130540499D01*
X118196383Y-130540500D01*
X118196384Y-130540500D01*
X118383617Y-130540500D01*
X118383618Y-130540499D01*
X118567251Y-130503973D01*
X118740231Y-130432322D01*
X118895908Y-130328302D01*
X119028302Y-130195908D01*
X119132322Y-130040231D01*
X119203973Y-129867251D01*
X119240500Y-129683616D01*
X119240500Y-129496384D01*
X119203973Y-129312749D01*
X119132322Y-129139769D01*
X119132321Y-129139768D01*
X119132318Y-129139762D01*
X119028302Y-128984092D01*
X119028299Y-128984088D01*
X118895911Y-128851700D01*
X118895907Y-128851697D01*
X118740237Y-128747681D01*
X118740228Y-128747676D01*
X118567251Y-128676027D01*
X118567243Y-128676025D01*
X118383620Y-128639500D01*
X118383616Y-128639500D01*
X118196384Y-128639500D01*
X118196379Y-128639500D01*
X118012756Y-128676025D01*
X118012748Y-128676027D01*
X117839771Y-128747676D01*
X117839762Y-128747681D01*
X117684092Y-128851697D01*
X117684088Y-128851700D01*
X117551700Y-128984088D01*
X117551697Y-128984092D01*
X117447681Y-129139762D01*
X117447676Y-129139771D01*
X117376027Y-129312748D01*
X117376025Y-129312756D01*
X117339500Y-129496379D01*
X111121024Y-129496379D01*
X111125061Y-129470894D01*
X111140000Y-129376571D01*
X111140000Y-128940000D01*
X110340000Y-128940000D01*
X110340000Y-128440000D01*
X111140000Y-128440000D01*
X111140000Y-128003428D01*
X125440000Y-128003428D01*
X125440000Y-128440000D01*
X126240000Y-128440000D01*
X126240000Y-128940000D01*
X125440000Y-128940000D01*
X125440000Y-129376571D01*
X125467085Y-129547584D01*
X125520591Y-129712257D01*
X125599195Y-129866524D01*
X125700967Y-130006602D01*
X125823397Y-130129032D01*
X125963475Y-130230804D01*
X126117744Y-130309408D01*
X126282415Y-130362914D01*
X126282414Y-130362914D01*
X126289999Y-130364115D01*
X126290000Y-130364114D01*
X126290000Y-129406988D01*
X126299940Y-129424205D01*
X126355795Y-129480060D01*
X126424204Y-129519556D01*
X126500504Y-129540000D01*
X126579496Y-129540000D01*
X126655796Y-129519556D01*
X126724205Y-129480060D01*
X126780060Y-129424205D01*
X126790000Y-129406988D01*
X126790000Y-130364115D01*
X126797584Y-130362914D01*
X126962255Y-130309408D01*
X127116524Y-130230804D01*
X127256602Y-130129032D01*
X127379032Y-130006602D01*
X127480804Y-129866524D01*
X127559408Y-129712257D01*
X127612914Y-129547584D01*
X127640000Y-129376571D01*
X127640000Y-128940000D01*
X126840000Y-128940000D01*
X126840000Y-128440000D01*
X127640000Y-128440000D01*
X127640000Y-128003428D01*
X127612914Y-127832415D01*
X127559408Y-127667742D01*
X127480804Y-127513475D01*
X127379032Y-127373397D01*
X127256602Y-127250967D01*
X127116524Y-127149195D01*
X126962257Y-127070591D01*
X126797589Y-127017087D01*
X126797581Y-127017085D01*
X126790000Y-127015884D01*
X126790000Y-127973011D01*
X126780060Y-127955795D01*
X126724205Y-127899940D01*
X126655796Y-127860444D01*
X126579496Y-127840000D01*
X126500504Y-127840000D01*
X126424204Y-127860444D01*
X126355795Y-127899940D01*
X126299940Y-127955795D01*
X126290000Y-127973011D01*
X126290000Y-127015884D01*
X126289999Y-127015884D01*
X126282418Y-127017085D01*
X126282410Y-127017087D01*
X126117742Y-127070591D01*
X125963475Y-127149195D01*
X125823397Y-127250967D01*
X125700967Y-127373397D01*
X125599195Y-127513475D01*
X125520591Y-127667742D01*
X125467085Y-127832415D01*
X125440000Y-128003428D01*
X111140000Y-128003428D01*
X111112914Y-127832415D01*
X111059408Y-127667742D01*
X110980804Y-127513475D01*
X110879032Y-127373397D01*
X110756602Y-127250967D01*
X110616524Y-127149195D01*
X110462257Y-127070591D01*
X110297589Y-127017087D01*
X110297581Y-127017085D01*
X110290000Y-127015884D01*
X110290000Y-127973011D01*
X110280060Y-127955795D01*
X110224205Y-127899940D01*
X110155796Y-127860444D01*
X110079496Y-127840000D01*
X110000504Y-127840000D01*
X109924204Y-127860444D01*
X109855795Y-127899940D01*
X109799940Y-127955795D01*
X109790000Y-127973011D01*
X109790000Y-127015884D01*
X109789999Y-127015884D01*
X109782418Y-127017085D01*
X109782410Y-127017087D01*
X109617742Y-127070591D01*
X109463475Y-127149195D01*
X109323397Y-127250967D01*
X109200967Y-127373397D01*
X109099195Y-127513475D01*
X109020591Y-127667742D01*
X108967085Y-127832415D01*
X108940000Y-128003428D01*
X89410500Y-128003428D01*
X89410500Y-119634635D01*
X91824500Y-119634635D01*
X91824500Y-122580370D01*
X91824501Y-122580376D01*
X91830908Y-122639983D01*
X91881202Y-122774828D01*
X91881206Y-122774835D01*
X91967452Y-122890044D01*
X91967455Y-122890047D01*
X92082664Y-122976293D01*
X92082671Y-122976297D01*
X92217517Y-123026591D01*
X92217516Y-123026591D01*
X92224288Y-123027319D01*
X92277127Y-123033000D01*
X95222872Y-123032999D01*
X95282483Y-123026591D01*
X95417331Y-122976296D01*
X95532546Y-122890046D01*
X95618796Y-122774831D01*
X95669091Y-122639983D01*
X95675500Y-122580373D01*
X95675499Y-120981321D01*
X96825000Y-120981321D01*
X96825000Y-121233678D01*
X96857938Y-121483853D01*
X96923248Y-121727597D01*
X97019810Y-121960720D01*
X97019817Y-121960735D01*
X97145986Y-122179266D01*
X97223569Y-122280375D01*
X97223570Y-122280375D01*
X97923474Y-121580471D01*
X98012087Y-121713090D01*
X98144410Y-121845413D01*
X98277027Y-121934025D01*
X97577123Y-122633928D01*
X97577123Y-122633929D01*
X97678233Y-122711513D01*
X97896764Y-122837682D01*
X97896779Y-122837689D01*
X98129902Y-122934251D01*
X98373646Y-122999561D01*
X98623821Y-123032499D01*
X98623836Y-123032500D01*
X98876164Y-123032500D01*
X98876178Y-123032499D01*
X99126353Y-122999561D01*
X99370097Y-122934251D01*
X99603220Y-122837689D01*
X99603234Y-122837682D01*
X99821767Y-122711512D01*
X99922875Y-122633928D01*
X99222972Y-121934025D01*
X99355590Y-121845413D01*
X99487913Y-121713090D01*
X99576525Y-121580472D01*
X100276428Y-122280375D01*
X100354012Y-122179267D01*
X100480182Y-121960734D01*
X100480189Y-121960720D01*
X100576751Y-121727597D01*
X100587995Y-121685635D01*
X101495500Y-121685635D01*
X101495500Y-122989370D01*
X101495501Y-122989376D01*
X101501908Y-123048983D01*
X101552202Y-123183828D01*
X101552204Y-123183831D01*
X101611611Y-123263189D01*
X101636028Y-123328654D01*
X101621176Y-123396927D01*
X101611611Y-123411811D01*
X101552204Y-123491168D01*
X101552202Y-123491171D01*
X101501908Y-123626017D01*
X101497824Y-123664008D01*
X101495501Y-123685623D01*
X101495500Y-123685635D01*
X101495500Y-124989370D01*
X101495501Y-124989376D01*
X101501908Y-125048983D01*
X101552202Y-125183828D01*
X101552206Y-125183835D01*
X101638452Y-125299044D01*
X101638455Y-125299047D01*
X101753664Y-125385293D01*
X101753671Y-125385297D01*
X101888517Y-125435591D01*
X101888516Y-125435591D01*
X101895444Y-125436335D01*
X101948127Y-125442000D01*
X103251872Y-125441999D01*
X103311483Y-125435591D01*
X103446331Y-125385296D01*
X103561546Y-125299046D01*
X103647796Y-125183831D01*
X103698091Y-125048983D01*
X103704500Y-124989373D01*
X103704499Y-123685628D01*
X103698091Y-123626017D01*
X103690584Y-123605891D01*
X103647797Y-123491171D01*
X103647793Y-123491164D01*
X103588389Y-123411811D01*
X103563971Y-123346347D01*
X103578822Y-123278074D01*
X103588389Y-123263189D01*
X103647793Y-123183835D01*
X103647792Y-123183835D01*
X103647796Y-123183831D01*
X103698091Y-123048983D01*
X103704500Y-122989373D01*
X103704499Y-121685628D01*
X103698091Y-121626017D01*
X103647796Y-121491169D01*
X103647795Y-121491168D01*
X103647793Y-121491164D01*
X103561547Y-121375955D01*
X103561544Y-121375952D01*
X103446335Y-121289706D01*
X103446328Y-121289702D01*
X103311482Y-121239408D01*
X103311483Y-121239408D01*
X103260961Y-121233976D01*
X103260951Y-121233976D01*
X103251873Y-121233000D01*
X103251864Y-121233000D01*
X101948129Y-121233000D01*
X101948123Y-121233001D01*
X101888516Y-121239408D01*
X101753671Y-121289702D01*
X101753664Y-121289706D01*
X101638455Y-121375952D01*
X101638452Y-121375955D01*
X101552206Y-121491164D01*
X101552202Y-121491171D01*
X101501908Y-121626017D01*
X101498255Y-121660000D01*
X101495501Y-121685623D01*
X101495500Y-121685635D01*
X100587995Y-121685635D01*
X100597486Y-121650213D01*
X100597486Y-121650212D01*
X100642062Y-121483851D01*
X100674999Y-121233678D01*
X100675000Y-121233664D01*
X100675000Y-121115552D01*
X108840000Y-121115552D01*
X108840000Y-121660000D01*
X109740000Y-121660000D01*
X109740000Y-122160000D01*
X108840000Y-122160000D01*
X108840000Y-122704447D01*
X108869548Y-122891002D01*
X108927914Y-123070637D01*
X109013670Y-123238940D01*
X109124685Y-123391741D01*
X109124689Y-123391746D01*
X109258253Y-123525310D01*
X109258258Y-123525314D01*
X109411059Y-123636329D01*
X109579362Y-123722085D01*
X109758997Y-123780451D01*
X109790000Y-123785362D01*
X109790000Y-122876988D01*
X109799940Y-122894205D01*
X109855795Y-122950060D01*
X109924204Y-122989556D01*
X110000504Y-123010000D01*
X110079496Y-123010000D01*
X110155796Y-122989556D01*
X110224205Y-122950060D01*
X110280060Y-122894205D01*
X110290000Y-122876988D01*
X110290000Y-123785361D01*
X110321002Y-123780451D01*
X110500637Y-123722085D01*
X110668940Y-123636329D01*
X110821741Y-123525314D01*
X110821746Y-123525310D01*
X110955310Y-123391746D01*
X110955314Y-123391741D01*
X111066329Y-123238940D01*
X111152085Y-123070637D01*
X111210451Y-122891002D01*
X111240000Y-122704447D01*
X111240000Y-122160000D01*
X110340000Y-122160000D01*
X110340000Y-121660000D01*
X111240000Y-121660000D01*
X111240000Y-121115552D01*
X125340000Y-121115552D01*
X125340000Y-121660000D01*
X126240000Y-121660000D01*
X126240000Y-122160000D01*
X125340000Y-122160000D01*
X125340000Y-122704447D01*
X125369548Y-122891002D01*
X125427914Y-123070637D01*
X125513670Y-123238940D01*
X125624685Y-123391741D01*
X125624689Y-123391746D01*
X125758253Y-123525310D01*
X125758258Y-123525314D01*
X125911059Y-123636329D01*
X126079362Y-123722085D01*
X126258997Y-123780451D01*
X126290000Y-123785362D01*
X126290000Y-122876988D01*
X126299940Y-122894205D01*
X126355795Y-122950060D01*
X126424204Y-122989556D01*
X126500504Y-123010000D01*
X126579496Y-123010000D01*
X126655796Y-122989556D01*
X126724205Y-122950060D01*
X126780060Y-122894205D01*
X126790000Y-122876988D01*
X126790000Y-123785361D01*
X126821002Y-123780451D01*
X127000637Y-123722085D01*
X127168940Y-123636329D01*
X127321741Y-123525314D01*
X127321746Y-123525310D01*
X127455310Y-123391746D01*
X127455314Y-123391741D01*
X127566329Y-123238940D01*
X127652085Y-123070637D01*
X127710451Y-122891002D01*
X127740000Y-122704447D01*
X127740000Y-122160000D01*
X126840000Y-122160000D01*
X126840000Y-121660000D01*
X127740000Y-121660000D01*
X127740000Y-121115552D01*
X127710451Y-120928997D01*
X127652085Y-120749362D01*
X127566329Y-120581059D01*
X127455314Y-120428258D01*
X127455310Y-120428253D01*
X127321746Y-120294689D01*
X127321741Y-120294685D01*
X127168940Y-120183670D01*
X127000635Y-120097913D01*
X126821004Y-120039549D01*
X126820995Y-120039547D01*
X126790000Y-120034637D01*
X126790000Y-120943011D01*
X126780060Y-120925795D01*
X126724205Y-120869940D01*
X126655796Y-120830444D01*
X126579496Y-120810000D01*
X126500504Y-120810000D01*
X126424204Y-120830444D01*
X126355795Y-120869940D01*
X126299940Y-120925795D01*
X126290000Y-120943011D01*
X126290000Y-120034637D01*
X126289999Y-120034637D01*
X126259004Y-120039547D01*
X126258995Y-120039549D01*
X126079364Y-120097913D01*
X125911059Y-120183670D01*
X125758258Y-120294685D01*
X125758253Y-120294689D01*
X125624689Y-120428253D01*
X125624685Y-120428258D01*
X125513670Y-120581059D01*
X125427914Y-120749362D01*
X125369548Y-120928997D01*
X125340000Y-121115552D01*
X111240000Y-121115552D01*
X111210451Y-120928997D01*
X111152085Y-120749362D01*
X111066329Y-120581059D01*
X110955314Y-120428258D01*
X110955310Y-120428253D01*
X110821746Y-120294689D01*
X110821741Y-120294685D01*
X110668940Y-120183670D01*
X110500635Y-120097913D01*
X110321004Y-120039549D01*
X110320995Y-120039547D01*
X110290000Y-120034637D01*
X110290000Y-120943011D01*
X110280060Y-120925795D01*
X110224205Y-120869940D01*
X110155796Y-120830444D01*
X110079496Y-120810000D01*
X110000504Y-120810000D01*
X109924204Y-120830444D01*
X109855795Y-120869940D01*
X109799940Y-120925795D01*
X109790000Y-120943011D01*
X109790000Y-120034637D01*
X109789999Y-120034637D01*
X109759004Y-120039547D01*
X109758995Y-120039549D01*
X109579364Y-120097913D01*
X109411059Y-120183670D01*
X109258258Y-120294685D01*
X109258253Y-120294689D01*
X109124689Y-120428253D01*
X109124685Y-120428258D01*
X109013670Y-120581059D01*
X108927914Y-120749362D01*
X108869548Y-120928997D01*
X108840000Y-121115552D01*
X100675000Y-121115552D01*
X100675000Y-120981335D01*
X100674999Y-120981321D01*
X100642061Y-120731146D01*
X100576751Y-120487402D01*
X100480189Y-120254279D01*
X100480182Y-120254264D01*
X100354013Y-120035733D01*
X100276429Y-119934623D01*
X100276428Y-119934623D01*
X99576524Y-120634526D01*
X99487913Y-120501910D01*
X99355590Y-120369587D01*
X99222971Y-120280973D01*
X99922875Y-119581070D01*
X99922875Y-119581069D01*
X99821766Y-119503486D01*
X99603235Y-119377317D01*
X99603220Y-119377310D01*
X99370097Y-119280748D01*
X99126353Y-119215438D01*
X98876178Y-119182500D01*
X98623821Y-119182500D01*
X98373646Y-119215438D01*
X98129902Y-119280748D01*
X97896779Y-119377310D01*
X97896764Y-119377317D01*
X97678242Y-119503480D01*
X97678235Y-119503486D01*
X97577123Y-119581069D01*
X97577123Y-119581070D01*
X98277027Y-120280974D01*
X98144410Y-120369587D01*
X98012087Y-120501910D01*
X97923474Y-120634527D01*
X97223570Y-119934623D01*
X97223569Y-119934623D01*
X97145986Y-120035735D01*
X97145980Y-120035742D01*
X97019817Y-120254264D01*
X97019810Y-120254279D01*
X96923248Y-120487402D01*
X96857938Y-120731146D01*
X96825000Y-120981321D01*
X95675499Y-120981321D01*
X95675499Y-119634628D01*
X95674713Y-119627319D01*
X95669091Y-119575016D01*
X95618797Y-119440171D01*
X95618793Y-119440164D01*
X95532547Y-119324955D01*
X95532544Y-119324952D01*
X95417335Y-119238706D01*
X95417328Y-119238702D01*
X95282482Y-119188408D01*
X95282483Y-119188408D01*
X95222883Y-119182001D01*
X95222881Y-119182000D01*
X95222873Y-119182000D01*
X95222864Y-119182000D01*
X92277129Y-119182000D01*
X92277123Y-119182001D01*
X92217516Y-119188408D01*
X92082671Y-119238702D01*
X92082664Y-119238706D01*
X91967455Y-119324952D01*
X91967452Y-119324955D01*
X91881206Y-119440164D01*
X91881202Y-119440171D01*
X91830908Y-119575017D01*
X91824501Y-119634616D01*
X91824500Y-119634635D01*
X89410500Y-119634635D01*
X89410500Y-117663920D01*
X113529499Y-117663920D01*
X113558340Y-117808907D01*
X113558343Y-117808917D01*
X113614912Y-117945488D01*
X113614919Y-117945501D01*
X113697048Y-118068415D01*
X113697051Y-118068419D01*
X113801580Y-118172948D01*
X113801584Y-118172951D01*
X113924498Y-118255080D01*
X113924511Y-118255087D01*
X114061082Y-118311656D01*
X114061087Y-118311658D01*
X114061091Y-118311658D01*
X114061092Y-118311659D01*
X114206079Y-118340500D01*
X114206082Y-118340500D01*
X114353920Y-118340500D01*
X114477125Y-118315992D01*
X114498913Y-118311658D01*
X114635495Y-118255084D01*
X114758416Y-118172951D01*
X114862951Y-118068416D01*
X114945084Y-117945495D01*
X115001658Y-117808913D01*
X115030500Y-117663918D01*
X115030500Y-117516082D01*
X115030500Y-117516079D01*
X115001659Y-117371092D01*
X115001658Y-117371091D01*
X115001658Y-117371087D01*
X114947153Y-117239500D01*
X114945087Y-117234511D01*
X114945080Y-117234498D01*
X114862951Y-117111584D01*
X114862948Y-117111580D01*
X114758419Y-117007051D01*
X114758415Y-117007048D01*
X114635501Y-116924919D01*
X114635488Y-116924912D01*
X114498917Y-116868343D01*
X114498907Y-116868340D01*
X114353920Y-116839500D01*
X114353918Y-116839500D01*
X114206082Y-116839500D01*
X114206080Y-116839500D01*
X114061092Y-116868340D01*
X114061082Y-116868343D01*
X113924511Y-116924912D01*
X113924498Y-116924919D01*
X113801584Y-117007048D01*
X113801580Y-117007051D01*
X113697051Y-117111580D01*
X113697048Y-117111584D01*
X113614919Y-117234498D01*
X113614912Y-117234511D01*
X113558343Y-117371082D01*
X113558340Y-117371092D01*
X113529500Y-117516079D01*
X113529500Y-117516082D01*
X113529500Y-117663918D01*
X113529500Y-117663920D01*
X113529499Y-117663920D01*
X89410500Y-117663920D01*
X89410500Y-106793920D01*
X104779499Y-106793920D01*
X104808340Y-106938907D01*
X104808343Y-106938917D01*
X104864912Y-107075488D01*
X104864919Y-107075501D01*
X104947048Y-107198415D01*
X104947051Y-107198419D01*
X105051580Y-107302948D01*
X105051584Y-107302951D01*
X105174498Y-107385080D01*
X105174511Y-107385087D01*
X105311082Y-107441656D01*
X105311087Y-107441658D01*
X105311091Y-107441658D01*
X105311092Y-107441659D01*
X105456079Y-107470500D01*
X105456082Y-107470500D01*
X105603920Y-107470500D01*
X105701462Y-107451096D01*
X105748913Y-107441658D01*
X105885495Y-107385084D01*
X106008416Y-107302951D01*
X106112951Y-107198416D01*
X106195084Y-107075495D01*
X106251658Y-106938913D01*
X106280500Y-106793918D01*
X106280500Y-106646082D01*
X106280500Y-106646079D01*
X106251659Y-106501092D01*
X106251658Y-106501091D01*
X106251658Y-106501087D01*
X106214136Y-106410500D01*
X106195087Y-106364511D01*
X106195080Y-106364498D01*
X106112951Y-106241584D01*
X106112948Y-106241580D01*
X106008419Y-106137051D01*
X106008415Y-106137048D01*
X105885501Y-106054919D01*
X105885488Y-106054912D01*
X105748917Y-105998343D01*
X105748907Y-105998340D01*
X105603920Y-105969500D01*
X105603918Y-105969500D01*
X105456082Y-105969500D01*
X105456080Y-105969500D01*
X105311092Y-105998340D01*
X105311082Y-105998343D01*
X105174511Y-106054912D01*
X105174498Y-106054919D01*
X105051584Y-106137048D01*
X105051580Y-106137051D01*
X104947051Y-106241580D01*
X104947048Y-106241584D01*
X104864919Y-106364498D01*
X104864912Y-106364511D01*
X104808343Y-106501082D01*
X104808340Y-106501092D01*
X104779500Y-106646079D01*
X104779500Y-106646082D01*
X104779500Y-106793918D01*
X104779500Y-106793920D01*
X104779499Y-106793920D01*
X89410500Y-106793920D01*
X89410500Y-105733920D01*
X101009499Y-105733920D01*
X101038340Y-105878907D01*
X101038343Y-105878917D01*
X101094912Y-106015488D01*
X101094919Y-106015501D01*
X101177048Y-106138415D01*
X101177051Y-106138419D01*
X101281580Y-106242948D01*
X101281584Y-106242951D01*
X101404498Y-106325080D01*
X101404511Y-106325087D01*
X101499690Y-106364511D01*
X101541087Y-106381658D01*
X101541091Y-106381658D01*
X101541092Y-106381659D01*
X101686079Y-106410500D01*
X101686082Y-106410500D01*
X101833920Y-106410500D01*
X101931462Y-106391096D01*
X101978913Y-106381658D01*
X102115495Y-106325084D01*
X102238416Y-106242951D01*
X102342951Y-106138416D01*
X102425084Y-106015495D01*
X102481658Y-105878913D01*
X102510500Y-105733918D01*
X102510500Y-105586082D01*
X102510500Y-105586079D01*
X102481659Y-105441092D01*
X102481658Y-105441091D01*
X102481658Y-105441087D01*
X102433126Y-105323920D01*
X108939499Y-105323920D01*
X108968340Y-105468907D01*
X108968343Y-105468917D01*
X109024912Y-105605488D01*
X109024919Y-105605501D01*
X109107048Y-105728415D01*
X109107051Y-105728419D01*
X109211580Y-105832948D01*
X109211584Y-105832951D01*
X109334498Y-105915080D01*
X109334511Y-105915087D01*
X109465877Y-105969500D01*
X109471087Y-105971658D01*
X109471091Y-105971658D01*
X109471092Y-105971659D01*
X109616079Y-106000500D01*
X109616082Y-106000500D01*
X109763920Y-106000500D01*
X109861462Y-105981096D01*
X109908913Y-105971658D01*
X110045495Y-105915084D01*
X110168416Y-105832951D01*
X110272951Y-105728416D01*
X110355084Y-105605495D01*
X110411658Y-105468913D01*
X110440500Y-105323918D01*
X110440500Y-105176082D01*
X110440500Y-105176079D01*
X110411659Y-105031092D01*
X110411658Y-105031091D01*
X110411658Y-105031087D01*
X110411656Y-105031082D01*
X110355087Y-104894511D01*
X110355080Y-104894498D01*
X110272951Y-104771584D01*
X110272948Y-104771580D01*
X110168419Y-104667051D01*
X110168415Y-104667048D01*
X110045501Y-104584919D01*
X110045488Y-104584912D01*
X109908917Y-104528343D01*
X109908907Y-104528340D01*
X109763920Y-104499500D01*
X109763918Y-104499500D01*
X109616082Y-104499500D01*
X109616080Y-104499500D01*
X109471092Y-104528340D01*
X109471082Y-104528343D01*
X109334511Y-104584912D01*
X109334498Y-104584919D01*
X109211584Y-104667048D01*
X109211580Y-104667051D01*
X109107051Y-104771580D01*
X109107048Y-104771584D01*
X109024919Y-104894498D01*
X109024912Y-104894511D01*
X108968343Y-105031082D01*
X108968340Y-105031092D01*
X108939500Y-105176079D01*
X108939500Y-105176082D01*
X108939500Y-105323918D01*
X108939500Y-105323920D01*
X108939499Y-105323920D01*
X102433126Y-105323920D01*
X102425087Y-105304511D01*
X102425080Y-105304498D01*
X102342951Y-105181584D01*
X102342948Y-105181580D01*
X102238419Y-105077051D01*
X102238415Y-105077048D01*
X102115501Y-104994919D01*
X102115488Y-104994912D01*
X101978917Y-104938343D01*
X101978907Y-104938340D01*
X101833920Y-104909500D01*
X101833918Y-104909500D01*
X101686082Y-104909500D01*
X101686080Y-104909500D01*
X101541092Y-104938340D01*
X101541082Y-104938343D01*
X101404511Y-104994912D01*
X101404498Y-104994919D01*
X101281584Y-105077048D01*
X101281580Y-105077051D01*
X101177051Y-105181580D01*
X101177048Y-105181584D01*
X101094919Y-105304498D01*
X101094912Y-105304511D01*
X101038343Y-105441082D01*
X101038340Y-105441092D01*
X101009500Y-105586079D01*
X101009500Y-105586082D01*
X101009500Y-105733918D01*
X101009500Y-105733920D01*
X101009499Y-105733920D01*
X89410500Y-105733920D01*
X89410500Y-104403920D01*
X102719499Y-104403920D01*
X102748340Y-104548907D01*
X102748343Y-104548917D01*
X102804912Y-104685488D01*
X102804919Y-104685501D01*
X102887048Y-104808415D01*
X102887051Y-104808419D01*
X102991580Y-104912948D01*
X102991584Y-104912951D01*
X103114498Y-104995080D01*
X103114511Y-104995087D01*
X103201424Y-105031087D01*
X103251087Y-105051658D01*
X103251091Y-105051658D01*
X103251092Y-105051659D01*
X103396079Y-105080500D01*
X103396082Y-105080500D01*
X103543920Y-105080500D01*
X103601916Y-105068963D01*
X103688913Y-105051658D01*
X103825495Y-104995084D01*
X103948416Y-104912951D01*
X104052951Y-104808416D01*
X104135084Y-104685495D01*
X104191658Y-104548913D01*
X104220500Y-104403918D01*
X104220500Y-104256082D01*
X104220500Y-104256079D01*
X104191659Y-104111092D01*
X104191658Y-104111091D01*
X104191658Y-104111087D01*
X104171455Y-104062312D01*
X104135087Y-103974511D01*
X104135080Y-103974498D01*
X104052951Y-103851584D01*
X104052948Y-103851580D01*
X103948419Y-103747051D01*
X103948415Y-103747048D01*
X103825501Y-103664919D01*
X103825488Y-103664912D01*
X103688917Y-103608343D01*
X103688907Y-103608340D01*
X103543920Y-103579500D01*
X103543918Y-103579500D01*
X103396082Y-103579500D01*
X103396080Y-103579500D01*
X103251092Y-103608340D01*
X103251082Y-103608343D01*
X103114511Y-103664912D01*
X103114498Y-103664919D01*
X102991584Y-103747048D01*
X102991580Y-103747051D01*
X102887051Y-103851580D01*
X102887048Y-103851584D01*
X102804919Y-103974498D01*
X102804912Y-103974511D01*
X102748343Y-104111082D01*
X102748340Y-104111092D01*
X102719500Y-104256079D01*
X102719500Y-104256082D01*
X102719500Y-104403918D01*
X102719500Y-104403920D01*
X102719499Y-104403920D01*
X89410500Y-104403920D01*
X89410500Y-97496961D01*
X89411280Y-97483077D01*
X89416958Y-97432686D01*
X89421459Y-97392731D01*
X89427635Y-97365670D01*
X89455353Y-97286456D01*
X89467396Y-97261450D01*
X89512046Y-97190389D01*
X89529351Y-97168690D01*
X89588690Y-97109351D01*
X89610389Y-97092046D01*
X89681450Y-97047396D01*
X89706456Y-97035353D01*
X89785670Y-97007635D01*
X89812733Y-97001459D01*
X89875419Y-96994396D01*
X89903079Y-96991280D01*
X89916962Y-96990500D01*
X89975892Y-96990500D01*
X128214186Y-96990500D01*
X128214193Y-96990502D01*
G37*
%TD.AperFunction*%
%TD*%
M02*
