%TF.GenerationSoftware,KiCad,Pcbnew,9.0.6*%
%TF.CreationDate,2026-03-05T08:52:22-05:00*%
%TF.ProjectId,combined,636f6d62-696e-4656-942e-6b696361645f,rev?*%
%TF.SameCoordinates,Original*%
%TF.FileFunction,Soldermask,Bot*%
%TF.FilePolarity,Negative*%
%FSLAX46Y46*%
G04 Gerber Fmt 4.6, Leading zero omitted, Abs format (unit mm)*
G04 Created by KiCad (PCBNEW 9.0.6) date 2026-03-05 08:52:22*
%MOMM*%
%LPD*%
G01*
G04 APERTURE LIST*
G04 Aperture macros list*
%AMRoundRect*
0 Rectangle with rounded corners*
0 $1 Rounding radius*
0 $2 $3 $4 $5 $6 $7 $8 $9 X,Y pos of 4 corners*
0 Add a 4 corners polygon primitive as box body*
4,1,4,$2,$3,$4,$5,$6,$7,$8,$9,$2,$3,0*
0 Add four circle primitives for the rounded corners*
1,1,$1+$1,$2,$3*
1,1,$1+$1,$4,$5*
1,1,$1+$1,$6,$7*
1,1,$1+$1,$8,$9*
0 Add four rect primitives between the rounded corners*
20,1,$1+$1,$2,$3,$4,$5,0*
20,1,$1+$1,$4,$5,$6,$7,0*
20,1,$1+$1,$6,$7,$8,$9,0*
20,1,$1+$1,$8,$9,$2,$3,0*%
G04 Aperture macros list end*
%ADD10C,1.400000*%
%ADD11O,1.552400X2.952400*%
%ADD12O,1.352400X2.552400*%
%ADD13C,0.500000*%
%ADD14C,3.054000*%
%ADD15RoundRect,0.102000X-1.425000X-1.425000X1.425000X-1.425000X1.425000X1.425000X-1.425000X1.425000X0*%
%ADD16RoundRect,0.102000X-0.604000X-0.604000X0.604000X-0.604000X0.604000X0.604000X-0.604000X0.604000X0*%
%ADD17C,2.600000*%
%ADD18C,3.800000*%
G04 APERTURE END LIST*
D10*
%TO.C,J1*%
X118290000Y-129590000D03*
D11*
X110040000Y-121910000D03*
X126540000Y-121910000D03*
D12*
X110040000Y-128690000D03*
X126540000Y-128690000D03*
%TD*%
D13*
%TO.C,REF\u002A\u002A*%
X129030000Y-103540000D03*
X131530000Y-103540000D03*
X129030000Y-102690000D03*
X131530000Y-102690000D03*
X129030000Y-101840000D03*
X131530000Y-101840000D03*
X129030000Y-100990000D03*
X131530000Y-100990000D03*
X129030000Y-100140000D03*
X131530000Y-100140000D03*
X129030000Y-99290000D03*
X131530000Y-99290000D03*
X129030000Y-98440000D03*
X131530000Y-98440000D03*
%TD*%
D14*
%TO.C,J2*%
X98750000Y-121107500D03*
D15*
X93750000Y-121107500D03*
D16*
X102600000Y-124337500D03*
X102600000Y-122337500D03*
%TD*%
D13*
%TO.C,REF\u002A\u002A*%
X129030000Y-123540000D03*
X131530000Y-123540000D03*
X129030000Y-122690000D03*
X131530000Y-122690000D03*
X129030000Y-121840000D03*
X131530000Y-121840000D03*
X129030000Y-120990000D03*
X131530000Y-120990000D03*
X129030000Y-120140000D03*
X131530000Y-120140000D03*
X129030000Y-119290000D03*
X131530000Y-119290000D03*
X129030000Y-118440000D03*
X131530000Y-118440000D03*
%TD*%
D17*
%TO.C,H2*%
X165445678Y-107463696D03*
D18*
X165445678Y-107463696D03*
%TD*%
D17*
%TO.C,H1*%
X96300000Y-113280000D03*
D18*
X96300000Y-113280000D03*
%TD*%
D17*
%TO.C,H1*%
X135265678Y-107443696D03*
D18*
X135265678Y-107443696D03*
%TD*%
D10*
%TO.C,J4*%
X142025678Y-122836196D03*
D11*
X133775678Y-115156196D03*
X150275678Y-115156196D03*
D12*
X133775678Y-121936196D03*
X150275678Y-121936196D03*
%TD*%
D17*
%TO.C,H2*%
X126280000Y-113280000D03*
D18*
X126280000Y-113280000D03*
%TD*%
D14*
%TO.C,J5*%
X163075678Y-115413696D03*
D15*
X158075678Y-115413696D03*
D16*
X166925678Y-118643696D03*
X166925678Y-116643696D03*
%TD*%
M02*
