%TF.GenerationSoftware,KiCad,Pcbnew,9.0.7*%
%TF.CreationDate,2026-04-05T23:21:26-04:00*%
%TF.ProjectId,combined,636f6d62-696e-4656-942e-6b696361645f,rev?*%
%TF.SameCoordinates,Original*%
%TF.FileFunction,Legend,Bot*%
%TF.FilePolarity,Positive*%
%FSLAX46Y46*%
G04 Gerber Fmt 4.6, Leading zero omitted, Abs format (unit mm)*
G04 Created by KiCad (PCBNEW 9.0.7) date 2026-04-05 23:21:26*
%MOMM*%
%LPD*%
G01*
G04 APERTURE LIST*
G04 Aperture macros list*
%AMRoundRect*
0 Rectangle with rounded corners*
0 $1 Rounding radius*
0 $2 $3 $4 $5 $6 $7 $8 $9 X,Y pos of 4 corners*
0 Add a 4 corners polygon primitive as box body*
4,1,4,$2,$3,$4,$5,$6,$7,$8,$9,$2,$3,0*
0 Add four circle primitives for the rounded corners*
1,1,$1+$1,$2,$3*
1,1,$1+$1,$4,$5*
1,1,$1+$1,$6,$7*
1,1,$1+$1,$8,$9*
0 Add four rect primitives between the rounded corners*
20,1,$1+$1,$2,$3,$4,$5,0*
20,1,$1+$1,$4,$5,$6,$7,0*
20,1,$1+$1,$6,$7,$8,$9,0*
20,1,$1+$1,$8,$9,$2,$3,0*%
G04 Aperture macros list end*
%ADD10C,0.152400*%
%ADD11C,1.400000*%
%ADD12O,1.552400X2.952400*%
%ADD13O,1.352400X2.552400*%
%ADD14C,0.500000*%
%ADD15C,3.054000*%
%ADD16RoundRect,0.102000X-1.425000X-1.425000X1.425000X-1.425000X1.425000X1.425000X-1.425000X1.425000X0*%
%ADD17RoundRect,0.102000X-0.604000X-0.604000X0.604000X-0.604000X0.604000X0.604000X-0.604000X0.604000X0*%
%ADD18C,2.600000*%
%ADD19C,3.800000*%
G04 APERTURE END LIST*
D10*
X128043070Y-132192075D02*
X128138308Y-132239694D01*
X128138308Y-132239694D02*
X128328784Y-132239694D01*
X128328784Y-132239694D02*
X128424022Y-132192075D01*
X128424022Y-132192075D02*
X128471641Y-132144455D01*
X128471641Y-132144455D02*
X128519260Y-132049217D01*
X128519260Y-132049217D02*
X128519260Y-131763503D01*
X128519260Y-131763503D02*
X128471641Y-131668265D01*
X128471641Y-131668265D02*
X128424022Y-131620646D01*
X128424022Y-131620646D02*
X128328784Y-131573027D01*
X128328784Y-131573027D02*
X128138308Y-131573027D01*
X128138308Y-131573027D02*
X128043070Y-131620646D01*
X127614498Y-132239694D02*
X127614498Y-131239694D01*
X127185927Y-132239694D02*
X127185927Y-131715884D01*
X127185927Y-131715884D02*
X127233546Y-131620646D01*
X127233546Y-131620646D02*
X127328784Y-131573027D01*
X127328784Y-131573027D02*
X127471641Y-131573027D01*
X127471641Y-131573027D02*
X127566879Y-131620646D01*
X127566879Y-131620646D02*
X127614498Y-131668265D01*
X126709736Y-132239694D02*
X126709736Y-131573027D01*
X126709736Y-131239694D02*
X126757355Y-131287313D01*
X126757355Y-131287313D02*
X126709736Y-131334932D01*
X126709736Y-131334932D02*
X126662117Y-131287313D01*
X126662117Y-131287313D02*
X126709736Y-131239694D01*
X126709736Y-131239694D02*
X126709736Y-131334932D01*
X126233546Y-131573027D02*
X126233546Y-132239694D01*
X126233546Y-131668265D02*
X126185927Y-131620646D01*
X126185927Y-131620646D02*
X126090689Y-131573027D01*
X126090689Y-131573027D02*
X125947832Y-131573027D01*
X125947832Y-131573027D02*
X125852594Y-131620646D01*
X125852594Y-131620646D02*
X125804975Y-131715884D01*
X125804975Y-131715884D02*
X125804975Y-132239694D01*
X125328784Y-132239694D02*
X125328784Y-131239694D01*
X124900213Y-132239694D02*
X124900213Y-131715884D01*
X124900213Y-131715884D02*
X124947832Y-131620646D01*
X124947832Y-131620646D02*
X125043070Y-131573027D01*
X125043070Y-131573027D02*
X125185927Y-131573027D01*
X125185927Y-131573027D02*
X125281165Y-131620646D01*
X125281165Y-131620646D02*
X125328784Y-131668265D01*
X123995451Y-131573027D02*
X123995451Y-132239694D01*
X124233546Y-131192075D02*
X124471641Y-131906360D01*
X124471641Y-131906360D02*
X123852594Y-131906360D01*
X169928748Y-125335771D02*
X170023986Y-125383390D01*
X170023986Y-125383390D02*
X170214462Y-125383390D01*
X170214462Y-125383390D02*
X170309700Y-125335771D01*
X170309700Y-125335771D02*
X170357319Y-125288151D01*
X170357319Y-125288151D02*
X170404938Y-125192913D01*
X170404938Y-125192913D02*
X170404938Y-124907199D01*
X170404938Y-124907199D02*
X170357319Y-124811961D01*
X170357319Y-124811961D02*
X170309700Y-124764342D01*
X170309700Y-124764342D02*
X170214462Y-124716723D01*
X170214462Y-124716723D02*
X170023986Y-124716723D01*
X170023986Y-124716723D02*
X169928748Y-124764342D01*
X169500176Y-125383390D02*
X169500176Y-124383390D01*
X169071605Y-125383390D02*
X169071605Y-124859580D01*
X169071605Y-124859580D02*
X169119224Y-124764342D01*
X169119224Y-124764342D02*
X169214462Y-124716723D01*
X169214462Y-124716723D02*
X169357319Y-124716723D01*
X169357319Y-124716723D02*
X169452557Y-124764342D01*
X169452557Y-124764342D02*
X169500176Y-124811961D01*
X168595414Y-125383390D02*
X168595414Y-124716723D01*
X168595414Y-124383390D02*
X168643033Y-124431009D01*
X168643033Y-124431009D02*
X168595414Y-124478628D01*
X168595414Y-124478628D02*
X168547795Y-124431009D01*
X168547795Y-124431009D02*
X168595414Y-124383390D01*
X168595414Y-124383390D02*
X168595414Y-124478628D01*
X168119224Y-124716723D02*
X168119224Y-125383390D01*
X168119224Y-124811961D02*
X168071605Y-124764342D01*
X168071605Y-124764342D02*
X167976367Y-124716723D01*
X167976367Y-124716723D02*
X167833510Y-124716723D01*
X167833510Y-124716723D02*
X167738272Y-124764342D01*
X167738272Y-124764342D02*
X167690653Y-124859580D01*
X167690653Y-124859580D02*
X167690653Y-125383390D01*
X167214462Y-125383390D02*
X167214462Y-124383390D01*
X166785891Y-125383390D02*
X166785891Y-124859580D01*
X166785891Y-124859580D02*
X166833510Y-124764342D01*
X166833510Y-124764342D02*
X166928748Y-124716723D01*
X166928748Y-124716723D02*
X167071605Y-124716723D01*
X167071605Y-124716723D02*
X167166843Y-124764342D01*
X167166843Y-124764342D02*
X167214462Y-124811961D01*
X165881129Y-124716723D02*
X165881129Y-125383390D01*
X166119224Y-124335771D02*
X166357319Y-125050056D01*
X166357319Y-125050056D02*
X165738272Y-125050056D01*
%LPC*%
D11*
%TO.C,J1*%
X118290000Y-129590000D03*
D12*
X110040000Y-121910000D03*
X126540000Y-121910000D03*
D13*
X110040000Y-128690000D03*
X126540000Y-128690000D03*
%TD*%
D14*
%TO.C,REF\u002A\u002A*%
X129030000Y-103540000D03*
X131530000Y-103540000D03*
X129030000Y-102690000D03*
X131530000Y-102690000D03*
X129030000Y-101840000D03*
X131530000Y-101840000D03*
X129030000Y-100990000D03*
X131530000Y-100990000D03*
X129030000Y-100140000D03*
X131530000Y-100140000D03*
X129030000Y-99290000D03*
X131530000Y-99290000D03*
X129030000Y-98440000D03*
X131530000Y-98440000D03*
%TD*%
D15*
%TO.C,J2*%
X98750000Y-121107500D03*
D16*
X93750000Y-121107500D03*
D17*
X102600000Y-124337500D03*
X102600000Y-122337500D03*
%TD*%
D14*
%TO.C,REF\u002A\u002A*%
X129030000Y-123540000D03*
X131530000Y-123540000D03*
X129030000Y-122690000D03*
X131530000Y-122690000D03*
X129030000Y-121840000D03*
X131530000Y-121840000D03*
X129030000Y-120990000D03*
X131530000Y-120990000D03*
X129030000Y-120140000D03*
X131530000Y-120140000D03*
X129030000Y-119290000D03*
X131530000Y-119290000D03*
X129030000Y-118440000D03*
X131530000Y-118440000D03*
%TD*%
D18*
%TO.C,H2*%
X165445678Y-107463696D03*
D19*
X165445678Y-107463696D03*
%TD*%
D18*
%TO.C,H1*%
X96300000Y-113280000D03*
D19*
X96300000Y-113280000D03*
%TD*%
D18*
%TO.C,H1*%
X135265678Y-107443696D03*
D19*
X135265678Y-107443696D03*
%TD*%
D11*
%TO.C,J4*%
X142025678Y-122836196D03*
D12*
X133775678Y-115156196D03*
X150275678Y-115156196D03*
D13*
X133775678Y-121936196D03*
X150275678Y-121936196D03*
%TD*%
D18*
%TO.C,H2*%
X126280000Y-113280000D03*
D19*
X126280000Y-113280000D03*
%TD*%
D15*
%TO.C,J5*%
X163075678Y-115413696D03*
D16*
X158075678Y-115413696D03*
D17*
X166925678Y-118643696D03*
X166925678Y-116643696D03*
%TD*%
%LPD*%
M02*
